<svg viewBox="0 0 330 200" xmlns="http://www.w3.org/2000/svg"><g><g><g><g><g><line x1="61.90000057220459" y1="177.95999908447266" x2="56.90000057220459" y2="177.95999908447266" style="visibility: inherit;" fill="rgb(0, 0, 0)" stroke="rgb(204, 204, 204)" stroke-width="1px"></line><line x1="61.90000057220459" y1="155.71499919891357" x2="56.90000057220459" y2="155.71499919891357" style="visibility: inherit;" fill="rgb(0, 0, 0)" stroke="rgb(204, 204, 204)" stroke-width="1px"></line><line x1="61.90000057220459" y1="133.4699993133545" x2="56.90000057220459" y2="133.4699993133545" style="visibility: inherit;" fill="rgb(0, 0, 0)" stroke="rgb(204, 204, 204)" stroke-width="1px"></line><line x1="61.90000057220459" y1="111.22499942779541" x2="56.90000057220459" y2="111.22499942779541" style="visibility: inherit;" fill="rgb(0, 0, 0)" stroke="rgb(204, 204, 204)" stroke-width="1px"></line><line x1="61.90000057220459" y1="88.97999954223633" x2="56.90000057220459" y2="88.97999954223633" style="visibility: inherit;" fill="rgb(0, 0, 0)" stroke="rgb(204, 204, 204)" stroke-width="1px"></line><line x1="61.90000057220459" y1="66.73499965667725" x2="56.90000057220459" y2="66.73499965667725" style="visibility: inherit;" fill="rgb(0, 0, 0)" stroke="rgb(204, 204, 204)" stroke-width="1px"></line><line x1="61.90000057220459" y1="44.489999771118164" x2="56.90000057220459" y2="44.489999771118164" style="visibility: inherit;" fill="rgb(0, 0, 0)" stroke="rgb(204, 204, 204)" stroke-width="1px"></line><line x1="61.90000057220459" y1="22.24499988555911" x2="56.90000057220459" y2="22.24499988555911" style="visibility: inherit;" fill="rgb(0, 0, 0)" stroke="rgb(204, 204, 204)" stroke-width="1px"></line><line x1="61.90000057220459" y1="0" x2="56.90000057220459" y2="0" style="visibility: inherit;" fill="rgb(0, 0, 0)" stroke="rgb(204, 204, 204)" stroke-width="1px"></line></g><g transform="translate(51.90000057220459, 0)"><text style="text-anchor: end; visibility: hidden; font-family: &quot;Helvetica Neue&quot;, sans-serif; font-size: 12px; font-weight: 200;" x="0" y="177.95999908447266" dx="0em" dy="0.3em" fill="rgb(50, 49, 63)" stroke="none" stroke-width="1px">-0.02</text><text style="text-anchor: end; visibility: inherit; font-family: &quot;Helvetica Neue&quot;, sans-serif; font-size: 12px; font-weight: 200;" x="0" y="155.71499919891357" dx="0em" dy="0.3em" fill="rgb(50, 49, 63)" stroke="none" stroke-width="1px">0</text><text style="text-anchor: end; visibility: hidden; font-family: &quot;Helvetica Neue&quot;, sans-serif; font-size: 12px; font-weight: 200;" x="0" y="133.4699993133545" dx="0em" dy="0.3em" fill="rgb(50, 49, 63)" stroke="none" stroke-width="1px">0.02</text><text style="text-anchor: end; visibility: inherit; font-family: &quot;Helvetica Neue&quot;, sans-serif; font-size: 12px; font-weight: 200;" x="0" y="111.22499942779541" dx="0em" dy="0.3em" fill="rgb(50, 49, 63)" stroke="none" stroke-width="1px">0.04</text><text style="text-anchor: end; visibility: hidden; font-family: &quot;Helvetica Neue&quot;, sans-serif; font-size: 12px; font-weight: 200;" x="0" y="88.97999954223633" dx="0em" dy="0.3em" fill="rgb(50, 49, 63)" stroke="none" stroke-width="1px">0.06</text><text style="text-anchor: end; visibility: inherit; font-family: &quot;Helvetica Neue&quot;, sans-serif; font-size: 12px; font-weight: 200;" x="0" y="66.73499965667725" dx="0em" dy="0.3em" fill="rgb(50, 49, 63)" stroke="none" stroke-width="1px">0.08</text><text style="text-anchor: end; visibility: hidden; font-family: &quot;Helvetica Neue&quot;, sans-serif; font-size: 12px; font-weight: 200;" x="0" y="44.489999771118164" dx="0em" dy="0.3em" fill="rgb(50, 49, 63)" stroke="none" stroke-width="1px">0.1</text><text style="text-anchor: end; visibility: inherit; font-family: &quot;Helvetica Neue&quot;, sans-serif; font-size: 12px; font-weight: 200;" x="0" y="22.24499988555911" dx="0em" dy="0.3em" fill="rgb(50, 49, 63)" stroke="none" stroke-width="1px">0.12</text><text style="text-anchor: end; visibility: hidden; font-family: &quot;Helvetica Neue&quot;, sans-serif; font-size: 12px; font-weight: 200;" x="0" y="0" dx="0em" dy="0.3em" fill="rgb(50, 49, 63)" stroke="none" stroke-width="1px">0.14</text></g><line x1="61.90000057220459" y1="0" x2="61.90000057220459" y2="177.95999908447266" fill="rgb(0, 0, 0)" stroke="rgb(204, 204, 204)" stroke-width="1px"></line></g></g><g transform="translate(61, 0)" clip-path="url(#clip_0)"><clipPath id="clip_0"><rect width="268" height="177"></rect></clipPath><g><g><g><line x1="0" y1="0" x2="0" y2="177.95999908447266" fill="rgb(0, 0, 0)" stroke="rgb(60, 60, 60)" stroke-width="1px" opacity="0.25"></line><line x1="22.34166661898295" y1="0" x2="22.34166661898295" y2="177.95999908447266" fill="rgb(0, 0, 0)" stroke="rgb(60, 60, 60)" stroke-width="1px" opacity="0.25"></line><line x1="44.6833332379659" y1="0" x2="44.6833332379659" y2="177.95999908447266" fill="rgb(0, 0, 0)" stroke="rgb(60, 60, 60)" stroke-width="1px" opacity="0.25"></line><line x1="67.02499985694885" y1="0" x2="67.02499985694885" y2="177.95999908447266" fill="rgb(0, 0, 0)" stroke="rgb(60, 60, 60)" stroke-width="1px" opacity="0.25"></line><line x1="89.3666664759318" y1="0" x2="89.3666664759318" y2="177.95999908447266" fill="rgb(0, 0, 0)" stroke="rgb(60, 60, 60)" stroke-width="1px" opacity="0.25"></line><line x1="111.70833309491476" y1="0" x2="111.70833309491476" y2="177.95999908447266" fill="rgb(0, 0, 0)" stroke="rgb(60, 60, 60)" stroke-width="1px" opacity="0.25"></line><line x1="134.0499997138977" y1="0" x2="134.0499997138977" y2="177.95999908447266" fill="rgb(0, 0, 0)" stroke="rgb(60, 60, 60)" stroke-width="1px" opacity="0.25"></line><line x1="156.39166633288067" y1="0" x2="156.39166633288067" y2="177.95999908447266" fill="rgb(0, 0, 0)" stroke="rgb(60, 60, 60)" stroke-width="1px" opacity="0.25"></line><line x1="178.7333329518636" y1="0" x2="178.7333329518636" y2="177.95999908447266" fill="rgb(0, 0, 0)" stroke="rgb(60, 60, 60)" stroke-width="1px" opacity="0.25"></line><line x1="201.07499957084656" y1="0" x2="201.07499957084656" y2="177.95999908447266" fill="rgb(0, 0, 0)" stroke="rgb(60, 60, 60)" stroke-width="1px" opacity="0.25"></line><line x1="223.41666618982953" y1="0" x2="223.41666618982953" y2="177.95999908447266" fill="rgb(0, 0, 0)" stroke="rgb(60, 60, 60)" stroke-width="1px" opacity="0.25"></line><line x1="245.75833280881244" y1="0" x2="245.75833280881244" y2="177.95999908447266" fill="rgb(0, 0, 0)" stroke="rgb(60, 60, 60)" stroke-width="1px" opacity="0.25"></line><line x1="268.0999994277954" y1="0" x2="268.0999994277954" y2="177.95999908447266" fill="rgb(0, 0, 0)" stroke="rgb(60, 60, 60)" stroke-width="1px" opacity="0.25"></line></g><g><line x1="0" y1="177.95999908447266" x2="268.0999994277954" y2="177.95999908447266" fill="rgb(0, 0, 0)" stroke="rgb(60, 60, 60)" stroke-width="1px" opacity="0.25"></line><line x1="0" y1="155.71499919891357" x2="268.0999994277954" y2="155.71499919891357" fill="rgb(0, 0, 0)" stroke="rgb(60, 60, 60)" stroke-width="1px" opacity="0.25"></line><line x1="0" y1="133.4699993133545" x2="268.0999994277954" y2="133.4699993133545" fill="rgb(0, 0, 0)" stroke="rgb(60, 60, 60)" stroke-width="1px" opacity="0.25"></line><line x1="0" y1="111.22499942779541" x2="268.0999994277954" y2="111.22499942779541" fill="rgb(0, 0, 0)" stroke="rgb(60, 60, 60)" stroke-width="1px" opacity="0.25"></line><line x1="0" y1="88.97999954223633" x2="268.0999994277954" y2="88.97999954223633" fill="rgb(0, 0, 0)" stroke="rgb(60, 60, 60)" stroke-width="1px" opacity="0.25"></line><line x1="0" y1="66.73499965667725" x2="268.0999994277954" y2="66.73499965667725" fill="rgb(0, 0, 0)" stroke="rgb(60, 60, 60)" stroke-width="1px" opacity="0.25"></line><line x1="0" y1="44.489999771118164" x2="268.0999994277954" y2="44.489999771118164" fill="rgb(0, 0, 0)" stroke="rgb(60, 60, 60)" stroke-width="1px" opacity="0.25"></line><line x1="0" y1="22.24499988555911" x2="268.0999994277954" y2="22.24499988555911" fill="rgb(0, 0, 0)" stroke="rgb(60, 60, 60)" stroke-width="1px" opacity="0.25"></line><line x1="0" y1="0" x2="268.0999994277954" y2="0" fill="rgb(0, 0, 0)" stroke="rgb(60, 60, 60)" stroke-width="1px" opacity="0.25"></line></g></g></g><g><g><line x1="0" y1="155.71499919891357" x2="268.0999994277954" y2="155.71499919891357" fill="rgb(0, 0, 0)" stroke="rgb(153, 153, 153)" stroke-width="1.5px"></line></g></g><g><g><line x1="22.34166661898295" y1="0" x2="22.34166661898295" y2="177.95999908447266" fill="rgb(0, 0, 0)" stroke="rgb(153, 153, 153)" stroke-width="1.5px"></line></g></g><g><g><g><g><g><path style="fill: none;" stroke="rgb(255, 112, 67)" stroke-width="2px" d="M22.52933661858241,108.33576572567219L22.542741618553798,137.80894620592818L22.65891828497251,144.30070215836906L22.761689951419832,148.3866164697303L23.08787828405698,84.70191564847471L23.36491495013237,46.11278565345654L23.38725661675135,47.07489123635389L23.48109161655108,35.01220418632647L23.56152161637942,42.17872528589075L23.7179132827123,51.57832926432414L23.72684994935989,59.1193779761345L23.762596615950265,37.861465026665115L24.459656614462535,48.86510923733783L24.73669328053792,71.07356323999971L24.928831613461178,80.43874523280796L24.960109946727755,92.62108374347285L25.17458994626999,102.45712361589229L25.232678279479344,96.6020125065607L25.339918279250462,62.724565921478685L25.53205661217372,71.7149018297177L25.56780327876409,55.85293802939772L25.849308278163274,81.69982771069282L25.925269944667814,83.97436669044424L25.952079944610595,103.28253914901114L26.0771932776769,112.95308128206129L26.680418276389442,106.18683756598512L26.872556609312692,86.28979652015639L27.104909942150115,85.78383596712764L27.274706608454384,78.541967125682L27.614299941062924,100.79526318837509L27.97623494029045,104.74614013405443L28.22199327309926,103.56811048086483L28.235398273070654,114.36444342054617L28.297954939603805,89.40392143282666L28.31582827289899,57.82433697327649L28.53030827244123,68.65291333456814L28.561586605707802,59.366448950416626L28.758193271954852,77.7146199961598L28.89224327166875,94.53697268306344L29.14693827112516,58.62146310779502L29.27651993751526,78.14149616962865L29.348013270696004,92.30091015032009L29.41950660387675,71.82944210232556L29.897618269522983,76.53279395192618L30.08975660244624,99.77902072127657L30.10316160241763,100.78330886087636L30.581273268063864,105.29549588156083L30.67957660118739,95.79231400320543L30.72872826774915,107.80271075761154L30.907461600701016,91.38422229386062L30.983423267205556,98.25293115844573L31.041511600414914,69.24167535489617L31.43919326623281,93.5655393188639L31.707293265660606,96.8297647367833L32.113911598126094,85.25040728007065L32.16753159801165,103.11804721950729L32.310518264373144,116.11546667655769L32.33732826431592,109.47512518848941L32.44903659741084,126.43494863877737L32.65011159698168,133.84155334358246L33.016514929533,128.08303648179344L33.226526595751444,125.19761152811853L33.302488262255984,120.20949057840903L33.31142492890358,123.8533881761008L33.33376659552256,87.94333040531473L33.44547492861748,18.19979223406665L33.44994326194127,63.019998570310776L33.503563261826834,51.917914394067154L33.52590492844581,70.55554723800279L33.655486594835914,90.2000811905058L33.72251159469287,84.54731478751707L33.749321594635646,75.55774568119888L34.339141593376795,63.24160835536405L34.58489992618561,69.91783228400834L35.59921159068743,61.049466884339125L35.916463256677,75.31765288368312L35.92986825664838,99.69641767722747L36.18903158942859,83.51509973459792L36.46606825550398,87.41401887828036L36.77438325484594,76.92781531602368L36.83693992137909,99.57998471335924L36.84587658802668,109.11520442680572L36.85034492135048,48.53890921884047L37.10950825413068,78.39830926771934L37.89146658579509,86.17417457519649L38.50809658447901,106.78894002700274L38.517033251126605,111.49786280306645L38.74044991731643,107.96727056108756L39.05770158330599,117.2172066797915L39.29005491614342,114.28659590816021L39.38388991594314,115.86357907311557L39.41516824920972,117.18035950796875L39.89327991485595,123.82369065218148L40.01839324792226,110.93608652281354L40.143506580988564,69.54607888854554L40.37585991382599,89.64174825967322L40.65289657990138,111.25543718080534L41.09079324563344,126.09253313656781L41.22931157867114,70.39609740564597L41.25165324529012,95.44219782115651L41.63146157781283,104.84900898658586L41.64039824446042,85.30733360559559L42.00233324368795,57.827503749651015L42.413419909477234,85.64710286159655L42.489381575981774,89.86205435478404L42.5832165757815,107.67434717462287L43.18197324117025,118.9346846734372L43.19984657446543,125.03787134627628L43.23559324105581,121.76202521746588L43.73604657332102,66.80693035232991L43.798603239854174,93.49966238402861L43.968399906158446,102.85415218021953L44.02201990604401,110.00096491547204L44.20968990564346,41.4632887185233L44.553751571575795,79.24230187754921L44.90674990415573,101.38945933189956L44.915686570803324,113.75358039660595L45.156976570288336,117.88404734288329L45.282089903354645,125.25314224302193L45.751264902353284,134.72872608762003L46.22490823467572,136.09790861170552L46.28746490120888,136.56576685938222L46.56003323396047,135.6489663896217L47.13644823273023,137.7838050102712L47.71733156482379,111.2897766236263L47.91393823107084,90.54116268029246L48.29374656359355,105.91298658097561L48.383113230069476,121.70000336475798L48.54397322972615,112.10141562855756L48.57525156299273,-20.625531792327166L48.736111562649405,39.09557092594352L48.82994656244914,55.561457878844095L49.10698322852453,82.69659281760595L49.19634989500046,79.07329007507438L49.692334893941876,81.59189617370058L49.737018227179846,102.29743201481664L50.04533322652181,116.57353383119492L50.10342155973117,117.25952691092752L50.130231559673945,112.79012055442558L50.1883198928833,121.86253455533048L50.44301489233971,118.1586980846538L50.54578655878703,119.01314788683544L50.83175989151001,120.16652504980541L51.47519989013672,126.34021517827716L51.716489889621734,106.44536646534613L51.846071556011836,110.95814740662105L52.087361555496855,127.14151491466947L52.26162655512491,123.27126895345236L52.27503155509631,119.05747380805045L52.32865155498187,131.80039696972764L52.46716988801956,94.2157122822257L52.96762322028478,108.62518671333417L53.468076552549995,111.698921676184L53.58425321896871,112.58061506006659L54.09364321788152,108.24463090583966L54.12938988447189,103.60634874732862L54.312591550747555,86.26811462349758L54.72367821653684,44.48491667954357L55.00965154925982,21.589104748736105L55.224131548802056,69.44213130388881L55.32690321524938,96.0592579864022L55.63074988126755,90.89488169568142L55.67543321450551,86.26712246769993L55.6888382144769,106.35683610057056L55.75586321433385,84.28179017370488L55.90331821401914,96.84891220207935L56.71655487895011,118.41847728228757L57.015933211644494,82.03875738717653L57.1410465447108,45.03300885536791L57.18572987794876,42.69437594136332L57.342121544281646,51.23262873855931L58.048118209441505,86.80366844088095L58.38324320872625,111.59178919545224L58.89263320763906,94.58608814768587L59.075834873914715,117.89377022702371L59.58075653950373,125.14889682808219L59.710338205893834,0.8720330494451218L59.73267987251282,57.35124587743465L59.77289487242699,30.07305464883399L60.17504487156868,66.4624754936777L60.18844987154007,90.10428745494815L60.313563204606375,100.8548199393268L60.35824653784434,119.81235994277895L60.77380153695742,110.5856379668413L60.92572486996651,107.49380018713673L61.193824869394305,111.22073569720392L61.74789820154508,113.21308953370003L62.01152986764908,127.75152727459181L62.12770653406779,131.84864942721902L62.14111153403918,132.84768353529938L62.23494653383891,128.15896185119408L62.266224867105485,127.04508533353791L62.52538819988568,135.81130147374745L62.55219819982847,131.71223227694912L62.80242486596108,127.01454242494282L63.71843319733937,9.952354811867878L63.968659863471984,57.33336319291766L64.11164652983348,45.694344315086994L64.50039152900378,78.96709151521479L64.64784652868907,98.86058287024763L65.000844861269,112.76730860293463L65.03212319453557,87.53167814912996L65.09021152774493,114.2155859783246L65.35831152717272,116.19023443101466L65.49236152688663,130.58715867639742L65.59513319333395,131.81405358542503L65.67556319316228,32.65073952299704L66.3234715251128,64.22579791035886L66.60944485783577,90.65270035382935L67.28416318972906,77.0216348924906L67.40033985614777,102.74661581155904L68.2582598543167,106.18850322218913L68.28953818758328,98.17918830164653L68.7944598531723,54.80856924412396L68.80786485314368,78.38977087001207L68.90169985294342,77.55928868054292L69.16533151904743,59.37170540127086L69.35746985197066,85.53556512229233L69.73727818449338,110.01689861556696L69.87579651753107,123.913315319914L69.94728985071183,37.42333573114914L70.02325151721637,45.96058206771701L70.20198485016823,74.87536600575079L70.40350668307146,89.13058436334673L70.40797501639526,98.92539587366285L70.50627834951878,103.19340275106019L70.66267001585166,98.52585836373981L70.7779530156056,106.82275482688169L70.81816801551977,88.80107945193924L71.05052134835721,84.33383386699913L71.0639263483286,98.11663628140975L71.21584968133767,105.20580456129748L71.23372301463286,110.41807429290624L71.33649468108018,117.88316852147676L71.36330468102295,108.67089858797397L71.37224134767055,95.53161199304293L71.5777846805652,109.78512150467031L71.94418801311653,87.42290447177814L72.02908634626866,79.98311009717767L72.06930134618283,98.00670530939095L72.373148012201,116.91351393251895L72.38208467884859,-11.379893866077992L72.65018467827639,48.69789449938514L73.36064967676003,47.37054926625652L73.59479034292698,71.2212071078503L73.68415700940291,83.4678964833956L73.8226753424406,70.04383987626404L73.86289034235477,88.31992480937683L73.93885200885933,102.41171576947922L74.01481367536385,109.2077330874381L74.38121700791518,118.83938930880575L74.48398867436251,126.47420796341737L74.54654534089565,135.62052242904258L74.8772020068566,101.04926187307166L75.3865920057694,119.3653748805433L75.81555200485388,77.03673456510995L75.83789367147287,76.28507399239082L75.99875367112955,83.77188826435106L76.13727200416724,101.57521347939256L76.57070033657551,108.76737858078282L76.68687700299422,122.75699371655799L76.70475033628941,121.76293011261004L76.77624366947016,116.24924612408128L76.96391366906961,120.62010006755199L75.90045033800602,104.8014696593242L75.91385533797741,112.34701207442788L75.98534867115816,115.26399319801419L76.41430867024263,85.58727076657816L76.65113033640385,102.65520805020142L77.60288533437253,112.09649757877007L77.72799866743883,118.61178403397317L78.20164199976126,40.29628848853682L78.52336199907461,60.67241006878851L78.80039866515001,31.527873154020426L79.14892866440614,51.1723669899897L79.22489033091068,83.572385366593L79.34553533065319,93.800091610701L79.43937033045292,117.88044599513708L79.49299033033849,109.31403791100699L79.56001533019543,123.8597037749355L79.81471032965183,111.97615210271444L79.9934436626037,127.75470995555773L80.14089866228898,132.30637420760482L80.63241532790661,140.38872951546384L80.86923699406783,143.199704361123L80.88711032736302,143.15724803458136L80.97647699383896,137.71961685071466L81.32500699309507,133.76869273810397L81.51267699269454,137.74826345381652L81.74056199220816,136.1905956176514L81.84333365865548,143.67844580723488L82.10696532475949,127.24719461099076L82.12037032473087,112.07657715472972L82.54039365716775,100.4892363718784L82.69231699017683,102.97488283708657L82.84870865650971,98.6098861545818L83.0229736561378,93.60405803272661L83.43406032192708,16.192780134427323L83.5323636550506,70.34229446015678L83.89876698760192,97.99644905279752L84.52880198625724,110.66949028280817L84.82371198562781,124.28329411165532L84.85499031889438,125.65503796560657L84.89520531880856,122.44539463756364L84.97116698531309,101.58293941605561L85.02478698519866,111.36758235775432L85.05159698514144,89.68864033866048L85.31522865124543,84.15234718291119L85.53864531743525,104.25530321980992L85.7486569836537,116.2136089919081L86.03016198305289,124.07764473072939L86.36528698233764,128.8777253676841L86.39209698228042,101.83012427973483L86.52614698199432,116.06455068326936L86.56636198190849,129.82438315953002L86.61104531514644,132.3943550208994L87.02213198093573,3.3886835312605967L87.06234698084991,50.92542891099593L87.0802203141451,71.84603858636817L87.15618198064962,98.48250337971132L87.44215531337261,119.6935159208501L87.52705364652475,105.5514762420281L88.1302786452373,96.90196945129348L88.41178364463647,117.89799624240544L88.6173269775311,122.61899637527796L88.81393364377817,111.67093214153195L89.19821030962467,120.46103770622976L89.45737364240487,115.99084387902292L90.12315530765056,120.20820517135212L90.13209197429815,95.63094353684274L90.27507864065964,118.65580968246945L90.41359697369734,131.67776040457522L90.67722863980134,127.08312919169543L91.31620030510426,127.33875264879637L91.42344030487537,134.0348359244063L91.46365530478954,132.87433297328852L91.70941363759836,140.76326377443363L92.38413196949163,38.625269602661035L92.4466886360248,77.48335157694363L92.90245863505204,102.76746765608645L92.99629363485178,98.81244175935464L93.59058196691672,110.1925166763529L93.91230196623007,120.2890574510612L94.0106052993536,110.43839039163356L94.08656696585814,127.51233102604161L94.29211029875279,134.24006955771569L94.44403363176187,123.84185413845134L94.73447529780864,96.2587928057563L95.09194196371237,114.01153821123987L95.43153529632092,74.85666311124851L95.5923952959776,-8.84678915440054L96.088380294919,36.38951538672248L96.09284862824282,30.751177984377108L96.2447719612519,78.96826202350204L96.30732862778504,99.65958293323882L96.49499862738449,117.81990855543988L97.24121029245853,84.27227483256331L97.37972862549623,110.97380894317101L97.53165195850531,121.44724059507736L98.01423195747535,129.70392972249806L98.16168695716064,131.3298218267167L98.24211695698897,125.8080597306332L98.25105362363655,129.55323650598166L98.35829362340768,133.55485548211576L98.36276195673148,140.97357341650684L98.37616695670286,142.84365849724492L98.461065289855,132.51937363750284L98.61745695618788,141.0981050142422L98.75597528922557,143.3875125896299L98.93024028885365,134.9466750511457L98.97492362209161,115.59695234901022L99.37260528790951,98.25477592319376L99.43516195444266,30.79640406061648L99.56474362083276,48.628836248371925L99.60049028742313,37.82640395060312L99.73007195381322,72.9421734570295L100.1724369528691,102.54513194312624L101.20462195066611,38.989128190951476L101.3297352837324,73.08111376422066L101.36995028364659,71.05062655814882L101.49506361671288,62.16178303873859L101.65145528304578,91.54154740207395L101.70507528293133,113.75141118912153L101.99104861565431,105.85872207953524L102.59427361436686,99.1874393312321L102.83556361385186,97.9860490638597L103.42985194591681,116.18832467453325L103.43432027924061,78.64816107827167L104.05988694457213,85.50291106465951L104.6005552767515,71.8796178839351L104.6318336100181,101.59239692928338L105.19037527549267,78.68264612049649L105.6952969410817,97.2424471743653L105.78019527423382,84.71846065625289L105.90530860730011,101.78255956128379L106.00361194042365,108.965687220098L106.09744694022338,117.24997908846207L106.40129360624155,125.60696362245098L106.63811527240277,137.26800698442793L106.89727860518296,52.269031409240995L107.09388527143001,89.29733822790219L108.05010860272249,106.62929474908647L108.13053860255083,93.32737911508245L108.22884193567434,88.96905055160275L108.25565193561714,63.33941985401546L108.74270026791096,93.35943247421972L108.80525693444412,116.16287941830103L108.85440860100587,126.01872046195854L109.10016693381469,135.461051648519L109.14931860037645,131.87892870471202L109.17612860031922,138.62132328870808L109.43976026642322,123.69949244166136L109.56040526616573,134.48409352412207L109.66317693261306,125.15481327454754L109.97596026527881,133.19534768432834L110.07426359840234,140.65966431755328L110.22171859808763,111.53885686123915L110.32895859785874,120.78459511490047L110.50769193081061,106.58737125831729L110.58812193063895,69.31508631836944L110.61493193058173,102.70387650794962L110.62833693055312,114.31438630400808L110.96793026316166,129.66818524260827L110.97239859648546,104.67567910506419L111.1824102627039,57.83157836232827L111.32092859574159,89.04365475122479L111.4415735954841,113.19271304927885L111.45497859545549,105.64649914490596L111.47732026207447,119.79790115048934L111.79457192806403,128.31969105564667L111.84372359462579,75.68545289636049L112.06267192749183,104.65709275921459L112.31736692694824,114.14655502800537L112.51844192651907,124.62364713365763L112.70164359279472,135.38566525918014L112.7597319260041,106.7909021889625L112.7642002593279,123.81561863193969L112.86250359245142,123.85642771328526L112.93399692563216,114.76825182213324L113.42998192457358,105.7730559872808L113.52381692437332,124.35358867870175L113.83213192371528,132.10485600434885L113.84553692368667,110.94113819403162L113.85000525701047,79.99762498076876L114.0644852565527,-35.30774470627853L114.17172525632381,25.116503544665704L114.76154525506497,59.61090490105873L115.11901192096869,95.96261834185255L115.17710025417806,92.24178243270052L115.46307358690103,112.33376747056971L115.7535152529478,128.7942350893629L115.85628691939513,128.81108942657033L116.23162691859405,133.24223856344491L116.24503191856543,127.92681828587428L116.26737358518442,99.59606275853899L116.56675191787879,119.60432561102127L116.64718191770713,125.57243869671831L116.98230691699187,132.62348541594875L117.15657191661992,101.72439007159514L117.8625685817798,122.84737067261851L118.05023858137926,18.73244316011744L118.05470691470305,45.31721117110283L118.34514858074982,67.53273759119857L118.3719585806926,92.9798352617857L118.48813524711132,94.68859055741186L118.58197024691106,117.96757617778007L118.60878024685383,127.0076279588623L119.31477691201368,133.86801598566774L120.38270857640107,120.6848145053936L120.44079690961044,129.22098188160209L120.59272024261952,104.2621174201231L120.69996024239065,123.96964997150648L120.76251690892379,127.4136185915653L120.8876302419901,122.45134253475247L121.3970202409029,111.93627976020002L121.55341190723578,70.42157210610053L121.71874024021625,98.82866693226096L122.12535857268175,104.01372462199377L122.7062419047753,97.67777832860986L123.04136690406004,113.02221785203871L123.44351690320174,121.12804867731487L123.45692190317313,128.15784856918714L124.11376690177123,118.12220657792197L124.13164023506641,112.17203575769636L124.32377856798966,119.20114495245772L124.37293023455143,106.43965287437477L124.41761356778939,112.02232329621359L124.56953690079848,80.47736598334374L124.61422023403645,86.71494913510031L124.73039690045515,108.90771886539014L124.93147190002601,110.6378118924696L125.03424356647334,120.09852212128656L125.26212856598694,125.38149248551878L125.36936856575807,131.45832625329686L125.4542668989102,132.68593461135117L125.66427856512864,134.33537217733937L126.16920023071766,90.27676184947235L126.3881485635837,81.27895103444689L126.75008356281121,105.20827375064434L126.79923522937298,117.29986163298611L126.88860189584891,127.377445520147L127.21479022848607,131.2815773252451L127.46948522794247,99.60193508217792L127.9475968935887,106.28201558601677L128.57763189224403,120.7465762585962L128.7518968918721,60.513060708146256L128.8814785582622,39.9481688710932L129.2702235574325,84.75644651161687L129.48470355697472,99.54742050484661L129.49364022362232,73.76640496304317L129.6634368899266,105.01474935004677L129.76620855637393,108.91947114138844L130.08346022236347,104.49591603103612L130.7134952210188,83.73389903352582L130.99946855374176,21.05620186385633L131.33906188635032,57.07002377927881L131.43736521947383,70.53216515322326L131.4731118860642,98.60342137648604L132.1522985512813,95.59169723772084L132.25060188440483,117.89541250175266L132.3980568840901,132.6708953787421L132.72871355005105,134.9311678059793L132.90297854967912,129.59912011198952L133.28725521552562,134.21071477256388L133.61344354816276,122.90680925929853L133.7251518812577,132.86601647030346L133.78324021446704,137.13935432494014L133.82345521438123,110.0012254163434L134.17645354696114,125.87159010899157L134.44008521306515,135.21016399441373L134.94947521197795,133.50540342120874L135.0165002118349,94.00483861014169L135.36949854441485,13.694233055814664L135.75824354358514,52.242012389608604L136.15592520940302,73.11267815281865L136.32125354238352,-73.30269257341982L136.4776452087164,-3.7938947139936374L136.80830187467734,5.090634820991028L137.36237520682812,34.653574897644404L137.45621020662784,58.596322244095106L137.496425206542,93.95935653260693L137.56791853972277,71.52817562471589L137.84942353912194,98.32004810322574L137.85389187244576,103.57424906033071L137.9164485389789,113.67955856124841L138.46605353780586,97.87729272843619L138.51520520436762,102.17690084305946L138.9620385367473,105.1086720273251L139.26141686944166,119.89236866874336L140.15508353420097,98.03699079036221L140.72256186632313,98.23535290879848L140.72703019964695,83.46556392455398L140.85661186603704,99.01497474524201L140.86554853268464,115.17096934728355L141.30791353174052,86.41086978664087L141.97816353030998,91.15801983120878L142.26413686303297,76.81434971741513L142.29094686297574,100.6104137652178L142.31775686291851,104.34326394808804L142.3356301962137,95.87842167961324L142.3400985295375,109.3820445201599L142.85395686177412,82.08817640720046L143.09971519458293,109.07322050761526L143.63591519343854,103.6830861081126L143.88614185957113,104.50667847974532L144.32403852530322,81.3742386888198L144.36872185854116,104.3309395751515L144.40000019180775,108.29391460407516L144.4804301916361,95.95520802101737L144.7351251910925,92.29920463963529L144.93173185733954,111.01793000803112L145.31600852318604,115.09351486076122L145.72262685565155,126.37143790121803L145.73156352229913,134.37319007280243L145.8745501886606,124.28856301395682L145.95498018848897,119.52299508855747L147.21951851912337,117.99978237951316L147.3356951855421,130.09968193510028L147.53230185178916,135.18258147454821L147.77806018459796,116.83823356256536L148.05509685067338,113.80589948454474L148.11318518388273,121.38399301510103L148.524271849672,97.51314063740963L148.6538535160621,109.42266980558851L148.82811851569016,123.96636468819278L150.0792518463532,133.55663889296773L150.43225017893315,135.8714775360378L150.54842684535186,84.01148457395777L150.64673017847537,73.85739220805321L150.7316285116275,73.7534212967939L150.84333684472244,101.80331418349442L150.91483017790318,91.62956060217631L150.96845017778872,113.40995784864539L151.160588510712,111.09625053476312L151.46443517673015,100.6145498277091L151.74147184280554,112.03680190706508L152.67088517415525,125.22174632509116L152.70216350742183,123.56383330605604L152.74237850733599,112.84602209639816L152.96579517352583,107.21996598388881L152.97920017349722,81.12416575379693L153.07303517329692,86.41230028027564L153.21155350633464,112.24422871016235L153.29645183948676,120.91442603933814L153.90414517152308,117.14326474979647L154.26608017075063,129.05105508203252L154.27054850407444,130.26641164044486L154.4224718370835,129.5647499927824L155.03463350244363,121.74832881891248L155.0569751690626,134.63740011607157L155.17315183548132,127.68870544890481L155.37869516837597,131.39060539810043L155.44572016823292,120.74846416945148L155.81212350078422,133.47726348950656L156.0042618337075,136.9196769897557L156.1204385001262,131.8315232453113L156.30364016640186,132.30740203672553L156.49577849932513,136.12311906834324L157.08559849806628,138.2999956710935L157.11687683133283,138.52557426660965L157.13475016462803,135.9636239522505L157.5905201636553,137.82877901254489L157.76925349660712,127.14540708820238L158.18927682904402,114.14765154550861L158.25183349557716,115.20885333666453L158.33226349540553,123.33193498405177L158.51993349500498,104.09511647275734L159.73532015907765,106.01352498012724L159.97214182523888,106.59360376513904L160.50387349077067,112.9694569239633L161.31711015570164,106.37166084720828L161.4824384886821,105.67545444338406L161.902461821119,103.39878482966049L162.61292681960265,123.36576749003041L162.72910348602136,111.6170468348268L162.9078368189732,44.75669963874142L163.11338015186786,83.123466782019L163.40382181791463,91.85458896756485L163.43510015118122,74.32597635613136L163.47084681777162,99.33319161164098L163.6853268173138,96.58559268960016L163.72554181722802,110.8752919920784L163.989173483332,92.67489835068459L164.04726181654135,91.69628365295459L164.69517014849185,101.10601497143723L164.74879014837742,96.27263236329271L164.89624514806272,95.88845012755188L165.08391514766217,102.71593532745821L165.37435681370894,65.82970412623628L165.7050134796699,89.93506238198185L165.91502514588834,106.71511290613893L166.2054668119351,74.9931111287525L166.3350484783252,68.78242878761269L166.39313681153456,95.17566574367346L166.70145181087653,97.1085890612608L166.71485681084792,116.59020986994987L166.90699514377116,127.6298542028745L167.1259434766372,120.73569716934884L167.3761701427698,111.38511178349928L167.96599014151096,109.60660371248576L168.00173680810133,121.65027852651218L168.0330151413679,130.0981713302453L168.448570140481,139.51571081506708L168.50219014036654,141.60586662626233L168.5915568068425,143.59307346523568L169.10094680575529,136.11315018152803L169.11882013905046,130.01845586221515L169.239465138793,139.32491196083387L169.24840180544058,95.8284520884659L169.65055180458228,105.58413487074303L169.96333513724804,31.351287271240466L170.08398013699053,-65.59480239345038L170.11525847025712,-25.534404963635183L170.1286634702285,46.243578078613695L170.24037180332343,83.77799409935045L170.84806513535978,93.10656658504013L171.25915180114905,105.63619607795422L171.2904301344156,125.04513418627916L171.69258013355733,107.38458297049928L171.73279513347148,90.37661831013354L171.78641513335702,43.09768054960364L171.8713134665092,88.01675525851938L171.94727513301373,79.07406603404297L172.18856513249875,37.35756162598463L172.2421851323843,52.456405465305664L172.3538934654792,63.63463442520266L172.51922179845968,98.2460314648612L172.7783851312399,94.40832649067615L172.98392846413455,17.929886301286132L173.06882679728668,48.93545750521781L173.10010513055323,87.95202164442145L173.30564846344788,99.15879746526761L173.53800179628533,103.38212431970759L173.5514067962567,99.89306128558641L173.70779846258958,107.04255748846289L174.28868179468316,63.10261838607407L174.52103512752055,49.90779181769574L174.52550346084433,77.95834984902886L174.6193384606441,108.59062152650834L174.86509679345292,35.80011507804983L175.2538417926232,49.289341702718644L175.258310125947,84.41707192873015L175.42810679225127,107.0622722128814L175.58449845858414,115.74855504984562L175.62471345849832,124.54002547068214L175.79897845812638,117.49989500279605L176.01792679099242,122.80857790241087L176.26368512380122,98.17504858584306L176.4066717901627,119.9330711901746L176.8311634559234,126.8768551030213L177.5103501211405,126.57125287766499L177.7292984540065,132.39956157691557L177.8901584536632,-54.591039700917634L178.16719511973858,25.991838884111843L178.51125678567092,24.086170877408307L178.5246617856423,67.27770505203574L178.86425511825087,93.94971417760333L178.9580901180506,113.26902127914082L178.99383678464096,104.5066114850028L179.0519251178503,115.37063620343463L179.0608617844979,129.5588932852621L179.08767178444066,135.84914129680968L179.52556845017276,126.6869055303082L179.53450511682033,123.80148152662065L179.9232501159906,116.32266624160614L179.93665511596203,55.935774106436426L180.05730011570455,86.88097226290827L180.82138511407376,98.56123867282088L180.85266344734032,111.26604132266475L181.1475734467109,108.0877087220593L181.1699151133299,113.722199220056L181.63462177900473,128.36895478244784L181.7105834455093,123.43529811457154L182.00996177820363,121.29340149617792L182.09932844467957,118.6926372898983L182.5774401103258,128.6249081013295L182.80979344316324,121.55133151790494L182.87681844302017,117.83096954658312L182.94384344287715,126.60611955590193L183.0153367760579,99.78106445726745L183.07342510926722,107.8102902559955L183.2298167756001,82.10018339225584L183.31471510875224,-199.57293206453L184.38711510646343,-11.405115044647289L184.65521510589122,31.17080683400485L184.78926510560512,74.2990523823999L184.87416343875728,94.27975304951174L185.27184510457516,104.45130114010551L185.44611010420323,120.17815172309703L185.4639834374984,124.41753156554645L185.50419843741258,128.67404931364752L185.53100843735535,78.19110839358972L185.64271677045028,91.91202950381692L185.89741176990668,93.08364743356373L186.54978843518097,104.9971004045681L187.06811510074138,116.69811889817618L187.21557010042667,131.77455089625425L187.7026184327205,99.79043691088577L187.72942843266327,98.29603454665781L187.76964343257742,107.83317078002374L188.34605843134722,120.92473896807917L188.4979817643563,115.20484165051354L188.81970176366963,113.01297941030012L189.64187509524822,119.00217666764132L189.72677342840038,118.10400845141265L189.91891176132359,94.18985257689222L190.2272267606656,107.7928228880507L191.18791842528185,121.20505090686868L191.6392200909853,106.98789752166664L191.8849784237941,104.3778257636239L191.95200342365106,112.4479272127219L192.260318422993,100.10064494726417L192.41224175600212,109.64159339827631L192.74289842196305,84.39128563322382L192.8143917551438,102.15801723875703L192.86354342170554,119.0451775635168L193.01546675471465,109.30178720142624L193.37293342061838,119.76067086649203L193.64550175336996,131.60805041141816L193.64997008669377,116.14644031280571L193.90913341947396,123.56343513038584L193.9985000859499,121.81321232083545L194.19063841887314,68.26897066225062L194.21298008549212,93.1389202664895L194.5347000848055,107.04211410550846L195.1647350834608,119.79693458608205L195.26750674990814,122.54475907425015L195.27197508323192,116.68120489315838L195.87966841526824,124.71147979869315L196.30862841435274,72.40835676295363L196.57226008045674,92.88450109796717L196.6214117470185,114.5243544053736L197.89041841097674,92.0588394810454L198.0736200772524,98.11760885660104L198.38640340991816,86.05870768018217L198.51151674298444,102.26830901646144L198.73940174249807,65.08469078236541L199.17283007490636,81.93755479067576L199.20857674149673,104.2386804193732L199.31134840794405,103.2255431434585L199.333690074563,83.18601121010744L199.4096517410676,43.140824556984455L199.6375367405812,68.84184282829852L199.80733340688548,80.72813715402107L200.71887340493996,104.8719758853768L201.04059340425334,124.44524590655608L201.50976840325197,120.4868699789598L201.89851340242228,113.54321059412418L201.95213340230782,119.26934260543581L202.0951200686693,131.46562525068674L202.2202334017356,134.854502244894L202.60897840090593,140.7421825737659L202.6536617341439,-9.888829846440046L202.6804717340867,-12.328504137075157L202.69834506738187,42.4199236663776L202.83686340041956,70.10103648855487L202.84580006706713,104.0221897112604L202.90835673360027,118.18731227209564L202.9351667335431,127.88276716357254L203.26135506618024,107.80341791496008L204.365033397158,115.46564778536992L204.39631173042457,129.07700756461216L204.7582467296521,120.27700325735137L204.8744233960708,130.65148700119587L205.2765733952125,124.45907106080284L205.39721839495502,92.23062101415685L205.71000172762078,29.649440797235997L206.01384839363894,37.169553752181315L206.08534172681968,-1.9547511220581555L206.38025172619024,57.14930036993435L206.5947317257325,58.94516056514382L206.66622505891323,87.00186077929197L206.79580672530332,82.82700315715662L206.90751505839825,105.01075301595155L206.9924133915504,120.39946682984507L207.6358533901771,132.5715541000922L207.67160005676746,136.17564063872865L207.95757338949045,136.4027398392534L208.07821838923297,124.7245739044061L208.6814433879455,90.07864435026563L208.71272172121206,88.71308359488158L208.7931517210404,108.20849274197028L209.25339005339146,126.67657332571459L209.36063005316257,125.15900233969005L209.40531338640056,136.71682988851285L209.4678700529337,143.90948699432406L209.7449067190091,146.7508456708431L210.04875338502725,137.21447048930213L210.16939838476975,101.57325298561216L210.4643083841403,101.30867766637593L210.5223967173497,119.42038399957161L210.66538338371117,128.56863383767157L210.7458133835395,65.75181247983865L210.79049671677748,59.03495403558823L210.8843317165772,95.41878540781047L211.37138004887106,96.13416368091993L211.6841633815368,107.09471349342004L212.1220600472689,88.15975165696356L212.64485504615308,100.18836419372273L212.81465171245733,118.55447120499194L212.96210671214263,130.11268790398188L213.03806837864718,125.61739135043743L213.21233337827525,129.28630913112346L214.29367004263403,94.74731738715958L214.36516337581475,117.7374815301074L215.00860337444146,126.64508379855326L215.24095670727888,47.40252025449465L215.43756337352593,81.88639590106214L215.5939550398588,101.69519148214054L215.7280050395727,102.17725136348574L215.83524503934382,113.02283328900742L215.94248503911496,102.34371320917683L215.97823170570533,118.99256739910065L216.02738337226708,132.71734125514809L216.0318517055909,140.19735275582485L216.29995170501869,123.69137482631197L216.42059670476118,122.07559128098863L216.43847003805638,125.12571665051993L216.50549503791333,111.90880096925478L216.62167170433202,94.89347540905052L216.67082337089377,109.61466284498445L216.71997503745558,124.93802034958085L216.86743003714085,115.15367875016946L217.24723836966356,111.25852354732349L217.48406003582477,118.6647519997027L217.50193336911994,123.42059723827556L217.56002170232932,127.12035681996205L217.91748836823305,136.86092983448304L217.93536170152822,119.5086902406071L218.05600670127075,98.87602029857639L218.09622170118493,66.43257379602478L218.48496670035522,78.34491206885143L218.51624503362177,105.40511782274862L218.71285169986885,117.56462066243861L218.94967336603005,130.06286696840968L219.10606503236292,109.81236460706272L219.12393836565812,67.86291797730681L219.3965066984097,101.73396782135934L219.82993503081798,92.85836896361933L219.99973169712226,59.44916825502531L220.20527503001688,86.54428049800465L220.20974336334072,110.41874929626836L220.2231483633121,119.75696586203397L220.47337502944467,118.78194113642127L220.84871502864362,130.5449488844976L220.9559550284147,137.48004534695522L221.17490336128077,107.71701187916668L221.2374600278139,98.51750599243894L221.89877335973583,85.5836780380264L222.0328233594497,85.50250112425198L222.29645502555368,106.66183572112283L222.52434002506732,118.30539483437352L223.44481668976943,127.6937342868177L223.4850316896836,124.3710008272613L223.57439835615952,124.10337125595353L223.71291668919721,135.72281027516652L223.72185335584481,91.7639302352055L224.32507835455738,108.18990145909007L224.48593835421403,120.47348532322302L224.68254502046108,122.92928194651373L224.94617668656508,108.55244027750123L224.99979668645062,115.05939152184351L225.50471835203965,130.65258064659307L225.67004668502014,35.873470537363715L225.8085650180578,82.38300979939063L225.9649566843907,110.24357737216357L226.6352066829602,98.48144991227333L226.67542168287434,119.64531532978674L226.79606668261687,130.62298311583228L226.93011668233075,43.99908436519718L227.08204001533986,63.67437624384617L227.28311501491072,80.29060709780215L227.3188616815011,98.97103969363792L227.44397501456737,118.02447673485052L227.9488966801564,92.47275908811066L228.02039001333713,99.35612019287751L228.12316167978446,51.44018156499786L228.29742667941252,56.63780534675986L228.37338834591708,81.68371280766894L228.75766501176358,108.0996281339107L228.79788001167773,121.47731753089317L228.94980334468684,118.42682757251941L229.4100416770379,98.81231641293564L229.46366167692344,86.535605669097L229.6379266765515,89.34604340212508L229.87028000938892,113.87342396637243L231.15716000664233,79.98351521466363L231.25099500644205,109.36554923688033L231.8810300050974,109.2661682892436L232.07316833802062,127.17921103899059L232.30999000418186,97.00269076756871L232.34126833744844,12.117474484849936L232.43063500392438,42.00951695549256L232.54234333701928,65.11785318505157L232.5468116703431,86.14795112343613L232.9489616694848,107.83624225630756L233.18131500232218,122.09624248759494L233.44941500174997,103.15923707168169L233.48069333501658,118.4480878436461L233.61027500140668,129.89413841017154L233.84709666756788,134.58727615894392L233.86497000086308,35.531091751829905L233.92305833407244,75.40821882492799L233.98561500060558,51.81902150954187L234.09285500037672,88.7960674684844L234.14647500026226,91.60998885454701L234.28946166662377,104.12818051509161L234.32073999989035,106.0428734614083L234.3832966664235,120.17137745591026L234.8882183320125,129.03710808728215L234.93736999857427,122.77820881112915L234.96417999851704,87.7799275024733L235.1473816647927,77.88993707764467L235.16525499808787,58.52334854336212L235.22781166462104,89.98616945284981L235.33058333106834,83.62600344103906L235.80422666339078,81.17755527904077L235.99636499631404,93.50619852291445L236.19297166256112,114.37048294840582L236.27340166238943,128.49817851063108L236.34489499557017,107.00198645711951L236.47894499528408,28.236692748204007L236.78725999462606,65.99872459730905L237.34580166010062,78.33365065992852L237.53793999302388,93.96342826927477L237.54687665967148,116.05556292105067L237.71220499265192,54.20792077685749L237.71667332597573,81.01023488617268L237.76135665921367,107.38127509579277L237.79710332580407,117.62415900332604L237.908811658899,72.94852197595723L238.27968332477408,102.05766993148501L238.30202499139307,86.48603752165124L238.36904999125005,92.84406586369815L239.2359066560666,88.53363730569056L239.8525366547505,111.09303320097322L240.7998233193954,121.76896022387385L241.14835331865152,37.99206198249399L241.3181499849558,72.2278941599313" fill="none"></path></g></g></g></g><g opacity="0.2"><g><g><g><path style="fill: none;" stroke="rgb(255, 112, 67)" stroke-width="2px" d="M22.52933661858241,108.33576572567219L22.542741618553798,155.49285449408177L22.65891828497251,150.53278787271233L22.761689951419832,153.19165169989114L23.08787828405698,1.5551702562434286L23.36491495013237,-7.269873216451771L23.38725661675135,48.45071761358645L23.48109161655108,17.424690665590674L23.56152161637942,52.747951882689804L23.7179132827123,65.53564570485163L23.72684994935989,70.36255428705515L23.762596615950265,6.09028022598261L24.459656614462535,65.33464674582282L24.73669328053792,104.34273557064793L24.928831613461178,94.47550980214322L24.960109946727755,110.88599958050308L25.17458994626999,117.2070211420913L25.232678279479344,87.82083245463964L25.339918279250462,11.913556931866594L25.53205661217372,85.19958393976351L25.56780327876409,32.06086223671008L25.849308278163274,120.46931172972079L25.925269944667814,87.38613025326694L25.952079944610595,132.24456911315136L26.0771932776769,127.45882574756197L26.680418276389442,96.03750084680952L26.872556609312692,56.44428586248799L27.104909942150115,85.0248959143532L27.274706608454384,67.67917053429825L27.614299941062924,134.1751949833562L27.97623494029045,110.67245424241966L28.22199327309926,101.80106623546894L28.235398273070654,130.55894154120284L28.297954939603805,51.963140239118445L28.31582827289899,10.45496164113979L28.53030827244123,84.89577759727928L28.561586605707802,45.436752517866154L28.758193271954852,105.23687639444881L28.89224327166875,119.77050161972193L29.14693827112516,4.748198864917526L29.27651993751526,107.421545723239L29.348013270696004,113.54003110432244L29.41950660387675,41.12224004511097L29.897618269522983,83.58782172429008L30.08975660244624,134.64836086926124L30.10316160241763,102.28974107011949L30.581273268063864,112.0637764121654L30.67957660118739,81.53754118620574L30.72872826774915,125.81830588881623L30.907461600701016,66.756489598566L30.983423267205556,108.55599445524012L31.041511600414914,25.7247916497829L31.43919326623281,130.0513352647093L31.707293265660606,101.72610286365386L32.113911598126094,67.88137109501987L32.16753159801165,129.9195071286454L32.310518264373144,135.61159586212594L32.33732826431592,99.51461295638927L32.44903659741084,151.87468381420584L32.65011159698168,144.95146040078916L33.016514929533,119.44526118911037L33.226526595751444,120.86947409760629L33.302488262255984,112.72730915384491L33.31142492890358,129.31923457263835L33.33376659552256,34.07824374913602L33.44547492861748,-86.41551502280504L33.44994326194127,130.25030807467678L33.503563261826834,35.26478812970177L33.52590492844581,98.51199650390618L33.655486594835914,119.66688211926032L33.72251159469287,76.06816518303395L33.749321594635646,62.07339202172163L34.339141593376795,44.767402366611776L34.58489992618561,79.93216817697478L35.59921159068743,47.74691878483537L35.916463256677,96.71993188269911L35.92986825664838,136.26456486754398L36.18903158942859,59.24312282065364L36.46606825550398,93.26239759380398L36.77438325484594,61.19850997263866L36.83693992137909,133.5582388093626L36.84587658802668,123.41803399697545L36.85034492135048,-42.325533593107366L37.10950825413068,123.18740934103764L37.89146658579509,97.83797253641217L38.50809658447901,137.71108820471213L38.517033251126605,118.56124696716202L38.74044991731643,102.6713821981192L39.05770158330599,131.09211085784744L39.29005491614342,109.89067975071325L39.38388991594314,118.22905382054861L39.41516824920972,119.1555301602485L39.89327991485595,133.78868736850058L40.01839324792226,91.60468032876162L40.143506580988564,7.4610674371435834L40.37585991382599,119.78525231636473L40.65289657990138,143.67597056250352L41.09079324563344,148.3481770702115L41.22931157867114,-13.14855619073677L41.25165324529012,133.0113484444223L41.63146157781283,118.9592257347299L41.64039824446042,55.99482053411015L42.00233324368795,16.607758965734206L42.413419909477234,127.37650152951488L42.489381575981774,96.18448159456523L42.5832165757815,134.39278640438113L43.18197324117025,135.8251909216587L43.19984657446543,134.1926513555349L43.23559324105581,116.84825602425028L43.73604657332102,-15.625711945374064L43.798603239854174,133.53876043157666L43.968399906158446,116.88588687450589L44.02201990604401,120.72118401835083L44.20968990564346,-61.34322557689978L44.553751571575795,135.91082161608807L44.90674990415573,134.61019551342503L44.915686570803324,132.29976199366553L45.156976570288336,124.07974776229929L45.282089903354645,136.3067845932299L45.751264902353284,148.94210185451718L46.22490823467572,138.15168239783372L46.28746490120888,137.26755423089725L46.56003323396047,134.27376568498093L47.13644823273023,140.98606294124548L47.71733156482379,71.54873404365892L47.91393823107084,59.418241765291725L48.29374656359355,128.97072243200031L48.383113230069476,145.3805285404315L48.54397322972615,97.70353402425697L48.57525156299273,-219.7159529236543L48.736111562649405,128.67722500334958L48.82994656244914,80.26028830819497L49.10698322852453,123.39929522574874L49.19634989500046,73.63833596127704L49.692334893941876,85.36980532163986L49.737018227179846,133.3557357764907L50.04533322652181,137.98768655576237L50.10342155973117,118.28851653052641L50.130231559673945,106.0860110196727L50.1883198928833,135.47115555668785L50.44301489233971,112.60294337863877L50.54578655878703,120.2948225901079L50.83175989151001,121.89659079426042L51.47519989013672,135.60075037098477L51.716489889621734,76.60309339594959L51.846071556011836,117.7273188185334L52.087361555496855,151.4165661767421L52.26162655512491,117.46590001162667L52.27503155509631,112.73678108994757L52.32865155498187,150.91478171224344L52.46716988801956,37.838685250972844L52.96762322028478,130.23939835999687L53.468076552549995,116.30952412045878L53.58425321896871,113.9031551358905L54.09364321788152,101.74065467449924L54.12938988447189,96.64892550956209L54.312591550747555,60.26076343775101L54.72367821653684,-18.189880236387467L55.00965154925982,-12.754613147475112L55.224131548802056,141.22167113661789L55.32690321524938,135.9849480101723L55.63074988126755,83.14831725960025L55.67543321450551,79.32548362572766L55.6888382144769,136.4914065498765L55.75586321433385,51.16922128340639L55.90331821401914,115.69959524464105L56.71655487895011,150.77282490259992L57.015933211644494,27.46917754450999L57.1410465447108,-10.475613942345007L57.18572987794876,39.186426570356446L57.342121544281646,64.04000793435328L58.048118209441505,140.16022799436337L58.38324320872625,148.77397032730914L58.89263320763906,69.07753657603634L59.075834873914715,152.8552933460305L59.58075653950373,136.0315867296699L59.710338205893834,-185.54326261851054L59.73267987251282,142.07006511941904L59.77289487242699,-10.844232194067104L60.17504487156868,121.04660676094335L60.18844987154007,125.5670053968538L60.313563204606375,116.98061866589478L60.35824653784434,148.24866994795718L60.77380153695742,96.74555500293482L60.92572486996651,102.85604351757988L61.193824869394305,116.8111389623047L61.74789820154508,116.20162028844418L62.01152986764908,149.55918388592949L62.12770653406779,137.99433265615986L62.14111153403918,134.3462346974199L62.23494653383891,121.1258793250361L62.266224867105485,125.37427055705368L62.52538819988568,148.96062568406177L62.55219819982847,125.56362848175159L62.80242486596108,119.96800764693336L63.71843319733937,-165.64092660774457L63.968659863471984,128.40487576449237L64.11164652983348,28.23581599834108L64.50039152900378,128.87621231540646L64.64784652868907,128.70081990279692L65.000844861269,133.62739720196512L65.03212319453557,49.678232468423005L65.09021152774493,154.24144772211653L65.35831152717272,119.15220711004976L65.49236152688663,152.18254504447157L65.59513319333395,133.6543959489664L65.67556319316228,-116.09423157064492L66.3234715251128,111.5883854914016L66.60944485783577,130.29305401903508L67.28416318972906,56.575036700482485L67.40033985614777,141.3340871901617L68.2582598543167,111.35133433813428L68.28953818758328,86.16521592083265L68.7944598531723,-10.24735934215991L68.80786485314368,113.76157330884423L68.90169985294342,76.31356539633926L69.16533151904743,32.09033048236279L69.35746985197066,124.78135470382453L69.73727818449338,146.7388988554789L69.87579651753107,144.7579403764346L69.94728985071183,-92.31163365199814L70.02325151721637,58.76645157256887L70.20198485016823,118.24754191280148L70.40350668307146,110.51341189974059L70.40797501639526,113.61761313913702L70.50627834951878,109.5954130671562L70.66267001585166,91.52454178275923L70.7779530156056,119.26809952159451L70.81816801551977,61.76856638952556L71.05052134835721,77.63296548958897L71.0639263483286,118.79083990302567L71.21584968133767,115.83955698112908L71.23372301463286,118.23647889031938L71.33649468108018,129.08080986433254L71.36330468102295,94.85249368771977L71.37224134767055,75.82268210064639L71.5777846805652,131.1653857721114L71.94418801311653,53.879578922439876L72.02908634626866,68.82341853527697L72.06930134618283,125.04209812771083L72.373148012201,145.273726867211L72.38208467884859,-203.82000556397338L72.65018467827639,138.8145770475798L73.36064967676003,45.379531416563566L73.59479034292698,106.99719387024095L73.68415700940291,101.83793054671361L73.8226753424406,49.90775496556671L73.86289034235477,115.73405220904598L73.93885200885933,123.5494022096328L74.01481367536385,119.40175906437644L74.38121700791518,133.28687364085724L74.48398867436251,137.92643594533476L74.54654534089565,149.33999412748045L74.8772020068566,49.192371039115244L75.3865920057694,146.8395443917508L75.81555200485388,13.543774091959989L75.83789367147287,75.1575831333121L75.99875367112955,95.00210967229143L76.13727200416724,128.2802013019548L76.57070033657551,119.55562623286818L76.68687700299422,143.7414164202207L76.70475033628941,120.27183470668815L76.77624366947016,107.97872014128812L76.96391366906961,127.17638098275806L75.90045033800602,81.07352404698253L75.91385533797741,123.6653256970834L75.98534867115816,119.63946488339363L76.41430867024263,41.07218711942414L76.65113033640385,128.25711397563634L77.60288533437253,126.25843187162303L77.72799866743883,128.38471371677778L78.20164199976126,-77.17695482961767L78.52336199907461,91.236592439166L78.80039866515001,-12.188932218131697L79.14892866440614,80.63910774394364L79.22489033091068,132.17241293149795L79.34553533065319,109.14165097686302L79.43937033045292,154.00097757179117L79.49299033033849,96.46442578481184L79.56001533019543,145.67820257082826L79.81471032965183,94.15082459438284L79.9934436626037,151.42254673482267L80.14089866228898,139.13387058567548L80.63241532790661,152.51226247725236L80.86923699406783,147.41616662961172L80.88711032736302,143.09356354476887L80.97647699383896,129.56317007491467L81.32500699309507,127.84230656918793L81.51267699269454,143.71761952738535L81.74056199220816,133.85409386340368L81.84333365865548,154.91022109161008L82.10696532475949,102.60031781662461L82.12037032473087,89.32065097033816L82.54039365716775,83.10822519760143L82.69231699017683,106.70335253489884L82.84870865650971,92.06239113082464L83.0229736561378,86.09531584994384L83.43406032192708,-99.92413671302165L83.5323636550506,151.566565948751L83.89876698760192,139.47768094175862L84.52880198625724,129.67905212782412L84.82371198562781,144.7039998549261L84.85499031889438,127.71265374653342L84.89520531880856,117.63092964549925L84.97116698531309,70.28925658379356L85.02478698519866,126.04454677030233L85.05159698514144,57.17022731001974L85.31522865124543,75.84790744928723L85.53864531743525,134.409737275158L85.7486569836537,134.15106765005532L86.03016198305289,135.87369833896133L86.36528698233764,136.07784632311615L86.39209698228042,61.25872264781093L86.52614698199432,137.41619028857116L86.56636198190849,150.464131873921L86.61104531514644,136.24931281295346L87.02213198093573,-190.11982370319765L87.06234698084991,122.23054698059897L87.0802203141451,103.22695309942654L87.15618198064962,138.43720056972603L87.44215531337261,151.51003473255827L87.52705364652475,84.33841672379506L88.1302786452373,83.92770926519161L88.41178364463647,149.39203642907333L88.6173269775311,129.70049657458674L88.81393364377817,95.24883579091293L89.19821030962467,133.64619605327647L89.45737364240487,109.28555313821266L90.12315530765056,126.5342471098459L90.13209197429815,58.765051085078625L90.27507864065964,153.19310890090955L90.41359697369734,151.21068648773388L90.67722863980134,120.19118237237572L91.31620030510426,127.72218783444777L91.42344030487537,144.07896083782126L91.46365530478954,131.13357854661183L91.70941363759836,152.59665997615133L92.38413196949163,-114.58172165499786L92.4466886360248,135.77047453836752L92.90245863505204,140.69364177480065L92.99629363485178,92.87990291425695L93.59058196691672,127.2626290518503L93.91230196623007,135.43386861312362L94.0106052993536,95.66238980249213L94.08656696585814,153.12324197765366L94.29211029875279,144.33167735522684L94.44403363176187,108.24453100955479L94.73447529780864,54.884200806713736L95.09194196371237,140.64065631946522L95.43153529632092,16.124350461261457L95.5923952959776,-134.4019675528741L96.088380294919,104.24397219840694L96.09284862824282,22.293671880859108L96.2447719612519,151.29388808218943L96.30732862778504,130.696564297844L96.49499862738449,145.06039698874145L97.24121029245853,33.950824248248495L97.37972862549623,151.02611010908254L97.53165195850531,137.15738807293687L98.01423195747535,142.0889634136291L98.16168695716064,133.7686599830447L98.24211695698897,117.52541658650793L98.25105362363655,135.17100166900434L98.35829362340768,139.5572839463169L98.36276195673148,152.1016503180935L98.37616695670286,145.64878611835198L98.461065289855,117.03294634788973L98.61745695618788,153.9662020793513L98.75597528922557,146.82162395271143L98.93024028885365,122.2854187434194L98.97492362209161,86.57236829580702L99.37260528790951,72.24151128446904L99.43516195444266,-70.39115373324941L99.56474362083276,75.37748453000509L99.60049028742313,21.622755503949946L99.73007195381322,125.61582771666903L100.1724369528691,146.9495696722713L101.20462195066611,-56.34487743731066L101.3297352837324,124.21909212412447L101.36995028364659,68.00489574904104L101.49506361671288,48.82851775962328L101.65145528304578,135.61119394707697L101.70507528293133,147.0662068696929L101.99104861565431,94.01968841515581L102.59427361436686,89.18051520877738L102.83556361385186,96.18396366280108L103.42985194591681,143.49173809054358L103.43432027924061,22.337915683879288L104.05988694457213,95.78503604424131L104.6005552767515,51.444678112848464L104.6318336100181,146.1615654973058L105.19037527549267,44.3180199073162L105.6952969410817,125.0821487551685L105.78019527423382,65.93248087908427L105.90530860730011,127.37870791883014L106.00361194042365,119.74037870831934L106.09744694022338,129.67641689100816L106.40129360624155,138.14244042343432L106.63811527240277,154.75957202739335L106.89727860518296,-75.2294319535394L107.09388527143001,144.83979845589394L108.05010860272249,132.6272295308629L108.13053860255083,73.37450566407645L108.22884193567434,82.43155770638323L108.25565193561714,24.89497380763453L108.74270026791096,138.38945140452614L108.80525693444412,150.36804983442298L108.85440860100587,140.80248202744482L109.10016693381469,149.6245484283597L109.14931860037645,126.50574428900156L109.17612860031922,148.73491516470216L109.43976026642322,101.3167461710913L109.56040526616573,150.6609951478131L109.66317693261306,111.16089290018577L109.97596026527881,145.2561492989995L110.07426359840234,151.8561392673907L110.22171859808763,67.85764567676799L110.32895859785874,134.65320249539246L110.50769193081061,85.2915354734425L110.58812193063895,13.406658908447696L110.61493193058173,152.78706179231986L110.62833693055312,131.7301509980958L110.96793026316166,152.69888365050855L110.97239859648546,67.18691989874804L111.1824102627039,-12.434572751775562L111.32092859574159,135.86176933456957L111.4415735954841,149.41630049635992L111.45497859545549,94.32717828834663L111.47732026207447,141.02500415886436L111.79457192806403,141.10237591338273L111.84372359462579,-3.2659043425688026L112.06267192749183,148.11455255349577L112.31736692694824,128.3807484311915L112.51844192651907,140.339285292136L112.70164359279472,151.5286924474639L112.7597319260041,63.89875758363607L112.7642002593279,149.35269329640548L112.86250359245142,123.91764133530356L112.93399692563216,101.13598798540521L113.42998192457358,92.28026223500217L113.52381692437332,152.2243877158332L113.83213192371528,143.73175699281944L113.84553692368667,79.19556147855579L113.85000525701047,33.58235516087447L114.0644852565527,-208.26579923684955L114.17172525632381,115.75287592108202L114.76154525506497,111.35250693564831L115.11901192096869,150.4901885030433L115.17710025417806,86.66052856897247L115.46307358690103,142.47174502737346L115.7535152529478,153.48493651755268L115.85628691939513,128.8363709323815L116.23162691859405,139.88896226875676L116.24503191856543,119.95368786951832L116.26737358518442,57.09992946753607L116.56675191787879,149.61671988974467L116.64718191770713,134.52460832526384L116.98230691699187,143.2000554947944L117.15657191661992,55.37574705506471L117.8625685817798,154.5318415741536L118.05023858137926,-137.4399481086342L118.05470691470305,85.19436318758095L118.34514858074982,100.85602722134215L118.3719585806926,131.1504817676664L118.48813524711132,97.25172350085109L118.58197024691106,152.8860546083324L118.60878024685383,140.56770563048562L119.31477691201368,144.15859802587596L120.38270857640107,100.91001228498234L120.44079690961044,142.02523294591475L120.59272024261952,66.82382072790466L120.69996024239065,153.53094879858156L120.76251690892379,132.5795715216535L120.8876302419901,115.00792844953327L121.3970202409029,96.16368559837133L121.55341190723578,8.149510624951347L121.71874024021625,141.43930917150158L122.12535857268175,111.79131115659301L122.7062419047753,88.17385888853397L123.04136690406004,136.03887713718197L123.44351690320174,133.2867949152291L123.45692190317313,138.70254840699556L124.11376690177123,103.06874359102422L124.13164023506641,103.24677952735796L124.32377856798966,129.74480874459977L124.37293023455143,87.29741475725034L124.41761356778939,120.3963289289718L124.56953690079848,33.15993001403905L124.61422023403645,96.07132386273514L124.73039690045515,142.19687346082486L124.93147190002601,113.23295143308881L125.03424356647334,134.28958746451198L125.26212856598694,133.3059480318671L125.36936856575807,140.57357690496394L125.4542668989102,134.52734714843265L125.66427856512864,136.80952852632166L126.16920023071766,24.18884635767185L126.3881485635837,67.7822348119087L126.75008356281121,141.1022578249405L126.79923522937298,135.43724345649878L126.88860189584891,142.4938213508883L127.21479022848607,137.1377750328923L127.46948522794247,52.08247171757711L127.9475968935887,116.30213634177503L128.57763189224403,142.4434172674654L128.7518968918721,-29.837212617528706L128.8814785582622,9.100831115513671L129.2702235574325,151.9688629724024L129.48470355697472,121.73388149469122L129.49364022362232,35.09488165033801L129.6634368899266,151.8872659305522L129.76620855637393,114.77655382840096L130.08346022236347,97.86058336550761L130.7134952210188,52.590873537260364L130.99946855374176,-72.96034389064795L131.33906188635032,111.09075665241252L131.43736521947383,90.72537721413993L131.4731118860642,140.71030571138022L132.1522985512813,91.07411102957303L132.25060188440483,151.35098539780037L132.3980568840901,154.83411969422625L132.72871355005105,138.32157644683514L132.90297854967912,121.60104857100485L133.28725521552562,141.12810676342536L133.61344354816276,105.95095098940052L133.7251518812577,147.8048272868109L133.78324021446704,143.54936110689513L133.82345521438123,69.29403205344832L134.17645354696114,149.67713714796378L134.44008521306515,149.218024822547L134.94947521197795,130.9482625614013L135.0165002118349,34.7539913935411L135.36949854441485,-106.77167527567588L135.75824354358514,110.06368139029951L136.15592520940302,104.41867679763371L136.32125354238352,-292.92574866277755L136.4776452087164,100.46930207514558L136.80830187467734,18.417429123468025L137.36237520682812,78.99798501262444L137.45621020662784,94.51044326377118L137.496425206542,147.00390796537468L137.56791853972277,37.881404262879386L137.84942353912194,138.5078568209905L137.85389187244576,111.45555049598818L137.9164485389789,128.83752281262494L138.46605353780586,74.17389397921787L138.51520520436762,108.62631301499437L138.9620385367473,109.50632880372352L139.26141686944166,142.06791363087078L140.15508353420097,65.25392397279047L140.72256186632313,98.5328960864529L140.72703019964695,61.310880448187234L140.85661186603704,122.33909097627406L140.86554853268464,139.40496125034582L141.30791353174052,43.270720445676915L141.97816353030998,98.27874489806062L142.26413686303297,55.29884454672468L142.29094686297574,136.3045098369218L142.31775686291851,109.9425392223934L142.3356301962137,83.18115827690106L142.3400985295375,129.63747878097985L142.85395686177412,41.14737423776131L143.09971519458293,149.55078665823743L143.63591519343854,95.59788450885864L143.88614185957113,105.74206703719439L144.32403852530322,46.67557900243159L144.36872185854116,138.76599090464904L144.40000019180775,114.23837714746062L144.4804301916361,77.44714814643073L144.7351251910925,86.81519956756217L144.93173185733954,139.0960180606248L145.31600852318604,121.20689213985636L145.72262685565155,143.28832246190328L145.73156352229913,146.37581833017902L145.8745501886606,109.16162242568839L145.95498018848897,112.37464320045844L147.21951851912337,115.71496331594672L147.3356951855421,148.24953126848095L147.53230185178916,142.8069307837201L147.77806018459796,89.32171169459113L148.05509685067338,109.25739836751382L148.11318518388273,132.75113331093542L148.524271849672,61.70686207087256L148.6538535160621,127.28696355785681L148.82811851569016,145.7819070120992L150.0792518463532,147.94205020013013L150.43225017893315,139.34373550064288L150.54842684535186,6.221495130837781L150.64673017847537,58.626253659196394L150.7316285116275,73.59746492990494L150.84333684472244,143.87815351354516L150.91483017790318,76.36893023019914L150.96845017778872,146.08055371834905L151.160588510712,107.62568956393969L151.46443517673015,84.89199876712809L151.74147184280554,129.17018002609902L152.67088517415525,144.9991629521303L152.70216350742183,121.07696377750334L152.74237850733599,96.76930528191139L152.96579517352583,98.7808818151248L152.97920017349722,41.980465408659086L153.07303517329692,94.34450206999371L153.21155350633464,150.99212135499238L153.29645183948676,133.91972203310183L153.90414517152308,111.48652281548397L154.26608017075063,146.9127405803866L154.27054850407444,132.08944647806334L154.4224718370835,128.51225752128872L155.03463350244363,110.02369705810763L155.0569751690626,153.97100706181018L155.17315183548132,117.2656634481547L155.37869516837597,136.94345532189388L155.44572016823292,104.78525232647803L155.81212350078422,152.5704624695892L156.0042618337075,142.08329724012935L156.1204385001262,124.19929262864478L156.30364016640186,133.02122022384685L156.49577849932513,141.84669461576982L157.08559849806628,141.56531057521886L157.11687683133283,138.86394215988386L157.13475016462803,132.12069848071172L157.5905201636553,140.62651160298648L157.76925349660712,111.12034920168861L158.18927682904402,94.65101823146794L158.25183349557716,116.80065602339843L158.33226349540553,135.51655745513267L158.51993349500498,75.23988870581567L159.73532015907765,108.89113774118209L159.97214182523888,107.46372194265673L160.50387349077067,122.53323666219973L161.31711015570164,96.47496673207569L161.4824384886821,104.63114483764772L161.902461821119,99.98378040907514L162.61292681960265,153.31624148058526L162.72910348602136,93.99396585202139L162.9078368189732,-55.53382115538662L163.11338015186786,140.67361749693532L163.40382181791463,104.95127224588364L163.43510015118122,48.03305743898113L163.47084681777162,136.84401449490537L163.6853268173138,92.46419430653893L163.72554181722802,132.30984094579577L163.989173483332,65.37430788859388L164.04726181654135,90.2283616063596L164.69517014849185,115.22061194916114L164.74879014837742,89.02255845107595L164.89624514806272,95.31217677394062L165.08391514766217,112.95716312731768L165.37435681370894,10.500357324403438L165.7050134796699,126.0930997656002L165.91502514588834,131.88518869237453L166.2054668119351,27.41010846267295L166.3350484783252,59.46640527590296L166.39313681153456,134.7655211777646L166.70145181087653,100.0079740376418L166.71485681084792,145.81264108298348L166.90699514377116,144.1893207022614L167.1259434766372,110.39446161906034L167.3761701427698,97.35923370472494L167.96599014151096,106.93884160596548L168.00173680810133,139.71579074755184L168.0330151413679,142.7700105358449L168.448570140481,153.64202004229978L168.50219014036654,144.74110034305522L168.5915568068425,146.57388372369573L169.10094680575529,124.89326525596655L169.11882013905046,120.8764143832458L169.239465138793,153.28459610876197L169.24840180544058,30.58376227991397L169.65055180458228,120.21765904415875L169.96333513724804,-79.99798412801334L170.08398013699053,-211.01393689048672L170.11525847025712,34.556191181087655L170.1286634702285,153.910552641987L170.24037180332343,140.0796181304556L170.84806513535978,107.09942531357464L171.25915180114905,124.43064031732536L171.2904301344156,154.15854134876656L171.69258013355733,80.89375614682949L171.73279513347148,64.8646713195849L171.78641513335702,-27.820726091191204L171.8713134665092,155.395367321893L171.94727513301373,65.66003219732833L172.18856513249875,-25.217194986102896L172.2421851323843,75.1046712242872L172.3538934654792,80.40197786504818L172.51922179845968,150.16312702434902L172.7783851312399,88.65176902939857L172.98392846413455,-96.78777398279897L173.06882679728668,95.44381431111535L173.10010513055323,146.47686785322693L173.30564846344788,115.96896119653681L173.53800179628533,109.71711460136758L173.5514067962567,94.65946673440465L173.70779846258958,117.7668017927776L174.28868179468316,-2.8072902675091314L174.52103512752055,30.115551965128248L174.52550346084433,120.03418689602856L174.6193384606441,154.53902904272752L174.86509679345292,-73.38564459463791L175.2538417926232,69.52318163972186L175.258310125947,137.10866726774742L175.42810679225127,141.03007263910828L175.58449845858414,128.77797930529195L175.62471345849832,137.72723110193695L175.79897845812638,106.93969930096691L176.01792679099242,130.7716022518331L176.26368512380122,61.22475461099134L176.4066717901627,152.5701050966719L176.8311634559234,137.2925309722913L177.5103501211405,126.11284953963053L177.7292984540065,141.14202462579144L177.8901584536632,-335.07694161766744L178.16719511973858,146.86615676165601L178.51125678567092,21.22766886735306L178.5246617856423,132.06500631397694L178.86425511825087,133.9577278659547L178.9580901180506,142.24798193144701L178.99383678464096,91.36299679379582L179.0519251178503,131.66667328108238L179.0608617844979,150.84127890800323L179.08767178444066,145.28451331413106L179.52556845017276,112.94355188055599L179.53450511682033,119.4733455210893L179.9232501159906,105.10444331408439L179.93665511596203,-34.64456409631816L180.05730011570455,133.2987694976161L180.82138511407376,116.08163828768974L180.85266344734032,130.32324529743053L181.1475734467109,103.32020982115117L181.1699151133299,122.17393496705104L181.63462177900473,150.3390881260356L181.7105834455093,116.03481311275706L182.00996177820363,118.0805565685875L182.09932844467957,114.79149098047887L182.5774401103258,143.52331431847637L182.80979344316324,110.9409666427681L182.87681844302017,112.25042658960038L182.94384344287715,139.76884456988012L183.0153367760579,59.543481809315736L183.07342510926722,119.8541289540876L183.2298167756001,43.5350230966464L183.31471510875224,-622.0826052497088L183.34599344201882,107.41440240834794L184.38711510646343,86.65420980144992L184.65521510589122,95.03468965198311L184.78926510560512,138.9914207049925L184.87416343875728,124.25080405017944L185.27184510457516,119.70862327599617L185.44611010420323,143.76842759758432L185.4639834374984,130.77660132922063L185.50419843741258,135.0588259357991L185.53100843735535,2.4666970135030795L185.64271677045028,112.49341116915771L185.89741176990668,94.84107432818394L186.54978843518097,122.86727986107465L187.06811510074138,134.2496466385883L187.21557010042667,154.3891988933714L187.7026184327205,51.81426593283304L187.72942843266327,96.05443100031584L187.76964343257742,122.13887513007263L188.34605843134722,140.56209125016233L188.4979817643563,106.62499567416509L188.81970176366963,109.72518604998L189.64187509524822,127.98597255365311L189.72677342840038,116.75675612706962L189.91891176132359,58.31861876511161L190.2272267606656,128.19727835478835L191.18791842528185,141.32339293509568L191.6392200909853,85.66216744386358L191.8849784237941,100.46271812655979L191.95200342365106,124.55307938636886L192.260318422993,81.57972154907759L192.41224175600212,123.95301607479456L192.74289842196305,46.515823985645056L192.8143917551438,128.80811464705687L192.86354342170554,144.37591805065645L193.01546675471465,94.68670165829037L193.37293342061838,135.4489963640907L193.64550175336996,149.37911972880735L193.64997008669377,92.95402516488706L193.90913341947396,134.68892735675604L193.9985000859499,119.18787810650986L194.19063841887314,-12.047391825626562L194.21298008549212,130.4438446728478L194.5347000848055,127.89690486403688L195.1647350834608,138.92916530694245L195.26750674990814,126.6664958065023L195.27197508323192,107.8858736215207L195.87966841526824,136.75689215699526L196.30862841435274,-6.046327790655624L196.57226008045674,123.5987176004875L196.6214117470185,146.9841343664832L197.89041841097674,58.36056709455312L198.0736200772524,107.20576291993447L198.38640340991816,67.97035591555384L198.51151674298444,126.58271102088034L198.73940174249807,9.309263431221467L199.17283007490636,107.21685080314126L199.20857674149673,137.69036886241932L199.31134840794405,101.70583722958645L199.333690074563,53.12671331008089L199.4096517410676,-16.92695542269996L199.6375367405812,107.3933702352696L199.80733340688548,98.55757864260491L200.71887340493996,141.08773398241038L201.04059340425334,153.805150938325L201.50976840325197,114.54930608756536L201.89851340242228,103.12772151687076L201.95213340230782,127.85854062240324L202.0951200686693,149.76004921856315L202.2202334017356,139.93781773620486L202.60897840090593,149.57370306707372L202.6536617341439,-235.83534847674906L202.6804717340867,-15.988015573027724L202.69834506738187,124.54256537155676L202.83686340041956,111.6227057218208L202.84580006706713,154.90391954531867L202.90835673360027,139.4349961133485L202.9351667335431,142.4259495007879L203.26135506618024,77.68439404204136L204.365033397158,126.9589925909847L204.39631173042457,149.4940472334755L204.7582467296521,107.07699679646018L204.8744233960708,146.21321261696264L205.2765733952125,115.17044715021326L205.39721839495502,43.88794594418789L205.71000172762078,-64.22232952814534L206.01384839363894,48.44972318459929L206.08534172681968,-60.64120843341735L206.38025172619024,145.80537760792313L206.5947317257325,61.638950857958065L206.66622505891323,129.08691110051416L206.79580672530332,76.56471672395361L206.90751505839825,138.28637780414394L206.9924133915504,143.48253755068532L207.6358533901771,150.8296850054629L207.67160005676746,141.58177044668335L207.95757338949045,136.74338864004054L208.07821838923297,107.20732500213514L208.6814433879455,38.109750019054985L208.71272172121206,86.66474246180555L208.7931517210404,137.45160646260328L209.25339005339146,154.37869420133103L209.36063005316257,122.88264586065327L209.40531338640056,154.053571211747L209.4678700529337,154.69847265304088L209.7449067190091,151.0128836856216L210.04875338502725,122.90990771699072L210.16939838476975,48.1114267300772L210.4643083841403,100.91181468752157L210.5223967173497,146.58794349936517L210.66538338371117,142.29100859482148L210.7458133835395,-28.473419556910727L210.79049671677748,48.95966636921264L210.8843317165772,149.99453246614382L211.37138004887106,97.2072310905841L211.6841633815368,123.53553821217022L212.1220600472689,59.75730890227885L212.64485504615308,118.23128299886149L212.81465171245733,146.10363172189574L212.96210671214263,147.45001295246675L213.03806837864718,118.87444652012077L213.21233337827525,134.7896858021525L214.29367004263403,42.93882977121376L214.36516337581475,152.2227277445291L215.00860337444146,140.00648720122206L215.24095670727888,-71.46132506159327L215.43756337352593,133.61220937091338L215.5939550398588,131.40838485375815L215.7280050395727,102.90034118550355L215.83524503934382,129.29120617728995L215.94248503911496,86.32503308943089L215.97823170570533,143.96584868398642L216.02738337226708,153.3045020392192L216.0318517055909,151.41737000684006L216.29995170501869,98.93240793204262L216.42059670476118,119.65191596300363L216.43847003805638,129.70090470481688L216.50549503791333,92.08342744735708L216.62167170433202,69.37048706874413L216.67082337089377,131.69644399888534L216.71997503745558,147.92305660647546L216.86743003714085,100.47716635105235L217.24723836966356,105.41579074305454L217.48406003582477,129.77409467827152L217.50193336911994,130.55436509613486L217.56002170232932,132.66999619249177L217.91748836823305,151.4717893562645L217.93536170152822,93.48033084979323L218.05600670127075,67.92701538553031L218.09622170118493,17.76740404219737L218.48496670035522,96.21341947809145L218.51624503362177,145.9954264535944L218.71285169986885,135.8038749219736L218.94967336603005,148.81023642736625L219.10606503236292,79.43661106504229L219.12393836565812,4.938748032672976L219.3965066984097,152.54054258743813L219.82993503081798,79.54497067700933L219.99973169712226,9.3353671921343L220.20527503001688,127.18694886247366L220.20974336334072,146.23045249366393L220.2231483633121,133.76429071068236L220.47337502944467,117.31940404800221L220.84871502864362,148.18946050661208L220.9559550284147,147.88269004064165L221.17490336128077,63.07246167748387L221.2374600278139,84.71824716234734L221.89877335973583,66.18293610640761L222.0328233594497,85.38073575359034L222.29645502555368,138.40083761642904L222.52434002506732,135.77073350424962L223.44481668976943,141.77624346548396L223.4850316896836,119.38690063792669L223.57439835615952,123.7019268989919L223.71291668919721,153.151968803986L223.72185335584481,25.825610175264018L224.32507835455738,132.82885829491693L224.48593835421403,138.8988611194224L224.68254502046108,126.61297688144982L224.94617668656508,86.9871777739825L224.99979668645062,124.81981838835688L225.50471835203965,154.04236433371742L225.67004668502014,-106.29519462648028L225.8085650180578,152.14731869243099L225.9649566843907,152.03442873132298L226.6352066829602,80.83825872243798L226.67542168287434,151.39111345605681L226.79606668261687,147.08948479490056L226.93011668233075,-85.93676376075541L227.08204001533986,93.18731406181962L227.28311501491072,105.21495337873615L227.3188616815011,126.99168858739155L227.44397501456737,146.6046322966694L227.9488966801564,54.14518261800089L228.02039001333713,109.68116185002779L228.12316167978446,-20.433726376821625L228.29742667941252,64.43424101940286L228.37338834591708,119.25257399903253L228.75766501176358,147.7235011232733L228.79788001167773,141.54385162636686L228.94980334468684,113.8510926349588L229.4100416770379,69.39054967355999L229.46366167692344,68.120539553339L229.6379266765515,93.56170000166722L229.87028000938892,150.66449481274344L231.15716000664233,29.148652087100487L231.25099500644205,153.43860027020534L231.8810300050974,109.11709686778852L232.07316833802062,154.04877516361103L232.30999000418186,51.73791036043595L232.34126833744844,-115.2103499392282L232.43063500392438,86.84758066145642L232.54234333701928,99.78035752939013L232.5468116703431,117.69309803101292L232.9489616694848,140.36867895561468L233.18131500232218,143.48624283452602L233.44941500174997,74.7537289478118L233.48069333501658,141.38136400159271L233.61027500140668,147.0632142599597L233.84709666756788,141.6269827821025L233.86497000086308,-113.05318485884106L233.92305833407244,135.22390943457512L233.98561500060558,16.435225536462724L234.09285500037672,144.2616364068982L234.14647500026226,95.83087093364094L234.28946166662377,122.90546800590849L234.32073999989035,108.91491288088335L234.3832966664235,141.3641334476632L234.8882183320125,142.33570403434L234.93736999857427,113.38985989689962L234.96417999851704,35.28250553948959L235.1473816647927,63.05495144040171L235.16525499808787,29.473465741938384L235.22781166462104,137.1804008170813L235.33058333106834,74.08575442332298L235.80422666339078,77.50488303604334L235.99636499631404,111.99916338872497L236.19297166256112,145.66690958664287L236.27340166238943,149.68972185396893L236.34489499557017,74.75769837685219L236.47894499528408,-89.91124781516925L236.78725999462606,122.64177237096658L237.34580166010062,96.83603975385773L237.53793999302388,117.40809468329415L237.54687665967148,149.1937648987145L237.71220499265192,-38.56354243943224L237.71667332597573,121.21370605014545L237.76135665921367,146.93783541022287L237.79710332580407,132.98848486462595L237.908811658899,5.935066434904087L238.27968332477408,145.72139186477668L238.30202499139307,63.128588906900575L238.36904999125005,102.38110837676851L239.2359066560666,82.06799446867917L239.8525366547505,144.9321270438972L240.7998233193954,137.78285075822478L241.14835331865152,-87.67328537957576L241.3181499849558,123.58164242608721" fill="none"></path></g></g></g></g></g></g><g transform="translate(61, 177)" clip-path="url(#clip_1)"><clipPath id="clip_1"><rect width="268" height="22"></rect></clipPath><g><g><line x1="0" y1="0" x2="0" y2="5" style="visibility: inherit;" fill="rgb(0, 0, 0)" stroke="rgb(204, 204, 204)" stroke-width="1px"></line><line x1="22.34166661898295" y1="0" x2="22.34166661898295" y2="5" style="visibility: inherit;" fill="rgb(0, 0, 0)" stroke="rgb(204, 204, 204)" stroke-width="1px"></line><line x1="44.6833332379659" y1="0" x2="44.6833332379659" y2="5" style="visibility: inherit;" fill="rgb(0, 0, 0)" stroke="rgb(204, 204, 204)" stroke-width="1px"></line><line x1="67.02499985694885" y1="0" x2="67.02499985694885" y2="5" style="visibility: inherit;" fill="rgb(0, 0, 0)" stroke="rgb(204, 204, 204)" stroke-width="1px"></line><line x1="89.3666664759318" y1="0" x2="89.3666664759318" y2="5" style="visibility: inherit;" fill="rgb(0, 0, 0)" stroke="rgb(204, 204, 204)" stroke-width="1px"></line><line x1="111.70833309491476" y1="0" x2="111.70833309491476" y2="5" style="visibility: inherit;" fill="rgb(0, 0, 0)" stroke="rgb(204, 204, 204)" stroke-width="1px"></line><line x1="134.0499997138977" y1="0" x2="134.0499997138977" y2="5" style="visibility: inherit;" fill="rgb(0, 0, 0)" stroke="rgb(204, 204, 204)" stroke-width="1px"></line><line x1="156.39166633288067" y1="0" x2="156.39166633288067" y2="5" style="visibility: inherit;" fill="rgb(0, 0, 0)" stroke="rgb(204, 204, 204)" stroke-width="1px"></line><line x1="178.7333329518636" y1="0" x2="178.7333329518636" y2="5" style="visibility: inherit;" fill="rgb(0, 0, 0)" stroke="rgb(204, 204, 204)" stroke-width="1px"></line><line x1="201.07499957084656" y1="0" x2="201.07499957084656" y2="5" style="visibility: inherit;" fill="rgb(0, 0, 0)" stroke="rgb(204, 204, 204)" stroke-width="1px"></line><line x1="223.41666618982953" y1="0" x2="223.41666618982953" y2="5" style="visibility: inherit;" fill="rgb(0, 0, 0)" stroke="rgb(204, 204, 204)" stroke-width="1px"></line><line x1="245.75833280881244" y1="0" x2="245.75833280881244" y2="5" style="visibility: inherit;" fill="rgb(0, 0, 0)" stroke="rgb(204, 204, 204)" stroke-width="1px"></line><line x1="268.0999994277954" y1="0" x2="268.0999994277954" y2="5" style="visibility: inherit;" fill="rgb(0, 0, 0)" stroke="rgb(204, 204, 204)" stroke-width="1px"></line></g><g transform="translate(0, 8)"><text style="text-anchor: middle; visibility: hidden; font-family: &quot;Helvetica Neue&quot;, sans-serif; font-size: 12px; font-weight: 200;" x="0" y="0" dx="0em" dy="0.95em" fill="rgb(50, 49, 63)" stroke="none" stroke-width="1px">-50k</text><text style="text-anchor: middle; visibility: hidden; font-family: &quot;Helvetica Neue&quot;, sans-serif; font-size: 12px; font-weight: 200;" x="22.34166661898295" y="0" dx="0em" dy="0.95em" fill="rgb(50, 49, 63)" stroke="none" stroke-width="1px">0</text><text style="text-anchor: middle; visibility: hidden; font-family: &quot;Helvetica Neue&quot;, sans-serif; font-size: 12px; font-weight: 200;" x="44.6833332379659" y="0" dx="0em" dy="0.95em" fill="rgb(50, 49, 63)" stroke="none" stroke-width="1px">50k</text><text style="text-anchor: middle; visibility: hidden; font-family: &quot;Helvetica Neue&quot;, sans-serif; font-size: 12px; font-weight: 200;" x="67.02499985694885" y="0" dx="0em" dy="0.95em" fill="rgb(50, 49, 63)" stroke="none" stroke-width="1px">100k</text><text style="text-anchor: middle; visibility: hidden; font-family: &quot;Helvetica Neue&quot;, sans-serif; font-size: 12px; font-weight: 200;" x="89.3666664759318" y="0" dx="0em" dy="0.95em" fill="rgb(50, 49, 63)" stroke="none" stroke-width="1px">150k</text><text style="text-anchor: middle; visibility: hidden; font-family: &quot;Helvetica Neue&quot;, sans-serif; font-size: 12px; font-weight: 200;" x="111.70833309491476" y="0" dx="0em" dy="0.95em" fill="rgb(50, 49, 63)" stroke="none" stroke-width="1px">200k</text><text style="text-anchor: middle; visibility: hidden; font-family: &quot;Helvetica Neue&quot;, sans-serif; font-size: 12px; font-weight: 200;" x="134.0499997138977" y="0" dx="0em" dy="0.95em" fill="rgb(50, 49, 63)" stroke="none" stroke-width="1px">250k</text><text style="text-anchor: middle; visibility: hidden; font-family: &quot;Helvetica Neue&quot;, sans-serif; font-size: 12px; font-weight: 200;" x="156.39166633288067" y="0" dx="0em" dy="0.95em" fill="rgb(50, 49, 63)" stroke="none" stroke-width="1px">300k</text><text style="text-anchor: middle; visibility: hidden; font-family: &quot;Helvetica Neue&quot;, sans-serif; font-size: 12px; font-weight: 200;" x="178.7333329518636" y="0" dx="0em" dy="0.95em" fill="rgb(50, 49, 63)" stroke="none" stroke-width="1px">350k</text><text style="text-anchor: middle; visibility: hidden; font-family: &quot;Helvetica Neue&quot;, sans-serif; font-size: 12px; font-weight: 200;" x="201.07499957084656" y="0" dx="0em" dy="0.95em" fill="rgb(50, 49, 63)" stroke="none" stroke-width="1px">400k</text><text style="text-anchor: middle; visibility: hidden; font-family: &quot;Helvetica Neue&quot;, sans-serif; font-size: 12px; font-weight: 200;" x="223.41666618982953" y="0" dx="0em" dy="0.95em" fill="rgb(50, 49, 63)" stroke="none" stroke-width="1px">450k</text><text style="text-anchor: middle; visibility: hidden; font-family: &quot;Helvetica Neue&quot;, sans-serif; font-size: 12px; font-weight: 200;" x="245.75833280881244" y="0" dx="0em" dy="0.95em" fill="rgb(50, 49, 63)" stroke="none" stroke-width="1px">500k</text><text style="text-anchor: middle; visibility: hidden; font-family: &quot;Helvetica Neue&quot;, sans-serif; font-size: 12px; font-weight: 200;" x="268.0999994277954" y="0" dx="0em" dy="0.95em" fill="rgb(50, 49, 63)" stroke="none" stroke-width="1px">550k</text></g><line x1="0" y1="0" x2="268.0999994277954" y2="0" fill="rgb(0, 0, 0)" stroke="rgb(204, 204, 204)" stroke-width="1px"></line></g></g></g></g></svg>