<svg viewBox="0 0 330 200" xmlns="http://www.w3.org/2000/svg"><g><g><g><g><g><line x1="61.90000057220459" y1="177.95999908447266" x2="56.90000057220459" y2="177.95999908447266" style="visibility: inherit;" fill="rgb(0, 0, 0)" stroke="rgb(204, 204, 204)" stroke-width="1px"></line><line x1="61.90000057220459" y1="161.7818173495206" x2="56.90000057220459" y2="161.7818173495206" style="visibility: inherit;" fill="rgb(0, 0, 0)" stroke="rgb(204, 204, 204)" stroke-width="1px"></line><line x1="61.90000057220459" y1="145.60363561456853" x2="56.90000057220459" y2="145.60363561456853" style="visibility: inherit;" fill="rgb(0, 0, 0)" stroke="rgb(204, 204, 204)" stroke-width="1px"></line><line x1="61.90000057220459" y1="129.4254538796165" x2="56.90000057220459" y2="129.4254538796165" style="visibility: inherit;" fill="rgb(0, 0, 0)" stroke="rgb(204, 204, 204)" stroke-width="1px"></line><line x1="61.90000057220459" y1="113.24727214466442" x2="56.90000057220459" y2="113.24727214466442" style="visibility: inherit;" fill="rgb(0, 0, 0)" stroke="rgb(204, 204, 204)" stroke-width="1px"></line><line x1="61.90000057220459" y1="97.06909040971235" x2="56.90000057220459" y2="97.06909040971235" style="visibility: inherit;" fill="rgb(0, 0, 0)" stroke="rgb(204, 204, 204)" stroke-width="1px"></line><line x1="61.90000057220459" y1="80.89090867476031" x2="56.90000057220459" y2="80.89090867476031" style="visibility: inherit;" fill="rgb(0, 0, 0)" stroke="rgb(204, 204, 204)" stroke-width="1px"></line><line x1="61.90000057220459" y1="64.71272693980822" x2="56.90000057220459" y2="64.71272693980822" style="visibility: inherit;" fill="rgb(0, 0, 0)" stroke="rgb(204, 204, 204)" stroke-width="1px"></line><line x1="61.90000057220459" y1="48.53454520485619" x2="56.90000057220459" y2="48.53454520485619" style="visibility: inherit;" fill="rgb(0, 0, 0)" stroke="rgb(204, 204, 204)" stroke-width="1px"></line><line x1="61.90000057220459" y1="32.356363469904124" x2="56.90000057220459" y2="32.356363469904124" style="visibility: inherit;" fill="rgb(0, 0, 0)" stroke="rgb(204, 204, 204)" stroke-width="1px"></line><line x1="61.90000057220459" y1="16.178181734952034" x2="56.90000057220459" y2="16.178181734952034" style="visibility: inherit;" fill="rgb(0, 0, 0)" stroke="rgb(204, 204, 204)" stroke-width="1px"></line><line x1="61.90000057220459" y1="0" x2="56.90000057220459" y2="0" style="visibility: inherit;" fill="rgb(0, 0, 0)" stroke="rgb(204, 204, 204)" stroke-width="1px"></line></g><g transform="translate(51.90000057220459, 0)"><text style="text-anchor: end; visibility: hidden; font-family: &quot;Helvetica Neue&quot;, sans-serif; font-size: 12px; font-weight: 200;" x="0" y="177.95999908447266" dx="0em" dy="0.3em" fill="rgb(50, 49, 63)" stroke="none" stroke-width="1px">-0.03</text><text style="text-anchor: end; visibility: inherit; font-family: &quot;Helvetica Neue&quot;, sans-serif; font-size: 12px; font-weight: 200;" x="0" y="161.7818173495206" dx="0em" dy="0.3em" fill="rgb(50, 49, 63)" stroke="none" stroke-width="1px">-0.02</text><text style="text-anchor: end; visibility: hidden; font-family: &quot;Helvetica Neue&quot;, sans-serif; font-size: 12px; font-weight: 200;" x="0" y="145.60363561456853" dx="0em" dy="0.3em" fill="rgb(50, 49, 63)" stroke="none" stroke-width="1px">-0.01</text><text style="text-anchor: end; visibility: inherit; font-family: &quot;Helvetica Neue&quot;, sans-serif; font-size: 12px; font-weight: 200;" x="0" y="129.4254538796165" dx="0em" dy="0.3em" fill="rgb(50, 49, 63)" stroke="none" stroke-width="1px">0</text><text style="text-anchor: end; visibility: hidden; font-family: &quot;Helvetica Neue&quot;, sans-serif; font-size: 12px; font-weight: 200;" x="0" y="113.24727214466442" dx="0em" dy="0.3em" fill="rgb(50, 49, 63)" stroke="none" stroke-width="1px">0.01</text><text style="text-anchor: end; visibility: inherit; font-family: &quot;Helvetica Neue&quot;, sans-serif; font-size: 12px; font-weight: 200;" x="0" y="97.06909040971235" dx="0em" dy="0.3em" fill="rgb(50, 49, 63)" stroke="none" stroke-width="1px">0.02</text><text style="text-anchor: end; visibility: hidden; font-family: &quot;Helvetica Neue&quot;, sans-serif; font-size: 12px; font-weight: 200;" x="0" y="80.89090867476031" dx="0em" dy="0.3em" fill="rgb(50, 49, 63)" stroke="none" stroke-width="1px">0.03</text><text style="text-anchor: end; visibility: inherit; font-family: &quot;Helvetica Neue&quot;, sans-serif; font-size: 12px; font-weight: 200;" x="0" y="64.71272693980822" dx="0em" dy="0.3em" fill="rgb(50, 49, 63)" stroke="none" stroke-width="1px">0.04</text><text style="text-anchor: end; visibility: hidden; font-family: &quot;Helvetica Neue&quot;, sans-serif; font-size: 12px; font-weight: 200;" x="0" y="48.53454520485619" dx="0em" dy="0.3em" fill="rgb(50, 49, 63)" stroke="none" stroke-width="1px">0.05</text><text style="text-anchor: end; visibility: inherit; font-family: &quot;Helvetica Neue&quot;, sans-serif; font-size: 12px; font-weight: 200;" x="0" y="32.356363469904124" dx="0em" dy="0.3em" fill="rgb(50, 49, 63)" stroke="none" stroke-width="1px">0.06</text><text style="text-anchor: end; visibility: hidden; font-family: &quot;Helvetica Neue&quot;, sans-serif; font-size: 12px; font-weight: 200;" x="0" y="16.178181734952034" dx="0em" dy="0.3em" fill="rgb(50, 49, 63)" stroke="none" stroke-width="1px">0.07</text><text style="text-anchor: end; visibility: hidden; font-family: &quot;Helvetica Neue&quot;, sans-serif; font-size: 12px; font-weight: 200;" x="0" y="0" dx="0em" dy="0.3em" fill="rgb(50, 49, 63)" stroke="none" stroke-width="1px">0.08</text></g><line x1="61.90000057220459" y1="0" x2="61.90000057220459" y2="177.95999908447266" fill="rgb(0, 0, 0)" stroke="rgb(204, 204, 204)" stroke-width="1px"></line></g></g><g transform="translate(61, 0)" clip-path="url(#clip_0)"><clipPath id="clip_0"><rect width="268" height="177"></rect></clipPath><g><g><g><line x1="0" y1="0" x2="0" y2="177.95999908447266" fill="rgb(0, 0, 0)" stroke="rgb(60, 60, 60)" stroke-width="1px" opacity="0.25"></line><line x1="22.34166661898295" y1="0" x2="22.34166661898295" y2="177.95999908447266" fill="rgb(0, 0, 0)" stroke="rgb(60, 60, 60)" stroke-width="1px" opacity="0.25"></line><line x1="44.6833332379659" y1="0" x2="44.6833332379659" y2="177.95999908447266" fill="rgb(0, 0, 0)" stroke="rgb(60, 60, 60)" stroke-width="1px" opacity="0.25"></line><line x1="67.02499985694885" y1="0" x2="67.02499985694885" y2="177.95999908447266" fill="rgb(0, 0, 0)" stroke="rgb(60, 60, 60)" stroke-width="1px" opacity="0.25"></line><line x1="89.3666664759318" y1="0" x2="89.3666664759318" y2="177.95999908447266" fill="rgb(0, 0, 0)" stroke="rgb(60, 60, 60)" stroke-width="1px" opacity="0.25"></line><line x1="111.70833309491476" y1="0" x2="111.70833309491476" y2="177.95999908447266" fill="rgb(0, 0, 0)" stroke="rgb(60, 60, 60)" stroke-width="1px" opacity="0.25"></line><line x1="134.0499997138977" y1="0" x2="134.0499997138977" y2="177.95999908447266" fill="rgb(0, 0, 0)" stroke="rgb(60, 60, 60)" stroke-width="1px" opacity="0.25"></line><line x1="156.39166633288067" y1="0" x2="156.39166633288067" y2="177.95999908447266" fill="rgb(0, 0, 0)" stroke="rgb(60, 60, 60)" stroke-width="1px" opacity="0.25"></line><line x1="178.7333329518636" y1="0" x2="178.7333329518636" y2="177.95999908447266" fill="rgb(0, 0, 0)" stroke="rgb(60, 60, 60)" stroke-width="1px" opacity="0.25"></line><line x1="201.07499957084656" y1="0" x2="201.07499957084656" y2="177.95999908447266" fill="rgb(0, 0, 0)" stroke="rgb(60, 60, 60)" stroke-width="1px" opacity="0.25"></line><line x1="223.41666618982953" y1="0" x2="223.41666618982953" y2="177.95999908447266" fill="rgb(0, 0, 0)" stroke="rgb(60, 60, 60)" stroke-width="1px" opacity="0.25"></line><line x1="245.75833280881244" y1="0" x2="245.75833280881244" y2="177.95999908447266" fill="rgb(0, 0, 0)" stroke="rgb(60, 60, 60)" stroke-width="1px" opacity="0.25"></line><line x1="268.0999994277954" y1="0" x2="268.0999994277954" y2="177.95999908447266" fill="rgb(0, 0, 0)" stroke="rgb(60, 60, 60)" stroke-width="1px" opacity="0.25"></line></g><g><line x1="0" y1="177.95999908447266" x2="268.0999994277954" y2="177.95999908447266" fill="rgb(0, 0, 0)" stroke="rgb(60, 60, 60)" stroke-width="1px" opacity="0.25"></line><line x1="0" y1="161.7818173495206" x2="268.0999994277954" y2="161.7818173495206" fill="rgb(0, 0, 0)" stroke="rgb(60, 60, 60)" stroke-width="1px" opacity="0.25"></line><line x1="0" y1="145.60363561456853" x2="268.0999994277954" y2="145.60363561456853" fill="rgb(0, 0, 0)" stroke="rgb(60, 60, 60)" stroke-width="1px" opacity="0.25"></line><line x1="0" y1="129.4254538796165" x2="268.0999994277954" y2="129.4254538796165" fill="rgb(0, 0, 0)" stroke="rgb(60, 60, 60)" stroke-width="1px" opacity="0.25"></line><line x1="0" y1="113.24727214466442" x2="268.0999994277954" y2="113.24727214466442" fill="rgb(0, 0, 0)" stroke="rgb(60, 60, 60)" stroke-width="1px" opacity="0.25"></line><line x1="0" y1="97.06909040971235" x2="268.0999994277954" y2="97.06909040971235" fill="rgb(0, 0, 0)" stroke="rgb(60, 60, 60)" stroke-width="1px" opacity="0.25"></line><line x1="0" y1="80.89090867476031" x2="268.0999994277954" y2="80.89090867476031" fill="rgb(0, 0, 0)" stroke="rgb(60, 60, 60)" stroke-width="1px" opacity="0.25"></line><line x1="0" y1="64.71272693980822" x2="268.0999994277954" y2="64.71272693980822" fill="rgb(0, 0, 0)" stroke="rgb(60, 60, 60)" stroke-width="1px" opacity="0.25"></line><line x1="0" y1="48.53454520485619" x2="268.0999994277954" y2="48.53454520485619" fill="rgb(0, 0, 0)" stroke="rgb(60, 60, 60)" stroke-width="1px" opacity="0.25"></line><line x1="0" y1="32.356363469904124" x2="268.0999994277954" y2="32.356363469904124" fill="rgb(0, 0, 0)" stroke="rgb(60, 60, 60)" stroke-width="1px" opacity="0.25"></line><line x1="0" y1="16.178181734952034" x2="268.0999994277954" y2="16.178181734952034" fill="rgb(0, 0, 0)" stroke="rgb(60, 60, 60)" stroke-width="1px" opacity="0.25"></line><line x1="0" y1="0" x2="268.0999994277954" y2="0" fill="rgb(0, 0, 0)" stroke="rgb(60, 60, 60)" stroke-width="1px" opacity="0.25"></line></g></g></g><g><g><line x1="0" y1="129.4254538796165" x2="268.0999994277954" y2="129.4254538796165" fill="rgb(0, 0, 0)" stroke="rgb(153, 153, 153)" stroke-width="1.5px"></line></g></g><g><g><line x1="22.34166661898295" y1="0" x2="22.34166661898295" y2="177.95999908447266" fill="rgb(0, 0, 0)" stroke="rgb(153, 153, 153)" stroke-width="1.5px"></line></g></g><g><g><g><g><g><path style="fill: none;" stroke="rgb(255, 112, 67)" stroke-width="2px" d="M23.56152161637942,243.69881871409873L23.7179132827123,57.0935476458061L23.72684994935989,40.380951309681365L23.762596615950265,347.0110618238768L24.459656614462535,215.7479956230067L24.73669328053792,148.39546038220212L24.928831613461178,159.50828532628788L24.960109946727755,92.91178814338558L25.17458994626999,285.422535769208L25.232678279479344,75.72295521430212L25.339918279250462,-213.2125800256306L25.53205661217372,144.7059341417002L25.56780327876409,56.42848093895823L25.849308278163274,57.19028748343261L25.925269944667814,49.85021595341769L25.952079944610595,70.4685739589546L26.0771932776769,80.6305749577472L26.680418276389442,50.51418357893492L26.872556609312692,131.64328511713722L27.104909942150115,104.15543274886163L27.274706608454384,223.92070538252926L27.614299941062924,215.46040117723763L27.97623494029045,173.98044614092433L28.22199327309926,110.43188485958312L28.235398273070654,170.6730889477725L28.297954939603805,96.38065026363135L28.31582827289899,67.16342960256263L28.53030827244123,83.52812010422329L28.561586605707802,9.717685288845075L28.758193271954852,70.08549329935003L28.89224327166875,94.48952202168677L29.14693827112516,63.23455954040068L29.27651993751526,96.48961908018552L29.348013270696004,45.42904277545313L29.41950660387675,98.53992759177294L29.897618269522983,174.6975456939305L30.08975660244624,150.79290200456677L30.10316160241763,130.92331091232984L30.581273268063864,78.3949851370664L30.67957660118739,83.09943753414679L30.72872826774915,171.33841927898388L30.907461600701016,101.0139050191287L30.983423267205556,63.03828503745815L31.041511600414914,202.15820352308455L31.43919326623281,167.16566756107352L31.707293265660606,114.56150463826408L32.113911598126094,84.36642991237777L32.16753159801165,94.67830297230958L32.310518264373144,102.75411625204359L32.33732826431592,95.63371977175784L32.44903659741084,123.20568959451818L32.65011159698168,123.7417984972293L33.016514929533,112.77913118565907L33.226526595751444,205.75320919714903L33.302488262255984,173.82842629563768L33.31142492890358,173.81664241769852L33.33376659552256,90.67714333554385L33.44547492861748,209.4275302669841L33.44994326194127,234.38103489183212L33.503563261826834,158.93071755273013L33.52590492844581,116.68986159699894L33.655486594835914,153.72417640754713L33.72251159469287,104.61716567858575L33.749321594635646,59.010597199984716L34.339141593376795,19.19167050628974L34.58489992618561,40.92237800593742L35.59921159068743,47.82682942051633L35.916463256677,62.79210357259174L35.92986825664838,74.7180962452132L36.18903158942859,97.51139617079922L36.46606825550398,92.3124920551445L36.77438325484594,67.8220172509034L36.83693992137909,86.10438978301764L36.84587658802668,95.0187384111153L36.85034492135048,50.374779521876974L37.10950825413068,75.04082836057658L37.89146658579509,81.10203829748802L38.50809658447901,95.54704356675828L38.517033251126605,98.11459117728127L38.74044991731643,95.3833770588932L39.05770158330599,102.15148253927033L39.29005491614342,99.94953693344802L39.38388991594314,90.60329509866094L39.41516824920972,125.19454023351834L39.89327991485595,120.24798025028161L40.01839324792226,105.10493376137141L40.143506580988564,70.37953837955486L40.37585991382599,81.16033019942198L40.65289657990138,105.60527648668594L41.09079324563344,112.96255763164962L41.22931157867114,64.72215327579242L41.25165324529012,83.96055167648618L41.63146157781283,99.64014997173506L41.64039824446042,82.38757291213882L42.00233324368795,58.688583844455266L42.413419909477234,78.7014018040019L42.489381575981774,81.96105377035254L42.5832165757815,99.62470360047628L43.18197324117025,105.80355043136424L43.19984657446543,110.30781079536202L43.23559324105581,106.52246640639035L43.73604657332102,97.80909325609844L43.798603239854174,103.97305859992721L43.968399906158446,102.87276467907171L44.02201990604401,103.31546913636886L44.20968990564346,50.59058070796574L44.553751571575795,87.63130344058355L44.90674990415573,84.67982964049803L44.915686570803324,212.66857631770728L45.156976570288336,174.57703211359862L45.282089903354645,150.86427197233783L45.751264902353284,140.33194895953685L46.22490823467572,130.73483705318847L46.28746490120888,120.14815491793146L46.56003323396047,117.61614213461527L47.13644823273023,118.093005966541L47.71733156482379,99.40258717755061L47.91393823107084,83.42012243822232L48.29374656359355,100.84810650279115L48.383113230069476,109.26633966650928L48.54397322972615,100.3817597559696L48.57525156299273,0.6287837537080634L48.736111562649405,44.49885669631436L48.82994656244914,57.12253087259599L49.10698322852453,76.63780912460089L49.19634989500046,73.88785384692606L49.692334893941876,75.69521495338591L49.737018227179846,90.71216934443937L50.04533322652181,101.04771391973117L50.10342155973117,103.47099400322028L50.130231559673945,103.01767739016124L50.1883198928833,107.70699067140644L50.44301489233971,103.87114238542547L50.54578655878703,104.52957058000078L50.83175989151001,104.62901630381332L51.47519989013672,108.69984745637693L51.716489889621734,93.9699678208484L51.846071556011836,106.33610845520849L52.087361555496855,115.05490740642712L52.26162655512491,120.09465802151496L52.27503155509631,111.11026066490726L52.32865155498187,117.2755481509596L52.46716988801956,87.77236709765856L52.96762322028478,97.03985233398632L53.468076552549995,111.2305409434718L53.58425321896871,106.411054496016L54.09364321788152,99.86352465885143L54.12938988447189,94.57300547616428L54.312591550747555,102.99878403993466L54.72367821653684,62.92960827391825L55.00965154925982,22.969032871281286L55.224131548802056,54.98078739083509L55.32690321524938,78.99514848943407L55.63074988126755,77.95813501145602L55.67543321450551,76.36354412681679L55.6888382144769,91.99099692751462L55.75586321433385,76.59526076527119L55.90331821401914,86.09172452346851L56.71655487895011,101.98605347364943L57.015933211644494,75.68679417939991L57.1410465447108,48.23056664914034L57.18572987794876,46.71348326266332L57.342121544281646,68.16616684951785L58.048118209441505,88.18248138120069L58.38324320872625,102.7828837234266L58.89263320763906,88.26779944887183L59.075834873914715,103.89984501675626L59.58075653950373,108.2660819290817L59.710338205893834,17.37707426935063L59.73267987251282,58.22549608797482L59.77289487242699,38.232208182690044L60.17504487156868,64.6115538067048L60.18844987154007,81.77247770535435L60.313563204606375,89.57209980943132L60.35824653784434,103.99740024425648L60.77380153695742,91.19096462474884L60.92572486996651,91.06205750321264L61.193824869394305,95.10412868005608L61.74789820154508,97.35506064108269L62.01152986764908,108.38849916925531L62.12770653406779,112.58189806066018L62.14111153403918,113.10109566313581L62.23494653383891,109.76136208027144L62.266224867105485,108.77015861112105L62.52538819988568,115.07083635675252L62.55219819982847,112.05714595927336L62.80242486596108,108.60076632284276L63.71843319733937,23.39361419682089L63.968659863471984,57.831605759080176L64.11164652983348,41.455406850505994L64.50039152900378,79.87188758368934L64.64784652868907,86.82006202058044L65.000844861269,97.45071742382864L65.03212319453557,79.42071436672417L65.09021152774493,111.68107973539497L65.35831152717272,109.4077898635168L65.49236152688663,120.7843382701907L65.59513319333395,117.82749561215485L65.67556319316228,43.250046334103814L66.3234715251128,82.67291892688779L66.60944485783577,93.98773506498388L67.28416318972906,79.32693493374488L67.40033985614777,95.17777386787735L68.2582598543167,95.9758715216683L68.28953818758328,89.11359979264536L68.7944598531723,56.930856784757054L68.80786485314368,73.42199488736048L68.90169985294342,72.73349437391049L69.16533151904743,83.12676105588739L69.35746985197066,92.65206735336443L69.73727818449338,104.75148944817872L69.87579651753107,114.32636963621923L69.94728985071183,48.05422759533201L70.02325151721637,70.05169758089954L70.20198485016823,95.34396250454645L70.40350668307146,110.03485200400229L70.40797501639526,105.93217029335153L70.50627834951878,102.04431384716008L70.66267001585166,94.3110839648443L70.7779530156056,97.74703522530794L70.81816801551977,83.03282160438714L71.05052134835721,82.86752733718743L71.0639263483286,92.91373769431073L71.21584968133767,95.91092710580665L71.23372301463286,98.42619994507395L71.33649468108018,103.08909634118356L71.36330468102295,95.9237315189099L71.37224134767055,92.8895287535274L71.5777846805652,100.36366724544033L71.94418801311653,82.31073240370831L72.02908634626866,76.7666119883328L72.06930134618283,116.27477661607881L72.373148012201,118.50692235968074L72.38208467884859,18.201313535056812L72.65018467827639,57.78865323923905L73.36064967676003,54.313028185013096L73.59479034292698,68.17953925208077L73.68415700940291,77.00213155338118L73.8226753424406,68.34964365596984L73.86289034235477,78.00531681503169L73.93885200885933,89.25095788071803L74.01481367536385,94.72533600456526L74.38121700791518,102.08424933314893L74.48398867436251,107.84053419400263L74.54654534089565,123.19591810648777L74.8772020068566,94.66643699099855L75.3865920057694,105.97148779971437L75.81555200485388,73.92716835990932L75.83789367147287,72.73674858628493L75.99875367112955,77.75506764262832L76.13727200416724,90.44924082480571L76.57070033657551,105.01080950894466L76.68687700299422,111.28502548543388L76.70475033628941,108.1554672877845L76.77624366947016,102.75302040943434L76.96391366906961,105.12519853634197L75.90045033800602,93.13065520021743L75.91385533797741,98.32636100299537L75.98534867115816,100.26984358748224L76.41430867024263,78.58496149601247L76.65113033640385,90.91771552071008L77.60288533437253,97.73758088033136L77.72799866743883,102.4359782280009L78.20164199976126,43.70747965771781L78.52336199907461,80.48198906938966L78.80039866515001,51.20591629190659L79.14892866440614,60.69541158515575L79.22489033091068,81.34117847917953L79.34553533065319,87.03609115219346L79.43937033045292,103.49751802401L79.49299033033849,96.56907293283183L79.56001533019543,106.76961076915151L79.81471032965183,97.91261128343763L79.9934436626037,103.45491407548315L80.14089866228898,109.05377165617219L80.63241532790661,116.27391742207061L80.86923699406783,123.03619993269697L80.88711032736302,121.90692466405521L80.97647699383896,117.67504037874082L81.32500699309507,113.81229167801528L81.51267699269454,116.86475214851694L81.74056199220816,155.66095741596064L81.84333365865548,144.93165844910226L82.10696532475949,129.73303440916186L82.12037032473087,110.27794348723663L82.54039365716775,95.34686715888597L82.69231699017683,185.09930712941048L82.84870865650971,144.22752277184887L83.0229736561378,118.03618241866972L83.43406032192708,47.97037373954748L83.5323636550506,79.33683147146628L83.89876698760192,96.1004957623486L84.52880198625724,102.61990548144898L84.82371198562781,105.65637424989337L84.85499031889438,106.96800977886089L84.89520531880856,104.78435025807029L84.97116698531309,93.92308479756298L85.02478698519866,107.56148583573874L85.05159698514144,73.5764956362714L85.31522865124543,72.60446970407008L85.53864531743525,89.14339874085874L85.7486569836537,99.01969918057551L86.03016198305289,116.65931109997061L86.36528698233764,124.75598363125692L86.39209698228042,91.55200672716923L86.52614698199432,103.14341570426747L86.56636198190849,117.85328511130484L86.61104531514644,116.80544208908331L87.02213198093573,8.393491733554328L87.06234698084991,51.08606009558706L87.0802203141451,115.38824265092202L87.15618198064962,122.77183707149483L87.44215531337261,124.22008382051258L87.52705364652475,105.585166191054L88.1302786452373,94.22608867172569L88.41178364463647,106.4707575392106L88.6173269775311,135.11540855839408L88.81393364377817,115.28040111055712L89.19821030962467,114.5789385541064L89.45737364240487,106.99136258354906L90.12315530765056,107.48352029736898L90.13209197429815,77.54108373879696L90.27507864065964,97.56071018981177L90.41359697369734,112.78303974727622L90.67722863980134,109.0814002515541L91.31620030510426,109.05265393951643L91.42344030487537,113.8020848828244L91.46365530478954,112.85693643990004L91.70941363759836,118.58647928411966L92.38413196949163,39.07176871062654L92.4466886360248,69.43194363196541L92.90245863505204,89.07697855209811L92.99629363485178,86.8849237057698L93.59058196691672,107.37193672625413L93.91230196623007,119.94123253286787L94.0106052993536,106.30096573298228L94.08656696585814,120.14237923789919L94.29211029875279,120.54522400369027L94.44403363176187,110.27095732728932L94.73447529780864,88.55101717981498L95.09194196371237,104.91953665780463L95.43153529632092,-11.439800164778177L95.5923952959776,-39.9447537195945L96.088380294919,12.813294714022987L96.09284862824282,20.756059799579248L96.2447719612519,63.83072364575463L96.30732862778504,82.80685652096699L96.49499862738449,98.34970232960677L97.24121029245853,75.34165646582801L97.37972862549623,95.6139154525636L97.53165195850531,102.40970478248028L98.01423195747535,118.15210462109124L98.16168695716064,112.87245412652813L98.24211695698897,111.66783600470521L98.25105362363655,112.7363427225436L98.35829362340768,114.73907919088342L98.36276195673148,148.173258123774L98.37616695670286,138.5323361776018L98.461065289855,123.68952725650405L98.61745695618788,127.88251340819946L98.75597528922557,125.91421822611106L98.93024028885365,117.58471843131937L98.97492362209161,102.19770302792584L99.37260528790951,88.82099943975274L99.43516195444266,28.804050532166087L99.56474362083276,45.69344121254605L99.60049028742313,40.187279909131206L99.73007195381322,71.33463248760003L100.1724369528691,96.15121914688274L101.20462195066611,38.217913416070786L101.3297352837324,65.55000481883432L101.36995028364659,65.59692604802518L101.49506361671288,60.047807538603706L101.65145528304578,81.94499711737454L101.70507528293133,98.41466454542444L101.99104861565431,92.87769740548121L102.59427361436686,88.14918479956373L102.83556361385186,87.29590761843892L103.42985194591681,106.59221337860859L103.43432027924061,76.87986607806107L104.05988694457213,84.51559299261761L104.6005552767515,72.22311812780548L104.6318336100181,93.19176639025618L105.19037527549267,75.24046365672714L105.6952969410817,86.41191552146564L105.78019527423382,77.09252992410052L105.90530860730011,89.74588306539995L106.00361194042365,94.41616916986032L106.09744694022338,104.23015665313189L106.40129360624155,109.18206583436296L106.63811527240277,117.00234096837181L106.89727860518296,54.84608180675782L107.09388527143001,81.51038808238248L108.05010860272249,93.96320812768074L108.13053860255083,84.20353410832766L108.22884193567434,90.79041933949507L108.25565193561714,64.9877128021258L108.74270026791096,85.71705847176794L108.80525693444412,104.7139410187924L108.85440860100587,110.26245367731923L109.10016693381469,116.79835729842341L109.14931860037645,113.35757153988766L109.17612860031922,117.76803936498638L109.43976026642322,106.59901225140054L109.56040526616573,114.25826929038521L109.66317693261306,104.35701468635095L109.97596026527881,111.34631880257761L110.07426359840234,117.45790135981596L110.22171859808763,96.69319851720141L110.32895859785874,103.66271854701309L110.50769193081061,93.21445097160736L110.58812193063895,63.61283787408789L110.61493193058173,94.33155932327443L110.62833693055312,131.24107304765485L110.96793026316166,129.64101294520196L110.97239859648546,103.85931563552367L111.1824102627039,64.99064067497034L111.32092859574159,85.06436580923753L111.4415735954841,100.98483536028068L111.45497859545549,94.42405725582846L111.47732026207447,104.14262427388964L111.79457192806403,114.61351682307661L111.84372359462579,74.1738657969681L112.06267192749183,101.23288969814938L112.31736692694824,124.54369581399715L112.51844192651907,125.82971086991938L112.70164359279472,126.04893192827956L112.7597319260041,66.13631218272575L112.7642002593279,89.59885586807584L112.86250359245142,96.27395455253591L112.93399692563216,154.05600549288152L113.42998192457358,128.77182479424818L113.52381692437332,129.29714770812404L113.83213192371528,128.6508548128818L113.84553692368667,119.0718051109213L113.85000525701047,87.69524086806041L114.0644852565527,-1.5928065709497332L114.17172525632381,39.19794340797222L114.76154525506497,62.34148459460205L115.11901192096869,88.75866390915785L115.17710025417806,84.95438451156411L115.46307358690103,98.89363198225308L115.7535152529478,110.46152650390522L115.85628691939513,132.52797115977987L116.23162691859405,126.86478283912518L116.24503191856543,117.90639992954749L116.26737358518442,93.78888551817741L116.56675191787879,111.75835180996265L116.64718191770713,118.61467961129793L116.98230691699187,123.25285368879656L117.15657191661992,290.2748435825707L117.8625685817798,225.59277382909437L118.05023858137926,101.75014681826438L118.05470691470305,101.74379886468836L118.34514858074982,96.94486195405814L118.3719585806926,102.56012195007607L118.48813524711132,96.2524774199918L118.58197024691106,108.69833850949237L118.60878024685383,112.54167363593926L119.31477691201368,112.77508129664608L120.38270857640107,103.45745050477396L120.44079690961044,107.78184071050636L120.59272024261952,90.408548697924L120.69996024239065,105.38662673807893L120.76251690892379,109.2445439388582L120.8876302419901,125.20927855019835L121.3970202409029,109.60049147703515L121.55341190723578,87.75648666238958L121.71874024021625,100.2647875239726L122.12535857268175,99.13434499957712L122.7062419047753,85.0315581608775L123.04136690406004,97.91532867566235L123.44351690320174,104.38857820184546L123.45692190317313,109.27224967765946L124.11376690177123,101.42132357811077L124.13164023506641,97.33849368297055L124.32377856798966,102.6200869655311L124.37293023455143,93.43032167059509L124.41761356778939,97.54663936893678L124.56953690079848,69.3168618720734L124.61422023403645,76.00673297582726L124.73039690045515,116.42015570705482L124.93147190002601,109.19518762276657L125.03424356647334,111.05615990409366L125.26212856598694,111.72455533374738L125.36936856575807,114.38964884375605L125.4542668989102,114.91748675890184L125.66427856512864,115.20745262728798L126.16920023071766,82.58880014591836L126.3881485635837,75.76029643135243L126.75008356281121,92.99718943626479L126.79923522937298,101.70609646599831L126.88860189584891,110.09652222186806L127.21479022848607,112.42475589741146L127.46948522794247,89.07720510534223L127.9475968935887,92.67028707981471L128.57763189224403,96.82307261829037L128.7518968918721,38.46679137106025L128.8814785582622,32.13456284732297L129.2702235574325,69.95267429756277L129.48470355697472,83.76384237116682L129.49364022362232,48.999159390949046L129.6634368899266,78.94313260364778L129.76620855637393,87.23036071358304L130.08346022236347,87.30905949753927L130.7134952210188,74.13662669036324L130.99946855374176,29.593863701593136L131.33906188635032,55.61004708516322L131.43736521947383,66.21688492650883L131.4731118860642,89.10864314233754L132.1522985512813,86.41561443395517L132.25060188440483,107.93829382964418L132.3980568840901,116.82281322278965L132.72871355005105,116.84158965900005L132.90297854967912,111.92823585295548L133.28725521552562,114.68099717096926L133.61344354816276,106.09504339872346L133.7251518812577,113.1284300974224L133.78324021446704,116.11939369251937L133.82345521438123,96.2931136860009L134.17645354696114,107.79570693774488L134.44008521306515,114.55906483238039L134.94947521197795,113.29434326980432L135.0165002118349,84.53568191524896L135.36949854441485,26.389823099533373L135.75824354358514,0.9528835781161717L136.15592520940302,43.33569983837785L136.32125354238352,-52.791924690235334L136.4776452087164,39.84344382447094L136.80830187467734,12.124665853304663L137.36237520682812,36.56530991957584L137.45621020662784,56.04857507814185L137.496425206542,82.87323469229436L137.56791853972277,66.90045471344668L137.84942353912194,86.92252243195276L137.85389187244576,105.4994266535501L137.9164485389789,107.27079316535801L138.46605353780586,92.36719324252118L138.51520520436762,93.47619233422903L138.9620385367473,76.71223252064206L139.26141686944166,94.09430217040818L140.15508353420097,81.63711067908187L140.72256186632313,80.66564416604393L140.72703019964695,72.57508214868098L140.85661186603704,86.93376989592353L140.86554853268464,99.17447897785146L141.30791353174052,78.43832234939912L141.97816353030998,82.18776564866128L142.26413686303297,75.45855149792104L142.29094686297574,98.43866370749193L142.31775686291851,96.92467399185456L142.3356301962137,88.7434894119089L142.3400985295375,97.47197640609197L142.85395686177412,76.2016117088808L143.09971519458293,95.68777511365371L143.63591519343854,94.1045995332846L143.88614185957113,101.34598535216504L144.32403852530322,80.80399714261398L144.36872185854116,96.38034990232921L144.40000019180775,97.54416800074422L144.4804301916361,87.36970861203775L144.7351251910925,84.1435119465081L144.93173185733954,97.53068804262757L145.31600852318604,100.24654731495671L145.72262685565155,108.30551577133339L145.73156352229913,115.35118974619847L145.8745501886606,107.48458112410458L145.95498018848897,103.48117857699158L147.21951851912337,102.36554485092981L147.3356951855421,111.10315908092964L147.53230185178916,121.27199020392402L147.77806018459796,105.98060696537858L148.05509685067338,113.68187894366137L148.11318518388273,106.64631604332733L148.524271849672,99.41214173363598L148.6538535160621,104.48460963838149L148.82811851569016,111.69542013167413L150.0792518463532,122.53857194817093L150.43225017893315,120.57124613029251L150.54842684535186,98.31273554470395L150.64673017847537,52.9045287159592L150.7316285116275,73.54744625565182L150.84333684472244,95.65313409224687L150.91483017790318,85.85989563424367L150.96845017778872,100.55170228938354L151.160588510712,98.15286703645656L151.46443517673015,90.0839645708185L151.74147184280554,98.07325454921016L152.67088517415525,107.6667208936046L152.70216350742183,106.43548037767864L152.74237850733599,98.44678946078962L152.96579517352583,96.69410602609729L152.97920017349722,76.57445272710652L153.07303517329692,79.84692662879385L153.21155350633464,98.30852862514581L153.29645183948676,102.40815884091246L153.90414517152308,100.33873421015909L154.26608017075063,109.42589962414728L154.27054850407444,110.59642902888451L154.4224718370835,110.77137205099503L155.03463350244363,104.8829089345169L155.0569751690626,114.19495835895165L155.17315183548132,111.98033866723028L155.37869516837597,113.44639927496607L155.44572016823292,104.83059424911606L155.81212350078422,113.75796441383812L156.0042618337075,122.40164110999046L156.1204385001262,106.81383218386897L156.30364016640186,109.31019611596062L156.49577849932513,113.39924720581189L157.08559849806628,115.68473447358218L157.11687683133283,122.95538052173795L157.13475016462803,118.73860462789233L157.5905201636553,118.65285548630308L157.76925349660712,110.06493075362101L158.18927682904402,114.82098697004218L158.25183349557716,109.3537186720283L158.33226349540553,111.53244195905891L158.51993349500498,95.314574847835L159.73532015907765,95.92427071955747L159.97214182523888,175.27347118050483L160.50387349077067,131.17550632133128L161.31711015570164,113.49176164744253L161.4824384886821,99.21672701353378L161.902461821119,98.03316938883657L162.61292681960265,112.08074278386877L162.72910348602136,101.08934379165949L162.9078368189732,31.74991779866042L163.11338015186786,66.50288779065204L163.40382181791463,85.24484434672239L163.43510015118122,61.48127415929663L163.47084681777162,86.33360690350621L163.6853268173138,84.83054719196063L163.72554181722802,93.57072073991525L163.989173483332,81.59087183824202L164.04726181654135,81.95071105469712L164.69517014849185,89.13719535251569L164.74879014837742,85.86930229593976L164.89624514806272,85.72999875592232L165.08391514766217,91.33119469262293L165.37435681370894,65.2880995734602L165.7050134796699,82.2542409226523L165.91502514588834,94.17219724466317L166.2054668119351,101.82996709657564L166.3350484783252,84.93001812419764L166.39313681153456,102.05347341327756L166.70145181087653,109.70713233750119L166.71485681084792,116.32439327778192L166.90699514377116,118.2163922040979L167.1259434766372,109.50557748902752L167.3761701427698,100.52530003874361L167.96599014151096,97.89507207323413L168.00173680810133,107.83744935170621L168.0330151413679,112.71108670963332L168.448570140481,118.80986640613216L168.50219014036654,119.86389997096384L168.5915568068425,123.9672116894503L169.10094680575529,124.19684930923245L169.11882013905046,116.16085034839779L169.239465138793,120.75938003640151L169.24840180544058,82.11630549267609L169.65055180458228,84.2867365304189L169.96333513724804,33.69456537655839L170.08398013699053,-34.97022568936228L170.11525847025712,-5.221965628004682L170.1286634702285,48.107599785536735L170.24037180332343,80.30383237065266L170.84806513535978,85.81625948043755L171.25915180114905,101.54091199663357L171.2904301344156,112.23657874162774L171.69258013355733,97.28996927740305L171.73279513347148,83.63792726282679L171.78641513335702,48.69104653348228L171.8713134665092,80.89557094959002L171.94727513301373,74.0335241983781L172.18856513249875,43.25365167961564L172.2421851323843,67.81508689738347L172.3538934654792,70.47395165590889L172.51922179845968,93.96613660227382L172.7783851312399,89.82543980720875L172.98392846413455,31.98618399100212L173.06882679728668,66.70860827448455L173.10010513055323,89.12734989497501L173.30564846344788,93.65440983797588L173.53800179628533,103.57443523631575L173.5514067962567,102.59778519052489L173.70779846258958,102.31089770575429L174.28868179468316,69.33176943912645L174.52103512752055,56.9447341613466L174.52550346084433,77.06680287244139L174.6193384606441,97.66676471415029L174.86509679345292,-13.017534408196468L175.2538417926232,10.030397174892869L175.258310125947,53.95329658733907L175.42810679225127,85.61533267191537L175.58449845858414,95.11875449335376L175.62471345849832,103.75642162203913L175.79897845812638,99.82358979385778L176.01792679099242,106.16105090323805L176.26368512380122,87.96709467078912L176.4066717901627,107.62938516556135L176.8311634559234,110.95482597072585L177.5103501211405,109.80499663709463L177.7292984540065,113.44207712903825L177.8901584536632,-23.02943319285751L178.16719511973858,46.53154187069441L178.51125678567092,30.628647634723137L178.5246617856423,51.05500135342656L178.86425511825087,76.05144560298014L178.9580901180506,93.45434438364812L178.99383678464096,76.54291040741187L179.0519251178503,91.16440972549404L179.0608617844979,112.65386530486948L179.08767178444066,122.27500936374511L179.52556845017276,96.55162170541281L179.53450511682033,99.72126233774625L179.9232501159906,96.8981704664725L179.93665511596203,53.48889081393763L180.05730011570455,77.29754552513633L180.82138511407376,86.57977636310815L180.85266344734032,96.3365402181143L181.1475734467109,94.35919603594152L181.1699151133299,98.49591968014256L181.63462177900473,109.7461771737429L181.7105834455093,106.01128638223864L182.00996177820363,109.85187338360505L182.09932844467957,105.79502487296595L182.5774401103258,111.70239494093026L182.80979344316324,105.75004154966402L182.87681844302017,102.64967063754008L182.94384344287715,108.69303678830403L183.0153367760579,90.8002005125037L183.07342510926722,95.80033821829848L183.2298167756001,73.81855663172489L183.31471510875224,-130.56930617997597L183.34599344201882,-40.65627615851679L184.38711510646343,7.172085021624582L184.65521510589122,38.40437372240879L184.78926510560512,69.91955492790767L184.87416343875728,84.56528652502405L185.27184510457516,92.28685008817455L185.44611010420323,103.73092857839431L185.4639834374984,106.90707591795623L185.50419843741258,109.90713824353192L185.53100843735535,72.867756660702L185.64271677045028,78.8911133165341L185.89741176990668,71.46546366349445L186.54978843518097,74.60885049790815L187.06811510074138,90.31029587694249L187.21557010042667,105.56807878048357L187.7026184327205,85.3140430248017L187.72942843266327,86.44615140143283L187.76964343257742,93.85981970822334L188.34605843134722,124.15222358579764L188.4979817643563,110.37821506962393L188.81970176366963,112.23048921921428L189.64187509524822,97.00714499425904L189.72677342840038,98.65993870297093L189.91891176132359,106.81558923214442L190.2272267606656,116.04526493207416L191.18791842528185,117.20409202379294L191.6392200909853,102.00370308678536L191.8849784237941,95.73171564032859L191.95200342365106,100.32397407407181L192.260318422993,90.41474501808153L192.41224175600212,107.43523631784483L192.74289842196305,84.43107783043648L192.8143917551438,105.53675633814088L192.86354342170554,113.01076018200393L193.01546675471465,116.34702521530588L193.37293342061838,115.69220034373399L193.64550175336996,122.40519143615649L193.64997008669377,106.96521230880323L193.90913341947396,109.4709271245601L193.9985000859499,87.19602690780141L194.19063841887314,-81.33783325413981L194.21298008549212,-12.266454494989063L194.5347000848055,36.412764396713584L195.1647350834608,74.68928084655228L195.26750674990814,123.35665681390908L195.27197508323192,165.24530679966313L195.87966841526824,145.47428263223517L196.30862841435274,91.91009509377255L196.57226008045674,97.56134498918934L196.6214117470185,108.04882142214252L197.89041841097674,85.57967604803027L198.0736200772524,89.079724776994L198.38640340991816,79.81342225360542L198.51151674298444,91.4016218061365L198.73940174249807,61.55151122595575L199.17283007490636,74.52680246272804L199.20857674149673,103.1929512730811L199.31134840794405,97.95026954232127L199.333690074563,80.77131961965466L199.4096517410676,53.4001075374358L199.6375367405812,65.04499742245801L199.80733340688548,73.70675226974407L200.71887340493996,91.75077209072799L201.04059340425334,106.26600218936846L201.50976840325197,103.59439182888015L201.89851340242228,98.60061441997347L201.95213340230782,102.81984695916361L202.0951200686693,111.63193237375175L202.2202334017356,114.18764148195251L202.60897840090593,118.5049870182181L202.6536617341439,-12.945614264173116L202.6804717340867,-12.69991357217495L202.69834506738187,34.55184390782594L202.83686340041956,59.61752620737876L202.84580006706713,87.30813625239179L202.90835673360027,111.69358114900295L202.9351667335431,119.56938513561128L203.26135506618024,100.79514676200398L204.365033397158,103.89337845423093L204.39631173042457,116.89330077352827L204.7582467296521,112.1980972435966L204.8744233960708,116.33225101352124L205.2765733952125,65.77165159696035L205.39721839495502,66.74894467251433L205.71000172762078,28.941709478771315L206.01384839363894,37.8880498705951L206.08534172681968,34.40302056159288L206.38025172619024,69.54443495675551L206.5947317257325,66.55552892145188L206.66622505891323,83.95573210615069L206.79580672530332,78.86342589904399L206.90751505839825,93.99586810168525L206.9924133915504,108.77112825044817L207.6358533901771,115.61433659017624L207.67160005676746,116.99542461691343L207.95757338949045,116.41355946899462L208.07821838923297,107.51575927005277L208.6814433879455,82.0184992811957L208.71272172121206,94.93604907011539L208.7931517210404,101.85542193694945L209.25339005339146,112.50121146838143L209.36063005316257,109.78283545983666L209.40531338640056,117.15382070459073L209.4678700529337,121.76781025778686L209.7449067190091,124.07193878941713L210.04875338502725,116.66284280601295L210.16939838476975,90.53189398970257L210.4643083841403,90.15144545988873L210.5223967173497,102.45483935431322L210.66538338371117,109.30688753005256L210.7458133835395,63.69263572287487L210.79049671677748,44.984044763158465L210.8843317165772,86.10437487188148L211.37138004887106,86.38814055333434L211.6841633815368,94.24112447548653L212.1220600472689,80.4867217102614L212.64485504615308,89.16088986531523L212.81465171245733,108.53792005983765L212.96210671214263,116.09187651529757L213.03806837864718,110.68563953522586L213.21233337827525,112.18642110390593L214.29367004263403,86.80158677907077L214.36516337581475,102.83684159113487L215.00860337444146,108.88969405936226L215.24095670727888,37.46794538985776L215.43756337352593,67.85443680499479L215.5939550398588,85.40411600246574L215.7280050395727,87.68087771105982L215.83524503934382,96.72415433169753L215.94248503911496,89.54216982268882L215.97823170570533,103.55529704456988L216.02738337226708,113.2019444906499L216.0318517055909,125.02085962041761L216.29995170501869,111.44284429698135L216.42059670476118,109.00546897566979L216.43847003805638,109.59201408544108L216.50549503791333,99.02127478718282L216.62167170433202,85.3734472942553L216.67082337089377,96.010692163514L216.71997503745558,107.11413319082858L216.86743003714085,99.98405266042005L217.24723836966356,97.13719256733148L217.48406003582477,102.50037063650602L217.50193336911994,105.96326620865486L217.56002170232932,108.47800868511294L217.91748836823305,115.6337318309193L217.93536170152822,105.66966125459207L218.05600670127075,100.89611607900368L218.09622170118493,58.47297104615784L218.48496670035522,78.57856179796883L218.51624503362177,96.09923284203421L218.71285169986885,104.57043497106817L218.94967336603005,112.49902246553583L219.10606503236292,97.07433780945185L219.12393836565812,66.7119219786548L219.3965066984097,92.90461875986821L219.82993503081798,85.56200207814176L219.99973169712226,44.01373073081621L220.20527503001688,69.86899548103422L220.20974336334072,90.92109245004104L220.2231483633121,99.94219974384515L220.47337502944467,100.38196462368826L220.84871502864362,113.54113854686449L220.9559550284147,118.50949235965498L221.17490336128077,95.77510998986445L221.2374600278139,88.60863033186291L221.89877335973583,78.9194677888056L222.0328233594497,78.65087736650709L222.29645502555368,93.88306496875228L222.52434002506732,102.30711850995559L223.44481668976943,118.16629037729089L223.4850316896836,109.39002563425966L223.57439835615952,108.09635667973264L223.71291668919721,116.38577105911813L223.72185335584481,83.77800127188861L224.32507835455738,95.41649479209411L224.48593835421403,104.09879973938696L224.68254502046108,105.75233577909853L224.94617668656508,89.0320987116752L224.99979668645062,96.25005755987128L225.50471835203965,109.03973738203226L225.67004668502014,16.828574810918923L225.8085650180578,60.83368666426571L225.9649566843907,93.39243991707589L226.6352066829602,92.57461675648828L226.67542168287434,106.44974233728044L226.79606668261687,117.2539858030525L226.93011668233075,37.015603670654286L227.08204001533986,55.73153197161007L227.28311501491072,70.50214088691361L227.3188616815011,85.60615006519228L227.44397501456737,100.47970747661098L227.9488966801564,72.33098264770378L228.02039001333713,81.79547074414008L228.12316167978446,78.6368335071572L228.29742667941252,85.03640272389303L228.37338834591708,92.194632133023L228.75766501176358,104.76241828562915L228.79788001167773,110.49570414337936L228.94980334468684,105.89631033816401L229.4100416770379,83.84446844262752L229.46366167692344,88.0771527188738L229.6379266765515,86.23191484960485L229.87028000938892,102.04301599120545L231.15716000664233,76.22039924002085L231.25099500644205,96.84349060166636L231.8810300050974,96.31446673623856L232.07316833802062,109.07561268743586L232.30999000418186,86.97383785075857L232.34126833744844,25.115276652366788L232.43063500392438,46.75715548977837L232.54234333701928,63.55681836821323L232.5468116703431,74.99193601823735L232.9489616694848,90.89325566342578L233.18131500232218,102.7588509588437L233.44941500174997,89.88960721874543L233.48069333501658,101.53906152393056L233.61027500140668,110.17666234873838L233.84709666756788,112.30779971735143L233.86497000086308,40.95053580951364L233.92305833407244,70.38149882860874L233.98561500060558,53.48007974911013L234.09285500037672,80.51907186371302L234.14647500026226,82.65101784509703L234.28946166662377,84.9385496859563L234.32073999989035,89.10784908868679L234.3832966664235,103.07096260219045L234.8882183320125,109.71773686568946L234.93736999857427,105.280042584727L234.96417999851704,79.89620987896859L235.1473816647927,76.20731817033781L235.16525499808787,60.76855012043093L235.22781166462104,90.13088825723878L235.33058333106834,82.10085108803806L235.80422666339078,76.72993350186997L235.99636499631404,85.08528580613775L236.19297166256112,100.17506359338807L236.27340166238943,110.71067194583851L236.34489499557017,94.60061460348568L236.47894499528408,37.06745040754214L236.78725999462606,64.40607634467186L237.34580166010062,87.73650510258268L237.53793999302388,92.5207799285726L237.54687665967148,108.14538905279124L237.71220499265192,60.05145057724354L237.71667332597573,77.74865855547024L237.76135665921367,95.87883843758708L237.79710332580407,102.68354826914374L237.908811658899,58.35696115690176L238.27968332477408,83.87755462597593L238.30202499139307,75.16710726155776L238.36904999125005,81.35921118196637L239.2359066560666,72.78027805463668L239.8525366547505,90.6347609702266L240.7998233193954,100.93196804311496L241.14835331865152,41.502050945599706L241.3181499849558,67.32072945503305" fill="none"></path></g></g></g></g><g opacity="0.2"><g><g><g><path style="fill: none;" stroke="rgb(255, 112, 67)" stroke-width="2px" d="M23.38725661675135,182.18315408939895L23.48109161655108,9.2937312942L23.56152161637942,287.4248394369599L23.7179132827123,-219.99353216589714L23.72684994935989,15.463638824215849L23.762596615950265,805.2875600745373L24.459656614462535,19.281993007514473L24.73669328053792,47.49860814909255L24.928831613461178,176.1644600338542L24.960109946727755,-6.935988621466748L25.56780327876409,-75.98285751982078L25.849308278163274,58.33297223257536L25.925269944667814,38.84025357530345L25.952079944610595,101.39586672315295L26.0771932776769,95.87350422878222L26.680418276389442,5.339724943368651L26.872556609312692,253.33672983730548L27.104909942150115,62.92369639677652L27.274706608454384,403.5685040122879L27.614299941062924,202.7699495451817L27.97623494029045,111.76052734165872L28.22199327309926,15.109055581607919L28.235398273070654,261.03488788846664L28.297954939603805,-15.058002441165257L28.31582827289899,23.33759986662136L28.53030827244123,108.07515543473335L28.561586605707802,-100.99796579225398L28.758193271954852,160.63720475471413L28.89224327166875,131.09556496926655L29.14693827112516,16.352115922921683L29.27651993751526,146.3722083231823L29.348013270696004,-31.16182162021576L29.897618269522983,288.9339728141824L30.08975660244624,114.93593647673313L30.10316160241763,101.1189242770725L30.581273268063864,-0.3975035209146256L30.67957660118739,90.15611612950327L30.72872826774915,303.6968918932678L30.907461600701016,-4.4728663692330315L30.983423267205556,6.074855065412777L31.041511600414914,410.838081250512L31.43919326623281,114.67686361820972L31.707293265660606,35.65526025418768L32.113911598126094,39.07381782359573L32.16753159801165,110.14611256219757L32.310518264373144,114.86783617164002L32.33732826431592,84.95312505133164L32.44903659741084,164.56364432865306L32.65011159698168,124.54596185129594L33.016514929533,96.33513021830451L33.226526595751444,345.21432621437987L33.302488262255984,125.94125194337148L33.31142492890358,173.79896660078978L33.33376659552256,-34.03210528768736L33.44994326194127,271.8112918291041L33.503563261826834,45.75524154407731L33.52590492844581,53.32857766340223L33.655486594835914,209.2756486233694L33.72251159469287,30.95664958514368L33.749321594635646,-9.399255517916771L34.339141593376795,-40.53671953425271L34.58489992618561,73.51843925540892L35.59921159068743,58.18350654238472L35.916463256677,85.24001480070484L35.92986825664838,92.60708525414547L36.18903158942859,131.7013460591782L36.46606825550398,84.51413588166244L36.77438325484594,31.086305044541717L36.83693992137909,113.52794858118902L36.84587658802668,108.39026135326178L36.85034492135048,-16.591158811980506L37.10950825413068,112.03990161862596L37.89146658579509,90.19385320285524L38.50809658447901,117.21455147066365L38.517033251126605,101.96591259306575L38.74044991731643,91.2865558813111L39.05770158330599,112.30364075983606L39.29005491614342,96.64661852471453L39.38388991594314,76.58393234648032L39.41516824920972,177.08140793580444L39.89327991485595,112.82814027542653L40.01839324792226,82.39036402800612L40.143506580988564,18.29144530683004L40.37585991382599,97.33151792922261L40.65289657990138,142.27269591758187L41.09079324563344,123.99847934909512L41.22931157867114,-7.638453257993405L41.25165324529012,112.8181492775268L41.63146157781283,123.15954741460841L41.64039824446042,56.50870732274444L42.00233324368795,23.140100242929947L42.413419909477234,108.72062874332188L42.489381575981774,86.85053171987843L42.5832165757815,126.12017834566191L43.18197324117025,115.07182067769617L43.19984657446543,117.06420134135867L43.23559324105581,100.84444982293287L43.73604657332102,84.73903353066058L43.798603239854174,113.21900661567035L43.968399906158446,101.22232379778845L44.02201990604401,103.9795258223146L44.20968990564346,-28.49675193463898L44.553751571575795,143.19238753951032L44.90674990415573,80.2526189403697L44.915686570803324,404.65169633352116L45.156976570288336,117.43971580743562L45.282089903354645,115.29513176044664L45.751264902353284,124.5334644403354L46.22490823467572,116.33916919366592L46.28746490120888,104.26813171504594L46.56003323396047,113.818122959641L47.13644823273023,118.80830171442958L47.71733156482379,71.36695899406506L47.91393823107084,59.44642532922988L48.29374656359355,126.99008259964441L48.383113230069476,121.89368941208645L48.54397322972615,87.05488989016008L48.57525156299273,-149.00068024968425L48.736111562649405,110.30396611022383L48.82994656244914,76.05804213701842L49.10698322852453,105.91072650260824L49.19634989500046,69.76292093041383L49.692334893941876,78.40625661307571L49.737018227179846,113.23760093101959L50.04533322652181,116.55103078266882L50.10342155973117,107.105914128454L50.130231559673945,102.33770247057264L50.1883198928833,114.74096059327425L50.44301489233971,98.11736995645401L50.54578655878703,105.51721287186376L50.83175989151001,104.7781848895321L51.47519989013672,114.80609418522235L51.716489889621734,71.87514836755561L51.846071556011836,124.88531940674864L52.087361555496855,128.13310583325503L52.26162655512491,127.65428394414673L52.27503155509631,97.6336646299957L52.32865155498187,126.52347938003811L52.46716988801956,43.51759551770701L52.96762322028478,110.94108018847791L53.468076552549995,132.51657385770005L53.58425321896871,99.18182482483232L54.09364321788152,90.04222990310458L54.12938988447189,86.63722670213357L54.312591550747555,115.63745188559022L54.72367821653684,2.825844624893591L55.00965154925982,-36.971830232674165L55.224131548802056,102.9984191701658L55.32690321524938,115.01669013733249L55.63074988126755,76.40261479448897L55.67543321450551,73.97165779985798L55.6888382144769,115.43217612856135L55.75586321433385,53.50165652190604L55.90331821401914,100.3364201607645L56.71655487895011,125.82754689892083L57.015933211644494,36.23790523802563L57.1410465447108,7.046225353750998L57.18572987794876,44.437858182947764L57.342121544281646,100.3451922297997L58.048118209441505,118.2069531787249L58.38324320872625,124.68348723676544L58.89263320763906,66.49517303703968L59.075834873914715,127.34791336858292L59.58075653950373,114.81543729756984L59.710338205893834,-118.95643722024596L59.73267987251282,119.49812881591114L59.77289487242699,8.242276324762884L60.17504487156868,104.1805722427269L60.18844987154007,107.51386355332869L60.313563204606375,101.27153296554678L60.35824653784434,125.63535089649423L60.77380153695742,71.98131119548738L60.92572486996651,90.86869682090835L61.193824869394305,101.16723544532121L61.74789820154508,100.73145858262262L62.01152986764908,124.93865696151425L62.12770653406779,118.87199639776748L62.14111153403918,113.87989206684922L62.23494653383891,104.75176170597491L62.266224867105485,107.28335340739545L62.52538819988568,124.52185297519978L62.55219819982847,107.53661036305458L62.80242486596108,103.41619686819688L63.71843319733937,-104.41711399221197L63.968659863471984,109.48859310246918L64.11164652983348,16.891108487644686L64.50039152900378,137.49660868346436L64.64784652868907,97.2423236759171L65.000844861269,113.39670052870095L65.03212319453557,52.37570978106746L65.09021152774493,160.0716277884012L65.35831152717272,105.99785505569952L65.49236152688663,137.84916088020157L65.59513319333395,113.39223162510109L65.67556319316228,-68.61612758297272L66.3234715251128,141.80722781606377L66.60944485783577,110.959959272128L67.28416318972906,57.33573473688644L67.40033985614777,118.95403226907604L68.2582598543167,97.17301800235471L68.28953818758328,78.82019219911095L68.7944598531723,8.656742272924589L68.80786485314368,98.1587020412656L68.90169985294342,71.70074360373556L69.16533151904743,98.7166610788527L69.35746985197066,106.94002679958001L69.73727818449338,122.90062259040013L69.87579651753107,128.68868991828L69.94728985071183,-51.35398546599879L70.02325151721637,103.0479025592509L70.20198485016823,133.28235989001678L70.40350668307146,132.07118625318603L70.40797501639526,99.7781477273754L70.50627834951878,96.21252917787294L70.66267001585166,82.71123914137065L70.7779530156056,102.90096211600338L70.81816801551977,60.96150117300593L71.05052134835721,82.61958593638782L71.0639263483286,107.9830532299957L71.21584968133767,100.40671122305054L71.23372301463286,102.19910920397488L71.33649468108018,110.08344093534798L71.36330468102295,85.1756842854994L71.37224134767055,88.33822460545366L71.5777846805652,111.57487498330971L71.94418801311653,55.23133014111028L72.02908634626866,68.45043136526955L72.06930134618283,175.53702355769786L72.373148012201,121.8551409750836L72.38208467884859,-132.25709970187904L72.65018467827639,117.16966279551238L73.36064967676003,49.09959060367416L73.59479034292698,88.97930585268224L73.68415700940291,90.2360200053318L73.8226753424406,55.37091180985283L73.86289034235477,92.48882655362446L73.93885200885933,106.11941947924753L74.01481367536385,102.93690319033612L74.38121700791518,113.12261932602443L74.48398867436251,116.47496148528319L74.54654534089565,146.22899397521545L74.8772020068566,51.872215317764756L75.3865920057694,122.92906401278807L75.81555200485388,25.860689200201733L75.83789367147287,70.95111892584836L75.99875367112955,85.28254622714336L76.13727200416724,109.49050059807182L76.57070033657551,126.85316253515307L76.68687700299422,120.69634945016773L76.70475033628941,103.46112999131043L76.77624366947016,94.6493500919091L76.96391366906961,108.6834657267034L75.90045033800602,75.13884019603061L75.91385533797741,106.11991970716227L75.98534867115816,103.18506746421255L76.41430867024263,46.05763835880779L76.65113033640385,109.4168465577565L77.60288533437253,107.9673789197633L77.72799866743883,109.48357424950521L78.20164199976126,-44.38526819770681L78.52336199907461,135.6437531868974L78.80039866515001,7.29180712568197L79.14892866440614,74.92965452502952L79.22489033091068,112.30982882021522L79.34553533065319,95.57846016171436L79.43937033045292,128.18965833173482L79.49299033033849,86.17640529606454L79.56001533019543,122.07041752363102L79.81471032965183,84.62711205486681L79.9934436626037,111.76836826355138L80.14089866228898,117.45205802720577L80.63241532790661,127.1041360709182L80.86923699406783,133.17962369863656L80.88711032736302,120.21301176109255L80.97647699383896,111.32721395076922L81.32500699309507,108.01816862692698L81.51267699269454,121.44344285426945L81.74056199220816,213.85526531712614L81.84333365865548,128.83770999881466L82.10696532475949,106.93509834925125L82.12037032473087,81.09530710434879L82.54039365716775,72.95025266636L82.69231699017683,319.7279670851972L82.84870865650971,82.9198462355065L83.0229736561378,78.74917188890102L83.43406032192708,-57.1283392791359L83.5323636550506,126.38651806934448L83.89876698760192,121.24599219867207L84.52880198625724,112.39902006009955L84.82371198562781,110.21107740255998L84.85499031889438,108.93546307231213L84.89520531880856,101.50886097688438L84.97116698531309,77.631186606802L85.02478698519866,128.01908739300237L85.05159698514144,22.59901033707041L85.31522865124543,71.14643080576805L85.53864531743525,113.95179229604173L85.7486569836537,113.83414984015066L86.03016198305289,143.11872897906323L86.36528698233764,136.90099242818638L86.39209698228042,41.74604137103768L86.52614698199432,120.53052916991484L86.56636198190849,139.91808922186092L86.61104531514644,115.233677555751L87.02213198093573,-154.22443379973924L87.06234698084991,115.12491263863618L87.0802203141451,211.8415164839245L87.15618198064962,133.84722870235402L87.44215531337261,126.3924539440392L87.52705364652475,77.63278974686615L88.1302786452373,77.18747239273321L88.41178364463647,124.83776084043792L88.6173269775311,178.0823850871693L88.81393364377817,85.52788993880168L89.19821030962467,113.52674471943033L89.45737364240487,95.60999862771305L90.12315530765056,108.22175686809886L90.13209197429815,32.627428900938924L90.27507864065964,127.590149866334L90.41359697369734,135.61653408347286L90.67722863980134,103.52894100797093L91.31620030510426,109.00953447145994L91.42344030487537,120.92623129778634L91.46365530478954,111.4392137755135L91.70941363759836,127.1807935504491L92.38413196949163,-80.20029714961316L92.4466886360248,114.97220601397373L92.90245863505204,118.54453093229716L92.99629363485178,83.59684143627729L93.59058196691672,138.10245625698064L93.91230196623007,138.79517624278844L94.0106052993536,85.84056553315392L94.08656696585814,140.90449949527456L94.29211029875279,121.14949115237687L94.44403363176187,94.85955731268791L94.73447529780864,55.971106958603485L95.09194196371237,129.4723158747891L95.43153529632092,-185.97880539865236L95.5923952959776,-82.7021840518189L96.088380294919,91.95036736444914L96.09284862824282,32.67020742791365L96.2447719612519,128.44271941501768L96.30732862778504,111.2710558337855L96.49499862738449,121.66397104256646L97.24121029245853,40.82958767015984L97.37972862549623,126.022303932667L97.53165195850531,112.60338877735528L98.01423195747535,141.76570437900767L98.16168695716064,104.95297838468349L98.24211695698897,109.8609088219708L98.25105362363655,114.33910279930117L98.35829362340768,117.74318389339318L98.36276195673148,198.32452652310985L98.37616695670286,124.07095325834348L98.461065289855,101.42531387485745L98.61745695618788,134.17199263574255L98.75597528922557,122.96177545297846L98.93024028885365,105.09046873913184L98.97492362209161,79.11717992283553L99.37260528790951,68.75594405749311L99.43516195444266,-61.22137282921392L99.56474362083276,71.02752723311598L99.60049028742313,31.928037954008914L99.73007195381322,118.0556613553033L100.1724369528691,133.37609913580675L101.20462195066611,-48.6820451801471L101.3297352837324,106.54814192297965L101.36995028364659,65.66730789181155L101.49506361671288,51.72412977447142L101.65145528304578,114.79078148553074L101.70507528293133,123.1191656874993L101.99104861565431,84.57224669556639L102.59427361436686,81.0564158906875L102.83556361385186,86.01599184675167L103.42985194591681,135.5366720188631L103.43432027924061,32.311345127239775L104.05988694457213,95.96918336445246L104.6005552767515,53.78440583058726L104.6318336100181,124.64473878393221L105.19037527549267,48.31350955643359L105.6952969410817,103.16909331857342L105.78019527423382,63.11345152805282L105.90530860730011,108.72591277734908L106.00361194042365,101.42159832655089L106.09744694022338,118.95113787803919L106.40129360624155,116.60992960620958L106.63811527240277,128.7327536693851L106.89727860518296,-38.38830693566317L107.09388527143001,121.50684749581941L108.05010860272249,112.64243819562817L108.13053860255083,69.56402307929804L108.22884193567434,100.67074718624619L108.25565193561714,26.28365299607188L108.74270026791096,116.81107697623116L108.80525693444412,133.20926483932908L108.85440860100587,118.58522266510946L109.10016693381469,126.60221273007969L109.14931860037645,108.19639290208406L109.17612860031922,124.38374110263445L109.43976026642322,89.84547158102176L109.56040526616573,125.74715484886224L109.66317693261306,89.50513278029953L109.97596026527881,121.83027497691765L110.07426359840234,126.62527519567347L110.22171859808763,65.54614425327958L110.32895859785874,114.11699859173059L110.50769193081061,77.5420496084988L110.58812193063895,19.210418227808645L110.61493193058173,140.40964149705425L110.62833693055312,186.60534363422545L110.96793026316166,127.24092279152262L110.97239859648546,65.18676967100626L111.1824102627039,6.687628234140362L111.32092859574159,115.17495351063829L111.4415735954841,124.86553968684541L111.45497859545549,84.58289009915013L111.47732026207447,118.7204748009814L111.79457192806403,130.3198556468571L111.84372359462579,13.514389257805334L112.06267192749183,141.8214255499213L112.31736692694824,159.50990498776878L112.51844192651907,127.75873345380272L112.70164359279472,126.37776351581986L112.7597319260041,-23.732617435604936L112.7642002593279,124.792671396101L112.86250359245142,106.28660257922598L112.93399692563216,240.72908190339993L113.42998192457358,90.8455537462982L113.52381692437332,130.08513207893782L113.83213192371528,127.68141547001844L113.84553692368667,104.70323055798055L113.85000525701047,40.63039450376908L114.0644852565527,-135.5248777294649L114.17172525632381,100.38406837635512L114.76154525506497,97.05679637454679L115.11901192096869,128.38443288099154L115.17710025417806,79.24796541517352L115.46307358690103,119.80250318828652L115.7535152529478,127.8133682863834L115.85628691939513,165.62763814359187L116.23162691859405,118.37000035814316L116.24503191856543,104.46882556518096L116.26737358518442,57.61261390112226L116.56675191787879,138.71255124764053L116.64718191770713,128.89917131330088L116.98230691699187,130.21011480504447L117.15657191661992,540.807828423232L117.8625685817798,128.56966919887984L118.05023858137926,-84.01379369798059L118.05470691470305,101.73427693432433L118.34514858074982,89.74645658811279L118.3719585806926,110.98301194410297L118.48813524711132,86.79101062486542L118.58197024691106,127.36713014374322L118.60878024685383,118.30667632560954L119.31477691201368,113.12519278770634L120.38270857640107,89.48100431696574L120.44079690961044,114.268426019105L120.59272024261952,64.34861067905048L120.69996024239065,127.85374379831131L120.76251690892379,115.0314197400271L120.8876302419901,149.15638046720858L121.3970202409029,86.18731086729035L121.55341190723578,54.99047944042121L121.71874024021625,119.02723881634714L122.12535857268175,97.4386812129839L122.7062419047753,63.87737790282803L123.04136690406004,117.24098444783965L123.44351690320174,114.09845249112014L123.45692190317313,116.59775689138044L124.11376690177123,89.64493442878774L124.13164023506641,91.2142488402602L124.32377856798966,110.5424768893719L124.37293023455143,79.64567372819108L124.41761356778939,103.7211159164493L124.56953690079848,26.97219562677836L124.61422023403645,86.04153963145805L124.73039690045515,177.04028980389614L124.93147190002601,98.3577354963342L125.03424356647334,113.84761832608426L125.26212856598694,112.72714847822796L125.36936856575807,118.38728910876908L125.4542668989102,115.7092436316205L125.66427856512864,115.64240142986719L126.16920023071766,33.660821423863894L126.3881485635837,65.51754085950357L126.75008356281121,118.85252894363333L126.79923522937298,114.7694570105986L126.88860189584891,122.68216085567265L127.21479022848607,115.91710641072657L127.46948522794247,54.055878917238374L127.9475968935887,98.05991004152347L128.57763189224403,103.05225092600382L128.7518968918721,-49.06763049978491L128.8814785582622,22.63622006171707L129.2702235574325,126.67984147292245L129.48470355697472,104.48059448157288L129.49364022362232,-3.147865079377624L129.6634368899266,123.85909242269588L129.76620855637393,99.66120287848591L130.08346022236347,87.42710767347356L130.7134952210188,54.377977479599224L130.99946855374176,-37.220280781562025L131.33906188635032,94.63432216051835L131.43736521947383,82.12714168852725L131.4731118860642,123.4462804660806L132.1522985512813,82.37607137138164L132.25060188440483,140.22231292317764L132.3980568840901,130.14959231250785L132.72871355005105,116.8697543133157L132.90297854967912,104.55820514388861L133.28725521552562,118.81013914798993L133.61344354816276,93.21611274035476L133.7251518812577,123.6785101454708L133.78324021446704,120.60583908516483L133.82345521438123,66.5536936762232L134.17645354696114,125.04959681536084L134.44008521306515,124.70410167433364L134.94947521197795,111.39726092594023L135.0165002118349,41.39768988341592L135.36949854441485,-60.828965124040025L135.75824354358514,-37.20252570400956L136.15592520940302,106.90992422877035L136.32125354238352,-196.98336148315508L136.80830187467734,-29.453501103444808L137.36237520682812,73.22627601898263L137.45621020662784,85.27347281599086L137.496425206542,123.11022411352315L137.56791853972277,42.94128474517515L137.84942353912194,116.95562400971187L137.85389187244576,133.3647829859461L137.9164485389789,109.92784293306988L138.46605353780586,70.01179335826595L138.51520520436762,95.13969097179078L138.9620385367473,51.566292800261635L139.26141686944166,120.16740664505735L140.15508353420097,62.9513234420924L140.72256186632313,79.20844439648701L140.72703019964695,60.43923912263655L140.85661186603704,108.47180151678735L140.86554853268464,117.53554260074334L141.30791353174052,47.33408740672061L141.97816353030998,87.81193059755454L142.26413686303297,65.36473027181067L142.29094686297574,132.90883202184824L142.31775686291851,94.6536894183985L142.3356301962137,76.47171254199041L142.3400985295375,110.56470689736659L142.85395686177412,44.29606466306407L143.09971519458293,124.91702022081304L143.63591519343854,91.72983616273095L143.88614185957113,112.20806408048571L144.32403852530322,49.99101482828742L144.36872185854116,119.74487904190204L144.40000019180775,99.28989514836674L144.4804301916361,72.10801952897803L144.7351251910925,79.30421694821362L144.93173185733954,117.6114521868068L145.31600852318604,104.32033622345043L145.72262685565155,120.3939684558984L145.73156352229913,125.91970070849607L145.8745501886606,95.68466819096375L145.95498018848897,97.47607475632212L147.21951851912337,100.69209426183713L147.3356951855421,124.20958042592943L147.53230185178916,136.52523688841558L147.77806018459796,83.04353210756042L148.05509685067338,125.23378691108556L148.11318518388273,96.09297169282628L148.524271849672,88.56088026909894L148.6538535160621,112.09331149549973L148.82811851569016,122.5116358716131L150.0792518463532,138.8032996729161L150.43225017893315,117.62025740347488L150.54842684535186,64.92496966632112L150.64673017847537,-15.207781527157948L150.7316285116275,104.51182256519074L150.84333684472244,128.8116658471394L150.91483017790318,71.17003794723888L150.96845017778872,122.58941227209337L151.160588510712,94.55461415706608L151.46443517673015,77.98061087236142L151.74147184280554,110.05718951679766L152.67088517415525,122.05692041019626L152.70216350742183,104.58861960378971L152.74237850733599,86.46375308545608L152.96579517352583,94.06508087405881L152.97920017349722,46.394972778620314L153.07303517329692,84.75563748132491L153.21155350633464,126.00093161967374L153.29645183948676,108.55760416456242L153.90414517152308,97.23459726402902L154.26608017075063,123.05664774512955L154.27054850407444,112.35222313599036L154.4224718370835,111.03378658416078L155.03463350244363,96.05021425979976L155.0569751690626,128.16303249560372L155.17315183548132,108.65840912964826L155.37869516837597,115.64549018656973L155.44572016823292,91.90688671034106L155.81212350078422,127.14901966092123L156.0042618337075,135.36715615421895L156.1204385001262,83.43211879468673L156.30364016640186,113.05474201409814L156.49577849932513,119.53282384058875L157.08559849806628,119.1129653752376L157.11687683133283,133.86134959397162L157.13475016462803,112.41344078712389L157.5905201636553,118.52423177391921L157.76925349660712,97.18304365459794L158.18927682904402,121.95507129467391L158.25183349557716,101.15281622500746L158.33226349540553,114.80052688960487L158.51993349500498,70.98777418099914L159.73532015907765,96.83881452714112L159.97214182523888,294.2972718719259L160.50387349077067,65.028559032571L161.31711015570164,86.96614463660939L161.4824384886821,77.80417506267064L161.902461821119,96.2578329517908L162.61292681960265,133.15210287641705L162.72910348602136,84.60224530334558L162.9078368189732,-72.25922119083813L163.11338015186786,118.63234277863947L163.40382181791463,113.3577791808279L163.43510015118122,25.835918878158026L163.47084681777162,123.61210601982054L163.6853268173138,82.57595762464224L163.72554181722802,106.68098106184718L163.989173483332,63.62109848573219L164.04726181654135,82.49046987937977L164.69517014849185,99.91692179924354L164.74879014837742,80.96746271107585L164.89624514806272,85.52104344589615L165.08391514766217,99.73298859767385L165.37435681370894,26.223456894716065L165.7050134796699,107.70345294644048L165.91502514588834,112.04913172767947L166.2054668119351,113.31662187444437L166.3350484783252,59.580094665630625L166.39313681153456,127.73865634689746L166.70145181087653,121.18762072383664L166.71485681084792,126.25028468820298L166.90699514377116,121.0543905935719L167.1259434766372,96.43935541642193L167.3761701427698,87.05488386331773L167.96599014151096,93.94973012496995L168.00173680810133,122.75101526941435L168.0330151413679,120.02154274652398L168.448570140481,127.95803595088043L168.50219014036654,121.44495031821134L168.5915568068425,130.12217926717994L169.10094680575529,124.5413057389057L169.11882013905046,104.10685190714577L169.239465138793,127.65717456840711L169.24840180544058,24.15169367708799L169.65055180458228,87.5423830870331L169.96333513724804,-42.193691354232385L170.08398013699053,-137.96741228824334L170.11525847025712,39.40042446403166L170.1286634702285,128.10194790584887L170.24037180332343,128.5981812483265L170.84806513535978,94.08490014511493L171.25915180114905,125.12789077092759L171.2904301344156,128.280078859119L171.69258013355733,74.870055081066L171.73279513347148,63.15986424096242L171.78641513335702,-3.7292745605345488L171.8713134665092,129.20235757375167L171.94727513301373,63.74045407156025L172.18856513249875,-2.916157098528032L172.2421851323843,104.6572397240352L172.3538934654792,74.46224879369706L172.51922179845968,129.2044140218212L172.7783851312399,83.61439461461114L172.98392846413455,-54.77269973330783L173.06882679728668,118.79224469970819L173.10010513055323,122.75546232571071L173.30564846344788,100.4449997524772L173.53800179628533,118.45447333382555L173.5514067962567,101.13281012183859L173.70779846258958,101.88056647859842L174.28868179468316,19.863077039184674L174.52103512752055,38.36418124467684L174.52550346084433,107.24990593908353L174.6193384606441,128.56670747671365L174.86509679345292,-179.04398309171654L175.2538417926232,44.602294549526874L175.258310125947,119.83764570600836L175.42810679225127,133.1083867987798L175.58449845858414,109.37388722551138L175.62471345849832,116.71292231506716L175.79897845812638,93.92434205158574L176.01792679099242,115.66724256730846L176.26368512380122,60.67616032211578L176.4066717901627,137.12282090771964L176.8311634559234,115.94298717847258L177.5103501211405,108.0802526366478L177.7292984540065,118.89769786695368L177.8901584536632,-227.73669867570118L178.16719511973858,150.87300446602225L178.51125678567092,6.77430628076624L178.5246617856423,81.69453193148169L178.86425511825087,113.54611197731047L178.9580901180506,119.55869255465008L178.99383678464096,51.17575944305746L179.0519251178503,113.09665870261732L179.0608617844979,144.88804867393264L179.08767178444066,136.7067254520585L179.52556845017276,57.96654021791443L179.53450511682033,104.4757232862464L179.9232501159906,92.66353265956182L179.93665511596203,-11.625028664864658L180.05730011570455,113.01052759193438L180.82138511407376,100.50312262006585L180.85266344734032,110.9716860006235L181.1475734467109,91.39317976268238L181.1699151133299,104.70100514644415L181.63462177900473,126.62156341414337L181.7105834455093,100.40895019498222L182.00996177820363,115.61275388565468L182.09932844467957,99.70975210700732L182.5774401103258,120.56345004287672L182.80979344316324,96.82151146276462L182.87681844302017,97.99911426935418L182.94384344287715,117.75808601444993L183.0153367760579,63.96094609880319L183.07342510926722,103.30054477699069L183.2298167756001,40.845884251864504L183.31471510875224,-437.15110039752733L183.34599344201882,94.21326887367202L184.38711510646343,78.91462679183665L184.65521510589122,85.25280677358506L184.78926510560512,117.19232673615602L184.87416343875728,106.53388392069866L185.27184510457516,103.86919543290028L185.44611010420323,120.89704631372392L185.4639834374984,111.67129692729914L185.50419843741258,114.40723173189545L185.53100843735535,17.30868428645715L185.64271677045028,87.92614830028228L185.89741176990668,60.3269891839349L186.54978843518097,79.32393074952867L187.06811510074138,113.86246394549403L187.21557010042667,128.45475313579522L187.7026184327205,54.93298939127894L187.72942843266327,88.1443139663795L187.76964343257742,104.98032216840909L188.34605843134722,169.5908294021591L188.4979817643563,89.71720229536338L188.81970176366963,115.00890044359977L189.64187509524822,74.17212865682619L189.72677342840038,101.1391292660388L189.91891176132359,119.04906502590462L190.2272267606656,129.8897784819688L191.18791842528185,118.94233266137111L191.6392200909853,79.20311968127398L191.8849784237941,86.3237344706434L191.95200342365106,107.21236172468666L192.260318422993,75.55090143409612L192.41224175600212,132.96597326748974L192.74289842196305,49.92484009932397L192.8143917551438,137.19527409969743L192.86354342170554,124.22176594779856L193.01546675471465,121.35142276525877L193.37293342061838,114.70996303637614L193.64550175336996,132.47467807479023L193.64997008669377,83.80524361777334L193.90913341947396,113.22949934819543L193.9985000859499,53.78367658266335L194.19063841887314,-334.13862349705164L194.21298008549212,91.34061364373711L194.5347000848055,109.43159273426754L195.1647350834608,132.10405552131033L195.26750674990814,196.35772076494428L195.27197508323192,228.07828177829415L195.87966841526824,115.81774638109329L196.30862841435274,11.563813786078612L196.57226008045674,106.03821983231451L196.6214117470185,123.78003607157231L197.89041841097674,51.87595798686186L198.0736200772524,94.3297978704396L198.38640340991816,65.91396846852253L198.51151674298444,108.78392113493315L198.73940174249807,16.776345355684583L199.17283007490636,93.9897393178865L199.20857674149673,146.1921744886107L199.31134840794405,90.08624694618149L199.333690074563,55.00289473565478L199.4096517410676,12.343289414107517L199.6375367405812,82.51233224999133L199.80733340688548,86.69938454067315L200.71887340493996,118.81680182220387L201.04059340425334,128.03884733732914L201.50976840325197,99.58697628814768L201.89851340242228,91.10994830661346L201.95213340230782,109.14869576794884L202.0951200686693,124.85006049563398L202.2202334017356,118.02120514425364L202.60897840090593,124.9810053226165L202.6536617341439,-210.12151618775994L202.6804717340867,-12.331362534177714L202.69834506738187,105.42948012782726L202.83686340041956,97.21604965670798L202.84580006706713,128.8440513199113L202.90835673360027,148.27174849391972L202.9351667335431,131.38309111552377L203.26135506618024,72.63378920159302L204.365033397158,108.54072599257134L204.39631173042457,136.39318425247427L204.7582467296521,105.1552919486991L204.8744233960708,122.53348166840821L205.2765733952125,-10.069247527881032L205.39721839495502,68.21488428584532L205.71000172762078,-27.76914331184318L206.01384839363894,51.30756045833081L206.08534172681968,29.17547659808949L206.38025172619024,122.25655654949949L206.5947317257325,62.07216986849642L206.66622505891323,110.05603688319891L206.79580672530332,71.22496658838394L206.90751505839825,116.69453140564713L206.9924133915504,130.93401847359254L207.6358533901771,125.87914909976834L207.67160005676746,119.06705665701921L207.95757338949045,115.54076174711639L208.07821838923297,94.16905897164003L208.6814433879455,43.77260929791012L208.71272172121206,114.31237375349491L208.7931517210404,112.23448123720055L209.25339005339146,128.46989576552934L209.36063005316257,105.70527144701957L209.40531338640056,128.2102985717218L209.4678700529337,128.68879458758107L209.7449067190091,127.52813158686251L210.04875338502725,105.54919883090668L210.16939838476975,51.33547076523698L210.4643083841403,89.580772665168L210.5223967173497,120.90993019594993L210.66538338371117,119.58495979366157L210.7458133835395,-4.728741987891652L210.79049671677748,16.921158323583796L210.8843317165772,147.78487003496602L211.37138004887106,86.81378907551364L211.6841633815368,106.02060035871482L212.1220600472689,59.85511756242376L212.64485504615308,102.17214209789594L212.81465171245733,137.60346535162128L212.96210671214263,127.42281119848747L213.03806837864718,102.57628406511829L213.21233337827525,114.43759345692601L214.29367004263403,48.72433529181811L214.36516337581475,126.88972380923101L215.00860337444146,117.9689727617033L215.24095670727888,-69.6646776143989L215.43756337352593,113.43417392770026L215.5939550398588,111.72863479867218L215.7280050395727,91.09602027395093L215.83524503934382,110.28906926265412L215.94248503911496,78.76919305917575L215.97823170570533,124.5749878773915L216.02738337226708,127.67191565976992L216.0318517055909,142.74923231506915L216.29995170501869,91.07582131182699L216.42059670476118,105.34940599370245L216.43847003805638,110.47183175009802L216.50549503791333,83.16516583979542L216.62167170433202,64.90170605486402L216.67082337089377,111.96655946740206L216.71997503745558,123.76929473180044L216.86743003714085,89.28893186480724L217.24723836966356,92.86690242769865L217.48406003582477,110.54513774026783L217.50193336911994,111.1576095668781L217.56002170232932,112.25012239980005L217.91748836823305,126.36731654962885L217.93536170152822,90.72355539010124L218.05600670127075,93.73579831562105L218.09622170118493,-5.161746503110891L218.48496670035522,108.73694792568534L218.51624503362177,122.38023940813225L218.71285169986885,117.27723816461912L218.94967336603005,124.39190370723735L219.10606503236292,73.93731082532587L219.12393836565812,21.168298232459193L219.3965066984097,132.19366393168832L219.82993503081798,74.54807705555208L219.99973169712226,-18.308676290172087L220.20527503001688,108.65189260636122L220.20974336334072,122.49923790355126L220.2231483633121,113.47386068455128L220.47337502944467,101.0416119434529L220.84871502864362,133.27989943162885L220.9559550284147,125.9620230788407L221.17490336128077,61.673536435178676L221.2374600278139,77.85891084486062L221.89877335973583,64.38572397421959L222.0328233594497,78.24799173305931L222.29645502555368,116.7313463721201L222.52434002506732,114.94319882176053L223.44481668976943,141.95504817829385L223.4850316896836,96.22562851971283L223.57439835615952,106.15585324794208L223.71291668919721,128.81989262819638L223.72185335584481,34.866346591044305L224.32507835455738,112.87423507240237L224.48593835421403,117.12225716032623L224.68254502046108,108.23263983866588L224.94617668656508,63.951743110540235L224.99979668645062,107.07699583216541L225.50471835203965,128.2242571152737L225.67004668502014,-121.48816904575102L225.8085650180578,126.8413544442859L225.9649566843907,142.23056979629115L226.6352066829602,91.34788201560687L226.67542168287434,127.26243070846868L226.79606668261687,133.46035100171056L226.93011668233075,-83.34196952794304L227.08204001533986,83.80542442304372L227.28311501491072,92.65805425986895L227.3188616815011,108.26216383261028L227.44397501456737,122.79004359373904L227.9488966801564,30.10789540434294L228.02039001333713,95.99220288879452L228.12316167978446,73.8988776516829L228.29742667941252,94.6357565489968L228.37338834591708,102.93197624671795L228.75766501176358,123.61409751453837L228.79788001167773,119.09563293000465L228.94980334468684,98.99721963034101L229.4100416770379,50.76670559932279L229.46366167692344,94.42617913324318L229.6379266765515,83.46405804570146L229.87028000938892,125.75966770360631L231.15716000664233,37.486474113244014L231.25099500644205,127.7781276441346L231.8810300050974,95.52093093809683L232.07316833802062,128.21733161423182L232.30999000418186,53.82117559574263L232.34126833744844,-67.6725651452208L232.43063500392438,79.21997374589569L232.54234333701928,88.75631268586557L232.5468116703431,92.14461249327351L232.9489616694848,114.74523513120843L233.18131500232218,120.55724390197054L233.44941500174997,70.58574160859803L233.48069333501658,119.01324298170823L233.61027500140668,123.13306358595011L233.84709666756788,115.50450577027105L233.86497000086308,-66.08536005224306L233.92305833407244,114.52794335725143L233.98561500060558,28.127951129862225L234.09285500037672,121.07756003561732L234.14647500026226,85.84893681717307L234.28946166662377,88.3698474472452L234.32073999989035,95.36179819278256L234.3832966664235,124.0156328724459L234.8882183320125,119.68789826093803L234.93736999857427,98.62350116328327L234.96417999851704,41.82046082033099L235.1473816647927,70.67398060739163L235.16525499808787,37.61039804557063L235.22781166462104,134.17439546245055L235.33058333106834,70.05579533423699L235.80422666339078,68.67355712261786L235.99636499631404,97.61831426253943L236.19297166256112,122.80973027426354L236.27340166238943,126.51408447451419L236.34489499557017,70.43552858995643L236.47894499528408,-49.23229588637315L236.78725999462606,105.4140152503664L237.34580166010062,122.73214823944896L237.53793999302388,99.69719216755742L237.54687665967148,131.58230273911923L237.71220499265192,-12.08945713607801L237.71667332597573,104.29447052281027L237.76135665921367,123.07410826076236L237.79710332580407,112.8906130164787L237.908811658899,-8.132919511461182L238.27968332477408,122.1584448295872L238.30202499139307,62.10143621493053L238.36904999125005,90.64736706257926L239.2359066560666,59.91187836364212L239.8525366547505,117.41648534361144L240.7998233193954,116.37777865244753L241.14835331865152,-47.642824700673174L241.3181499849558,106.04874721918308" fill="none"></path></g></g></g></g></g></g><g transform="translate(61, 177)" clip-path="url(#clip_1)"><clipPath id="clip_1"><rect width="268" height="22"></rect></clipPath><g><g><line x1="0" y1="0" x2="0" y2="5" style="visibility: inherit;" fill="rgb(0, 0, 0)" stroke="rgb(204, 204, 204)" stroke-width="1px"></line><line x1="22.34166661898295" y1="0" x2="22.34166661898295" y2="5" style="visibility: inherit;" fill="rgb(0, 0, 0)" stroke="rgb(204, 204, 204)" stroke-width="1px"></line><line x1="44.6833332379659" y1="0" x2="44.6833332379659" y2="5" style="visibility: inherit;" fill="rgb(0, 0, 0)" stroke="rgb(204, 204, 204)" stroke-width="1px"></line><line x1="67.02499985694885" y1="0" x2="67.02499985694885" y2="5" style="visibility: inherit;" fill="rgb(0, 0, 0)" stroke="rgb(204, 204, 204)" stroke-width="1px"></line><line x1="89.3666664759318" y1="0" x2="89.3666664759318" y2="5" style="visibility: inherit;" fill="rgb(0, 0, 0)" stroke="rgb(204, 204, 204)" stroke-width="1px"></line><line x1="111.70833309491476" y1="0" x2="111.70833309491476" y2="5" style="visibility: inherit;" fill="rgb(0, 0, 0)" stroke="rgb(204, 204, 204)" stroke-width="1px"></line><line x1="134.0499997138977" y1="0" x2="134.0499997138977" y2="5" style="visibility: inherit;" fill="rgb(0, 0, 0)" stroke="rgb(204, 204, 204)" stroke-width="1px"></line><line x1="156.39166633288067" y1="0" x2="156.39166633288067" y2="5" style="visibility: inherit;" fill="rgb(0, 0, 0)" stroke="rgb(204, 204, 204)" stroke-width="1px"></line><line x1="178.7333329518636" y1="0" x2="178.7333329518636" y2="5" style="visibility: inherit;" fill="rgb(0, 0, 0)" stroke="rgb(204, 204, 204)" stroke-width="1px"></line><line x1="201.07499957084656" y1="0" x2="201.07499957084656" y2="5" style="visibility: inherit;" fill="rgb(0, 0, 0)" stroke="rgb(204, 204, 204)" stroke-width="1px"></line><line x1="223.41666618982953" y1="0" x2="223.41666618982953" y2="5" style="visibility: inherit;" fill="rgb(0, 0, 0)" stroke="rgb(204, 204, 204)" stroke-width="1px"></line><line x1="245.75833280881244" y1="0" x2="245.75833280881244" y2="5" style="visibility: inherit;" fill="rgb(0, 0, 0)" stroke="rgb(204, 204, 204)" stroke-width="1px"></line><line x1="268.0999994277954" y1="0" x2="268.0999994277954" y2="5" style="visibility: inherit;" fill="rgb(0, 0, 0)" stroke="rgb(204, 204, 204)" stroke-width="1px"></line></g><g transform="translate(0, 8)"><text style="text-anchor: middle; visibility: hidden; font-family: &quot;Helvetica Neue&quot;, sans-serif; font-size: 12px; font-weight: 200;" x="0" y="0" dx="0em" dy="0.95em" fill="rgb(50, 49, 63)" stroke="none" stroke-width="1px">-50k</text><text style="text-anchor: middle; visibility: hidden; font-family: &quot;Helvetica Neue&quot;, sans-serif; font-size: 12px; font-weight: 200;" x="22.34166661898295" y="0" dx="0em" dy="0.95em" fill="rgb(50, 49, 63)" stroke="none" stroke-width="1px">0</text><text style="text-anchor: middle; visibility: hidden; font-family: &quot;Helvetica Neue&quot;, sans-serif; font-size: 12px; font-weight: 200;" x="44.6833332379659" y="0" dx="0em" dy="0.95em" fill="rgb(50, 49, 63)" stroke="none" stroke-width="1px">50k</text><text style="text-anchor: middle; visibility: hidden; font-family: &quot;Helvetica Neue&quot;, sans-serif; font-size: 12px; font-weight: 200;" x="67.02499985694885" y="0" dx="0em" dy="0.95em" fill="rgb(50, 49, 63)" stroke="none" stroke-width="1px">100k</text><text style="text-anchor: middle; visibility: hidden; font-family: &quot;Helvetica Neue&quot;, sans-serif; font-size: 12px; font-weight: 200;" x="89.3666664759318" y="0" dx="0em" dy="0.95em" fill="rgb(50, 49, 63)" stroke="none" stroke-width="1px">150k</text><text style="text-anchor: middle; visibility: hidden; font-family: &quot;Helvetica Neue&quot;, sans-serif; font-size: 12px; font-weight: 200;" x="111.70833309491476" y="0" dx="0em" dy="0.95em" fill="rgb(50, 49, 63)" stroke="none" stroke-width="1px">200k</text><text style="text-anchor: middle; visibility: hidden; font-family: &quot;Helvetica Neue&quot;, sans-serif; font-size: 12px; font-weight: 200;" x="134.0499997138977" y="0" dx="0em" dy="0.95em" fill="rgb(50, 49, 63)" stroke="none" stroke-width="1px">250k</text><text style="text-anchor: middle; visibility: hidden; font-family: &quot;Helvetica Neue&quot;, sans-serif; font-size: 12px; font-weight: 200;" x="156.39166633288067" y="0" dx="0em" dy="0.95em" fill="rgb(50, 49, 63)" stroke="none" stroke-width="1px">300k</text><text style="text-anchor: middle; visibility: hidden; font-family: &quot;Helvetica Neue&quot;, sans-serif; font-size: 12px; font-weight: 200;" x="178.7333329518636" y="0" dx="0em" dy="0.95em" fill="rgb(50, 49, 63)" stroke="none" stroke-width="1px">350k</text><text style="text-anchor: middle; visibility: hidden; font-family: &quot;Helvetica Neue&quot;, sans-serif; font-size: 12px; font-weight: 200;" x="201.07499957084656" y="0" dx="0em" dy="0.95em" fill="rgb(50, 49, 63)" stroke="none" stroke-width="1px">400k</text><text style="text-anchor: middle; visibility: hidden; font-family: &quot;Helvetica Neue&quot;, sans-serif; font-size: 12px; font-weight: 200;" x="223.41666618982953" y="0" dx="0em" dy="0.95em" fill="rgb(50, 49, 63)" stroke="none" stroke-width="1px">450k</text><text style="text-anchor: middle; visibility: hidden; font-family: &quot;Helvetica Neue&quot;, sans-serif; font-size: 12px; font-weight: 200;" x="245.75833280881244" y="0" dx="0em" dy="0.95em" fill="rgb(50, 49, 63)" stroke="none" stroke-width="1px">500k</text><text style="text-anchor: middle; visibility: hidden; font-family: &quot;Helvetica Neue&quot;, sans-serif; font-size: 12px; font-weight: 200;" x="268.0999994277954" y="0" dx="0em" dy="0.95em" fill="rgb(50, 49, 63)" stroke="none" stroke-width="1px">550k</text></g><line x1="0" y1="0" x2="268.0999994277954" y2="0" fill="rgb(0, 0, 0)" stroke="rgb(204, 204, 204)" stroke-width="1px"></line></g></g></g></g></svg>