<svg viewBox="0 0 330 200" xmlns="http://www.w3.org/2000/svg"><g><g><g><g><g><line x1="72.28000068664551" y1="177.95999908447266" x2="67.28000068664551" y2="177.95999908447266" style="visibility: inherit;" fill="rgb(0, 0, 0)" stroke="rgb(204, 204, 204)" stroke-width="1px"></line><line x1="72.28000068664551" y1="164.27076838566708" x2="67.28000068664551" y2="164.27076838566708" style="visibility: inherit;" fill="rgb(0, 0, 0)" stroke="rgb(204, 204, 204)" stroke-width="1px"></line><line x1="72.28000068664551" y1="150.58153768686148" x2="67.28000068664551" y2="150.58153768686148" style="visibility: inherit;" fill="rgb(0, 0, 0)" stroke="rgb(204, 204, 204)" stroke-width="1px"></line><line x1="72.28000068664551" y1="136.8923069880559" x2="67.28000068664551" y2="136.8923069880559" style="visibility: inherit;" fill="rgb(0, 0, 0)" stroke="rgb(204, 204, 204)" stroke-width="1px"></line><line x1="72.28000068664551" y1="123.2030762892503" x2="67.28000068664551" y2="123.2030762892503" style="visibility: inherit;" fill="rgb(0, 0, 0)" stroke="rgb(204, 204, 204)" stroke-width="1px"></line><line x1="72.28000068664551" y1="109.51384559044472" x2="67.28000068664551" y2="109.51384559044472" style="visibility: inherit;" fill="rgb(0, 0, 0)" stroke="rgb(204, 204, 204)" stroke-width="1px"></line><line x1="72.28000068664551" y1="95.82461489163913" x2="67.28000068664551" y2="95.82461489163913" style="visibility: inherit;" fill="rgb(0, 0, 0)" stroke="rgb(204, 204, 204)" stroke-width="1px"></line><line x1="72.28000068664551" y1="82.13538419283354" x2="67.28000068664551" y2="82.13538419283354" style="visibility: inherit;" fill="rgb(0, 0, 0)" stroke="rgb(204, 204, 204)" stroke-width="1px"></line><line x1="72.28000068664551" y1="68.44615349402794" x2="67.28000068664551" y2="68.44615349402794" style="visibility: inherit;" fill="rgb(0, 0, 0)" stroke="rgb(204, 204, 204)" stroke-width="1px"></line><line x1="72.28000068664551" y1="54.756922795222366" x2="67.28000068664551" y2="54.756922795222366" style="visibility: inherit;" fill="rgb(0, 0, 0)" stroke="rgb(204, 204, 204)" stroke-width="1px"></line><line x1="72.28000068664551" y1="41.06769209641678" x2="67.28000068664551" y2="41.06769209641678" style="visibility: inherit;" fill="rgb(0, 0, 0)" stroke="rgb(204, 204, 204)" stroke-width="1px"></line><line x1="72.28000068664551" y1="27.378461397611176" x2="67.28000068664551" y2="27.378461397611176" style="visibility: inherit;" fill="rgb(0, 0, 0)" stroke="rgb(204, 204, 204)" stroke-width="1px"></line><line x1="72.28000068664551" y1="13.689230698805602" x2="67.28000068664551" y2="13.689230698805602" style="visibility: inherit;" fill="rgb(0, 0, 0)" stroke="rgb(204, 204, 204)" stroke-width="1px"></line><line x1="72.28000068664551" y1="0" x2="67.28000068664551" y2="0" style="visibility: inherit;" fill="rgb(0, 0, 0)" stroke="rgb(204, 204, 204)" stroke-width="1px"></line></g><g transform="translate(62.28000068664551, 0)"><text style="text-anchor: end; visibility: hidden; font-family: &quot;Helvetica Neue&quot;, sans-serif; font-size: 12px; font-weight: 200;" x="0" y="177.95999908447266" dx="0em" dy="0.3em" fill="rgb(50, 49, 63)" stroke="none" stroke-width="1px">-0.045</text><text style="text-anchor: end; visibility: inherit; font-family: &quot;Helvetica Neue&quot;, sans-serif; font-size: 12px; font-weight: 200;" x="0" y="164.27076838566708" dx="0em" dy="0.3em" fill="rgb(50, 49, 63)" stroke="none" stroke-width="1px">-0.04</text><text style="text-anchor: end; visibility: hidden; font-family: &quot;Helvetica Neue&quot;, sans-serif; font-size: 12px; font-weight: 200;" x="0" y="150.58153768686148" dx="0em" dy="0.3em" fill="rgb(50, 49, 63)" stroke="none" stroke-width="1px">-0.035</text><text style="text-anchor: end; visibility: inherit; font-family: &quot;Helvetica Neue&quot;, sans-serif; font-size: 12px; font-weight: 200;" x="0" y="136.8923069880559" dx="0em" dy="0.3em" fill="rgb(50, 49, 63)" stroke="none" stroke-width="1px">-0.03</text><text style="text-anchor: end; visibility: hidden; font-family: &quot;Helvetica Neue&quot;, sans-serif; font-size: 12px; font-weight: 200;" x="0" y="123.2030762892503" dx="0em" dy="0.3em" fill="rgb(50, 49, 63)" stroke="none" stroke-width="1px">-0.025</text><text style="text-anchor: end; visibility: inherit; font-family: &quot;Helvetica Neue&quot;, sans-serif; font-size: 12px; font-weight: 200;" x="0" y="109.51384559044472" dx="0em" dy="0.3em" fill="rgb(50, 49, 63)" stroke="none" stroke-width="1px">-0.02</text><text style="text-anchor: end; visibility: hidden; font-family: &quot;Helvetica Neue&quot;, sans-serif; font-size: 12px; font-weight: 200;" x="0" y="95.82461489163913" dx="0em" dy="0.3em" fill="rgb(50, 49, 63)" stroke="none" stroke-width="1px">-0.015</text><text style="text-anchor: end; visibility: inherit; font-family: &quot;Helvetica Neue&quot;, sans-serif; font-size: 12px; font-weight: 200;" x="0" y="82.13538419283354" dx="0em" dy="0.3em" fill="rgb(50, 49, 63)" stroke="none" stroke-width="1px">-0.01</text><text style="text-anchor: end; visibility: hidden; font-family: &quot;Helvetica Neue&quot;, sans-serif; font-size: 12px; font-weight: 200;" x="0" y="68.44615349402794" dx="0em" dy="0.3em" fill="rgb(50, 49, 63)" stroke="none" stroke-width="1px">-5e-3</text><text style="text-anchor: end; visibility: inherit; font-family: &quot;Helvetica Neue&quot;, sans-serif; font-size: 12px; font-weight: 200;" x="0" y="54.756922795222366" dx="0em" dy="0.3em" fill="rgb(50, 49, 63)" stroke="none" stroke-width="1px">0</text><text style="text-anchor: end; visibility: hidden; font-family: &quot;Helvetica Neue&quot;, sans-serif; font-size: 12px; font-weight: 200;" x="0" y="41.06769209641678" dx="0em" dy="0.3em" fill="rgb(50, 49, 63)" stroke="none" stroke-width="1px">5e-3</text><text style="text-anchor: end; visibility: inherit; font-family: &quot;Helvetica Neue&quot;, sans-serif; font-size: 12px; font-weight: 200;" x="0" y="27.378461397611176" dx="0em" dy="0.3em" fill="rgb(50, 49, 63)" stroke="none" stroke-width="1px">0.01</text><text style="text-anchor: end; visibility: hidden; font-family: &quot;Helvetica Neue&quot;, sans-serif; font-size: 12px; font-weight: 200;" x="0" y="13.689230698805602" dx="0em" dy="0.3em" fill="rgb(50, 49, 63)" stroke="none" stroke-width="1px">0.015</text><text style="text-anchor: end; visibility: hidden; font-family: &quot;Helvetica Neue&quot;, sans-serif; font-size: 12px; font-weight: 200;" x="0" y="0" dx="0em" dy="0.3em" fill="rgb(50, 49, 63)" stroke="none" stroke-width="1px">0.02</text></g><line x1="72.28000068664551" y1="0" x2="72.28000068664551" y2="177.95999908447266" fill="rgb(0, 0, 0)" stroke="rgb(204, 204, 204)" stroke-width="1px"></line></g></g><g transform="translate(72, 0)" clip-path="url(#clip_0)"><clipPath id="clip_0"><rect width="257" height="177"></rect></clipPath><g><g><g><line x1="0" y1="0" x2="0" y2="177.95999908447266" fill="rgb(0, 0, 0)" stroke="rgb(60, 60, 60)" stroke-width="1px" opacity="0.25"></line><line x1="21.476666609446205" y1="0" x2="21.476666609446205" y2="177.95999908447266" fill="rgb(0, 0, 0)" stroke="rgb(60, 60, 60)" stroke-width="1px" opacity="0.25"></line><line x1="42.95333321889241" y1="0" x2="42.95333321889241" y2="177.95999908447266" fill="rgb(0, 0, 0)" stroke="rgb(60, 60, 60)" stroke-width="1px" opacity="0.25"></line><line x1="64.42999982833862" y1="0" x2="64.42999982833862" y2="177.95999908447266" fill="rgb(0, 0, 0)" stroke="rgb(60, 60, 60)" stroke-width="1px" opacity="0.25"></line><line x1="85.90666643778482" y1="0" x2="85.90666643778482" y2="177.95999908447266" fill="rgb(0, 0, 0)" stroke="rgb(60, 60, 60)" stroke-width="1px" opacity="0.25"></line><line x1="107.38333304723105" y1="0" x2="107.38333304723105" y2="177.95999908447266" fill="rgb(0, 0, 0)" stroke="rgb(60, 60, 60)" stroke-width="1px" opacity="0.25"></line><line x1="128.85999965667725" y1="0" x2="128.85999965667725" y2="177.95999908447266" fill="rgb(0, 0, 0)" stroke="rgb(60, 60, 60)" stroke-width="1px" opacity="0.25"></line><line x1="150.33666626612347" y1="0" x2="150.33666626612347" y2="177.95999908447266" fill="rgb(0, 0, 0)" stroke="rgb(60, 60, 60)" stroke-width="1px" opacity="0.25"></line><line x1="171.81333287556964" y1="0" x2="171.81333287556964" y2="177.95999908447266" fill="rgb(0, 0, 0)" stroke="rgb(60, 60, 60)" stroke-width="1px" opacity="0.25"></line><line x1="193.28999948501587" y1="0" x2="193.28999948501587" y2="177.95999908447266" fill="rgb(0, 0, 0)" stroke="rgb(60, 60, 60)" stroke-width="1px" opacity="0.25"></line><line x1="214.7666660944621" y1="0" x2="214.7666660944621" y2="177.95999908447266" fill="rgb(0, 0, 0)" stroke="rgb(60, 60, 60)" stroke-width="1px" opacity="0.25"></line><line x1="236.24333270390827" y1="0" x2="236.24333270390827" y2="177.95999908447266" fill="rgb(0, 0, 0)" stroke="rgb(60, 60, 60)" stroke-width="1px" opacity="0.25"></line><line x1="257.7199993133545" y1="0" x2="257.7199993133545" y2="177.95999908447266" fill="rgb(0, 0, 0)" stroke="rgb(60, 60, 60)" stroke-width="1px" opacity="0.25"></line></g><g><line x1="0" y1="177.95999908447266" x2="257.7199993133545" y2="177.95999908447266" fill="rgb(0, 0, 0)" stroke="rgb(60, 60, 60)" stroke-width="1px" opacity="0.25"></line><line x1="0" y1="164.27076838566708" x2="257.7199993133545" y2="164.27076838566708" fill="rgb(0, 0, 0)" stroke="rgb(60, 60, 60)" stroke-width="1px" opacity="0.25"></line><line x1="0" y1="150.58153768686148" x2="257.7199993133545" y2="150.58153768686148" fill="rgb(0, 0, 0)" stroke="rgb(60, 60, 60)" stroke-width="1px" opacity="0.25"></line><line x1="0" y1="136.8923069880559" x2="257.7199993133545" y2="136.8923069880559" fill="rgb(0, 0, 0)" stroke="rgb(60, 60, 60)" stroke-width="1px" opacity="0.25"></line><line x1="0" y1="123.2030762892503" x2="257.7199993133545" y2="123.2030762892503" fill="rgb(0, 0, 0)" stroke="rgb(60, 60, 60)" stroke-width="1px" opacity="0.25"></line><line x1="0" y1="109.51384559044472" x2="257.7199993133545" y2="109.51384559044472" fill="rgb(0, 0, 0)" stroke="rgb(60, 60, 60)" stroke-width="1px" opacity="0.25"></line><line x1="0" y1="95.82461489163913" x2="257.7199993133545" y2="95.82461489163913" fill="rgb(0, 0, 0)" stroke="rgb(60, 60, 60)" stroke-width="1px" opacity="0.25"></line><line x1="0" y1="82.13538419283354" x2="257.7199993133545" y2="82.13538419283354" fill="rgb(0, 0, 0)" stroke="rgb(60, 60, 60)" stroke-width="1px" opacity="0.25"></line><line x1="0" y1="68.44615349402794" x2="257.7199993133545" y2="68.44615349402794" fill="rgb(0, 0, 0)" stroke="rgb(60, 60, 60)" stroke-width="1px" opacity="0.25"></line><line x1="0" y1="54.756922795222366" x2="257.7199993133545" y2="54.756922795222366" fill="rgb(0, 0, 0)" stroke="rgb(60, 60, 60)" stroke-width="1px" opacity="0.25"></line><line x1="0" y1="41.06769209641678" x2="257.7199993133545" y2="41.06769209641678" fill="rgb(0, 0, 0)" stroke="rgb(60, 60, 60)" stroke-width="1px" opacity="0.25"></line><line x1="0" y1="27.378461397611176" x2="257.7199993133545" y2="27.378461397611176" fill="rgb(0, 0, 0)" stroke="rgb(60, 60, 60)" stroke-width="1px" opacity="0.25"></line><line x1="0" y1="13.689230698805602" x2="257.7199993133545" y2="13.689230698805602" fill="rgb(0, 0, 0)" stroke="rgb(60, 60, 60)" stroke-width="1px" opacity="0.25"></line><line x1="0" y1="0" x2="257.7199993133545" y2="0" fill="rgb(0, 0, 0)" stroke="rgb(60, 60, 60)" stroke-width="1px" opacity="0.25"></line></g></g></g><g><g><line x1="0" y1="54.756922795222366" x2="257.7199993133545" y2="54.756922795222366" fill="rgb(0, 0, 0)" stroke="rgb(153, 153, 153)" stroke-width="1.5px"></line></g></g><g><g><line x1="21.476666609446205" y1="0" x2="21.476666609446205" y2="177.95999908447266" fill="rgb(0, 0, 0)" stroke="rgb(153, 153, 153)" stroke-width="1.5px"></line></g></g><g><g><g><g><g><path style="fill: none;" stroke="rgb(255, 112, 67)" stroke-width="2px" d="M22.649292606321968,377.41309538294047L22.799629272588096,52.89892808703327L22.808219939231872,16.444779836847232L22.842582605806985,562.730460447397L23.963664602820078,195.39314925842956L23.993731936073303,67.54024891978865L24.199907935523985,380.24401589823674L24.255747268708546,32.6985065076461L24.35883526843389,-414.72161928999947L24.543534601275127,179.6233341468604L24.57789726785024,50.23369719279984L24.84850326712926,20.92989079174265L24.921523933601378,6.259352724668872L24.947295933532715,17.979588239552214L25.067565266545614,23.39786784194885L25.647435265000663,-19.297646588711842L25.832134597841897,134.82010841605538L26.05549193058014,92.4143321233706L26.218714596811928,297.96717333142203L26.89308192834854,187.43314399794983L27.129325261052447,82.64021087079583L27.14221126101812,171.97834902449856L27.20234592752457,78.03889969610243L27.21952726081212,68.15931076134095L27.425703260262807,83.07438948349208L27.45577059351603,-38.169969148563666L27.644765259679158,44.55363177682594L27.773625259335834,67.28849001284L28.018459258683524,59.976485256142L28.143023925018312,92.43715092679847L28.21174925816854,-11.578325348794749L28.280474591318768,103.55284876520355L28.740075256760914,227.02000978539397L28.924774589602155,157.4886141566646L28.93766058956782,122.39283141766853L29.39726125500997,28.6746412739964L29.491758588091532,47.777208137059716L29.539007254632317,182.3578323194736L29.710820587507882,76.14055112978863L29.78384125398,6.960968588534371L29.839680587164562,279.7306346227589L30.221965252812705,192.26101152657316L30.47968525212606,100.21900343191905L30.87056058441798,64.00133055452545L30.92210458428065,59.52337945580332L31.059555250581106,57.648075581251376L31.08532725051244,54.03236990815138L31.192710583559673,71.65917209747576L31.386000583044687,66.15747815334059L31.738217915439606,56.80213116319155L31.940098581568403,217.87852298237482L32.01311924804052,171.2518314216138L32.021709914684294,167.40420490067186L32.043186581293746,70.29827413113551L32.15056991434097,357.3766567285507L32.206409247525535,231.06575452319623L32.22788591413498,136.77700908187325L32.352450580469764,167.61301314350504L32.416880580298105,94.69709332738809L32.44265258022944,30.6913942228486L33.00963657871882,-20.949880235723953L33.24587991142273,8.779742060071158L34.22092057549159,31.955499642246906L34.52588924134572,40.1646588003471L34.53877524131139,30.62167366666452L34.78790457398097,88.74479699242596L35.0542152399381,75.47760441578171L35.35059323914846,46.87290889701387L35.41072790565491,50.16036080511425L35.419318572298685,53.20838259730253L35.42361390562057,52.46299729035768L35.67274323829015,57.57717052005171L36.42442656962077,58.17498746379229L37.017182568041484,56.66314363738026L37.02577323468526,55.57823598844759L37.24053990077972,55.53579769961776L37.54550856663386,54.96991576737709L37.7688658993721,55.241265386642226L37.85906789913177,37.72224792003169L37.889135232384994,94.78839444115452L38.34873589782715,78.30367811898647L38.46900523084005,68.5934729965311L38.589274563852946,60.03445345541235L38.81263189659119,53.85413807801548L39.07894256254832,68.12488300876657L39.49988522809346,62.719393185282215L39.63304056107203,49.36389633214199L39.65451722768148,51.44668417070267L40.019620560042064,66.11217456250206L40.02821122668584,61.293201335368536L40.37613322575887,55.17783913242528L40.77130389137268,54.93881139007108L40.8443245578448,55.15393906420445L40.93452655760447,63.019712455950284L41.51010122273763,59.78169083494521L41.527282556025185,59.41782303677138L41.561645222600305,57.30655415894931L42.042722554651895,109.7328393087287L42.102857221158345,87.68107751025454L42.26607988739014,74.52979062808588L42.31762388725281,66.62234109809582L42.49802788677216,61.83203491885392L42.82876855255763,77.48027164285483L43.16809988498688,45.490884811619736L43.17669055163066,231.28680631063838L43.40863855101267,167.6083544984481L43.52890788402557,122.45323759002868L43.97991788282394,95.3939642057463L44.4352232149442,78.90578344529382L44.49535788145065,61.09757239705499L44.757373214085895,58.550453748358294L45.31147121260961,57.08935662965557L45.86986454445521,58.104691825842195L46.05885921061834,56.80141305971969L46.42396254297893,66.90542032057813L46.509869209416706,62.0326073797399L46.66450120900472,58.992550666628304L46.69456854225795,53.4464741995091L46.84920054184595,54.29806654514293L46.93940254160563,55.477030357717595L47.205713207562766,55.179318543701584L47.291619874000546,55.0287780054133L47.76840187273025,55.00978081868705L47.81135520594915,54.954091061876966L48.107733205159505,54.8858231042655L48.16357253834407,57.68877419307785L48.1893445382754,62.27157697670478L48.245183871459965,59.28863667314077L48.49001787080765,57.50453580591716L48.5888105372111,57.549624753248025L48.86371186981201,56.39469331352555L49.482239868164065,55.74459138184727L49.71418786754608,55.33906715687297L49.838752533880864,70.56024170934624L50.07070053326289,65.079678991612L50.23821853281657,78.31979948513221L50.251104532782236,68.32381348665355L50.3026485326449,63.19868705986512L50.43580386562348,59.69482080306621L50.91688119767507,57.74653472258055L51.397958529726665,77.375322130612L51.50963719609578,68.43591559932013L51.99930519479116,62.869770767209275L52.03366786136627,59.73323190116099L52.20977652756373,94.65946160853706L52.604947193177544,78.61232834168717L52.87984852577845,38.63657980602056L53.086024525229135,34.2096130402079L53.18481719163259,42.38226959174327L53.476899857521055,47.155315662128345L53.51985319073995,50.25785156038563L53.53273919070561,52.04115843976015L53.597169190533954,53.19909898958012L53.7389151901563,53.83013277954613L54.52066585474014,54.19696151669038L54.808453187306725,54.474896728962875L54.928722520319624,53.417097606983845L54.971675853538514,53.78691655907406L55.12201251980464,78.9900978648824L55.800675184663135,69.35499660603797L56.12282518380483,63.70658351819384L56.61249318250021,60.177961628813435L56.78860184869766,58.01013737374912L57.27397451407115,56.404100237334575L57.39853918040593,55.61241930110094L57.42001584701538,55.26670131555932L57.45867384691238,55.02855357398295L57.84525384588242,54.896808934134626L57.858139845848086,54.849489266621646L57.978409178860986,54.82248360390619L58.021362512079875,55.67920085772927L58.42082851101557,45.310868618123465L58.56686984395981,49.007240176341895L58.824589843273166,51.32635997861097L59.35721117518743,52.72443357361773L59.6106358411789,53.528589533588686L59.72231450754802,55.375935384471916L59.73520050751368,54.912404166018916L59.82540250727335,54.97309159807054L59.85546984052658,54.82975666724634L60.104599173196156,54.80491404216548L60.13037117312749,54.81127801380093L60.37090983915329,54.77997307929792L61.251453170140586,54.68161896484931L61.491991836166385,54.65631106111128L61.62944250246684,40.62799456019661L62.003136501471204,64.2667565767892L62.14488250109355,51.274135014571726L62.484213833522794,52.68940640506692L62.51428116677602,53.56116371177593L62.57012049996058,67.27444410654005L62.82784049927393,64.07169311376607L62.95670049893061,67.02719883208083L63.05549316533407,62.12484096492304L63.13280916512807,58.92734645464243L63.755632496802015,86.86949645799598L64.03053382940293,74.039187252074L64.6791291610082,66.33310314063071L64.79080782737732,61.6928283450208L65.61551182518005,58.92523146434726L65.64557915843328,57.23982920400515L66.13095182380677,56.196177086375755L66.14383782377243,55.09417720697108L66.2340398235321,54.972971274262534L66.48746448952357,94.55265353958157L66.67216382236481,78.63964183804774L67.0372671547254,69.08416054349232L67.17042248770396,67.58442283938182L67.23914782085419,62.17917744264048L67.3121684873263,88.43991743524L67.48398182020188,96.016523118569L67.67770135301907,103.1779347176477L67.68199668634097,84.4561570788482L67.77649401942254,72.78291711802119L67.92683068568866,65.55085767175605L68.0376502853934,61.21837120867234L68.0763082852904,58.533868582786L68.29966561802864,63.27527898474861L68.3125516179943,63.15880188602263L68.45859295093854,59.78304054335264L68.47577428422609,57.79138385312412L68.57456695062955,56.59503978410629L68.60033895056088,55.86675910454494L68.60892961720467,66.29785306769898L68.80651495001158,61.68192792859166L69.15873228240649,58.81907454269522L69.24034361552238,58.43502204675565L69.27900161541939,95.39623313891747L69.57108428130786,79.15371115083299L69.57967494795163,69.25530202609094L69.837394947265,63.47690057400084L70.52035294544538,59.93147008083692L70.74542841151238,53.71812438363253L70.83133507795016,54.126954503159L70.96449041092873,55.97131356264451L71.00314841082573,49.7221227364208L71.07616907729785,51.791477729730346L71.14918974376997,52.91550999207929L71.50140707616488,53.65739312165013L71.60019974256834,54.087173692655185L71.66033440907478,68.10696856157136L71.9781890748946,62.70795397846442L72.46785707358995,59.494551614357306L72.88020907249133,57.48309874743897L72.90168573910078,56.465693940765405L73.05631773868879,55.78904572382561L73.18947307166735,55.386395776238345L73.60612040389061,70.46176708096624L73.71779907025973,64.16378895718375L73.73498040354728,60.078524725485394L73.80370573669752,57.90802132172519L73.98410973621687,56.654943860949146L72.96182040560723,55.894127387258735L72.97470640557289,55.44115854884545L73.04343173872313,55.16366115861601L73.45578373762449,55.00454582509286L73.68343640368462,54.87470829090013L74.59834240124702,54.80067659517724L74.71861173425992,54.736194803603794L75.17391706638018,51.42799342322235L75.4831810655562,88.1034235632634L75.74949173151334,74.74966700488852L76.0845277306207,66.8203893620097L76.15754839709282,61.99791119456262L76.27352239678383,59.114809719895774L76.3637243965435,57.37627881324143L76.41526839640618,56.217539158828316L76.47969839623451,55.59031557185858L76.7245323955822,55.239639968437146L76.89634572845776,45.20633557571952L77.0380917280801,49.08085787182026L77.51057839348793,51.355702781705546L77.73823105954806,58.969726317923445L77.75541239283562,57.25978880000153L77.8413190592734,56.793279581163134L78.17635505838076,55.16791854661979L78.35675905790012,55.42882818515909L78.57582105731646,114.8525110314381L78.67461372371992,90.80245966658521L78.92803838971138,87.29337466972882L78.94092438967705,74.24582264278675L79.34468572193464,63.875968575840446L79.49072705487886,204.79689020667792L79.64106372114499,144.63132677970174L79.80858172069868,108.64411508587189L80.20375238631249,86.65167810044666L80.29824971939405,73.87477175315678L80.65046705178897,68.01269441748433L81.25610905017535,63.7009266021407L81.53960104942004,52.099723290187185L81.56966838267326,53.06530808838434L81.60832638257027,53.57078635181466L81.68134704904239,60.31985886448021L81.73289104890506,71.03455853164301L81.7586630488364,39.98740809624408L82.01208771482786,45.75588848266281L82.2268543809223,49.35869095280785L82.4287350470511,51.25389943070867L82.69934104633013,71.08483569728816L83.02149104547183,78.54427971762678L83.04726304540317,55.41277279669232L83.17612304505984,57.67149539532427L83.21478104495684,65.47085470513849L83.25773437817573,61.15830978399072L83.65290504378954,36.44710734116737L83.69156304368656,50.032516326080454L83.70874437697411,133.5449938606273L83.78176504344621,112.92259471018205L84.05666637604713,89.67064122357505L84.13827770916303,75.78131198107438L84.71814770761809,67.35101081421355L84.9887537068971,62.31853898490847L85.18633903970401,97.24328947700847L85.37533370586713,80.2991590591134L85.7447323715496,70.17895333019625L85.99386170421917,63.975411138016625L86.63386636918068,60.29938390013044L86.64245703582445,31.96398423180932L86.7799077021249,41.07602910928284L86.91306303510348,52.1869937469192L87.16648770109494,53.1692866810768L87.78072036612511,53.7619310451894L87.88380836585046,54.12929030843324L87.92246636574745,54.30159997766911L88.15870969845136,54.49615977380482L88.80730503005664,45.25729162468113L88.8674396965631,49.08974127987614L89.30556369539579,51.38282981899529L89.39576569515546,52.63731309574128L89.96704502696673,72.64568006966022L90.27630902614275,81.16550713400225L90.37080635922432,70.64594119898608L90.44382702569644,72.63197135552092L90.64141235850335,65.48075873626414L90.78745369144757,61.16117389713841L91.06665035737036,58.51178120228499L91.41027702312151,63.79137946499988L91.7367223555851,-84.60881590755503L91.8913543551731,-29.639709198119874L92.36813635390281,4.089393022334264L92.37243168722472,24.53778200579285L92.51847302016894,37.848082514218476L92.57860768667538,44.63787379093978L92.75901168619473,48.67554063260485L93.47633235095024,51.07992359936142L93.6094876839288,52.55425323317813L93.75552901687304,50.603330347361975L94.21942501563709,66.66741382380853L94.36117101525943,55.426426454383474L94.43848701505343,60.02544357792216L94.44707768169721,57.814276305277005L94.55016568142254,56.63412606105645L94.55446101474443,96.0072610716633L94.56734701471011,80.11416964542381L94.64895834782601,70.05666965399226L94.79929501409212,67.44565464373099L94.93245034707068,62.37225336508233L95.09996834662438,59.30933313199674L95.14292167984327,57.471994709066436L95.52520634549141,56.410220580473194L95.58534101199785,37.368184085794525L95.70990567833265,44.34264549769594L95.74426834490775,48.52297442719953L95.86883301124254,57.470038376721845L96.29407101010959,63.09819090578985L97.286293007466,43.097763783317305L97.4065623404789,47.77924696588377L97.44522034037591,50.59027684995034L97.5654896733888,52.279321677162116L97.71582633965492,53.260136501948566L97.7673703395176,53.84629848179557L98.0422716721185,54.220914768797215L98.62214167057355,54.448081256292454L98.85408966995557,54.489996845789406L99.42536900176684,64.36964201798415L99.42966433508873,60.44468605560792L100.03101100015321,64.31586635105481L100.55074633210181,60.61761068644185L100.58081366535505,59.732574777195495L101.1177303305912,57.67436744854544L101.60310299596469,53.32478361425467L101.68471432908058,53.184971362488724L101.80498366209348,53.743674333621L101.89948099517504,52.55360759693197L101.98968299493473,58.40360015042501L102.28176566082318,56.91917869681471L102.50941832688332,56.05465591240021L102.75854765955289,55.63190501753175L102.94754232571601,55.27431822105031L103.86674365660032,55.07090301250388L103.94405965639433,54.95956988486893L104.03855698947588,70.7412934370242L104.06432898940723,58.23932020276767L104.53252032149315,56.83596575162963L104.59265498799961,60.5798632084812L104.63990365454038,58.25370493794121L104.8761469872443,57.21102729988861L104.92339565378506,56.238155882601944L104.9491676537164,55.66660652531495L105.20259231970786,55.290082965280135L105.31856631939888,55.07452792445558L105.41735898580234,49.45213410953704L105.71803231833458,51.58074830009977L105.81252965141614,52.854816729630016L105.95427565103849,53.62667779856902L106.05736365076383,54.08383103286343L106.22917698363939,53.70494201590182L106.30649298343342,49.08706668228399L106.33226498336474,59.951482587493246L106.34515098333041,100.61050400364357L106.67159631579399,82.27386847379562L106.67589164911588,71.36216241038335L106.87777231524467,64.4095504716075L107.01092764822324,60.6629185915519L107.12690164791425,58.307376825527726L107.13978764787991,56.74845783573525L107.16126431448936,55.93455254407736L107.4662329803435,62.83729765671882L107.51348164688429,59.403923253569516L107.72395297965686,69.0435290013101L107.96878697900455,88.87255850803497L108.16207697848955,81.16578225077917L108.33818564468702,70.59838241079514L108.39402497787158,-2.028816377923306L108.39832031119347,20.68062232296927L108.49281764427504,34.3005569846261L108.56154297742526,136.4141769075642L109.03832497615497,108.44953813650777L109.12852697591464,88.74954781923934L109.424904975125,79.24709103696932L109.43779097509066,89.6477785563911L109.44208630841256,75.70995174276678L109.64826230786325,67.16587143681463L109.75135030758857,62.215860667888734L110.31833430607796,59.1569279610937L110.66196097182909,50.965279462953504L110.71780030501365,52.510281414448045L110.99270163761457,53.41296310931962L111.27189830353737,53.953902067212056L111.37069096994082,91.37334546843282L111.73149896897952,76.92143807260229L111.74438496894518,68.62545283910725L111.76586163555463,63.01288570682395L112.05364896812121,68.24107038843871L112.13096496791522,72.42287618075227L112.4531149670569,71.61495660556479L112.62063296661059,384.53901270616257L113.29929563146909,252.62651869527753L113.47969963098843,173.31606796063977L113.48399496431033,141.21490932445704L113.76319163023312,106.77408588375435L113.78896363016446,85.5605184118475L113.90064229653358,73.15731740908724L113.99084429629326,65.79455255101841L114.0166162962246,61.306623920376296L114.69527896108309,52.61653168823102L115.72186362501462,53.41162836650277L115.77770295819919,49.80743434326891L115.92374429114342,51.491439562875144L116.02683229086877,52.80653821440761L116.08696695737521,54.6814261535328L116.20723629038811,88.10565783979345L116.69690428908348,74.81195999795735L116.8472409553496,88.31940816339056L117.0061682882595,74.87929441859738L117.39704362055143,66.80000669105486L117.95543695239702,50.13171004512773L118.27758695153872,52.66648704085564L118.66416695050876,53.96318994844407L118.67705295047442,53.63400547059001L119.30846694879214,52.79971747282474L119.3256482820797,53.54604662729072L119.51034761492093,54.03255809353365L119.55759628146171,54.3069610923156L119.6005496146806,54.47355606007645L119.74659094762484,44.96054253900854L119.78954428084374,48.873115950955935L119.90122294721284,82.41384918893213L120.09451294669788,71.17801652930463L120.19330561310133,64.60729600191759L120.41236761251767,60.37888253687912L120.51545561224302,58.10882440375991L120.59706694535892,57.17465813954114L120.7989476114877,56.18290082427775L121.2843202768612,55.53588477151841L121.49479160963377,55.25153345467679L121.84271360870679,55.08757752996837L121.88996227524758,55.01359955725711L121.97586894168535,48.59049629879354L122.28942827418328,51.04183058790021L122.53426227353097,52.525532846091124L122.99386293897311,51.09992135764557L123.5995049373595,40.68569659906365L123.76702293691316,16.298505717571658L123.89158760324796,31.569243043455856L124.26528160225233,40.82422346265869L124.47145760170301,46.228544086573436L124.48004826834679,19.232390830449248L124.64327093457858,31.204981137924165L124.74206360098204,40.63058828247753L125.04703226683617,46.331976580396855L125.65267426522256,49.668276525474965L125.92757559782346,51.46997340019978L126.25402093028704,50.867711442950295L126.3485182633686,52.399626838222034L126.38288092994371,56.231158463202846L127.03577159487088,55.614280107127584L127.13026892795244,64.33203355192842L127.27201492757479,61.09169775026433L127.5898695933946,58.61749532449069L127.75738759294828,57.03253118670618L128.12678625863074,56.117021673740794L128.44034559112868,55.56059141663472L128.54772892417589,55.18824895319827L128.60356825736045,55.03288650965305L128.64222625725748,54.90661017217283L128.9815575896867,54.85557797199617L129.23498225567818,54.81725770974933L129.72465025437356,54.78029406218508L129.78908025420188,54.731393979101625L130.12841158663116,55.17226356821729L130.5021055856355,-35.90876060753715L130.88439025128363,10.33432402274687L131.04331758419355,28.01761230263392L131.19365425045967,99.33073305050924L131.51150891627947,41.00318125985825L132.04413024819374,46.22282221275671L132.1343322479534,49.87254144905717L132.1729902478504,51.833643514456156L132.24171558100065,52.45797607784111L132.5123215802797,53.403968475994574L132.51661691360155,78.32428159347509L132.576751580108,68.92694718531428L133.1050775787004,63.1797267540465L133.15232624524117,59.781428349131446L133.5818595774301,27.798828625247154L133.86964690999667,38.966416220299806L134.7287135743745,44.80413484100956L135.27422090625444,42.395064650140824L135.27851623957633,47.11088339114005L135.40308090591114,51.68655185723432L135.41167157255492,52.886616848664175L135.83690957142196,53.41542969114178L136.48120956970533,54.054723606322824L136.75611090230623,59.9458738086815L136.78188290223756,69.1973138331315L136.8076549021689,61.89795178110943L136.82483623545644,58.885577163554245L136.82913156877834,57.285733420145036L137.3230949007956,54.87704995725741L137.55933823349952,54.805293885482584L138.07477823212622,58.69668227102518L138.31531689815202,69.36392502935385L138.7362595636972,63.42611875681817L138.77921289691608,61.10299741108996L138.8092802301693,58.57797600038201L138.8865962299633,56.7743392291418L139.13143022931098,55.95259709621452L139.3204248954741,55.40332242101684L139.68982356115657,55.13612710535175L140.08069889344853,54.69276887324111L140.08928956009228,56.94081986470644L140.22674022639274,56.1430707092305L140.30405622618676,55.28739384003657L141.5196355562814,55.259552237468L141.63131422265053,55.158986537603724L141.82030888881366,65.13444200199315L142.05655222151753,62.230684254825974L142.3228628874747,78.54995733815201L142.37870222065925,57.74481077986829L142.77387288627307,74.45365084963606L142.89843755260787,68.77275809660003L143.0659555521615,63.331235632362464L144.26864888229053,69.45578022066336L144.60798021471976,63.63780913398787L144.7196588810889,89.5398129228936L144.81415621417045,25.394166887805L144.89576754728634,60.67310132395549L145.00315088033358,63.25400234726081L145.07187621348382,59.47181171360674L145.12342021334646,57.686965151771986L145.30811954618773,56.580926205900155L145.60020221207617,55.889346240323434L145.86651287803332,54.97549478793272L146.7599422089863,55.166558442264844L146.79000954223952,55.23746999866269L146.82866754213651,54.98010695083791L147.043434208231,58.980010192711774L147.05632020819664,57.07304008264245L147.1465222079563,56.12006778440899L147.2796775409349,55.57976850429708L147.36128887405079,51.34128508963893L147.9454542058277,52.69011397917912L148.29337620490077,53.53614631849888L148.29767153822266,54.09401079448594L148.44371287116687,55.147715582108304L149.03217353626567,54.8881950493671L149.05365020287513,54.83648505459183L149.16532886924426,59.1391894591835L149.36291420205117,57.29423306005759L149.4273442018795,55.945927146143205L149.77956153427442,55.47455096651497L149.96426086711566,65.1788938858021L150.07593953348476,45.36195755436245L150.25204819968224,49.202823354554624L150.43674753252347,51.54678270902318L151.00373153101285,52.81179292838203L151.0337988642661,64.2623586637124L151.05098019755363,60.55381529553377L151.48910419638634,58.27870197089429L151.6609175292619,56.98765277983105L152.0646788615195,80.45849359824616L152.12481352802592,70.19551603896664L152.20212952781998,64.06134063203888L152.3825335273393,60.397989092690224L153.55086419089318,59.12353283179483L153.7785168569533,191.74315443153947L154.28966152225814,109.14633455994542L155.07141218684197,87.80090481613486L155.23033951975185,64.66350344798774L155.63410085200945,65.02555717813894L156.31705885018982,64.0442628038232L156.42873751655898,60.370927223106136L156.6005508494345,24.843537446874905L156.79813618224142,36.89927583447002L157.07733284816422,57.86400000432626L157.10740018141746,39.41005321807623L157.1417628479926,50.57712051325129L157.34793884744326,51.384622172301505L157.3865968473403,48.61607860233741L157.6400215133317,51.00041579609447L157.6958608465163,52.874356483256705L158.31868417819024,53.5821116363709L158.37022817805288,54.08065060676462L158.51197417767526,54.36505241207547L158.6923781771946,55.45743897451456L158.9715748431174,56.653986449302636L159.28942950893722,55.769675842399366L159.49131017506602,55.330064559165535L159.77050684098882,99.6435076693607L159.8950715073236,81.78878197612691L159.95091084050813,79.84474562339551L160.24728883971852,90.97498593882294L160.26017483968417,78.53559517914043L160.4448741725254,69.03028732072244L160.655345505298,63.30205569846787L160.8958841713238,59.929439754576705L161.46286816981316,57.85770088675524L161.49723083638827,59.245658578685735L161.52729816964148,57.455433065614315L161.9267641685772,56.39201502892827L161.97830816843987,55.73578073224675L162.06421483487767,59.734691512159756L162.553882833573,68.85675734618471L162.57106416686057,63.228200595211035L162.6870381665516,59.83824671154508L162.69562883319537,47.7283012800778L163.08220883216538,39.094062970355736L163.38288216469766,45.22672742122006L163.49885616438866,48.57261754849699L163.52892349764187,49.735043130255576L163.54180949760755,51.732273335222814L163.64919283065478,59.54148515504403L164.23335816243173,57.63757524581044L164.62852882804552,68.24702357398296L164.65859616129873,62.839353103718864L165.0451761602688,59.506117733467576L165.0838341601658,57.471077367301575L165.13537816002844,56.59826265672616L165.21698949314435,55.864447883282494L165.2900101596165,55.28837024550566L165.5219581589985,54.55339639558723L165.57350215886115,77.4831194620393L165.68088549190838,68.2562211861913L165.8398128248183,64.90583817031384L166.08894215748788,62.82806546907081L166.2865274902948,59.21394165087899L166.36813882341067,79.1299621806729L166.3982061566639,69.41089211294857L166.5957914894708,63.485452993029114L166.81914882220906,74.48414412586584L166.8320348221747,76.75248899590112L166.9823714884408,67.987647986785L167.54076482028646,66.27217338235535L167.76412215302466,61.852790082357416L167.76841748634655,60.80663253855201L167.85861948610625,58.378374621851236L168.09486281881016,-39.87321510065706L168.46855681781452,-17.75041652548694L168.47285215113638,13.187152494328984L168.63607481736818,38.74419963884796L168.7864114836343,44.82183981850753L168.82506948353134,49.03140713235541L168.992587483085,51.30075426144218L169.20305881585756,54.90686356818733L169.43930214856147,54.825629456918136L169.57675281486192,60.854308567643955L169.9848094804414,58.35398235659673L170.6377001453686,57.033410242300135L170.84817147814113,56.166283053311076L171.00280347772917,55.44969696774962L171.2691141436863,74.03660736634627L171.59985480947176,48.75425445765504L171.61274080943744,29.745486003491635L171.93918614190102,39.70921126664595L172.0293881416607,45.67544234394552L172.0637508082358,27.33571094289843L172.11959014142036,39.08548749500298L172.12818080806414,57.4598912896311L172.15395280799547,65.73646730767244L172.57489547354064,33.926910301935635L172.5834861401844,43.17773663934892L172.95718013918875,47.83578337038995L172.97006613915443,48.8197579963246L173.08604013884545,51.10825889779912L173.82054213688852,52.4965419868316L173.85060947014173,53.407198209431485L174.13410146938642,53.994713797760625L174.15557813599585,54.0679915390008L174.60229280147234,54.900902476575965L174.67531346794445,54.73139696820647L174.96310080051103,63.60834615921226L175.0490074669488,60.09815382831853L175.50860813239098,57.952800772922146L175.7319654651292,56.64313696922514L175.79639546495756,56.00643048080829L175.8608254647859,55.456025612660255L175.92955079793612,57.57560276089035L175.98539013112068,56.416318690525216L176.1357267973868,50.39449739529117L176.2173381305027,51.52190312220624L176.2474054637559,52.75528367202233L177.24821812775613,53.35363056861925L177.50593812706947,53.885723344728916L177.63479812672614,54.18432285378509L177.71640945984205,54.40166702474505L178.09869412549017,54.95573538166268L178.26621212504386,54.97677199434901L178.28339345833143,55.13813046652423L178.32205145822843,54.98425877886983L178.34782345815975,54.434440794597464L178.45520679120702,47.08846694725585L178.7000407905547,32.740966214984894L179.32715945555051,23.681800757915084L179.82541812088968,36.13984797595316L179.967164120512,43.557438731259225L180.43535545259792,48.73036179125421L180.46112745252927,52.54055944587178L180.49978545242627,53.406869635813024L181.05388345095,88.19474779702348L181.1999247838942,71.36238776443071L181.50918878307024,76.9064363895169L182.29953011429785,44.26496881632738L182.38114144741377,48.48279028221063L182.565840780255,91.37958041472132L182.86221877946537,89.88630800304188L183.78571544367153,75.82069090652183L184.21954410918235,67.86383611521435L184.4557874418863,60.612685414871194L184.5202174417146,58.56358118809334L184.81659544092497,57.067938888852964L184.9626367738692,73.44857344675502L185.280491439689,65.9147502047515L185.3492167728392,79.20403496896283L185.39646543938,71.47508956726347L185.54250677232426,88.82199040233726L185.88613343807538,75.20944472291085L186.14814877071063,71.48447479309723L186.1524441040325,64.80657003818108L186.40157343670208,60.157858217808865L186.4874801031399,24.197358858504458L186.67217943598112,-195.30160056648845L187.0029201017666,-43.22754028761045L187.60856210015297,5.939394676175851L187.70735476655642,83.84680030046799L187.7116500998783,162.06068842077514L188.29581543165523,119.23424160557693L188.7081674305566,93.29253216074872L188.9615920965481,77.85409300508307L189.00884076308887,68.34426587488198L190.2287154265054,58.33060378284769L190.40482409270288,57.021876620767785L190.7054974252351,56.31228213016871L190.825766758248,55.96835594536239L191.04482875766436,50.894120126204385L191.46147608988764,52.3215751767337L191.49583875646275,72.79302542798968L191.59463142286617,65.53649587318542L191.61610808947563,61.34784209048962L191.68912875594776,63.83205236845539L191.9081907553641,51.472562234237515L192.07141342159588,51.99133959150144L192.9476614192613,53.11412912059936L193.25692541843733,53.7712992786758L193.7079354172357,54.23054864360358L194.08162941624008,54.38174255116671L194.13317341610272,54.518533390298515L194.27062408240317,54.436757253876365L194.3908934154161,54.60273815126119L194.76458741442045,54.675205713782574L194.80754074763937,17.431414964756925L194.8333127475707,20.535653377057628L194.85049408085823,33.305816747666086L194.9836494138368,41.785360911588526L194.99224008048057,46.976755281246284L195.052374746987,70.40063100688042L195.07814674691838,71.53368785876285L195.39170607941628,64.7895730373335L196.45265340992293,60.79520807994872L196.48272074317615,65.41496398696445L196.83064274224915,68.25924510907173L196.9423214086183,62.86692899334871L197.32890140758832,-15.064112354097176L197.44487540727934,26.43604005864384L197.7455487398116,39.46112384359262L198.03763140570004,45.5011994885717L198.10635673885028,87.11329220661015L198.38984873809497,74.13283056599487L198.59602473754563,67.00776344862754L198.66475007069587,62.10152635880385L198.78931473703068,58.49843884154323L198.8966980700779,56.96121818619554L198.9783094031938,63.1128912505968L199.59683740154586,59.772255802270905L199.63120006812096,57.70739306571086L199.90610140072187,56.46138602159628L200.0220754004129,55.79290094982383L200.60194539886794,55.29399931183244L200.63201273212115,78.15379081086536L200.70932873191515,65.45751349988332L201.15174806406975,61.185706025604276L201.25483606379507,58.71552982018308L201.297789397014,57.123943465484814L201.35792406352044,56.177706537993586L201.62423472947756,56.43042631409547L201.91631739536604,55.74743134217415L202.03229139505703,55.46142568315962L202.31578339430172,55.18733075402557L202.3716227274863,53.00775992583772L202.50907339378674,53.651410984376724L202.58638939358073,53.95670154647263L202.62934272679965,29.966169203798728L202.71954472655932,54.38212751009446L203.18773605864524,54.488114803306416L203.4884093911775,54.59397390050394L203.90935205672264,54.802130131455684L204.4119060553837,54.78879573979931L204.57512872161547,64.28577810562689L204.71687472123782,62.73600147726599L204.78989538770995,59.50549664784302L204.9574133872636,57.755327997348914L205.99688405116083,57.43743070300356L206.06560938431105,56.367499613412264L206.6841373826631,55.69293690958506L206.90749471540133,31.753795397517138L207.09648938156445,41.00570537798873L207.24682604783058,46.49157536427657L207.37568604748725,49.84954507507439L207.4787740472126,51.86327905388062L207.58186204693794,52.872521754535825L207.61622471351305,55.477350152297774L207.66347338005383,55.18595945627712L207.66776871337572,65.5587822464668L207.9254887126891,62.691643380561956L208.04146271238008,60.71522460432472L208.05864404566765,58.307208607314905L208.123074045496,56.89796852680014L208.2347527118651,54.34032829457482L208.28200137840588,54.51202120945017L208.3292500449467,54.615034163535896L208.470996044569,54.69533915479549L208.8360993769296,54.734427711002965L209.0637520429897,54.73240464579685L209.08093337627727,54.76133776504999L209.13677270946187,54.33910957573323L209.48039937521298,54.52275268060153L209.49758070850055,58.67338884062134L209.61355470819157,75.54080283806262L209.65221270808857,43.29249965764552L210.02590670709293,62.547392800648495L210.05597404034614,59.44558530737653L210.24496870650927,58.43540152219951L210.47262137256942,56.95275645087429L210.62295803883552,56.061022466374155L210.64013937212306,56.47305994213474L210.90215470475832,58.602020447660294L211.31880203698157,57.406891163016795L211.48202470321337,27.922186444132393L211.67961003602028,38.63704625717142L211.68390536934217,45.058714257688536L211.69679136930785,48.94399428417728L211.93733003533362,50.947340069754745L212.29813803437233,58.75723722786822L212.40122603409768,58.645198577005104L212.61169736687023,56.82982929121613L212.6718320333767,56.044772789735006L213.3075413650163,55.578090025628725L213.43640136467297,55.231352429127L213.68982603066445,54.965034723006085L213.9088880300808,54.89547721908498L214.79372669438996,69.42758108449844L214.832384694287,58.34886328085625L214.91829136072477,56.91669700848904L215.05144669370333,56.795993970294575L215.0600373603471,55.915140580286845L215.63990735880216,55.509784452807736L215.79453935839015,55.15529083797385L215.9835340245533,54.97444590482871L216.23695869054475,44.35694977015541L216.28850269040743,48.53816226808945L216.77387535578092,51.03434772348173L216.93280268869083,10.90185133344363L217.0659580216694,28.449909407341096L217.21629468793552,48.690292163739116L217.8605946862189,61.599014344651124L217.8992526861159,58.767170505346726L218.0152266858069,63.4098178069256L218.14408668546358,34.20174692665307L218.2901280184078,42.322642084850514L218.48341801789286,47.268033154951866L218.51778068446797,49.75769407673343L218.63805001748085,51.74964802114482L219.12342268285434,35.11140445957494L219.19214801600455,42.99896332356357L219.29094068240803,96.2920566340255L219.45845868196167,100.34674348981663L219.53147934843383,82.12638232047746L219.90087801411627,71.17826953804725L219.93953601401327,64.59199716010389L220.08557734695754,60.66943040047404L220.52799667911214,47.12927204374944L220.5795406789748,68.9728106407923L220.74705867852845,62.619620172974834L220.9704160112667,59.47322938911228L222.2074720079708,57.65879269369434L222.29767400773048,56.50229094110058L222.90331600611688,55.79313310085831L223.0880153389581,55.380509676977766L223.31566800501824,55.14087354484248L223.34573533827145,54.94510480637115L223.43164200470926,54.78616124892778L223.53902533775647,54.78056434962467L223.54332067107836,47.51484763228984L223.9299006700484,47.44680399109333L224.15325800278663,50.38591820254513L224.41097800209997,52.16063167045034L224.44104533535324,53.206242099261615L224.56561000168801,53.825759547129934L224.79326266774814,51.26397113840265L224.81044400103568,52.63113161750928L224.86628333422024,53.484624946825704L224.9264180007267,53.9908285455424L225.02950600045205,54.28368505662344L225.08105000031472,54.45436854902074L225.21850066661517,42.21181987839782L225.2485679998684,47.21022437942642L225.30870266637484,53.388552178119795L225.79407533174833,53.929668148058795L225.8413239982891,54.246051755069104L225.86709599822044,54.4377831441911L226.0432046644179,59.67264779538024L226.06038599770545,57.70306283320532L226.1205206642119,68.19344155865541L226.21931333061534,62.81521245775237L226.6746186627356,56.56369535363267L226.85931799557687,55.83123438830192L227.04831266174,55.543650832867115L227.125628661534,55.478240335255094L227.1943539946842,55.11124080832944L227.3232139943409,54.95527966190521L227.61959199355127,54.900177173593875L228.1565086587874,78.62849895483092L228.34120799162866,67.80361603403597L228.34979865827245,66.74874294844439L228.50872599118233,61.7984598641858L228.5130213245042,58.95297104194937L228.55597465772308,56.671360187574265L228.59033732429825,55.90044766476642L228.69772065734546,35.733092097455255L229.05423332306225,43.342529402956956L229.0757099896717,47.91577575287181L229.14013998950006,50.65735337360097L229.97343465394655,40.838333086315515L230.56619065236728,42.83368621471635L231.4768013166078,47.5983037099397L231.81183731571517,50.4205828365799L231.97505998194697,52.14860023394172" fill="none"></path></g></g></g></g><g opacity="0.2"><g><g><g><path style="fill: none;" stroke="rgb(255, 112, 67)" stroke-width="2px" d="M22.48177460676829,271.2147393965883L22.571976606527965,17.757708334074408L22.649292606321968,442.84014791044484L24.921523933601378,-15.746164731759364L24.947295933532715,35.559802674514174L25.067565266545614,31.525248734731406L25.647435265000663,-83.34073615783694L25.832134597841897,365.99634657811123L26.05549193058014,28.805732787198878L26.218714596811928,606.2962458002813L26.54515992927551,200.71604775569338L26.89308192834854,79.98281199746542L27.129325261052447,-74.54916796964915L27.20234592752457,-62.87026756780156L27.21952726081212,53.339927783791566L27.425703260262807,105.4470071821176L27.45577059351603,-220.03650522079852L27.644765259679158,168.63903239698865L27.773625259335834,101.39077724023274L28.018459258683524,49.0084781455308L28.143023925018312,141.12814936769547L28.21174925816854,-167.60153963704613L28.740075256760914,412.2207512622051L28.924774589602155,53.19152073163923L28.93766058956782,69.74915731464654L29.39726125500997,-111.90264393274441L29.491758588091532,76.43105843058247L29.539007254632317,384.22876858856193L29.839680587164562,688.8851336721114L30.221965252812705,61.056576882676325L30.47968525212606,-37.844008709821026L30.87056058441798,9.674821238491944L30.92210458428065,52.80645280772431L31.059555250581106,54.835119769424495L31.08532725051244,48.608811398502695L31.192710583559673,98.09937538145876L31.386000583044687,57.90493723713847L31.738217915439606,42.769110677968655L31.940098581568403,459.4931107111426L32.01311924804052,101.31179408047343L32.021709914684294,161.63276511925903L32.043186581293746,-75.36062202316805L32.15486524766286,325.41823828818474L32.206409247525535,60.77445227938446L32.22788591413498,-4.656109080111094L33.00963657871882,-98.41179192358283L33.24587991142273,53.37417550376378L34.22092057549159,66.71913601551057L34.52588924134572,52.47839753749736L34.53877524131139,16.307195966140654L34.78790457398097,175.92948198106814L35.0542152399381,55.57681555081537L35.35059323914846,3.9658656188620967L35.41072790565491,55.091538667264814L35.419318572298685,57.78041528558499L35.42361390562057,51.344919329940424L35.67274323829015,65.24843036459275L36.42442656962077,59.07171287940312L37.017182568041484,54.39537789776227L37.02577323468526,53.95087451504854L37.24053990077972,55.472140266373L37.54550856663386,54.121092869016124L37.7688658993721,55.648289815539925L37.85906789913177,11.44372172011586L37.889135232384994,180.38761422283878L38.34873589782715,53.5766036357344L38.46900523084005,54.02816531284806L38.589274563852946,47.1959241437342L38.81263189659119,44.583665011920175L39.07894256254832,89.5310004048932L39.49988522809346,54.61115845005567L39.63304056107203,29.330651052431648L39.65451722768148,54.570865928543654L40.019620560042064,88.11041015020115L40.02821122668584,54.064741494668255L40.37613322575887,46.00479582801037L40.77130389137268,54.580269776539794L40.8443245578448,55.47663057540451L40.93452655760447,74.81837254356905L41.51010122273763,54.92465840343762L41.527282556025185,58.87202133951065L41.561645222600305,54.13965084221624L42.042722554651895,188.37226703339778L42.102857221158345,54.60343481254333L42.26607988739014,54.80286030483289L42.31762388725281,54.76116680311071L42.49802788677216,54.64657564999111L42.82876855255763,100.95262672885619L43.16809988498688,-2.4931954352328773L43.17669055163066,509.98068855916637L43.40863855101267,72.09067678016271L43.52890788402557,54.720562227399554L43.97991788282394,54.80505412932274L44.4352232149442,54.173512304615116L44.49535788145065,34.38525582469671L44.757373214085895,54.72977577531327L45.31147121260961,54.89771095160144L45.86986454445521,59.62769462012214L46.05885921061834,54.84649491053597L46.42396254297893,82.06143121186577L46.509869209416706,54.723387968482584L46.66450120900472,54.43246559696091L46.69456854225795,45.12735949883029L46.84920054184595,55.57545506359368L46.93940254160563,57.24547607657959L47.205713207562766,54.73275082267757L47.291619874000546,54.80296719798082L47.76840187273025,54.981285038597676L47.81135520594915,54.87055642666188L48.107733205159505,54.78342116784829L48.16357253834407,61.89320082629639L48.1893445382754,69.14578115214515L48.245183871459965,54.814226217794754L48.49001787080765,54.82838450508176L48.5888105372111,57.61725817424431L48.86371186981201,54.662296153941796L49.482239868164065,54.76943848432991L49.71418786754608,54.730780819411535L49.838752533880864,93.39200353805612L50.07070053326289,56.85883491501063L50.23821853281657,98.17998022541249L50.251104532782236,53.32983448893556L50.3026485326449,55.5109974196825L50.43580386562348,54.43902141786782L50.91688119767507,54.824105601852054L51.397958529726665,106.81850324265916L51.50963719609578,55.026805802382356L51.99930519479116,54.52055351904299L52.03366786136627,55.028423602088566L52.20977652756373,147.04880616960114L52.604947193177544,54.54162844141234L52.87984852577845,-21.327042997479367L53.086024525229135,27.56916289148893L53.18481719163259,54.64125441904629L53.476899857521055,54.314884767705976L53.51985319073995,54.91165540777155L53.53273919070561,54.71611875882196L53.597169190533954,54.93600981431008L53.7389151901563,54.77668346449515L54.52066585474014,54.74720462240677L54.808453187306725,54.89179954737162L54.928722520319624,51.83039892401527L54.971675853538514,54.34164498720939L55.12201251980464,116.79486982359487L55.800675184663135,54.90234471777137L56.12282518380483,55.233963886427645L56.61249318250021,54.88502879474281L56.78860184869766,54.758400991152655L57.27397451407115,53.9950445327128L57.39853918040593,54.424897896750494L57.42001584701538,54.74812433724689L57.45867384691238,54.67133196161838L57.84525384588242,54.69919197436218L57.858139845848086,54.7785097653522L57.978409178860986,54.781975109832956L58.021362512079875,56.96427673846392L58.42082851101557,29.758370258714706L58.56686984395981,54.55179751366954L58.824589843273166,54.805039682014595L59.35721117518743,54.82154396612785L59.6106358411789,54.73482347354515L59.72231450754802,58.14695416079677L59.73520050751368,54.217107338339375L59.82540250727335,55.06412274614797L59.85546984052658,54.61475427101003L60.104599173196156,54.767650104544174L60.13037117312749,54.820823971254114L60.37090983915329,54.73301567754342L61.251453170140586,54.53408779317637L61.491991836166385,54.61834920550427L61.62944250246684,19.585519808824557L62.003136501471204,99.72489960167815L62.14488250109355,31.785202671245514L62.484213833522794,54.81231349080967L62.51428116677602,54.86879967183948L62.57012049996058,87.84436469868625L62.82784049927393,59.26756662460514L62.95670049893061,71.4604574095529L63.05549316533407,54.771304164186375L63.13280916512807,54.13110468922153L63.755632496802015,128.78272146302626L64.03053382940293,54.79372344319101L64.6791291610082,54.77397697346575L64.79080782737732,54.73241615160596L65.61551182518005,54.77383614333698L65.64557915843328,54.71172581349195L66.13095182380677,54.63069890993168L66.14383782377243,53.44117738786407L66.2340398235321,54.791162375199704L66.48746448952357,153.9221769375601L66.67216382236481,54.770124285746974L67.0372671547254,54.750938601659215L67.17042248770396,65.33481628321606L67.23914782085419,54.07130934752844L67.3121684873263,127.83102742413928L67.48398182020188,107.38143164356248L67.67770135301907,113.92005211626575L67.68199668634097,56.37349062064895L67.77649401942254,55.27305717678067L67.92683068568866,54.70276850235834L68.0376502853934,54.71964151404677L68.0763082852904,54.50711464395651L68.29966561802864,70.38739458769254L68.3125516179943,62.98408623793361L68.45859295093854,54.71939852934767L68.47577428422609,54.803898817781345L68.57456695062955,54.80052368057953L68.60033895056088,54.77433808520293L68.60892961720467,81.94449401243003L68.80651495001158,54.758040219930706L69.15873228240649,54.52479446385051L69.24034361552238,57.85894330284631L69.27900161541939,150.83804977716017L69.57108428130786,54.78992816870631L69.57967494795163,54.40768833897786L69.837394947265,54.80929839586571L70.52035294544538,54.61332434109106L70.74542841151238,44.39810583782591L70.83133507795016,54.740199682448704L70.96449041092873,58.7378521518728L71.00314841082573,40.34833649708517L71.07616907729785,54.895510219694685L71.14918974376997,54.60155838560274L71.50140707616488,54.770217816006394L71.60019974256834,54.73184454916276L71.66033440907478,89.13666086494565L71.9781890748946,54.60943210380397L72.46785707358995,54.67444806819667L72.88020907249133,54.465919447061424L72.90168573910078,54.93958673075505L73.05631773868879,54.77407339841592L73.18947307166735,54.78242085485748L73.60612040389061,93.07482403805808L73.71779907025973,54.71682177151L73.73498040354728,53.95062837793786L73.80370573669752,54.65226621608487L73.98410973621687,54.77532766978506L72.96182040560723,54.752902676723124L72.97470640557289,54.761705291225525L73.04343173872313,54.74741507327187L73.45578373762449,54.7658728248081L73.68343640368462,54.679951989611055L74.59834240124702,54.68962905159289L74.71861173425992,54.63947211624361L75.17391706638018,46.4656913526502L75.4831810655562,143.11656877332499L75.74949173151334,54.71903216732625L76.0845277306207,54.92647289769148L76.15754839709282,54.764193943392L76.27352239678383,54.790157507895444L76.3637243965435,54.76848245325989L76.41526839640618,54.47942967720866L76.47969839623451,54.64948019140395L76.7245323955822,54.71362656330501L76.89634572845776,30.15637898664309L77.0380917280801,54.89264131597129L77.51057839348793,54.767970146533514L77.73823105954806,70.39076162225032L77.75541239283562,54.69488252311862L77.8413190592734,56.09351575290553L78.17635505838076,52.729876994804755L78.35675905790012,55.82019264296811L78.57582105731646,203.98803530085658L78.67461372371992,54.72738261930586L78.92803838971138,82.02974717444425L78.94092438967705,54.67449460237363L79.34468572193464,48.32118747542097L79.49072705487886,416.1782726529342L79.64106372114499,54.38298163923744L79.80858172069868,54.663297545127094L80.20375238631249,53.6630226223088L80.29824971939405,54.70941223222199L80.65046705178897,59.21957841397561L81.25610905017535,57.23327487912533L81.53960104942004,34.697918322256925L81.56966838267326,54.513685285680054L81.60832638257027,54.32900374696014L81.68134704904239,70.44346763347852L81.73289104890506,87.10660803238721L81.7586630488364,-6.583317556854325L82.01208771482786,54.40860906229089L82.2268543809223,54.76289465802543L82.4287350470511,54.09671214755987L82.69934104633013,100.8312400971574L83.02149104547183,89.73344574813476L83.04726304540317,20.715512415290647L83.17612304505984,61.05957929327215L83.21478104495684,77.16989366985986L83.25773437817573,54.68949240226907L83.65290504378954,-0.6196963230677284L83.69156304368656,70.41062980345012L83.70874437697411,258.81371016244753L83.78176504344621,81.9889959845142L84.05666637604713,54.79271099366454L84.13827770916303,54.947318117323405L84.71814770761809,54.70555906392231L84.9887537068971,54.769831240950836L85.18633903970401,149.6304152151585L85.37533370586713,54.8829634322708L85.7447323715496,54.99864473682054L85.99386170421917,54.67009784974714L86.63386636918068,54.78534304330118L86.64245703582445,-10.539115270672312L86.7799077021249,54.744096425493126L86.91306303510348,68.8534407033737L87.16648770109494,54.64272608231319L87.78072036612511,54.650897591358344L87.88380836585046,54.68032920329897L87.92246636574745,54.560064481522915L88.15870969845136,54.787999468008394L88.80730503005664,31.39898940099556L88.8674396965631,54.83841576266869L89.30556369539579,54.82246262767404L89.39576569515546,54.519038010860214L89.96704502696673,102.65823053053867L90.27630902614275,93.9452477305153L90.37080635922432,54.866592296461846L90.44382702569644,75.6110165903232L90.64141235850335,54.75393980737893L90.78745369144757,54.68179663844985L91.06665035737036,54.53769216000485L91.41027702312151,71.71077685907223L91.7367223555851,-307.20910896638736L91.8913543551731,52.81395086603291L92.36813635390281,54.683046353015484L92.37243168722472,55.2103654809807L92.51847302016894,57.8135332768569L92.57860768667538,54.822560706021775L92.75901168619473,54.732040895102514L93.47633235095024,54.68649804949625L93.6094876839288,54.765747683903186L93.75552901687304,47.67694601863778L94.21942501563709,90.76353903847833L94.36117101525943,38.564945400245875L94.43848701505343,66.92396926323023L94.44707768169721,54.497525396309285L94.55016568142254,54.863900694725615L94.55446101474443,155.06696358757353L94.56734701471011,56.27453250606463L94.64895834782601,54.97041966684493L94.79929501409212,63.52913212833907L94.93245034707068,54.762151447109375L95.09996834662438,54.71495278236834L95.14292167984327,54.715987074670934L95.52520634549141,54.81755938758336L95.58534101199785,8.805129343776542L95.70990567833265,54.80433761554808L95.74426834490775,54.7934678214549L95.86883301124254,70.89063430100529L96.29407101010959,71.54041969939188L97.286293007466,13.097123099608496L97.4065623404789,54.80147173973346L97.44522034037591,54.806821676050276L97.5654896733888,54.812888917979734L97.71582633965492,54.73135873912821L97.7673703395176,54.72554145156613L98.0422716721185,54.78283919929963L98.62214167057355,54.78883098753528L98.85408966995557,54.55287023003487L99.42536900176684,79.18910977627621L99.42966433508873,54.557252112043614L100.03101100015321,70.12263679422509L100.55074633210181,55.07022718952244L100.58081366535505,58.40502091332597L101.1177303305912,54.587056455570334L101.60310299596469,46.8004078628185L101.68471432908058,52.975252984839855L101.80498366209348,54.58172879031939L101.89948099517504,50.76850749189843L101.98968299493473,67.17858898066454L102.28176566082318,54.69254651639929L102.50941832688332,54.75787173577851L102.75854765955289,54.99777867522907L102.94754232571601,54.73793802632812L103.86674365660032,54.76578019968423L103.94405965639433,54.79257019341645L104.03855698947588,94.41387876525712L104.06432898940723,39.48636035138293L104.53252032149315,54.73093407492253L104.59265498799961,66.19570939375856L104.63990365454038,54.764467532131206L104.8761469872443,55.647010842809735L104.92339565378506,54.778848756671934L104.9491676537164,54.80928248938443L105.20259231970786,54.72529762522794L105.31856631939888,54.75119536321873L105.41735898580234,41.01854338715924L105.71803231833458,54.77366958594385L105.81252965141614,54.7659193739254L105.95427565103849,54.78446940197756L106.05736365076383,54.76956088430504L106.22917698363939,53.136608490459395L106.30649298343342,42.160253681857284L106.33226498336474,76.24810644530709L106.34515098333041,161.59903612786906L106.67159631579399,54.76891517902371L106.67589164911588,54.994603315264925L106.87777231524467,53.980632563443734L107.01092764822324,55.042970771468504L107.12690164791425,54.77406417649145L107.13978764787991,54.41007935104659L107.16126431448936,54.71369460659052L107.4662329803435,73.19141532568098L107.51348164688429,54.253861648845515L107.72395297965686,83.502937622921L107.96878697900455,118.61610276812229L108.16207697848955,69.60561786489545L108.33818564468702,54.74728265081907L108.39402497787158,-110.96961456100092L108.39832031119347,54.74478037430812L108.49281764427504,54.7304589771113L108.56154297742526,289.5846067919714L109.03832497615497,66.50257997992308L109.12852697591464,59.19956234333671L109.424904975125,64.99340586356433L109.43779097509066,105.24880983552374L109.44208630841256,54.80321152233033L109.64826230786325,54.34975097788639L109.75135030758857,54.79084451449991L110.31833430607796,54.56852890090114L110.66196097182909,38.67780671574323L110.71780030501365,54.82778434168982L110.99270163761457,54.76698565162701L111.27189830353737,54.76531050405072L111.37069096994082,147.50251057026398L111.73149896897952,55.24357697885648L111.74438496894518,56.18147498886469L111.76586163555463,54.59403500839906L112.05364896812121,76.08334741086084L112.13096496791522,78.6955848692226L112.4531149670569,70.40307724278355L112.62063296661059,853.9250968570592L113.29929563146909,54.757777678949935L113.47969963098843,54.35039185868315L113.48399496431033,93.06317137018296L113.76319163023312,55.11285072270033L113.78896363016446,53.7401672039872L113.90064229653358,54.55251590494686L113.99084429629326,54.750405263915155L114.0166162962246,54.57473097441313L114.69527896108309,39.581393340013136L115.72186362501462,54.60427338391038L115.77770295819919,44.401143308418085L115.92374429114342,54.017447392284495L116.02683229086877,54.77918619170633L116.08696695737521,57.49375806222059L116.20723629038811,138.24200536918443L116.69690428908348,54.871413235203164L116.8472409553496,108.58058041154041L117.0061682882595,54.71912380140759L117.39704362055143,54.68107509974104L117.95543695239702,25.12926507623706L118.27758695153872,56.46865253444753L118.66416695050876,55.9082443098267L118.67705295047442,53.140228753808955L119.30846694879214,51.5482854761768L119.3256482820797,54.66554035898969L119.51034761492093,54.76232529289804L119.55759628146171,54.71856559048855L119.6005496146806,54.723448511717734L119.74659094762484,30.691022257406644L119.78954428084374,54.74197606887701L119.90122294721284,132.72494904589647L120.09451294669788,54.32426753986337L120.19330561310133,54.751215210837046L120.41236761251767,54.03626233932145L120.51545561224302,54.703737204081136L120.59706694535892,55.77340874321294L120.7989476114877,54.6952648513827L121.2843202768612,54.565360692379414L121.49479160963377,54.82500647941431L121.84271360870679,54.841643642905765L121.88996227524758,54.90263259819022L121.97586894168535,38.95584141109816L122.28942827418328,54.71883202156019L122.53426227353097,54.75108623337749L122.99386293897311,48.96150412497727L123.5995049373595,25.064359461190776L123.76702293691316,-20.28228060466631L123.89158760324796,54.475349032282125L124.26528160225233,54.70669409146298L124.47145760170301,54.335025022445535L124.48004826834679,-21.261839053736992L124.64327093457858,49.163866599136554L124.74206360098204,54.768998999307556L125.04703226683617,54.88405902727581L125.65267426522256,54.6727264430922L125.92757559782346,54.17251871228697L126.25402093028704,49.96431850707607L126.3485182633686,54.69749993112964L126.38288092994371,61.978455900674064L127.03577159487088,54.68896257301468L127.13026892795244,77.40866371912963L127.27201492757479,56.23119404776817L127.5898695933946,54.90619168583025L127.75738759294828,54.655084980029415L128.12678625863074,54.74375740429272L128.44034559112868,54.72594603097562L128.54772892417589,54.629735258043596L128.60356825736045,54.79984284433522L128.64222625725748,54.71719566595252L128.9815575896867,54.779029671731195L129.23498225567818,54.759777316379086L129.72465025437356,54.724848590838704L129.78908025420188,54.65804385447639L130.12841158663116,55.833567951890785L130.5021055856355,-172.53029687116873L130.88439025128363,79.69895096817292L131.04331758419355,54.542544722464456L131.19365425045967,206.3004141723222L131.51150891627947,-46.48814642611825L132.04413024819374,54.0522836421044L132.1343322479534,55.347120303507836L132.1729902478504,54.77529661255461L132.24171558100065,53.394474922918576L132.5123215802797,54.82295707322474L132.51661691360155,115.70475126969583L132.576751580108,54.83094557307308L133.1050775787004,54.558896107144804L133.15232624524117,54.6839807417589L133.5818595774301,-20.17507096057929L133.86964690999667,55.717797612878755L134.7287135743745,53.56071277207418L135.27422090625444,38.78145936383774L135.27851623957633,54.184611502638916L135.40308090591114,58.55005455637571L135.41167157255492,54.68671433580893L135.83690957142196,54.20864895485825L136.48120956970533,55.01366447909436L136.75611090230623,68.7825991122195L136.78188290223756,83.07447386980651L136.8076549021689,50.94890870307631L136.82483623545644,54.36701523722148L136.82913156877834,54.8859678050312L137.3230949007956,51.264024762926L137.55933823349952,54.69765977782035L138.07477823212622,64.53376484933908L138.31531689815202,85.36478916684688L138.7362595636972,54.51940934801465L138.77921289691608,57.61831539249765L138.8092802301693,54.790443884320126L138.8865962299633,54.06888407228149L139.13143022931098,54.719983896823535L139.3204248954741,54.57941040822037L139.68982356115657,54.735334131854074L140.08069889344853,54.02773152507514L140.08928956009228,60.312896351904456L140.22674022639274,54.946446976016574L140.30405622618676,54.003878536245665L141.5196355562814,55.21778983361516L141.63131422265053,55.00813798780733L141.82030888881366,80.09762519857732L142.05655222151753,57.87504763407517L142.3228628874747,103.02886696314111L142.37870222065925,26.53709094244269L142.77387288627307,99.5169109542877L142.89843755260787,60.25141896704598L143.0659555521615,55.16895193600611L144.26864888229053,78.6425971031147L144.60798021471976,54.910852503974624L144.7196588810889,128.39281860625218L144.81415621417045,-70.82430216482783L144.89576754728634,113.59150297818123L145.00315088033358,67.12535388221882L145.07187621348382,53.79852576312564L145.12342021334646,55.00969530901985L145.30811954618773,54.92186778709241L145.60020221207617,54.851976291958394L145.86651287803332,53.604717609346594L146.7599422089863,55.45315392376304L146.79000954223952,55.34383733325947L146.82866754213651,54.594062379100734L147.043434208231,64.97986505552257L147.05632020819664,54.21258491753848L147.1465222079563,54.690609337058774L147.2796775409349,54.769319584129235L147.36128887405079,44.98355996765176L147.9454542058277,54.713357313489354L148.29337620490077,54.80519482747853L148.29767153822266,54.930807508466486L148.44371287116687,56.72827276354192L149.03217353626567,54.49891425025528L149.05365020287513,54.75892006242893L149.16532886924426,65.59324606607102L149.36291420205117,54.5267984613687L149.4273442018795,53.9234682752716L149.77956153427442,54.767486697072584L149.96426086711566,79.7354082647328L150.07593953348476,15.636553057202974L150.25204819968224,54.96412205484289L150.43674753252347,55.062721740725976L151.00373153101285,54.709308257420346L151.0337988642661,81.43820726670792L151.05098019755363,54.991000243265844L151.48910419638634,54.86603198393506L151.6609175292619,55.051078993236175L152.0646788615195,115.66475482586885L152.12481352802592,54.80104970004737L152.20212952781998,54.86007752164724L152.3825335273393,54.90296178366722L153.55086419089318,57.211848440451774L153.7785168569533,390.6725868311564L154.28966152225814,-14.748895247445631L155.07141218684197,55.78276020041906L155.23033951975185,29.95740139576702L155.63410085200945,65.56863777336578L156.31705885018982,62.572321242349574L156.42873751655898,54.860923852030524L156.6005508494345,-28.447547217471936L156.79813618224142,54.982883415862716L157.07733284816422,89.31108625911064L157.10740018141746,11.729133038701121L157.1417628479926,67.3277214560139L157.34793884744326,52.59587466087676L157.3865968473403,44.46326324739138L157.6400215133317,54.57692158673002L157.6958608465163,55.685267514000046L158.31868417819024,54.64374436604217L158.37022817805288,54.828459062355236L158.51197417767526,54.79165512004175L158.6923781771946,57.09601881817319L158.9715748431174,58.44880766148475L159.28942950893722,54.443209932044454L159.49131017506602,54.670647634314776L159.77050684098882,166.11367233465347L159.8950715073236,55.00669343627622L159.95091084050813,76.92869109429842L160.24728883971852,107.67034641196406L160.26017483968417,59.87650903961668L160.4448741725254,54.77232553309544L160.655345505298,54.70970826508598L160.8958841713238,54.87051583873996L161.46286816981316,54.75009258502307L161.49723083638827,61.32759511658149L161.52729816964148,54.77009479600716L161.9267641685772,54.79688797389919L161.97830816843987,54.7514292872245L162.06421483487767,65.73305768202924L162.553882833573,82.53985609722213L162.57106416686057,54.785365468750555L162.6870381665516,54.753315886046124L162.69562883319537,29.56338313287685L163.08220883216538,26.142705505772653L163.38288216469766,54.42572409751655L163.49885616438866,53.59145273941239L163.52892349764187,51.478681502893465L163.54180949760755,54.72811864267368L163.64919283065478,71.25530288477583L164.23335816243173,54.78171038196001L164.62852882804552,84.16119606624173L164.65859616129873,54.72784739832271L165.0451761602688,54.50626467809063L165.0838341601658,54.41851681805261L165.13537816002844,55.289040590863024L165.21698949314435,54.76372572311699L165.2900101596165,54.42425378884042L165.5219581589985,53.450935620709586L165.57350215886115,111.87770406171741L165.68088549190838,54.41587377241929L165.8398128248183,59.88026364649767L166.08894215748788,59.71140641720628L166.2865274902948,53.79275592359127L166.36813882341067,109.00399297536374L166.3982061566639,54.8322870113621L166.5957914894708,54.597294313149916L166.81914882220906,90.98218082512092L166.8320348221747,80.15500630095411L166.9823714884408,54.84038647311078L167.54076482028646,63.69896147571086L167.76412215302466,55.22371513236057L167.76841748634655,59.237396222843856L167.85861948610625,54.73598774680008L168.09486281881016,-187.2505996844194L168.46855681781452,15.433781337268215L168.47285215113638,59.59350602405284L168.63607481736818,77.07977035562651L168.7864114836343,53.938300087996865L168.82506948353134,55.34575810312724L168.992587483085,54.70477495507228L169.20305881585756,60.31602752830506L169.43930214856147,54.70377829001434L169.57675281486192,69.89732723373271L169.9848094804414,54.60349304002588L170.6377001453686,55.052552070855214L170.84817147814113,54.86559226982753L171.00280347772917,54.3748178394074L171.2691141436863,101.91697296424128L171.59985480947176,10.830725094618202L171.61274080943744,1.2323333222465465L171.93918614190102,54.65479916137741L172.0293881416607,54.624788959894886L172.0637508082358,-0.17388615867213275L172.11959014142036,56.710152323159775L172.12818080806414,85.02149698157328L172.15395280799547,78.15133133473446L172.57489547354064,-13.787425206669553L172.5834861401844,57.053976145468795L172.95718013918875,54.82285346695146L172.97006613915443,50.29571993522664L173.08604013884545,54.54101025001091L173.82054213688852,54.5789666203803L173.85060947014173,54.7731825433313L174.13410146938642,54.875987180254356L174.15557813599585,54.17790815086103L174.60229280147234,56.15026888293875L174.67531346794445,54.47713870565224L174.96310080051103,76.92376994572096L175.0490074669488,54.8328653319779L175.50860813239098,54.73477118982758L175.7319654651292,54.67864126367962L175.79639546495756,55.051370748183004L175.8608254647859,54.63041831043823L175.92955079793612,60.7549684832355L175.98539013112068,54.677392584977525L176.1357267973868,41.361765452440125L176.2173381305027,53.213011712578776L176.2474054637559,54.60535449674646L177.24821812775613,54.25115091351471L177.50593812706947,54.683862508893384L177.63479812672614,54.63222211736935L177.71640945984205,54.727683281184994L178.09869412549017,55.78683791703908L178.26621212504386,55.008326913378525L178.28339345833143,55.38016817478707L178.32205145822843,54.7534512473882L178.34782345815975,53.60971381818895L178.45520679120702,36.069506176243436L178.7000407905547,11.219715116578442L179.32715945555051,10.093052572310398L179.82541812088968,54.826918803010244L179.967164120512,54.68382486421834L180.43535545259792,56.48974638124669L180.46112745252927,58.25585592779815L180.49978545242627,54.70633492072487L181.05388345095,140.37656503883915L181.1999247838942,46.11384771554157L181.50918878307024,85.22250932714616L182.29953011429785,-4.697232543456863L182.38114144741377,54.80952248103553L182.565840780255,155.72476561348734L182.86221877946537,87.64639938552274L183.78571544367153,54.722265261741754L184.21954410918235,55.928553928253166L184.4557874418863,49.73595936435643L184.5202174417146,55.489924847926545L184.81659544092497,54.824475439992455L184.9626367738692,98.01952528360809L185.280491439689,54.61401534174621L185.3492167728392,99.1379621152798L185.39646543938,59.88167146471443L185.54250677232426,114.84234165494792L185.88613343807538,54.79062620377127L186.14814877071063,65.89701989837683L186.1524441040325,54.789712905806894L186.40157343670208,53.18479048725051L186.4874801031399,-29.743390180452195L186.67217943598112,-524.5500397039774L186.69365610259055,20.94515921605776L187.0029201017666,55.13549426117872L187.60856210015297,79.68979712185526L187.70735476655642,200.7079087369062L187.7116500998783,279.3815206012359L188.29581543165523,54.99457138277961L188.7081674305566,54.379967993506426L188.9615920965481,54.696434271584565L189.00884076308887,54.07952517958036L190.2287154265054,43.310110644796254L190.40482409270288,55.05878587764798L190.7054974252351,55.24789039427007L190.825766758248,55.45246666815291L191.04482875766436,43.282766397467384L191.46147608988764,54.46275775252765L191.49583875646275,103.50020080487367L191.59463142286617,54.65170154097902L191.61610808947563,55.06486141644592L191.68912875594776,67.55836778540402L191.9081907553641,32.93332703291071L192.07141342159588,52.76950562739738L192.9476614192613,54.79831341424621L193.25692541843733,54.75705451579047L193.7079354172357,54.91942269099523L194.08162941624008,54.60853341251135L194.13317341610272,54.723719648996266L194.27062408240317,54.31409304924311L194.3908934154161,54.85170949733849L194.76458741442045,54.78390705756465L194.80754074763937,-38.43427115878151L194.8333127475707,25.19201099550864L194.85049408085823,52.4610618035788L194.9836494138368,54.50467715747219L194.99224008048057,54.763846835732906L195.052374746987,105.53644459533162L195.07814674691838,73.23327313658648L195.39170607941628,54.673400805189445L196.45265340992293,54.80366064387154L196.48272074317615,72.34459784748809L196.83064274224915,72.52566679223266L196.9423214086183,54.77845481976418L197.32890140758832,-131.96067437526602L197.44487540727934,88.68626867775542L197.7455487398116,58.99874952101574L198.03763140570004,54.56131295604038L198.10635673885028,149.53143128366779L198.38984873809497,54.662138105071946L198.59602473754563,56.32016277257654L198.66475007069587,54.742170724068345L198.78931473703068,53.0938075656523L198.8966980700779,54.655387203174016L198.9783094031938,72.3404008471987L199.59683740154586,54.761302629782094L199.63120006812096,54.610098960870744L199.90610140072187,54.592375455424474L200.0220754004129,54.79017334216512L200.60194539886794,54.545646854845344L200.63201273212115,112.44347805941476L200.70932873191515,46.41309753341028L201.15174806406975,54.77799481418576L201.25483606379507,55.01026551205125L201.297789397014,54.73656393343741L201.35792406352044,54.75835114675675L201.62423472947756,56.80950597824828L201.91631739536604,54.722938884292205L202.03229139505703,55.03241719463779L202.31578339430172,54.77618836032451L202.3716227274863,49.73840368355596L202.50907339378674,54.61688757218519L202.58638939358073,54.41463738961649L202.62934272679965,-6.01962931021211L202.71954472655932,91.00606496953806L203.18773605864524,54.647095743124325L203.4884093911775,54.75276254630026L203.90935205672264,55.114364477883285L204.4119060553837,54.76879415231474L204.57512872161547,78.53125165436826L204.71687472123782,60.411336534724626L204.78989538770995,54.65973940370857L204.9574133872636,55.130075021607766L205.99688405116083,56.96058476148549L206.06560938431105,54.76260297902532L206.6841373826631,54.681092853844305L206.90749471540133,-4.154916870584714L207.09648938156445,54.883570348696125L207.24682604783058,54.720380343708314L207.37568604748725,54.88649964127117L207.4787740472126,54.88388002208994L207.58186204693794,54.38638580551864L207.61622471351305,59.384592748940676L207.66347338005383,54.74887341224614L207.66776871337572,81.11801643175133L207.9254887126891,58.39093508170468L208.04146271238008,57.75059643996886L208.05864404566765,54.69518461180017L208.123074045496,54.784108406028L208.2347527118651,50.503867946236824L208.28200137840588,54.76956058176317L208.3292500449467,54.76955359466449L208.470996044569,54.815796641684884L208.8360993769296,54.79306054531415L209.0637520429897,54.7293700479877L209.08093337627727,54.80473744392967L209.13677270946187,53.70576729175812L209.48039937521298,54.798217337903964L209.49758070850055,64.89934308065106L209.61355470819157,100.84192383422453L209.65221270808857,-5.079955112980116L210.02590670709293,91.42973251515296L210.05597404034614,54.792874067468546L210.24496870650927,56.920125844434054L210.47262137256942,54.728788843886406L210.62295803883552,54.72342148962396L210.64013937212306,57.09111615577561L210.90215470475832,61.7954612059486L211.31880203698157,55.61419723605151L211.48202470321337,-16.304870634194145L211.67961003602028,54.709335976729946L211.68390536934217,54.69121625846421L211.69679136930785,54.77191432391035L211.93733003533362,53.95235874812096L212.29813803437233,70.47208296503841L212.40122603409768,58.477140600710456L212.61169736687023,54.106775362532645L212.6718320333767,54.86718803751333L213.3075413650163,54.878065879469276L213.43640136467297,54.71124603437441L213.68982603066445,54.56555816382472L213.9088880300808,54.79114096320335L214.79372669438996,91.22573688261863L214.832384694287,41.730786575392926L214.91829136072477,54.768447599938256L215.05144669370333,56.61493941300289L215.0600373603471,54.59386049527521L215.63990735880216,54.901750261589086L215.79453935839015,54.623550415722974L215.9835340245533,54.70317850511101L216.23695869054475,28.43070556814547L216.28850269040743,54.80998101499053L216.77387535578092,54.778625906570184L216.93280268869083,-49.29689325161357L217.0659580216694,54.771996518187294L217.21629468793552,79.05086629833617L217.8605946862189,80.9620976160191L217.8992526861159,54.51940474639012L218.0152266858069,70.37378875929393L218.14408668546358,-9.610359393755715L218.2901280184078,54.50398482214669L218.48341801789286,54.68611976010391L218.51778068446797,53.49218545940579L218.63805001748085,54.737578937761896L219.12342268285434,10.154039117220094L219.19214801600455,54.8303016195465L219.29094068240803,176.23169659971845L219.45845868196167,106.42877377350334L219.53147934843383,54.7958405664687L219.90087801411627,54.75610036440192L219.93953601401327,54.71258859318887L220.08557734695754,54.78558026102927L220.52799667911214,26.819034508662526L220.5795406789748,101.73811853635658L220.74705867852845,53.089834471248636L220.9704160112667,54.75364321331844L222.2074720079708,54.93713765056741L222.29767400773048,54.767538312209965L222.90331600611688,54.7293963404949L223.0880153389581,54.761574541156946L223.31566800501824,54.78141934663954L223.34573533827145,54.65145169866416L223.43164200470926,54.54774591276271L223.53902533775647,54.772169000670004L223.54332067107836,36.61627255628758L223.9299006700484,47.34473852929858L224.15325800278663,54.79458951972282L224.41097800209997,54.82270187230819L224.44104533535324,54.774657742478524L224.56561000168801,54.75503571893239L224.79326266774814,47.42128852531175L224.81044400103568,54.68187233616922L224.86628333422024,54.76486494080032L224.9264180007267,54.750133943617456L225.02950600045205,54.72296982324495L225.08105000031472,54.71039378761674L225.21850066661517,23.847996872463398L225.2485679998684,54.70783113096934L225.30870266637484,62.65604387615984L225.79407533174833,54.74134210296728L225.8413239982891,54.720627165584546L225.86709599822044,54.725380227874155L226.0432046644179,67.52494477216392L226.06038599770545,54.74868538994296L226.1205206642119,83.92900964683048L226.21931333061534,54.74786880639783L226.6746186627356,47.18641969745312L226.85931799557687,54.732542940305805L227.04831266174,55.11227549971488L227.125628661534,55.38012458883708L227.1943539946842,54.5607415179409L227.3232139943409,54.72133794226892L227.61959199355127,54.81752344112688L228.1565086587874,114.2209816266865L228.34120799162866,51.56629165284359L228.34979865827245,65.16643332005698L228.50872599118233,54.373035237797936L228.5130213245042,54.68473780859469L228.55597465772308,53.24894390601163L228.59033732429825,54.74407888055461L228.69772065734546,5.482058746488548L229.05423332306225,54.75668536120952L229.0757099896717,54.77564527774409L229.14013998950006,54.76971980469472L229.97343465394655,26.10980265538737L230.56619065236728,45.82671590731758L231.4768013166078,54.74522995277472L231.81183731571517,54.654001526540185L231.97505998194697,54.74062632998445" fill="none"></path></g></g></g></g></g></g><g transform="translate(72, 177)" clip-path="url(#clip_1)"><clipPath id="clip_1"><rect width="257" height="22"></rect></clipPath><g><g><line x1="0" y1="0" x2="0" y2="5" style="visibility: inherit;" fill="rgb(0, 0, 0)" stroke="rgb(204, 204, 204)" stroke-width="1px"></line><line x1="21.476666609446205" y1="0" x2="21.476666609446205" y2="5" style="visibility: inherit;" fill="rgb(0, 0, 0)" stroke="rgb(204, 204, 204)" stroke-width="1px"></line><line x1="42.95333321889241" y1="0" x2="42.95333321889241" y2="5" style="visibility: inherit;" fill="rgb(0, 0, 0)" stroke="rgb(204, 204, 204)" stroke-width="1px"></line><line x1="64.42999982833862" y1="0" x2="64.42999982833862" y2="5" style="visibility: inherit;" fill="rgb(0, 0, 0)" stroke="rgb(204, 204, 204)" stroke-width="1px"></line><line x1="85.90666643778482" y1="0" x2="85.90666643778482" y2="5" style="visibility: inherit;" fill="rgb(0, 0, 0)" stroke="rgb(204, 204, 204)" stroke-width="1px"></line><line x1="107.38333304723105" y1="0" x2="107.38333304723105" y2="5" style="visibility: inherit;" fill="rgb(0, 0, 0)" stroke="rgb(204, 204, 204)" stroke-width="1px"></line><line x1="128.85999965667725" y1="0" x2="128.85999965667725" y2="5" style="visibility: inherit;" fill="rgb(0, 0, 0)" stroke="rgb(204, 204, 204)" stroke-width="1px"></line><line x1="150.33666626612347" y1="0" x2="150.33666626612347" y2="5" style="visibility: inherit;" fill="rgb(0, 0, 0)" stroke="rgb(204, 204, 204)" stroke-width="1px"></line><line x1="171.81333287556964" y1="0" x2="171.81333287556964" y2="5" style="visibility: inherit;" fill="rgb(0, 0, 0)" stroke="rgb(204, 204, 204)" stroke-width="1px"></line><line x1="193.28999948501587" y1="0" x2="193.28999948501587" y2="5" style="visibility: inherit;" fill="rgb(0, 0, 0)" stroke="rgb(204, 204, 204)" stroke-width="1px"></line><line x1="214.7666660944621" y1="0" x2="214.7666660944621" y2="5" style="visibility: inherit;" fill="rgb(0, 0, 0)" stroke="rgb(204, 204, 204)" stroke-width="1px"></line><line x1="236.24333270390827" y1="0" x2="236.24333270390827" y2="5" style="visibility: inherit;" fill="rgb(0, 0, 0)" stroke="rgb(204, 204, 204)" stroke-width="1px"></line><line x1="257.7199993133545" y1="0" x2="257.7199993133545" y2="5" style="visibility: inherit;" fill="rgb(0, 0, 0)" stroke="rgb(204, 204, 204)" stroke-width="1px"></line></g><g transform="translate(0, 8)"><text style="text-anchor: middle; visibility: hidden; font-family: &quot;Helvetica Neue&quot;, sans-serif; font-size: 12px; font-weight: 200;" x="0" y="0" dx="0em" dy="0.95em" fill="rgb(50, 49, 63)" stroke="none" stroke-width="1px">-50k</text><text style="text-anchor: middle; visibility: hidden; font-family: &quot;Helvetica Neue&quot;, sans-serif; font-size: 12px; font-weight: 200;" x="21.476666609446205" y="0" dx="0em" dy="0.95em" fill="rgb(50, 49, 63)" stroke="none" stroke-width="1px">0</text><text style="text-anchor: middle; visibility: hidden; font-family: &quot;Helvetica Neue&quot;, sans-serif; font-size: 12px; font-weight: 200;" x="42.95333321889241" y="0" dx="0em" dy="0.95em" fill="rgb(50, 49, 63)" stroke="none" stroke-width="1px">50k</text><text style="text-anchor: middle; visibility: hidden; font-family: &quot;Helvetica Neue&quot;, sans-serif; font-size: 12px; font-weight: 200;" x="64.42999982833862" y="0" dx="0em" dy="0.95em" fill="rgb(50, 49, 63)" stroke="none" stroke-width="1px">100k</text><text style="text-anchor: middle; visibility: hidden; font-family: &quot;Helvetica Neue&quot;, sans-serif; font-size: 12px; font-weight: 200;" x="85.90666643778482" y="0" dx="0em" dy="0.95em" fill="rgb(50, 49, 63)" stroke="none" stroke-width="1px">150k</text><text style="text-anchor: middle; visibility: hidden; font-family: &quot;Helvetica Neue&quot;, sans-serif; font-size: 12px; font-weight: 200;" x="107.38333304723105" y="0" dx="0em" dy="0.95em" fill="rgb(50, 49, 63)" stroke="none" stroke-width="1px">200k</text><text style="text-anchor: middle; visibility: hidden; font-family: &quot;Helvetica Neue&quot;, sans-serif; font-size: 12px; font-weight: 200;" x="128.85999965667725" y="0" dx="0em" dy="0.95em" fill="rgb(50, 49, 63)" stroke="none" stroke-width="1px">250k</text><text style="text-anchor: middle; visibility: hidden; font-family: &quot;Helvetica Neue&quot;, sans-serif; font-size: 12px; font-weight: 200;" x="150.33666626612347" y="0" dx="0em" dy="0.95em" fill="rgb(50, 49, 63)" stroke="none" stroke-width="1px">300k</text><text style="text-anchor: middle; visibility: hidden; font-family: &quot;Helvetica Neue&quot;, sans-serif; font-size: 12px; font-weight: 200;" x="171.81333287556964" y="0" dx="0em" dy="0.95em" fill="rgb(50, 49, 63)" stroke="none" stroke-width="1px">350k</text><text style="text-anchor: middle; visibility: hidden; font-family: &quot;Helvetica Neue&quot;, sans-serif; font-size: 12px; font-weight: 200;" x="193.28999948501587" y="0" dx="0em" dy="0.95em" fill="rgb(50, 49, 63)" stroke="none" stroke-width="1px">400k</text><text style="text-anchor: middle; visibility: hidden; font-family: &quot;Helvetica Neue&quot;, sans-serif; font-size: 12px; font-weight: 200;" x="214.7666660944621" y="0" dx="0em" dy="0.95em" fill="rgb(50, 49, 63)" stroke="none" stroke-width="1px">450k</text><text style="text-anchor: middle; visibility: hidden; font-family: &quot;Helvetica Neue&quot;, sans-serif; font-size: 12px; font-weight: 200;" x="236.24333270390827" y="0" dx="0em" dy="0.95em" fill="rgb(50, 49, 63)" stroke="none" stroke-width="1px">500k</text><text style="text-anchor: middle; visibility: hidden; font-family: &quot;Helvetica Neue&quot;, sans-serif; font-size: 12px; font-weight: 200;" x="257.7199993133545" y="0" dx="0em" dy="0.95em" fill="rgb(50, 49, 63)" stroke="none" stroke-width="1px">550k</text></g><line x1="0" y1="0" x2="257.7199993133545" y2="0" fill="rgb(0, 0, 0)" stroke="rgb(204, 204, 204)" stroke-width="1px"></line></g></g></g></g></svg>