<svg viewBox="0 0 330 200" xmlns="http://www.w3.org/2000/svg"><g><g><g><g><g><line x1="61.90000057220459" y1="177.95999908447266" x2="56.90000057220459" y2="177.95999908447266" style="visibility: inherit;" fill="rgb(0, 0, 0)" stroke="rgb(204, 204, 204)" stroke-width="1px"></line><line x1="61.90000057220459" y1="163.1299991607666" x2="56.90000057220459" y2="163.1299991607666" style="visibility: inherit;" fill="rgb(0, 0, 0)" stroke="rgb(204, 204, 204)" stroke-width="1px"></line><line x1="61.90000057220459" y1="148.29999923706055" x2="56.90000057220459" y2="148.29999923706055" style="visibility: inherit;" fill="rgb(0, 0, 0)" stroke="rgb(204, 204, 204)" stroke-width="1px"></line><line x1="61.90000057220459" y1="133.4699993133545" x2="56.90000057220459" y2="133.4699993133545" style="visibility: inherit;" fill="rgb(0, 0, 0)" stroke="rgb(204, 204, 204)" stroke-width="1px"></line><line x1="61.90000057220459" y1="118.63999938964844" x2="56.90000057220459" y2="118.63999938964844" style="visibility: inherit;" fill="rgb(0, 0, 0)" stroke="rgb(204, 204, 204)" stroke-width="1px"></line><line x1="61.90000057220459" y1="103.80999946594238" x2="56.90000057220459" y2="103.80999946594238" style="visibility: inherit;" fill="rgb(0, 0, 0)" stroke="rgb(204, 204, 204)" stroke-width="1px"></line><line x1="61.90000057220459" y1="88.97999954223633" x2="56.90000057220459" y2="88.97999954223633" style="visibility: inherit;" fill="rgb(0, 0, 0)" stroke="rgb(204, 204, 204)" stroke-width="1px"></line><line x1="61.90000057220459" y1="74.14999961853027" x2="56.90000057220459" y2="74.14999961853027" style="visibility: inherit;" fill="rgb(0, 0, 0)" stroke="rgb(204, 204, 204)" stroke-width="1px"></line><line x1="61.90000057220459" y1="59.319999694824205" x2="56.90000057220459" y2="59.319999694824205" style="visibility: inherit;" fill="rgb(0, 0, 0)" stroke="rgb(204, 204, 204)" stroke-width="1px"></line><line x1="61.90000057220459" y1="44.489999771118164" x2="56.90000057220459" y2="44.489999771118164" style="visibility: inherit;" fill="rgb(0, 0, 0)" stroke="rgb(204, 204, 204)" stroke-width="1px"></line><line x1="61.90000057220459" y1="29.65999984741211" x2="56.90000057220459" y2="29.65999984741211" style="visibility: inherit;" fill="rgb(0, 0, 0)" stroke="rgb(204, 204, 204)" stroke-width="1px"></line><line x1="61.90000057220459" y1="14.829999923706055" x2="56.90000057220459" y2="14.829999923706055" style="visibility: inherit;" fill="rgb(0, 0, 0)" stroke="rgb(204, 204, 204)" stroke-width="1px"></line><line x1="61.90000057220459" y1="0" x2="56.90000057220459" y2="0" style="visibility: inherit;" fill="rgb(0, 0, 0)" stroke="rgb(204, 204, 204)" stroke-width="1px"></line></g><g transform="translate(51.90000057220459, 0)"><text style="text-anchor: end; visibility: hidden; font-family: &quot;Helvetica Neue&quot;, sans-serif; font-size: 12px; font-weight: 200;" x="0" y="177.95999908447266" dx="0em" dy="0.3em" fill="rgb(50, 49, 63)" stroke="none" stroke-width="1px">-0.25</text><text style="text-anchor: end; visibility: inherit; font-family: &quot;Helvetica Neue&quot;, sans-serif; font-size: 12px; font-weight: 200;" x="0" y="163.1299991607666" dx="0em" dy="0.3em" fill="rgb(50, 49, 63)" stroke="none" stroke-width="1px">-0.2</text><text style="text-anchor: end; visibility: hidden; font-family: &quot;Helvetica Neue&quot;, sans-serif; font-size: 12px; font-weight: 200;" x="0" y="148.29999923706055" dx="0em" dy="0.3em" fill="rgb(50, 49, 63)" stroke="none" stroke-width="1px">-0.15</text><text style="text-anchor: end; visibility: inherit; font-family: &quot;Helvetica Neue&quot;, sans-serif; font-size: 12px; font-weight: 200;" x="0" y="133.4699993133545" dx="0em" dy="0.3em" fill="rgb(50, 49, 63)" stroke="none" stroke-width="1px">-0.1</text><text style="text-anchor: end; visibility: hidden; font-family: &quot;Helvetica Neue&quot;, sans-serif; font-size: 12px; font-weight: 200;" x="0" y="118.63999938964844" dx="0em" dy="0.3em" fill="rgb(50, 49, 63)" stroke="none" stroke-width="1px">-0.05</text><text style="text-anchor: end; visibility: inherit; font-family: &quot;Helvetica Neue&quot;, sans-serif; font-size: 12px; font-weight: 200;" x="0" y="103.80999946594238" dx="0em" dy="0.3em" fill="rgb(50, 49, 63)" stroke="none" stroke-width="1px">0</text><text style="text-anchor: end; visibility: hidden; font-family: &quot;Helvetica Neue&quot;, sans-serif; font-size: 12px; font-weight: 200;" x="0" y="88.97999954223633" dx="0em" dy="0.3em" fill="rgb(50, 49, 63)" stroke="none" stroke-width="1px">0.05</text><text style="text-anchor: end; visibility: inherit; font-family: &quot;Helvetica Neue&quot;, sans-serif; font-size: 12px; font-weight: 200;" x="0" y="74.14999961853027" dx="0em" dy="0.3em" fill="rgb(50, 49, 63)" stroke="none" stroke-width="1px">0.1</text><text style="text-anchor: end; visibility: hidden; font-family: &quot;Helvetica Neue&quot;, sans-serif; font-size: 12px; font-weight: 200;" x="0" y="59.319999694824205" dx="0em" dy="0.3em" fill="rgb(50, 49, 63)" stroke="none" stroke-width="1px">0.15</text><text style="text-anchor: end; visibility: inherit; font-family: &quot;Helvetica Neue&quot;, sans-serif; font-size: 12px; font-weight: 200;" x="0" y="44.489999771118164" dx="0em" dy="0.3em" fill="rgb(50, 49, 63)" stroke="none" stroke-width="1px">0.2</text><text style="text-anchor: end; visibility: hidden; font-family: &quot;Helvetica Neue&quot;, sans-serif; font-size: 12px; font-weight: 200;" x="0" y="29.65999984741211" dx="0em" dy="0.3em" fill="rgb(50, 49, 63)" stroke="none" stroke-width="1px">0.25</text><text style="text-anchor: end; visibility: inherit; font-family: &quot;Helvetica Neue&quot;, sans-serif; font-size: 12px; font-weight: 200;" x="0" y="14.829999923706055" dx="0em" dy="0.3em" fill="rgb(50, 49, 63)" stroke="none" stroke-width="1px">0.3</text><text style="text-anchor: end; visibility: hidden; font-family: &quot;Helvetica Neue&quot;, sans-serif; font-size: 12px; font-weight: 200;" x="0" y="0" dx="0em" dy="0.3em" fill="rgb(50, 49, 63)" stroke="none" stroke-width="1px">0.35</text></g><line x1="61.90000057220459" y1="0" x2="61.90000057220459" y2="177.95999908447266" fill="rgb(0, 0, 0)" stroke="rgb(204, 204, 204)" stroke-width="1px"></line></g></g><g transform="translate(61, 0)" clip-path="url(#clip_0)"><clipPath id="clip_0"><rect width="268" height="177"></rect></clipPath><g><g><g><line x1="0" y1="0" x2="0" y2="177.95999908447266" fill="rgb(0, 0, 0)" stroke="rgb(60, 60, 60)" stroke-width="1px" opacity="0.25"></line><line x1="22.34166661898295" y1="0" x2="22.34166661898295" y2="177.95999908447266" fill="rgb(0, 0, 0)" stroke="rgb(60, 60, 60)" stroke-width="1px" opacity="0.25"></line><line x1="44.6833332379659" y1="0" x2="44.6833332379659" y2="177.95999908447266" fill="rgb(0, 0, 0)" stroke="rgb(60, 60, 60)" stroke-width="1px" opacity="0.25"></line><line x1="67.02499985694885" y1="0" x2="67.02499985694885" y2="177.95999908447266" fill="rgb(0, 0, 0)" stroke="rgb(60, 60, 60)" stroke-width="1px" opacity="0.25"></line><line x1="89.3666664759318" y1="0" x2="89.3666664759318" y2="177.95999908447266" fill="rgb(0, 0, 0)" stroke="rgb(60, 60, 60)" stroke-width="1px" opacity="0.25"></line><line x1="111.70833309491476" y1="0" x2="111.70833309491476" y2="177.95999908447266" fill="rgb(0, 0, 0)" stroke="rgb(60, 60, 60)" stroke-width="1px" opacity="0.25"></line><line x1="134.0499997138977" y1="0" x2="134.0499997138977" y2="177.95999908447266" fill="rgb(0, 0, 0)" stroke="rgb(60, 60, 60)" stroke-width="1px" opacity="0.25"></line><line x1="156.39166633288067" y1="0" x2="156.39166633288067" y2="177.95999908447266" fill="rgb(0, 0, 0)" stroke="rgb(60, 60, 60)" stroke-width="1px" opacity="0.25"></line><line x1="178.7333329518636" y1="0" x2="178.7333329518636" y2="177.95999908447266" fill="rgb(0, 0, 0)" stroke="rgb(60, 60, 60)" stroke-width="1px" opacity="0.25"></line><line x1="201.07499957084656" y1="0" x2="201.07499957084656" y2="177.95999908447266" fill="rgb(0, 0, 0)" stroke="rgb(60, 60, 60)" stroke-width="1px" opacity="0.25"></line><line x1="223.41666618982953" y1="0" x2="223.41666618982953" y2="177.95999908447266" fill="rgb(0, 0, 0)" stroke="rgb(60, 60, 60)" stroke-width="1px" opacity="0.25"></line><line x1="245.75833280881244" y1="0" x2="245.75833280881244" y2="177.95999908447266" fill="rgb(0, 0, 0)" stroke="rgb(60, 60, 60)" stroke-width="1px" opacity="0.25"></line><line x1="268.0999994277954" y1="0" x2="268.0999994277954" y2="177.95999908447266" fill="rgb(0, 0, 0)" stroke="rgb(60, 60, 60)" stroke-width="1px" opacity="0.25"></line></g><g><line x1="0" y1="177.95999908447266" x2="268.0999994277954" y2="177.95999908447266" fill="rgb(0, 0, 0)" stroke="rgb(60, 60, 60)" stroke-width="1px" opacity="0.25"></line><line x1="0" y1="163.1299991607666" x2="268.0999994277954" y2="163.1299991607666" fill="rgb(0, 0, 0)" stroke="rgb(60, 60, 60)" stroke-width="1px" opacity="0.25"></line><line x1="0" y1="148.29999923706055" x2="268.0999994277954" y2="148.29999923706055" fill="rgb(0, 0, 0)" stroke="rgb(60, 60, 60)" stroke-width="1px" opacity="0.25"></line><line x1="0" y1="133.4699993133545" x2="268.0999994277954" y2="133.4699993133545" fill="rgb(0, 0, 0)" stroke="rgb(60, 60, 60)" stroke-width="1px" opacity="0.25"></line><line x1="0" y1="118.63999938964844" x2="268.0999994277954" y2="118.63999938964844" fill="rgb(0, 0, 0)" stroke="rgb(60, 60, 60)" stroke-width="1px" opacity="0.25"></line><line x1="0" y1="103.80999946594238" x2="268.0999994277954" y2="103.80999946594238" fill="rgb(0, 0, 0)" stroke="rgb(60, 60, 60)" stroke-width="1px" opacity="0.25"></line><line x1="0" y1="88.97999954223633" x2="268.0999994277954" y2="88.97999954223633" fill="rgb(0, 0, 0)" stroke="rgb(60, 60, 60)" stroke-width="1px" opacity="0.25"></line><line x1="0" y1="74.14999961853027" x2="268.0999994277954" y2="74.14999961853027" fill="rgb(0, 0, 0)" stroke="rgb(60, 60, 60)" stroke-width="1px" opacity="0.25"></line><line x1="0" y1="59.319999694824205" x2="268.0999994277954" y2="59.319999694824205" fill="rgb(0, 0, 0)" stroke="rgb(60, 60, 60)" stroke-width="1px" opacity="0.25"></line><line x1="0" y1="44.489999771118164" x2="268.0999994277954" y2="44.489999771118164" fill="rgb(0, 0, 0)" stroke="rgb(60, 60, 60)" stroke-width="1px" opacity="0.25"></line><line x1="0" y1="29.65999984741211" x2="268.0999994277954" y2="29.65999984741211" fill="rgb(0, 0, 0)" stroke="rgb(60, 60, 60)" stroke-width="1px" opacity="0.25"></line><line x1="0" y1="14.829999923706055" x2="268.0999994277954" y2="14.829999923706055" fill="rgb(0, 0, 0)" stroke="rgb(60, 60, 60)" stroke-width="1px" opacity="0.25"></line><line x1="0" y1="0" x2="268.0999994277954" y2="0" fill="rgb(0, 0, 0)" stroke="rgb(60, 60, 60)" stroke-width="1px" opacity="0.25"></line></g></g></g><g><g><line x1="0" y1="103.80999946594238" x2="268.0999994277954" y2="103.80999946594238" fill="rgb(0, 0, 0)" stroke="rgb(153, 153, 153)" stroke-width="1.5px"></line></g></g><g><g><line x1="22.34166661898295" y1="0" x2="22.34166661898295" y2="177.95999908447266" fill="rgb(0, 0, 0)" stroke="rgb(153, 153, 153)" stroke-width="1.5px"></line></g></g><g><g><g><g><g><path style="fill: none;" stroke="rgb(255, 112, 67)" stroke-width="2px" d="M22.52933661858241,82.71334540223387L22.542741618553798,98.10350390798163L22.65891828497251,113.90641136203976L22.761689951419832,117.38998901621642L23.08787828405698,91.60289567623158L23.36491495013237,119.49657797205126L23.38725661675135,124.87001105966769L23.48109161655108,110.58776862532238L23.56152161637942,122.30929431752855L23.7179132827123,102.20135605561399L23.72684994935989,101.07423341629406L23.762596615950265,147.2040942778092L24.459656614462535,123.795939857073L24.73669328053792,105.69464230722129L24.928831613461178,127.67655976330595L24.960109946727755,109.32325440450686L25.17458994626999,124.22161029138752L25.232678279479344,98.64036063660556L25.339918279250462,68.0028415808086L25.53205661217372,106.76213190738176L25.56780327876409,96.93523786694446L25.849308278163274,98.10025106390741L25.925269944667814,99.32770682735237L25.952079944610595,101.95735927913545L26.0771932776769,102.1072118361656L26.680418276389442,87.64947773948782L26.872556609312692,121.220803094973L27.104909942150115,116.77793139839693L27.274706608454384,139.17695888191167L27.614299941062924,127.71758995986937L27.97623494029045,133.5659144424436L28.22199327309926,115.1631140835233L28.235398273070654,124.25046755499426L28.297954939603805,102.72720233850063L28.31582827289899,111.938291867029L28.53030827244123,94.20849881744857L28.561586605707802,72.03876661901421L28.758193271954852,99.85268390854759L28.89224327166875,115.63136946991548L29.14693827112516,98.68297751296518L29.27651993751526,106.37123472432931L29.348013270696004,95.8115959550024L29.41950660387675,129.57833256425485L29.897618269522983,153.19152542538063L30.08975660244624,133.84777095429308L30.10316160241763,110.90235769394772L30.581273268063864,100.62191631557819L30.67957660118739,103.02197914094006L30.72872826774915,117.54035042967868L30.907461600701016,106.66148722160507L30.983423267205556,90.97806649224773L31.041511600414914,140.8226121440514L31.43919326623281,126.41093776691613L31.707293265660606,91.91865371245459L32.113911598126094,98.86316428327903L32.16753159801165,97.23326141154118L32.310518264373144,103.90125876683558L32.33732826431592,119.60736675996324L32.44903659741084,119.61157832134441L32.65011159698168,109.65729044303212L33.016514929533,114.79328637166756L33.226526595751444,123.90649085573125L33.302488262255984,135.92585049163972L33.31142492890358,128.10467355104907L33.33376659552256,103.02310942478924L33.44547492861748,155.976995965447L33.44994326194127,155.48655469222933L33.503563261826834,152.73472619258214L33.52590492844581,122.56467772634034L33.655486594835914,124.50453133023922L33.72251159469287,110.5250057396792L33.749321594635646,62.759085201526815L34.339141593376795,28.996572356487036L34.58489992618561,20.985260508359687L35.59921159068743,86.47955727968166L35.916463256677,67.60793191710236L35.92986825664838,72.84489887891792L36.18903158942859,126.0214261575442L36.46606825550398,133.06970278553445L36.77438325484594,88.77903942977444L36.83693992137909,107.052286467746L36.84587658802668,113.91846331914556L36.85034492135048,46.57806221242498L37.10950825413068,70.79143328416896L37.89146658579509,107.35790119997863L38.50809658447901,93.41804954134824L38.517033251126605,86.41705871912148L38.74044991731643,124.53859996553581L39.05770158330599,99.6038906247698L39.29005491614342,128.29700547098818L39.38388991594314,104.81179843399583L39.41516824920972,109.46164798822663L39.89327991485595,91.56005789271943L40.01839324792226,65.62512699154635L40.143506580988564,38.729361013084315L40.37585991382599,51.05158570876303L40.65289657990138,77.45903963710391L41.09079324563344,84.51990284156055L41.22931157867114,40.81924970394243L41.25165324529012,55.01913972578669L41.63146157781283,99.99248736804661L41.64039824446042,66.34696145334176L42.00233324368795,63.68665038531097L42.413419909477234,62.51809826282323L42.489381575981774,68.48268548187853L42.5832165757815,97.3080027070897L43.18197324117025,105.3669710830542L43.19984657446543,102.66676194220769L43.23559324105581,96.17566826282291L43.73604657332102,145.97447906250926L43.798603239854174,119.26642841822014L43.968399906158446,127.2425553191037L44.02201990604401,115.63605342811978L44.20968990564346,75.29149329689588L44.553751571575795,83.48098676356598L44.90674990415573,103.92377120689723L44.915686570803324,103.91605550794186L45.156976570288336,105.57481358769576L45.282089903354645,93.61692660114039L45.751264902353284,103.76984239618092L46.22490823467572,87.64005034646895L46.28746490120888,73.97848905834925L46.56003323396047,77.45993891601378L47.13644823273023,95.400093069717L47.71733156482379,139.4836509344504L47.91393823107084,169.0895251638042L48.29374656359355,165.80769358848673L48.383113230069476,131.37380651170668L48.54397322972615,85.26688683160509L48.57525156299273,-0.81277802928102L48.736111562649405,62.800665659135944L48.82994656244914,111.83662970827376L49.10698322852453,109.48257144839772L49.19634989500046,129.94093164524347L49.692334893941876,151.8826036689348L49.737018227179846,144.82211194738034L50.04533322652181,137.78684316705022L50.10342155973117,111.29440964142088L50.130231559673945,86.7305562418525L50.1883198928833,104.092357987342L50.44301489233971,119.28964149715472L50.54578655878703,111.60458989471654L50.83175989151001,90.38118250225578L51.47519989013672,99.50951615161917L51.716489889621734,91.77736760345508L51.846071556011836,122.68316563991525L52.087361555496855,122.90369636786929L52.26162655512491,137.41993509919487L52.27503155509631,101.52186569196888L52.32865155498187,111.64186593638749L52.46716988801956,57.40859056742512L52.96762322028478,91.20769730018915L53.468076552549995,117.02434347793755L53.58425321896871,143.06522980980162L54.09364321788152,105.49227998095249L54.12938988447189,126.11946035297548L54.312591550747555,156.0490189107473L54.72367821653684,81.25208592680222L55.00965154925982,39.6971398635022L55.224131548802056,54.25486102880744L55.32690321524938,64.63406977970584L55.63074988126755,61.63990764515894L55.67543321450551,95.3798066624101L55.6888382144769,94.97066479322069L55.75586321433385,140.11616436888414L55.90331821401914,134.4474877286422L56.71655487895011,125.14049593964344L57.015933211644494,155.1379885429356L57.1410465447108,74.05805731417342L57.18572987794876,39.97410775120096L57.342121544281646,107.81120483388241L58.048118209441505,120.71961309305959L58.38324320872625,125.10069483144746L58.89263320763906,158.52424442186808L59.075834873914715,140.19163126631457L59.58075653950373,105.68010107106383L59.710338205893834,26.191734176805L59.73267987251282,49.81933867035565L59.77289487242699,20.941781918185825L60.17504487156868,32.19794257338259L60.18844987154007,75.16001291810261L60.313563204606375,102.75149490484864L60.35824653784434,100.56434429259586L60.77380153695742,90.38633720205326L60.92572486996651,72.04203679557926L61.193824869394305,89.87870049219701L61.74789820154508,106.22076402930031L62.01152986764908,99.83683038923367L62.12770653406779,117.38721716163718L62.14111153403918,109.680113069551L62.23494653383891,110.24756502847237L62.266224867105485,93.82986278228871L62.52538819988568,99.67446750190227L62.55219819982847,122.90256877759465L62.80242486596108,108.65541511848372L63.71843319733937,32.7540427798842L63.968659863471984,37.98538328626566L64.11164652983348,8.60693250120579L64.50039152900378,46.51567668419938L64.64784652868907,66.23395693369719L65.000844861269,101.65418656032833L65.03212319453557,148.93844039734648L65.09021152774493,129.61374643375257L65.35831152717272,148.39148854621516L65.49236152688663,128.76378495347592L65.59513319333395,132.0273258961444L65.67556319316228,43.47496371663229L66.3234715251128,93.27763867999077L66.60944485783577,110.72930030464185L67.28416318972906,138.58916894438215L67.40033985614777,115.73232513405719L68.2582598543167,108.30933063732745L68.28953818758328,101.50429985450096L68.7944598531723,58.4301773518345L68.80786485314368,53.39528217621515L68.90169985294342,99.04042152950963L69.16533151904743,149.58599545007837L69.35746985197066,115.65551136927502L69.73727818449338,117.72744005572059L69.87579651753107,124.81776280955404L69.94728985071183,61.37301126517782L70.02325151721637,121.31203226515562L70.20198485016823,105.22682660406703L70.40350668307146,113.03904036673235L70.40797501639526,127.46921723694282L70.50627834951878,128.71448285500773L70.66267001585166,89.29874948109814L70.7779530156056,97.18073670627189L70.81816801551977,104.74347709579898L71.05052134835721,127.72954116941528L71.0639263483286,134.01999403830482L71.21584968133767,114.53147531918924L71.23372301463286,119.0123263901663L71.33649468108018,123.28434011772953L71.36330468102295,125.2098515406269L71.37224134767055,125.33605698319099L71.5777846805652,112.63370542766826L71.94418801311653,80.84147636077515L72.02908634626866,97.27609710858185L72.06930134618283,96.43999936397893L72.373148012201,109.95647511478788L72.38208467884859,19.827391832269853L72.65018467827639,60.21877396376139L73.36064967676003,42.39367853823913L73.59479034292698,52.22859269582446L73.68415700940291,77.43989539296173L73.8226753424406,78.26941612028448L73.86289034235477,81.44151935662785L73.93885200885933,96.6160005257205L74.01481367536385,91.69182471984976L74.38121700791518,114.84033941005629L74.48398867436251,93.34115731789501L74.54654534089565,95.16489581354892L74.8772020068566,54.283860885847645L75.3865920057694,63.52780648347748L75.81555200485388,59.7122949521393L75.83789367147287,100.82444959370218L75.99875367112955,118.52765452884891L76.13727200416724,133.90905782023742L76.57070033657551,136.01516118663716L76.68687700299422,113.75500355429973L76.70475033628941,85.90293818994519L76.77624366947016,60.18812301076264L76.96391366906961,89.20261837920091L75.90045033800602,83.94091402092661L75.91385533797741,101.65407244426197L75.98534867115816,91.6994619488626L76.41430867024263,94.15277266778182L76.65113033640385,78.3498463443011L77.60288533437253,72.84139742168989L77.72799866743883,71.79703022185807L78.20164199976126,16.216420179418748L78.52336199907461,80.1423534026569L78.80039866515001,32.12039190964646L79.14892866440614,99.68593240064654L79.22489033091068,107.74290738971229L79.34553533065319,110.93308912253306L79.43937033045292,110.71556537755998L79.49299033033849,73.74324933848335L79.56001533019543,74.22854468895862L79.81471032965183,52.15595271908013L79.9934436626037,66.06047064694718L80.14089866228898,99.9800973748522L80.63241532790661,108.57903719755383L80.86923699406783,98.1070841020607L80.88711032736302,88.68938014781536L80.97647699383896,112.64157486213976L81.32500699309507,94.13031786550293L81.51267699269454,113.95226397217785L81.74056199220816,97.8240218199517L81.84333365865548,98.62801088702653L82.10696532475949,134.62638146239692L82.12037032473087,140.3264484107442L82.54039365716775,134.4891635115776L82.69231699017683,131.29123280779515L82.84870865650971,92.89944708099807L83.0229736561378,87.12999115167484L83.43406032192708,23.63613172495161L83.5323636550506,50.1525566495465L83.89876698760192,57.7760593743034L84.52880198625724,66.3978591243059L84.82371198562781,71.34387945678064L84.85499031889438,79.47003899092208L84.89520531880856,73.88349893271827L84.97116698531309,98.12106045002997L85.02478698519866,117.18037691014383L85.05159698514144,66.496910253924L85.31522865124543,56.21627219517089L85.53864531743525,81.22116394936145L85.7486569836537,74.7762974778442L86.03016198305289,105.39937825673107L86.36528698233764,124.14443424788364L86.39209698228042,67.6870333978898L86.52614698199432,74.37269062396578L86.56636198190849,91.09156592982704L86.61104531514644,82.19567316273967L87.02213198093573,3.93324611015251L87.06234698084991,65.23933381792882L87.0802203141451,104.3333393307371L87.15618198064962,91.91539428982657L87.44215531337261,105.80745995920678L87.52705364652475,140.77417412526523L88.1302786452373,92.4342179637452L88.41178364463647,100.80007989567363L88.6173269775311,86.73285899366522L88.81393364377817,123.77094974358832L89.19821030962467,132.63344479381536L89.45737364240487,88.5832298615499L90.12315530765056,109.95465350508819L90.13209197429815,67.84149547688499L90.27507864065964,79.60986458738363L90.41359697369734,83.08886886794531L90.67722863980134,73.94553430679323L91.31620030510426,70.82356971268706L91.42344030487537,78.60608339271596L91.46365530478954,67.44704266008581L91.70941363759836,86.18336700617913L92.38413196949163,26.851534360142836L92.4466886360248,77.95392260081523L92.90245863505204,95.52972107519938L92.99629363485178,71.88657689246969L93.59058196691672,100.3559341991099L93.91230196623007,117.91304121184479L94.0106052993536,117.04636226652356L94.08656696585814,113.76122731595599L94.29211029875279,107.7675339170813L94.44403363176187,81.89031237038313L94.73447529780864,53.44294904585705L95.09194196371237,89.15713513779399L95.43153529632092,50.69134977309115L95.5923952959776,-9.745542623095389L96.088380294919,4.766366866409129L96.09284862824282,81.20161883437592L96.2447719612519,82.60998487051623L96.30732862778504,110.49364798443737L96.49499862738449,97.99015461839244L97.24121029245853,46.101562532377955L97.37972862549623,65.41727967477556L97.53165195850531,60.384540834519186L98.01423195747535,95.82951859383978L98.16168695716064,83.03993949975555L98.24211695698897,66.13012123734883L98.25105362363655,59.28350522845618L98.35829362340768,96.71519276019554L98.36276195673148,103.85705271543162L98.37616695670286,103.12795631285992L98.461065289855,126.92149591145153L98.61745695618788,115.67810368744983L98.75597528922557,118.03193973409776L98.93024028885365,89.77487266771007L98.97492362209161,60.74419487842562L99.37260528790951,102.93974641190361L99.43516195444266,46.624633367856006L99.56474362083276,93.44756448822858L99.60049028742313,131.9563836699586L99.73007195381322,100.55332046535993L100.1724369528691,96.79099574839509L101.20462195066611,43.34691922966911L101.3297352837324,79.94136458989196L101.36995028364659,126.47607523937194L101.49506361671288,165.40016202281606L101.65145528304578,125.35194155247902L101.70507528293133,114.61402072818689L101.99104861565431,139.5689107527889L102.59427361436686,157.41524069640937L102.83556361385186,105.58014146904091L103.42985194591681,115.93258704586894L103.43432027924061,63.0813174538346L104.05988694457213,75.56263559439135L104.6005552767515,137.37287406552605L104.6318336100181,110.84982866724589L105.19037527549267,65.87992670216558L105.6952969410817,61.13644957940444L105.78019527423382,64.16109814061475L105.90530860730011,76.08468310541483L106.00361194042365,60.42632639285087L106.09744694022338,58.94564473350168L106.40129360624155,58.99804688193403L106.63811527240277,77.51022485362597L106.89727860518296,163.90574881778778L107.09388527143001,131.4287883355031L108.05010860272249,130.34504639588718L108.13053860255083,138.6062762736762L108.22884193567434,125.87192175468971L108.25565193561714,88.78941631120952L108.74270026791096,81.05881580448573L108.80525693444412,99.71851502231186L108.85440860100587,112.11071836643276L109.10016693381469,104.84424046634958L109.14931860037645,125.81134538474814L109.17612860031922,121.06828942967093L109.43976026642322,82.45950830482309L109.56040526616573,82.59997614355562L109.66317693261306,65.53054244510678L109.97596026527881,92.46448731101204L110.07426359840234,106.46638379638428L110.22171859808763,149.50692712830886L110.32895859785874,145.5725069235954L110.50769193081061,92.13553881893073L110.58812193063895,42.143246437485146L110.61493193058173,70.81487824607368L110.62833693055312,66.35277484137549L110.96793026316166,88.3817522713372L110.97239859648546,135.2917642422085L111.1824102627039,60.70528394093169L111.32092859574159,92.74564358197013L111.4415735954841,97.72971228909766L111.45497859545549,69.39908777179758L111.47732026207447,70.89950448624873L111.79457192806403,99.71679083253244L111.84372359462579,54.035214861553484L112.06267192749183,80.65838399522212L112.31736692694824,74.53496448201494L112.51844192651907,97.42104499314024L112.70164359279472,101.72283270301888L112.7597319260041,61.71841551298786L112.7642002593279,70.45762157692852L112.86250359245142,75.46711320367665L112.93399692563216,57.07413277356473L113.42998192457358,42.45804658698671L113.52381692437332,61.28841032532682L113.83213192371528,88.72892250623654L113.84553692368667,138.558767303253L113.85000525701047,167.11321034312144L114.0644852565527,62.64715972537368L114.17172525632381,98.22847010669176L114.76154525506497,77.68271445296658L115.11901192096869,83.80648209659623L115.17710025417806,128.87855402715272L115.46307358690103,126.59806637287598L115.7535152529478,118.27070884657913L115.85628691939513,135.0127626413714L116.23162691859405,115.47737790605288L116.24503191856543,97.19432474501805L116.26737358518442,66.54935380734238L116.56675191787879,81.88315147308403L116.64718191770713,109.79681485310401L116.98230691699187,97.07072375197629L117.15657191661992,67.40742839997394L117.8625685817798,83.13453552689506L118.05023858137926,13.024588520630857L118.05470691470305,85.85774226910095L118.34514858074982,118.41149810329989L118.3719585806926,90.09846887571938L118.48813524711132,63.99260555296868L118.58197024691106,76.87261900049207L118.60878024685383,75.16950365788796L119.31477691201368,76.79081167325798L120.38270857640107,52.07521341923538L120.44079690961044,70.1201928731501L120.59272024261952,37.07698913644771L120.69996024239065,69.36273814084534L120.76251690892379,62.51062136202667L120.8876302419901,95.56077714825851L121.3970202409029,130.5937257258637L121.55341190723578,167.77310911147808L121.71874024021625,140.14080136147658L122.12535857268175,95.4556859466604L122.7062419047753,61.08456976581958L123.04136690406004,64.47103818057313L123.44351690320174,65.59533704048131L123.45692190317313,61.19895081349485L124.11376690177123,43.47036838198531L124.13164023506641,45.133727399475475L124.32377856798966,77.54097683538956L124.37293023455143,57.54050517822476L124.41761356778939,71.45593038772893L124.56953690079848,73.43275064730196L124.61422023403645,77.42654277529758L124.73039690045515,91.02249872234674L124.93147190002601,92.20560149723822L125.03424356647334,88.21868180049705L125.26212856598694,101.53248394968952L125.36936856575807,87.51480751948368L125.4542668989102,79.02910061637644L125.66427856512864,70.74085334580724L126.16920023071766,26.965013652099202L126.3881485635837,84.05282863117677L126.75008356281121,108.32436581140384L126.79923522937298,125.84318364504753L126.88860189584891,103.87202161908479L127.21479022848607,100.49361392158194L127.46948522794247,91.38943719685582L127.9475968935887,83.31587090359376L128.57763189224403,79.83155221789558L128.7518968918721,34.40670339903133L128.8814785582622,7.876901671292728L129.2702235574325,43.856097641388004L129.48470355697472,40.863306259881966L129.49364022362232,17.954424323333853L129.6634368899266,44.25752957170039L129.76620855637393,77.89644508857026L130.08346022236347,116.30368410644039L130.7134952210188,66.59045300061676L130.99946855374176,12.435051097675768L131.33906188635032,20.632214130712782L131.43736521947383,26.154316856419598L131.4731118860642,68.3820314965158L132.1522985512813,49.97229185423964L132.25060188440483,68.26065264954573L132.3980568840901,82.1905559874449L132.72871355005105,103.8433041891095L132.90297854967912,76.99014770252847L133.28725521552562,72.26728547214967L133.61344354816276,51.01719586748348L133.7251518812577,67.69262952078672L133.78324021446704,93.97586707742934L133.82345521438123,78.48330292009706L134.17645354696114,98.52988642898099L134.44008521306515,103.12256966773163L134.94947521197795,99.04486668646545L135.0165002118349,52.92417190070648L135.36949854441485,152.91791319881503L135.75824354358514,106.83571837457748L136.15592520940302,115.76505570567289L136.32125354238352,11.186489028290282L136.4776452087164,76.91513679922846L136.80830187467734,31.64202743329102L137.36237520682812,17.98816819106375L137.45621020662784,88.08351128723697L137.496425206542,99.31247538247165L137.56791853972277,51.568481299160624L137.84942353912194,77.07577049796771L137.85389187244576,113.06803252118473L137.9164485389789,110.66182407810199L138.46605353780586,76.41022956533084L138.51520520436762,68.84687961191271L138.9620385367473,57.72807273100632L139.26141686944166,87.3360914169865L140.15508353420097,62.84672395596428L140.72256186632313,76.4729721514339L140.72703019964695,55.6749300376693L140.85661186603704,74.46166999281655L140.86554853268464,83.65926162144558L141.30791353174052,48.3566931865702L141.97816353030998,97.85154676464899L142.26413686303297,106.82500078761404L142.29094686297574,111.85751161664291L142.31775686291851,96.9431600289583L142.3356301962137,86.0856467283513L142.3400985295375,99.75369468205943L142.85395686177412,57.821584685244815L143.09971519458293,76.44885895079197L143.63591519343854,94.77260097507624L143.88614185957113,107.21147616164643L144.32403852530322,90.7186092014173L144.36872185854116,103.82792612406905L144.40000019180775,120.10667897603909L144.4804301916361,81.9988893402043L144.7351251910925,73.02132708670558L144.93173185733954,90.39149272310183L145.31600852318604,86.44099504178683L145.72262685565155,80.33625847573038L145.73156352229913,98.96954598245918L145.8745501886606,132.1945541716339L145.95498018848897,92.41716566741486L147.21951851912337,94.18318187039542L147.3356951855421,96.1704475456466L147.53230185178916,102.39570221635289L147.77806018459796,124.72762421694901L148.05509685067338,138.4113661986299L148.11318518388273,110.26764330901128L148.524271849672,131.29872255835352L148.6538535160621,136.13674556760353L148.82811851569016,125.3993429062086L150.0792518463532,119.85583594384329L150.43225017893315,126.07385634205284L150.54842684535186,168.43725002628887L150.64673017847537,102.32870697956866L150.7316285116275,134.724827321359L150.84333684472244,129.51601241869585L150.91483017790318,88.32811911533985L150.96845017778872,98.63738076286133L151.160588510712,127.56793167002225L151.46443517673015,108.28663844255728L151.74147184280554,94.99202171753267L152.67088517415525,111.92925654063228L152.70216350742183,128.8653612994471L152.74237850733599,82.62168963370645L152.96579517352583,62.905383141938174L152.97920017349722,27.415124721316573L153.07303517329692,24.14560939726718L153.21155350633464,60.54448543158101L153.29645183948676,66.93332986944834L153.90414517152308,55.90920981502853L154.26608017075063,87.83725755105196L154.27054850407444,114.84578367765448L154.4224718370835,120.4679023285693L155.03463350244363,84.97162539175845L155.0569751690626,90.69112305114561L155.17315183548132,101.32792228918285L155.37869516837597,89.13113765922289L155.44572016823292,61.048630327661996L155.81212350078422,82.31740859045865L156.0042618337075,84.18932898371717L156.1204385001262,74.21974917714688L156.30364016640186,86.76881404962107L156.49577849932513,102.79437950073157L157.08559849806628,90.08905123731658L157.11687683133283,111.8645155370446L157.13475016462803,109.11494409848467L157.5905201636553,114.53861207781108L157.76925349660712,133.02637593839637L158.18927682904402,148.04272398141856L158.25183349557716,147.79496288854185L158.33226349540553,148.50286051369707L158.51993349500498,166.63852431567784L159.73532015907765,163.95513511548666L159.97214182523888,173.85385189975273L160.50387349077067,132.59058841620418L161.31711015570164,156.05671801545722L161.4824384886821,111.67563576129983L161.902461821119,119.09759000424341L162.61292681960265,111.74932163036297L162.72910348602136,135.862030630847L162.9078368189732,64.54860460185938L163.11338015186786,89.77388135854277L163.40382181791463,118.72597700429435L163.43510015118122,71.68680486394776L163.47084681777162,87.15100178961059L163.6853268173138,71.13601402532062L163.72554181722802,66.22778884177168L163.989173483332,36.558956295177296L164.04726181654135,88.49810191500895L164.69517014849185,100.38725683798418L164.74879014837742,132.74152008155735L164.89624514806272,136.93070144328777L165.08391514766217,140.7891414338841L165.37435681370894,176.03677649113692L165.7050134796699,146.21121602830314L165.91502514588834,122.96530265392107L166.2054668119351,103.3771474568533L166.3350484783252,142.9702064255532L166.39313681153456,146.86886834091936L166.70145181087653,142.11638488783257L166.71485681084792,122.51919816346954L166.90699514377116,117.26780359348815L167.1259434766372,85.12486838279942L167.3761701427698,126.39970528724673L167.96599014151096,116.46479418497591L168.00173680810133,104.16181301457394L168.0330151413679,97.49053189050753L168.448570140481,99.12595215819366L168.50219014036654,94.90936886274L168.5915568068425,110.56981003737046L169.10094680575529,133.96939037993704L169.11882013905046,136.20925659900593L169.239465138793,120.15602527073477L169.24840180544058,59.36769332429999L169.65055180458228,50.37251373081594L169.96333513724804,6.845107517048348L170.08398013699053,-42.16960787819286L170.11525847025712,-35.00646103280894L170.1286634702285,17.63558344561804L170.24037180332343,54.61996022372573L170.84806513535978,97.61258132209903L171.25915180114905,121.71186143451752L171.2904301344156,109.24772167009868L171.69258013355733,102.7100383482467L171.73279513347148,70.00497805731834L171.78641513335702,122.89409486102454L171.8713134665092,116.60292323955113L171.94727513301373,67.03380567369085L172.18856513249875,28.485003767646077L172.2421851323843,93.92235438912722L172.3538934654792,61.60482575772427L172.51922179845968,86.35432680241895L172.7783851312399,118.87109966369518L172.98392846413455,47.66905770509143L173.06882679728668,103.24365343108093L173.10010513055323,113.12757260095407L173.30564846344788,113.86931937863982L173.53800179628533,117.02024584465028L173.5514067962567,125.2323642552138L173.70779846258958,136.29836477074136L174.28868179468316,161.76100841784137L174.52103512752055,182.14112730280104L174.52550346084433,133.28365170587097L174.6193384606441,118.71347367378516L174.86509679345292,39.7595961774193L175.2538417926232,23.60926024020182L175.258310125947,72.61896074228551L175.42810679225127,72.75266242126374L175.58449845858414,62.827618707350666L175.62471345849832,92.3593521855646L175.79897845812638,75.69569801187326L176.01792679099242,92.14207137737898L176.26368512380122,63.295578518154514L176.4066717901627,84.88903674670479L176.8311634559234,72.21599216854038L177.5103501211405,110.14189240913838L177.7292984540065,121.47796871310977L177.8901584536632,14.164680679860396L178.16719511973858,63.27672214736111L178.51125678567092,25.58196873401667L178.5246617856423,33.78017452995178L178.86425511825087,40.77269724239329L178.9580901180506,54.86543640630926L178.99383678464096,42.8796047161851L179.0519251178503,79.3743178042482L179.0608617844979,95.16377340665642L179.08767178444066,101.50339884757658L179.52556845017276,76.17656295571318L179.53450511682033,106.28147504466723L179.9232501159906,112.36058906965081L179.93665511596203,59.248823365820314L180.05730011570455,72.4089591151544L180.82138511407376,63.52981688478884L180.85266344734032,88.8053735947022L181.1475734467109,121.04167138761723L181.1699151133299,94.24634529712637L181.63462177900473,102.1521731769503L181.7105834455093,114.27997825240655L182.00996177820363,135.8939751364319L182.09932844467957,144.55980521213297L182.5774401103258,130.81599964463746L182.80979344316324,103.98455165027947L182.87681844302017,102.0440087560655L182.94384344287715,94.3065502853777L183.0153367760579,128.1604437433307L183.07342510926722,99.53725111320296L183.2298167756001,51.2723921523569L183.31471510875224,-55.332358834675716L183.34599344201882,-10.98657940319427L184.38711510646343,9.279360684454304L184.65521510589122,30.005165855989247L184.78926510560512,46.18085283642941L184.87416343875728,71.06747362135143L185.27184510457516,103.96519153730867L185.44611010420323,113.94189920039277L185.4639834374984,127.23684779905217L185.50419843741258,118.42738860491507L185.53100843735535,65.13970691555983L185.64271677045028,57.22777484878257L185.89741176990668,60.20377718054087L186.54978843518097,74.35581946571389L187.06811510074138,94.28391472022781L187.21557010042667,99.60587891111628L187.7026184327205,79.20919177786115L187.72942843266327,115.1063263426159L187.76964343257742,106.25289754593884L188.34605843134722,117.75291571828885L188.4979817643563,110.53583770053741L188.81970176366963,121.21179921043219L189.64187509524822,127.78907113151223L189.72677342840038,111.5408320583218L189.91891176132359,147.77952495828822L190.2272267606656,141.56377748668285L191.18791842528185,120.51201115611701L191.6392200909853,113.31848751265433L191.8849784237941,116.63085266272368L191.95200342365106,118.41504007967612L192.260318422993,142.15226190484765L192.41224175600212,148.20320676050795L192.74289842196305,88.64160716512298L192.8143917551438,112.61070830182568L192.86354342170554,110.82672252927846L193.01546675471465,144.59925413312044L193.37293342061838,136.34724521649855L193.64550175336996,123.25554374034266L193.64997008669377,123.8765879376264L193.90913341947396,105.34708263397518L193.9985000859499,90.10483363238245L194.19063841887314,42.35593834466769L194.21298008549212,61.572223729657765L194.5347000848055,98.7743093773693L195.1647350834608,101.61686443133534L195.26750674990814,111.93539431330247L195.27197508323192,126.61965796921973L195.87966841526824,126.8922548363453L196.30862841435274,62.760193570153504L196.57226008045674,68.40301962418278L196.6214117470185,81.99960242401286L197.89041841097674,120.62376762916787L198.0736200772524,128.43042217640408L198.38640340991816,146.33880448216928L198.51151674298444,131.58742487638574L198.73940174249807,64.16170957812965L199.17283007490636,99.79834767734522L199.20857674149673,108.8125336915865L199.31134840794405,73.74188568621307L199.333690074563,115.92406498195079L199.4096517410676,130.01802211913053L199.6375367405812,93.64299899375558L199.80733340688548,72.31668816181005L200.71887340493996,93.3869595686129L201.04059340425334,96.1946299869298L201.50976840325197,116.26239665325384L201.89851340242228,96.50631619172415L201.95213340230782,80.52417531724642L202.0951200686693,81.86890180346104L202.2202334017356,96.362887674581L202.60897840090593,108.209800828379L202.6536617341439,32.399829175483546L202.6804717340867,-2.7436256311650595L202.69834506738187,32.52097953693064L202.83686340041956,37.83222441175002L202.84580006706713,62.241244542802505L202.90835673360027,90.37195276434375L202.9351667335431,112.20132759459806L203.26135506618024,90.7091058570217L204.365033397158,92.37562960246409L204.39631173042457,102.61765503833787L204.7582467296521,98.90593460628624L204.8744233960708,106.7889175660516L205.2765733952125,87.07144767320779L205.39721839495502,129.2022360068072L205.71000172762078,175.03087660964204L206.01384839363894,143.0805087431311L206.08534172681968,171.15494315654593L206.38025172619024,132.98222873644488L206.5947317257325,150.49768160251978L206.66622505891323,125.66903311687378L206.79580672530332,91.49732594981816L206.90751505839825,80.06487472184571L206.9924133915504,104.53446935537995L207.6358533901771,107.54914748845343L207.67160005676746,88.0502186090752L207.95757338949045,84.35960252783582L208.07821838923297,77.48773853390378L208.6814433879455,45.055320035752885L208.71272172121206,100.81237021978964L208.7931517210404,81.11075743279429L209.25339005339146,94.6355624258812L209.36063005316257,120.80739657867602L209.40531338640056,110.25244409162109L209.4678700529337,109.1742024315877L209.7449067190091,110.94173101638128L210.04875338502725,83.73793514890777L210.16939838476975,142.7981834714252L210.4643083841403,155.3712627001634L210.5223967173497,121.88976293311941L210.66538338371117,99.42437402757811L210.7458133835395,40.500147885831154L210.79049671677748,21.365641757535684L210.8843317165772,60.04424468665289L211.37138004887106,54.67031254730969L211.6841633815368,88.63204095610826L212.1220600472689,138.21868372374766L212.64485504615308,149.70847869168227L212.81465171245733,143.22977672932208L212.96210671214263,124.00323650302205L213.03806837864718,89.5725623047812L213.21233337827525,101.61815868308135L214.29367004263403,140.79036766670094L214.36516337581475,132.49985279244356L215.00860337444146,107.99568250445745L215.24095670727888,45.88010384342692L215.43756337352593,56.081855635621594L215.5939550398588,55.56182972672367L215.7280050395727,101.6705689879842L215.83524503934382,123.2568566550794L215.94248503911496,133.36693660652466L215.97823170570533,119.50266246213243L216.02738337226708,109.21692319377466L216.0318517055909,108.82507306209622L216.29995170501869,93.90861693390967L216.42059670476118,119.36233378540089L216.43847003805638,93.54832041264591L216.50549503791333,123.18956247425088L216.62167170433202,99.55486068585373L216.67082337089377,109.15066256013895L216.71997503745558,113.20397879627386L216.86743003714085,133.15684822012292L217.24723836966356,148.63447744320894L217.48406003582477,112.3660933595859L217.50193336911994,121.79522555486706L217.56002170232932,99.62244463768413L217.91748836823305,110.360900083089L217.93536170152822,138.17097199455168L218.05600670127075,139.136820951096L218.09622170118493,80.89263908847676L218.48496670035522,124.40369188750732L218.51624503362177,130.09802094721908L218.71285169986885,117.62326550627012L218.94967336603005,102.01856123473608L219.10606503236292,130.22200231159943L219.12393836565812,169.2637352012936L219.3965066984097,144.9847271993242L219.82993503081798,163.8987868821883L219.99973169712226,83.90559131539204L220.20527503001688,82.92868344814445L220.20974336334072,78.94758291587954L220.2231483633121,102.44992785837735L220.47337502944467,79.91060789889144L220.84871502864362,100.65175941476353L220.9559550284147,102.01231224756053L221.17490336128077,54.680433509910856L221.2374600278139,106.43074811763631L221.89877335973583,150.6346530545306L222.0328233594497,92.30477308311998L222.29645502555368,98.32319912027704L222.52434002506732,95.86485299514247L223.44481668976943,112.52573248213102L223.4850316896836,84.25968675049157L223.57439835615952,104.23969479523082L223.71291668919721,103.37745848170869L223.72185335584481,52.945908933577115L224.32507835455738,87.38465904775698L224.48593835421403,87.52622770537158L224.68254502046108,82.9238465467901L224.94617668656508,58.60511555313373L224.99979668645062,72.83108100096862L225.50471835203965,87.23290603110429L225.67004668502014,33.0860681558095L225.8085650180578,69.57473331312933L225.9649566843907,91.42635290074185L226.6352066829602,129.98813111805904L226.67542168287434,115.82989907089637L226.79606668261687,104.04239353297899L226.93011668233075,35.796785356893224L227.08204001533986,32.61933961184744L227.28311501491072,34.71577324295498L227.3188616815011,41.02871285098897L227.44397501456737,61.25609598150572L227.9488966801564,37.39259615706948L228.02039001333713,87.9497351578549L228.12316167978446,150.93614827172703L228.29742667941252,166.89481890995773L228.37338834591708,164.59980798483218L228.75766501176358,142.39471744327804L228.79788001167773,110.64654297059876L228.94980334468684,114.51257172214378L229.4100416770379,67.4300958438514L229.46366167692344,119.74255015043212L229.6379266765515,77.29412124589103L229.87028000938892,86.17886602399328L231.15716000664233,147.69925521675032L231.25099500644205,136.42301132406823L231.8810300050974,91.4998252489591L232.07316833802062,100.27889481161198L232.30999000418186,145.05732584681695L232.34126833744844,53.81137763739753L232.43063500392438,34.04413269522411L232.54234333701928,75.1800090738774L232.5468116703431,61.4110197022857L232.9489616694848,63.47182194836371L233.18131500232218,93.60209339897713L233.44941500174997,131.72387235320588L233.48069333501658,128.92805365820487L233.61027500140668,111.7482463160515L233.84709666756788,97.63234769962193L233.86497000086308,34.72943818144341L233.92305833407244,81.76751920594482L233.98561500060558,43.664162451692704L234.09285500037672,53.291299598947845L234.14647500026226,40.763775446460556L234.28946166662377,52.48304624257072L234.32073999989035,44.624814002517326L234.3832966664235,80.48821331596106L234.8882183320125,79.51440215425491L234.93736999857427,63.70486581057436L234.96417999851704,38.930762701983326L235.1473816647927,70.90571731851541L235.16525499808787,57.401892021545635L235.22781166462104,87.04563910103519L235.33058333106834,113.2064184698149L235.80422666339078,72.66599988504541L235.99636499631404,71.02986794429306L236.19297166256112,83.6024401756103L236.27340166238943,82.4171399970018L236.34489499557017,53.4926093682208L236.47894499528408,4.31186393300365L236.78725999462606,65.87815921909932L237.34580166010062,117.737433155433L237.53793999302388,90.06695226836199L237.54687665967148,93.67543294646258L237.71220499265192,45.38449415324618L237.71667332597573,50.025516429686135L237.76135665921367,61.60920695951691L237.79710332580407,84.77248717944734L237.908811658899,36.07232620601292L238.27968332477408,54.270836019296596L238.30202499139307,109.7389957332951L238.36904999125005,132.72920627446922L239.2359066560666,84.93728116463214L239.8525366547505,83.47018404896616L240.7998233193954,81.44105003755796L241.14835331865152,23.983769968727557L241.3181499849558,51.126801741362" fill="none"></path></g></g></g></g><g opacity="0.2"><g><g><g><path style="fill: none;" stroke="rgb(255, 112, 67)" stroke-width="2px" d="M22.52933661858241,82.71334540223387L22.542741618553798,107.33759901143029L22.65891828497251,129.07720251793558L22.761689951419832,121.48667633752817L23.08787828405698,57.93526661154736L23.36491495013237,158.08358231279635L23.38725661675135,132.55410634988857L23.48109161655108,89.76412204651959L23.56152161637942,139.59626792438223L23.7179132827123,72.34341119622763L23.72684994935989,99.39377237669655L23.762596615950265,216.14784890436817L24.459656614462535,88.7601399115608L24.73669328053792,78.57815830873244L24.928831613461178,160.62359702863284L24.960109946727755,81.80624053920377L25.17458994626999,146.5628396367989L25.232678279479344,60.27498123094881L25.339918279250462,22.051230314774784L25.53205661217372,164.89752464458002L25.56780327876409,82.1954357365123L25.849308278163274,99.84773252409633L25.925269944667814,101.16886623854698L25.952079944610595,105.90180680606979L26.0771932776769,102.33198960662301L26.680418276389442,65.96293825010287L26.872556609312692,171.5777052283803L27.104909942150115,110.11363067438745L27.274706608454384,172.77547947451376L27.614299941062924,110.52854291022493L27.97623494029045,142.33839922693699L28.22199327309926,87.5589172066841L28.235398273070654,137.8814966773532L28.297954939603805,70.44230605542758L28.31582827289899,125.75492576395868L28.53030827244123,67.61380970025948L28.561586605707802,38.784168664364756L28.758193271954852,141.57355958465155L28.89224327166875,139.2993977240834L29.14693827112516,73.26038963417909L29.27651993751526,117.90362052595961L29.348013270696004,79.97213781371606L29.41950660387675,180.22843745375917L29.897618269522983,188.61131470684222L30.08975660244624,104.8321392526885L30.10316160241763,76.48423780700732L30.581273268063864,85.2012542489856L30.67957660118739,106.62207337884817L30.72872826774915,139.31790736229766L30.907461600701016,90.3431924097145L30.983423267205556,67.45293539840185L31.041511600414914,215.58943062139429L31.43919326623281,104.79342620127612L31.707293265660606,40.18022763085264L32.113911598126094,109.27993013950478L32.16753159801165,94.78840710393592L32.310518264373144,113.90325479977344L32.33732826431592,143.1665287496494L32.44903659741084,119.61789566341616L32.65011159698168,94.72585862556494L33.016514929533,122.49728026462031L33.226526595751444,137.5762975818264L33.302488262255984,153.95488994550215L33.31142492890358,116.37290814016319L33.33376659552256,65.40076323539971L33.44547492861748,235.40782577643336L33.44994326194127,154.75089278240284L33.503563261826834,148.6069834431114L33.52590492844581,77.30960502697764L33.655486594835914,127.41431173608754L33.72251159469287,89.55571735383921L33.749321594635646,-8.889795605701721L34.339141593376795,-21.64719691107257L34.58489992618561,8.968292736168678L35.59921159068743,184.72100243666455L35.916463256677,39.30049387323345L35.92986825664838,80.70034932164128L36.18903158942859,205.7862170754836L36.46606825550398,143.6421177275198L36.77438325484594,22.343044396134474L36.83693992137909,134.46215702470334L36.84587658802668,124.21772859624491L36.85034492135048,-54.43253944765593L37.10950825413068,107.11148989178498L37.89146658579509,162.20760307369312L38.50809658447901,72.50827205340265L38.517033251126605,75.91557248578135L38.74044991731643,181.72091183515727L39.05770158330599,62.201826613620824L39.29005491614342,171.33667774031574L39.38388991594314,69.58398787850733L39.41516824920972,116.43642231957281L39.89327991485595,64.70767274945864L40.01839324792226,26.722730639786732L40.143506580988564,-1.6142879546087272L40.37585991382599,69.53492275228108L40.65289657990138,117.07022052961528L41.09079324563344,95.11119764824551L41.22931157867114,-24.73173000248471L41.25165324529012,76.31897475855305L41.63146157781283,167.4525088314365L41.64039824446042,15.87867258128449L42.00233324368795,59.696183783264814L42.413419909477234,60.76527007909158L42.489381575981774,77.4295663104615L42.5832165757815,140.54597854490646L43.18197324117025,117.45542364700094L43.19984657446543,98.61644823093792L43.23559324105581,86.43902774374575L43.73604657332102,220.67269526203881L43.798603239854174,79.20435245178645L43.968399906158446,139.20674567042903L44.02201990604401,98.2263005916439L44.20968990564346,14.77465310006005L44.553751571575795,95.76522696357111L44.90674990415573,134.58794787189413L44.915686570803324,103.9044819595088L45.156976570288336,108.0629507073266L45.282089903354645,75.6800961213073L45.751264902353284,118.99921608874175L46.22490823467572,63.44536227190099L46.28746490120888,53.486147126169726L46.56003323396047,82.6821137025106L47.13644823273023,122.31032430027179L47.71733156482379,205.60898773155054L47.91393823107084,213.4983365078349L48.29374656359355,160.88494622551048L48.383113230069476,79.72297589653658L48.54397322972615,16.106507311452788L48.57525156299273,-129.9322753206102L48.736111562649405,158.22083119176136L48.82994656244914,185.3905757819805L49.10698322852453,105.95148405858369L49.19634989500046,160.6284719405121L49.692334893941876,184.79511170447176L49.737018227179846,134.23137436504868L50.04533322652181,127.23393999655508L50.10342155973117,71.55575935297685L50.130231559673945,49.88477614249996L50.1883198928833,130.13506060557626L50.44301489233971,142.0855667618738L50.54578655878703,100.07701249105929L50.83175989151001,58.546071413564604L51.47519989013672,113.20201662566427L51.716489889621734,80.17914478120893L51.846071556011836,169.04186269460547L52.087361555496855,123.23449245980038L52.26162655512491,159.19429319618325L52.27503155509631,47.67476158112993L52.32865155498187,126.82186630301538L52.46716988801956,-23.941322486018407L52.96762322028478,141.9063573993352L53.468076552549995,155.74931274456014L53.58425321896871,182.12655930759774L54.09364321788152,49.13285523767877L54.12938988447189,157.06023091100997L54.312591550747555,200.943356747405L55.00965154925982,-22.63527923144784L55.224131548802056,76.09144277676529L55.32690321524938,80.20288290605345L55.63074988126755,57.14866444333859L55.67543321450551,145.98965518828686L55.6888382144769,94.35695198943657L55.75586321433385,207.8344137323793L55.90331821401914,125.9444727682793L56.71655487895011,111.18000825614531L57.015933211644494,200.13422744787385L57.342121544281646,209.5668504579046L58.048118209441505,140.0822254818254L58.38324320872625,131.67231743902926L58.89263320763906,208.659568807499L59.075834873914715,112.69271153298435L59.58075653950373,53.9128057781877L59.710338205893834,-93.04081616458325L59.73267987251282,85.26074541068164L59.77289487242699,-22.374553210068825L60.17504487156868,49.08218355617771L60.18844987154007,139.60311843518264L60.313563204606375,144.13871788496772L60.35824653784434,97.28361837421667L60.77380153695742,75.11932656623935L60.92572486996651,44.52558618586829L61.193824869394305,116.63369603712363L61.74789820154508,130.73385933495524L62.01152986764908,90.26092992913371L62.12770653406779,143.71279732024243L62.14111153403918,98.11945693142172L62.23494653383891,111.09874296685442L62.266224867105485,69.20330941301324L62.52538819988568,108.4413745813226L62.55219819982847,157.74472069113324L62.80242486596108,87.2846846298173L63.71843319733937,-81.09801572801507L63.968659863471984,45.83239404583787L64.11164652983348,-35.46074367638403L64.50039152900378,103.37879295868981L64.64784652868907,95.8113773079439L65.000844861269,154.78453100027502L65.03212319453557,219.86482115287367L65.09021152774493,100.62670548836171L65.35831152717272,176.55810171490907L65.49236152688663,99.322229564367L65.59513319333395,136.92263731014714L65.67556319316228,-89.35357955263589L66.3234715251128,167.98165112502852L66.60944485783577,136.90679274161846L67.28416318972906,180.37897190399258L67.40033985614777,81.44705941856978L68.2582598543167,97.17483889223283L68.28953818758328,91.29675368026122L68.7944598531723,-6.181006402165167L68.80786485314368,45.84293941278611L68.90169985294342,167.5081305594514L69.16533151904743,225.40435633093148L69.35746985197066,64.75978524806999L69.73727818449338,120.83533308538898L69.87579651753107,135.4532469403042L69.94728985071183,-33.79411605138651L70.02325151721637,211.22056376512228L70.20198485016823,81.09901811243411L70.40350668307146,124.75736101073034L70.40797501639526,149.11448254225854L70.50627834951878,130.58238128210513L70.66267001585166,30.175149420233765L70.7779530156056,109.00371754403247L70.81816801551977,116.08758768008963L71.05052134835721,162.20863727983976L71.0639263483286,143.4556733416391L71.21584968133767,85.29869724051586L71.23372301463286,125.73360299663187L71.33649468108018,129.69236070907436L71.36330468102295,128.09811867497297L71.37224134767055,125.52536514703712L71.5777846805652,93.58017809438417L71.94418801311653,33.15313276043548L72.02908634626866,121.92802823029191L72.06930134618283,95.18585274707456L72.373148012201,130.2311887410013L72.38208467884859,-115.36623309150718L72.65018467827639,120.80584716099872L73.36064967676003,15.656035399955726L73.59479034292698,66.98096393220247L73.68415700940291,115.25684943866759L73.8226753424406,79.5136972112686L73.86289034235477,86.1996742111429L73.93885200885933,119.37772227935946L74.01481367536385,84.30556101104365L74.38121700791518,149.56311144536608L74.48398867436251,61.092384179653095L74.54654534089565,97.90050355702982L74.8772020068566,-7.037691505704316L75.3865920057694,77.39372487992222L75.81555200485388,53.98902765513206L75.83789367147287,162.49268155604648L75.99875367112955,145.08246193156901L76.13727200416724,156.98116275732013L76.57070033657551,139.1743162362368L76.68687700299422,80.36476710579359L76.70475033628941,44.124840143413394L76.77624366947016,21.61590024198881L76.96391366906961,132.72436143185837L75.90045033800602,76.04835748351513L75.91385533797741,128.22381007926504L75.98534867115816,76.76754620576355L76.41430867024263,97.83273874616066L76.65113033640385,54.64545685908L77.60288533437253,64.5787240377731L77.72799866743883,70.23047942211029L78.20164199976126,-67.1544948842402L78.52336199907461,176.03125323751408L78.80039866515001,-39.91255032986919L79.14892866440614,201.03424313714663L79.22489033091068,119.82836987331092L79.34553533065319,115.71836172176427L79.43937033045292,110.38927976010038L79.49299033033849,18.284775279868427L79.56001533019543,74.95648771467154L79.81471032965183,19.04706476426236L79.9934436626037,86.91724753874774L80.14089866228898,150.85953746670975L80.63241532790661,121.47744693160627L80.86923699406783,82.39915445882097L80.88711032736302,74.56282421644738L80.97647699383896,148.56986693362637L81.32500699309507,66.36343237054768L81.51267699269454,143.68518313219022L81.74056199220816,73.63165859161249L81.84333365865548,99.83399448763878L82.10696532475949,188.62393732545252L82.12037032473087,148.87654883326513L82.54039365716775,125.73323616282772L82.69231699017683,126.49433675212146L82.84870865650971,35.31176849080248L83.0229736561378,78.47580725769L83.43406032192708,-71.60465741513326L83.5323636550506,89.92719403643883L83.89876698760192,69.21131346143875L84.52880198625724,79.33055874930965L84.82371198562781,78.76290995549277L84.85499031889438,91.65927829213425L84.89520531880856,65.50368884541251L84.97116698531309,134.47740272599754L85.02478698519866,145.76935160031462L85.05159698514144,-9.528289730405731L85.31522865124543,40.79531510704123L85.53864531743525,118.7285015806473L85.7486569836537,65.10899777056828L86.03016198305289,151.3339994250614L86.36528698233764,152.26201823461247L86.39209698228042,-16.99906787710097L86.52614698199432,84.40117646307976L86.56636198190849,116.16987888861894L86.61104531514644,68.85183401210861L87.02213198093573,-113.46039446872828L87.06234698084991,157.19846537959336L87.0802203141451,162.9743475999495L87.15618198064962,73.28847672846075L87.44215531337261,126.6455584632771L87.52705364652475,193.2242453743529L88.1302786452373,19.924283721465144L88.41178364463647,113.3488727935663L88.6173269775311,65.6320276406526L88.81393364377817,179.32808586847295L89.19821030962467,145.92718736915594L89.45737364240487,22.507907463151696L90.12315530765056,142.01178897039563L90.13209197429815,4.67175843458017L90.27507864065964,97.26241825313161L90.41359697369734,88.30737528878778L90.67722863980134,60.23053246506515L91.31620030510426,66.14062282152781L91.42344030487537,90.27985391275928L91.46365530478954,50.708481561140616L91.70941363759836,114.28785352531912L92.38413196949163,-62.146214608911606L92.4466886360248,154.6075049618238L92.90245863505204,121.89341878677561L92.99629363485178,36.42186061837515L93.59058196691672,143.0599701590702L93.91230196623007,144.24870173094712L94.0106052993536,115.74634384854173L94.08656696585814,108.83352489010464L94.29211029875279,98.77699381876924L94.44403363176187,43.074480050335865L94.73447529780864,10.771904059067992L95.09194196371237,142.72841427569938L95.43153529632092,-7.007328273963168L95.5923952959776,-100.40088121737517L96.088380294919,26.53423110066592L96.09284862824282,195.85449678632608L96.2447719612519,84.72253392472675L96.30732862778504,152.31914265531907L96.49499862738449,79.23491456932503L97.24121029245853,-31.731325596643757L97.37972862549623,94.39085538837199L97.53165195850531,52.83543257413464L98.01423195747535,148.99698523282063L98.16168695716064,63.85557085862922L98.24211695698897,40.76539384373882L98.25105362363655,49.01358121511714L98.35829362340768,152.8627240578046L98.36276195673148,114.56984264828571L98.37616695670286,102.0343117090024L98.461065289855,162.61180530933893L98.61745695618788,98.8130153514473L98.75597528922557,121.56269380406962L98.93024028885365,47.38927206812855L98.97492362209161,17.19817819449895L99.37260528790951,166.23307371212059L99.43516195444266,-37.84803619821537L99.56474362083276,163.68196116878744L99.60049028742313,189.71961244255363L99.73007195381322,53.44872565846197L100.1724369528691,91.14750867294782L101.20462195066611,-36.81919554841991L101.3297352837324,134.83303263022628L101.36995028364659,196.27814121359188L101.49506361671288,223.78629219798222L101.65145528304578,65.27961084697347L101.70507528293133,98.50713949174869L101.99104861565431,177.0012457896919L102.59427361436686,184.1847356118401L102.83556361385186,27.82749262798825L103.42985194591681,131.46125541111098L103.43432027924061,-16.19558693421689L104.05988694457213,94.28461280522649L104.6005552767515,230.08823177222803L104.6318336100181,71.06526056982568L105.19037527549267,-1.5749262454548898L105.6952969410817,54.02123389526274L105.78019527423382,68.69807098243022L105.90530860730011,93.97006055261494L106.00361194042365,36.93879132400491L106.09744694022338,56.724622244477914L106.40129360624155,59.07665010458254L106.63811527240277,105.27849181116385L106.89727860518296,293.4990347640305L107.09388527143001,82.71334761207605L108.05010860272249,128.71943348646334L108.13053860255083,150.99812109035975L108.22884193567434,106.77038997620994L108.25565193561714,33.165658145989255L108.74270026791096,69.46291504440006L108.80525693444412,127.70806384905109L108.85440860100587,130.6990233826141L109.10016693381469,93.94452361622479L109.14931860037645,157.26200276234601L109.17612860031922,113.95370549705513L109.43976026642322,24.546336617551333L109.56040526616573,82.81067790165446L109.66317693261306,39.92639189743352L109.97596026527881,132.86540460986993L110.07426359840234,127.46922852444266L110.22171859808763,214.06774212619575L110.32895859785874,139.67087661652522L110.50769193081061,11.980086661933683L110.58812193063895,-32.84519213468323L110.61493193058173,113.82232595895653L110.62833693055312,59.65961973432819L110.96793026316166,121.42521841627976L110.97239859648546,205.65678219851543L111.1824102627039,-51.17443651098347L111.32092859574159,140.80618304352777L111.4415735954841,105.20581534978896L111.45497859545549,26.903150995847454L111.47732026207447,73.15012955792547L111.79457192806403,142.94272035195797L111.84372359462579,-14.487149094914912L112.06267192749183,120.59313769572506L112.31736692694824,65.34983521220418L112.51844192651907,131.75016575982818L112.70164359279472,108.17551426783685L112.7597319260041,1.7117897279413228L112.7642002593279,83.56643067283949L112.86250359245142,82.98135064379886L112.93399692563216,29.48466212839685L113.42998192457358,20.533917307119737L113.52381692437332,89.53395593283696L113.83213192371528,129.88969077760112L113.84553692368667,213.3035344987777L114.0644852565527,-94.05191620124788L114.17172525632381,151.60043567866887L114.76154525506497,46.864080972378815L115.11901192096869,92.99213356204072L115.17710025417806,196.48666192298742L115.46307358690103,123.17733489146087L115.7535152529478,105.77967255713385L115.85628691939513,160.12584333355983L116.23162691859405,86.17430080307508L116.24503191856543,69.7697450034658L116.26737358518442,20.581897400828893L116.56675191787879,104.88384797169653L116.64718191770713,151.66730992313398L116.98230691699187,77.98158710028468L117.15657191661992,22.912485371970433L117.8625685817798,106.72519621727675L118.05023858137926,-92.14033198876541L118.05470691470305,195.10747289180608L118.34514858074982,167.24213185459826L118.3719585806926,47.62892503434864L118.48813524711132,24.833810568842637L118.58197024691106,96.19263917177713L118.60878024685383,72.61483064398186L119.31477691201368,79.22277369631297L120.38270857640107,15.001816038201468L120.44079690961044,97.1876620540222L120.59272024261952,-12.487816468605843L120.69996024239065,117.79136164744182L120.76251690892379,52.23244619379864L120.8876302419901,145.13601082760624L121.3970202409029,183.14314859227147L121.55341190723578,223.54218418989967L121.71874024021625,98.69233973647434L122.12535857268175,28.42801282443611L122.7062419047753,9.52789549455838L123.04136690406004,69.55074080270343L123.44351690320174,67.2817853303436L123.45692190317313,54.604371473015135L124.11376690177123,16.87749473472104L124.13164023506641,47.628765925710695L124.32377856798966,126.15185098926071L124.37293023455143,27.539797692477578L124.41761356778939,92.32906820198517L124.56953690079848,76.39798103666145L124.61422023403645,83.41723096729105L124.73039690045515,111.41643264292044L124.93147190002601,93.98025565957548L125.03424356647334,82.23830225538528L125.26212856598694,121.50318717347824L125.36936856575807,66.48829287417493L125.4542668989102,66.30054026171558L125.66427856512864,58.30848243995341L126.16920023071766,-38.69874588846281L126.3881485635837,169.6845510997931L126.75008356281121,144.73167158174442L126.79923522937298,152.12141039551307L126.88860189584891,70.9152785801407L127.21479022848607,95.42600237532768L127.46948522794247,77.73317210976666L127.9475968935887,71.20552146370068L128.57763189224403,74.60507418934833L128.7518968918721,-33.73056982926505L128.8814785582622,-31.91780092031516L129.2702235574325,97.8248915965309L129.48470355697472,36.37411918762291L129.49364022362232,-16.40889858148833L129.6634368899266,83.71218744425016L129.76620855637393,128.3548183638751L130.08346022236347,173.91454263324556L130.7134952210188,-7.979393658118624L130.99946855374176,-68.79805175673573L131.33906188635032,32.927958680268375L131.43736521947383,34.43747094497974L131.4731118860642,131.72360345666016L132.1522985512813,22.357682390825403L132.25060188440483,95.69319384250485L132.3980568840901,103.08541099429371L132.72871355005105,136.3224264916064L132.90297854967912,36.71041297265697L133.28725521552562,65.18299212658144L133.61344354816276,19.14206146048423L133.7251518812577,92.70578000074161L133.78324021446704,133.4007234123933L133.82345521438123,55.24445668409862L134.17645354696114,128.59976169230686L134.44008521306515,110.01159452585762L134.94947521197795,92.92831221456618L135.0165002118349,-16.256870277931995L135.36949854441485,302.9085251459778L135.75824354358514,37.71242613822119L136.15592520940302,129.15906170231602L136.32125354238352,-145.6813609877836L136.4776452087164,175.5081084556357L136.80830187467734,-36.267636615615174L137.45621020662784,193.22652593149678L137.496425206542,116.15592152532366L137.56791853972277,-20.047509825805946L137.84942353912194,115.33670429617837L137.85389187244576,167.05642555601025L137.9164485389789,107.05251141347789L138.46605353780586,25.032837796174135L138.51520520436762,57.5018546817855L138.9620385367473,41.04986240964672L139.26141686944166,131.74811944595683L140.15508353420097,26.112672764430954L140.72256186632313,96.91234444463832L140.72703019964695,24.477866867022385L140.85661186603704,102.64177992553745L140.86554853268464,97.45564906438909L141.30791353174052,-4.597159465742834L141.97816353030998,172.09382713176717L142.26413686303297,120.28518182206165L142.29094686297574,119.40627786018618L142.31775686291851,74.57163264743137L142.3356301962137,69.79937677744084L142.3400985295375,120.25576661262158L142.85395686177412,-5.076580309977089L143.09971519458293,104.3897703491127L143.63591519343854,122.25821401150264L143.88614185957113,125.86978894150172L144.32403852530322,65.97930876107363L144.36872185854116,123.49190150804668L144.40000019180775,144.52480825399414L144.4804301916361,24.837204886452128L144.7351251910925,59.554983706457506L144.93173185733954,116.4467411776962L145.31600852318604,80.51524851981434L145.72262685565155,71.1791536266457L145.73156352229913,126.91947724255238L145.8745501886606,182.03206645539603L145.95498018848897,32.751082911086314L147.21951851912337,96.8322061748662L147.3356951855421,99.15134605852339L147.53230185178916,111.7335842224123L147.77806018459796,158.2255072178432L148.05509685067338,158.93697917115128L148.11318518388273,68.0520589745833L148.524271849672,162.84534143236692L148.6538535160621,143.39378008147855L148.82811851569016,109.29323891411622L150.0792518463532,111.54057550029529L150.43225017893315,135.40088693936718L150.54842684535186,231.98234055264288L150.64673017847537,3.1658924094883787L150.7316285116275,183.31900783404444L150.84333684472244,121.70279006470119L150.91483017790318,26.546279160305858L150.96845017778872,114.10127323414352L151.160588510712,170.96375803076364L151.46443517673015,79.3646986013598L151.74147184280554,75.05009662999578L152.67088517415525,137.3351087752817L152.70216350742183,154.26951843766938L152.74237850733599,13.256182135095514L152.96579517352583,33.33092340428573L152.97920017349722,-25.82026290961585L153.07303517329692,19.24133641119306L153.21155350633464,115.14279948305182L153.29645183948676,76.51659652624936L153.90414517152308,39.373029733398766L154.26608017075063,135.7293291550871L154.27054850407444,155.35857286755822L154.4224718370835,128.90108030494156L155.03463350244363,31.72720998654222L155.0569751690626,99.2703695402263L155.17315183548132,117.2831211462387L155.37869516837597,70.83596071428296L155.44572016823292,18.92486933032069L155.81212350078422,114.22057598465366L156.0042618337075,86.99720957360492L156.1204385001262,59.265379467291496L156.30364016640186,105.59241135833233L156.49577849932513,126.83272767739732L157.08559849806628,71.03105884219411L157.11687683133283,144.52771198663663L157.13475016462803,104.99058694064477L157.5905201636553,122.6741140468007L157.76925349660712,160.75802172927433L158.18927682904402,170.56724604595183L158.25183349557716,147.42332124922677L158.33226349540553,149.5647069514299L158.51993349500498,193.842020018649L159.73532015907765,159.93005131519988L159.97214182523888,188.70192707615183L160.50387349077067,70.69569319088139L161.31711015570164,191.25591241433676L161.4824384886821,45.10401238006375L161.902461821119,130.2305213686588L162.61292681960265,100.7269190695423L162.72910348602136,172.031094131573L162.9078368189732,-42.42153444162204L163.11338015186786,127.61179649356785L163.40382181791463,162.1541204729217L163.43510015118122,1.128046653427873L163.47084681777162,110.34729717810487L163.6853268173138,47.11353237888568L163.72554181722802,58.86545106644826L163.989173483332,-7.944292524714257L164.04726181654135,166.4068203447564L164.69517014849185,118.220989222447L164.74879014837742,181.27291494691713L164.89624514806272,143.21447348588345L165.08391514766217,146.57680141977858L165.37435681370894,228.90822907701613L165.7050134796699,101.47287533405249L165.91502514588834,88.09643259234798L166.2054668119351,73.99491466125164L166.3350484783252,202.359794878603L166.39313681153456,152.71686121396863L166.70145181087653,134.9876597082024L166.71485681084792,93.12341807692499L166.90699514377116,109.3907117385161L167.1259434766372,36.910465566766334L167.3761701427698,188.3119606439177L167.96599014151096,101.56242753156968L168.00173680810133,85.70734125897097L168.0330151413679,87.4836102044079L168.448570140481,101.57908255972289L168.50219014036654,88.58449391955952L168.5915568068425,134.06047179931613L169.10094680575529,169.06876089378693L169.11882013905046,139.56905592760927L169.239465138793,96.07617827832806L169.24840180544058,-31.81480459535217L169.65055180458228,36.87974434058981L169.96333513724804,-58.44600180360294L170.11525847025712,-24.261740764733077L170.1286634702285,96.59865016325847L170.24037180332343,110.09652539088728L170.84806513535978,162.10151296965898L171.25915180114905,157.86078160314526L171.2904301344156,90.55151202347042L171.69258013355733,92.90351336546871L171.73279513347148,20.947387620925838L171.78641513335702,202.22777006658384L171.8713134665092,107.16616580734099L171.94727513301373,-7.3198706750995655L172.2421851323843,192.07838032134896L172.3538934654792,13.128532810619845L172.51922179845968,123.47857836946099L172.7783851312399,167.64625895560948L172.98392846413455,-59.13400523281416L173.06882679728668,186.60554702006516L173.10010513055323,127.95345135576378L173.30564846344788,114.98193954516844L173.53800179628533,121.74663554366597L173.5514067962567,137.55054187105907L173.70779846258958,152.8973655440327L174.28868179468316,199.9549738884914L174.52103512752055,212.71130563024053L174.52550346084433,59.9974383104759L174.6193384606441,96.85820662565648L174.86509679345292,-78.67122006712952L175.2538417926232,-0.6162436656243244L175.258310125947,146.13351149541097L175.42810679225127,72.95321493973114L175.58449845858414,47.94005313648108L175.62471345849832,136.6569524028855L175.79897845812638,50.70021675133626L176.01792679099242,116.81163142563756L176.26368512380122,20.025839229317853L176.4066717901627,117.27922408953015L176.8311634559234,53.206425301293834L177.5103501211405,167.03074277003532L177.7292984540065,138.48208316906687L177.8901584536632,-146.8052513700136L178.16719511973858,136.9447843486122L178.51125678567092,-30.96016138599998L178.5246617856423,46.077483223854415L178.86425511825087,51.26148131105559L178.9580901180506,76.00454515218324L178.99383678464096,24.900857180998855L179.0519251178503,134.1163874363428L179.0608617844979,118.84795681026881L179.08767178444066,111.0128370089568L179.52556845017276,38.186309117918086L179.53450511682033,151.4388431780983L179.9232501159906,121.47926010712618L179.93665511596203,-20.41882518992543L180.05730011570455,92.14916273915557L180.82138511407376,50.211103539240526L180.85266344734032,126.71870865957226L181.1475734467109,169.39611807698975L181.1699151133299,54.05335616139007L181.63462177900473,114.01091499668618L181.7105834455093,132.47168586559093L182.00996177820363,168.3149704624699L182.09932844467957,157.55855032568456L182.5774401103258,110.20029129339422L182.80979344316324,63.7373796587425L182.87681844302017,99.13319441474451L182.94384344287715,82.700362579346L183.0153367760579,178.94128393026017L183.07342510926722,56.60246216801136L183.2298167756001,-21.12489628891217L183.31471510875224,-215.23948531522456L183.34599344201882,55.53208974402786L184.38711510646343,39.67827081592725L184.65521510589122,61.093873613291635L184.78926510560512,70.44438330708965L184.87416343875728,108.39740479873443L185.27184510457516,153.31176841124454L185.44611010420323,128.90696069501894L185.4639834374984,147.17927069704126L185.50419843741258,105.21319981370941L185.53100843735535,-14.791815618473038L185.64271677045028,45.35987674861667L185.89741176990668,64.66778067817836L186.54978843518097,95.58388289347343L187.06811510074138,124.1760576019987L187.21557010042667,107.58882519744895L187.7026184327205,48.61416107797845L187.72942843266327,168.95202818974803L187.76964343257742,92.97275435092325L188.34605843134722,135.00294297681387L188.4979817643563,99.71022067391027L188.81970176366963,137.22574147527433L189.64187509524822,137.65497901313233L189.72677342840038,87.16847344853613L189.91891176132359,202.13756430823787L190.2272267606656,132.2401562792748L191.18791842528185,88.93436166026825L191.6392200909853,102.52820204746031L191.8849784237941,121.59940038782773L191.95200342365106,121.09132120510475L192.260318422993,177.758094642605L192.41224175600212,157.2796240439984L192.74289842196305,-0.7007922279545085L192.8143917551438,148.56436000687972L192.86354342170554,108.15074387045763L193.01546675471465,195.25805153888336L193.37293342061838,123.96923184156572L193.64550175336996,103.61799152610882L193.64997008669377,124.80815423355205L193.90913341947396,77.55282467849831L193.9985000859499,67.24146012999336L194.19063841887314,-29.267404586904377L194.21298008549212,90.39665180714289L194.5347000848055,154.5774378489366L195.1647350834608,105.88069701228439L195.26750674990814,127.41318913625315L195.27197508323192,148.64605345309565L195.87966841526824,127.30115013703363L196.30862841435274,-33.43789832913424L196.57226008045674,76.86725870522672L196.6214117470185,102.39447662375798L197.89041841097674,178.56001543690036L198.0736200772524,140.14040399725837L198.38640340991816,173.2013779408171L198.51151674298444,109.46035546771044L198.73940174249807,-36.97686336925449L199.17283007490636,153.25330482616857L199.20857674149673,122.3338127129484L199.31134840794405,21.135913678152974L199.333690074563,179.19733392555736L199.4096517410676,151.15895782490009L199.6375367405812,39.080464305693226L199.80733340688548,40.327221913891776L200.71887340493996,124.99236667881712L201.04059340425334,100.40613561440514L201.50976840325197,146.36404665273994L201.89851340242228,66.87219549942961L201.95213340230782,56.55096400552986L202.0951200686693,83.885991532783L202.2202334017356,118.10386648126092L202.60897840090593,125.98017055907599L202.6536617341439,-81.31512830385964L202.6804717340867,-55.45880784113797L202.69834506738187,85.41788728907414L202.83686340041956,45.79909172397913L202.84580006706713,98.85477473938126L202.90835673360027,132.56801509665559L202.9351667335431,144.9453898399795L203.26135506618024,58.47077325065719L204.365033397158,94.87541522062764L204.39631173042457,117.98069319214855L204.7582467296521,93.33835395820878L204.8744233960708,118.61339200569967L205.2765733952125,57.49524283394203L205.39721839495502,192.39841850720632L205.71000172762078,243.77383751389425L206.01384839363894,95.15495694336474L206.08534172681968,213.26659477666817L206.38025172619024,75.72315710629334L206.5947317257325,176.7708609016321L206.66622505891323,88.42606038840479L206.79580672530332,40.23976519923474L206.90751505839825,62.91619787988702L206.9924133915504,141.23886130568133L207.6358533901771,112.07116468806363L207.67160005676746,58.80182529000784L207.95757338949045,78.82367840597674L208.07821838923297,67.17994254300571L208.6814433879455,-3.5933077114735L208.71272172121206,184.4479454958448L208.7931517210404,51.558338252301255L209.25339005339146,114.9227699155116L209.36063005316257,160.06514780786824L209.40531338640056,94.42001536103868L209.4678700529337,107.55683994153765L209.7449067190091,113.59302389357163L210.04875338502725,42.93224134769753L210.16939838476975,231.38855595520135L210.4643083841403,174.2308815432707L210.5223967173497,71.66751328255339L210.66538338371117,65.72629066926618L210.7458133835395,-47.88619132678923L210.79049671677748,-7.3361174349074645L210.8843317165772,118.06214908032865L211.37138004887106,46.60941433829487L211.6841633815368,139.57463356930612L212.1220600472689,212.59864787520678L212.64485504615308,166.9431711435842L212.81465171245733,133.51172378578178L212.96210671214263,95.16342616357201L213.03806837864718,37.9265510074199L213.21233337827525,119.68655325053157L214.29367004263403,199.54868114213036L214.36516337581475,120.06408048105749L215.00860337444146,71.23942707247828L215.24095670727888,-47.29326414811888L215.43756337352593,71.38448332391357L215.5939550398588,54.78179086337684L215.7280050395727,170.83367787987493L215.83524503934382,155.63628815572224L215.94248503911496,148.53205653369253L215.97823170570533,98.7062512455441L216.02738337226708,93.78831429123801L216.0318517055909,108.23729786457855L216.29995170501869,71.53393274162988L216.42059670476118,157.5429090626377L216.43847003805638,54.827300353513465L216.50549503791333,167.6514255666583L216.62167170433202,64.102808003258L216.67082337089377,123.54436537156681L216.71997503745558,119.28395315047618L216.86743003714085,163.0861523558965L217.24723836966356,171.85092127783798L217.48406003582477,57.96351723415137L217.50193336911994,135.93892384778877L217.56002170232932,66.36327326190974L217.91748836823305,126.46858325119632L217.93536170152822,179.88607986174566L218.05600670127075,140.58559438591254L218.09622170118493,-6.47363370545213L218.48496670035522,189.67027108605316L218.51624503362177,138.63951453678675L218.71285169986885,98.91113234484665L218.94967336603005,78.61150482743506L219.10606503236292,172.52716392689445L219.12393836565812,227.8263345358348L219.3965066984097,108.56621519637011L219.82993503081798,192.2698764064844L219.99973169712226,-36.084202034802274L220.20527503001688,81.46332164727306L220.20974336334072,72.97593211748215L220.2231483633121,137.7034452721241L220.47337502944467,46.10162795966255L220.84871502864362,131.76348668857167L220.9559550284147,104.05314149675601L221.17490336128077,-16.3173845965637L221.89877335973583,216.94051045987203L222.0328233594497,4.809953126004075L222.29645502555368,107.35083817601262L222.52434002506732,92.17733380744059L223.44481668976943,137.51705171261386L223.4850316896836,41.86061815303242L223.57439835615952,134.20970686233966L223.71291668919721,102.08410401142551L223.72185335584481,-22.701415388620262L224.32507835455738,139.04278421902683L224.48593835421403,87.73858069179349L224.68254502046108,76.02027480891786L224.94617668656508,22.127019062649197L224.99979668645062,94.17002917272094L225.50471835203965,108.83564357630783L225.67004668502014,-48.134188657132654L225.8085650180578,124.30773104910907L225.9649566843907,124.2037822821606L226.6352066829602,187.83079844403483L226.67542168287434,94.59255100015235L226.79606668261687,86.36113522610295L226.93011668233075,-66.57162690723544L227.08204001533986,27.8531709942788L227.28311501491072,37.860423689616255L227.3188616815011,50.49812226303993L227.44397501456737,91.5971706772809L227.9488966801564,1.5973464204150787L228.02039001333713,163.78544365903304L228.12316167978446,245.41576794253524L228.29742667941252,190.83282486730377L228.37338834591708,161.15729159714385L228.75766501176358,109.08708163094681L228.79788001167773,63.02428126157986L228.94980334468684,120.31161484946134L229.4100416770379,-3.193617973587152L229.46366167692344,198.21123161030323L229.6379266765515,13.621477889079415L229.87028000938892,99.50598319114663L231.15716000664233,239.97983900588588L231.25099500644205,119.50864548504507L231.8810300050974,24.115046136295405L232.07316833802062,113.44749915559129L232.30999000418186,212.22497239962445L232.34126833744844,-83.0575446767316L232.43063500392438,4.393265281963977L232.54234333701928,136.88382364185736L232.5468116703431,40.7575356448981L232.9489616694848,66.56302531748075L233.18131500232218,138.79750057489724L233.44941500174997,188.90654078454895L233.48069333501658,124.73432561570343L233.61027500140668,85.97853530282144L233.84709666756788,76.45849977497755L233.86497000086308,-59.62492609582435L233.92305833407244,152.32464074269694L233.98561500060558,-13.49087267968551L234.09285500037672,67.73200531983059L234.14647500026226,21.972489217729617L234.28946166662377,70.06195243673596L234.32073999989035,32.83746564243722L234.3832966664235,134.28331228612672L234.8882183320125,78.05368541169564L234.93736999857427,39.99056129505357L234.96417999851704,1.7696080390967381L235.1473816647927,118.86814924331355L235.16525499808787,37.146154076090966L235.22781166462104,131.51125972026955L235.33058333106834,152.44758752298446L235.80422666339078,11.85537200789122L235.99636499631404,68.57567003316454L236.19297166256112,102.46129852258613L236.27340166238943,80.63918972908903L236.34489499557017,10.105813425049291L236.47894499528408,-69.45925421982201L236.78725999462606,158.2276021482428L237.34580166010062,195.52634405993354L237.53793999302388,48.561230937755454L237.54687665967148,99.0881539636135L237.71220499265192,-27.051914036578438L237.71667332597573,56.987049844346075L237.76135665921367,78.98474275426302L237.79710332580407,119.517407509343L237.908811658899,-36.97791525413868L238.27968332477408,81.5686007392221L238.30202499139307,192.94123530429283L238.36904999125005,167.21452208623043L239.2359066560666,13.249393499876533L239.8525366547505,81.26953837546716L240.7998233193954,78.39734902044563L241.14835331865152,-62.20215013451798L241.3181499849558,91.84134940031365" fill="none"></path></g></g></g></g></g></g><g transform="translate(61, 177)" clip-path="url(#clip_1)"><clipPath id="clip_1"><rect width="268" height="22"></rect></clipPath><g><g><line x1="0" y1="0" x2="0" y2="5" style="visibility: inherit;" fill="rgb(0, 0, 0)" stroke="rgb(204, 204, 204)" stroke-width="1px"></line><line x1="22.34166661898295" y1="0" x2="22.34166661898295" y2="5" style="visibility: inherit;" fill="rgb(0, 0, 0)" stroke="rgb(204, 204, 204)" stroke-width="1px"></line><line x1="44.6833332379659" y1="0" x2="44.6833332379659" y2="5" style="visibility: inherit;" fill="rgb(0, 0, 0)" stroke="rgb(204, 204, 204)" stroke-width="1px"></line><line x1="67.02499985694885" y1="0" x2="67.02499985694885" y2="5" style="visibility: inherit;" fill="rgb(0, 0, 0)" stroke="rgb(204, 204, 204)" stroke-width="1px"></line><line x1="89.3666664759318" y1="0" x2="89.3666664759318" y2="5" style="visibility: inherit;" fill="rgb(0, 0, 0)" stroke="rgb(204, 204, 204)" stroke-width="1px"></line><line x1="111.70833309491476" y1="0" x2="111.70833309491476" y2="5" style="visibility: inherit;" fill="rgb(0, 0, 0)" stroke="rgb(204, 204, 204)" stroke-width="1px"></line><line x1="134.0499997138977" y1="0" x2="134.0499997138977" y2="5" style="visibility: inherit;" fill="rgb(0, 0, 0)" stroke="rgb(204, 204, 204)" stroke-width="1px"></line><line x1="156.39166633288067" y1="0" x2="156.39166633288067" y2="5" style="visibility: inherit;" fill="rgb(0, 0, 0)" stroke="rgb(204, 204, 204)" stroke-width="1px"></line><line x1="178.7333329518636" y1="0" x2="178.7333329518636" y2="5" style="visibility: inherit;" fill="rgb(0, 0, 0)" stroke="rgb(204, 204, 204)" stroke-width="1px"></line><line x1="201.07499957084656" y1="0" x2="201.07499957084656" y2="5" style="visibility: inherit;" fill="rgb(0, 0, 0)" stroke="rgb(204, 204, 204)" stroke-width="1px"></line><line x1="223.41666618982953" y1="0" x2="223.41666618982953" y2="5" style="visibility: inherit;" fill="rgb(0, 0, 0)" stroke="rgb(204, 204, 204)" stroke-width="1px"></line><line x1="245.75833280881244" y1="0" x2="245.75833280881244" y2="5" style="visibility: inherit;" fill="rgb(0, 0, 0)" stroke="rgb(204, 204, 204)" stroke-width="1px"></line><line x1="268.0999994277954" y1="0" x2="268.0999994277954" y2="5" style="visibility: inherit;" fill="rgb(0, 0, 0)" stroke="rgb(204, 204, 204)" stroke-width="1px"></line></g><g transform="translate(0, 8)"><text style="text-anchor: middle; visibility: hidden; font-family: &quot;Helvetica Neue&quot;, sans-serif; font-size: 12px; font-weight: 200;" x="0" y="0" dx="0em" dy="0.95em" fill="rgb(50, 49, 63)" stroke="none" stroke-width="1px">-50k</text><text style="text-anchor: middle; visibility: hidden; font-family: &quot;Helvetica Neue&quot;, sans-serif; font-size: 12px; font-weight: 200;" x="22.34166661898295" y="0" dx="0em" dy="0.95em" fill="rgb(50, 49, 63)" stroke="none" stroke-width="1px">0</text><text style="text-anchor: middle; visibility: hidden; font-family: &quot;Helvetica Neue&quot;, sans-serif; font-size: 12px; font-weight: 200;" x="44.6833332379659" y="0" dx="0em" dy="0.95em" fill="rgb(50, 49, 63)" stroke="none" stroke-width="1px">50k</text><text style="text-anchor: middle; visibility: hidden; font-family: &quot;Helvetica Neue&quot;, sans-serif; font-size: 12px; font-weight: 200;" x="67.02499985694885" y="0" dx="0em" dy="0.95em" fill="rgb(50, 49, 63)" stroke="none" stroke-width="1px">100k</text><text style="text-anchor: middle; visibility: hidden; font-family: &quot;Helvetica Neue&quot;, sans-serif; font-size: 12px; font-weight: 200;" x="89.3666664759318" y="0" dx="0em" dy="0.95em" fill="rgb(50, 49, 63)" stroke="none" stroke-width="1px">150k</text><text style="text-anchor: middle; visibility: hidden; font-family: &quot;Helvetica Neue&quot;, sans-serif; font-size: 12px; font-weight: 200;" x="111.70833309491476" y="0" dx="0em" dy="0.95em" fill="rgb(50, 49, 63)" stroke="none" stroke-width="1px">200k</text><text style="text-anchor: middle; visibility: hidden; font-family: &quot;Helvetica Neue&quot;, sans-serif; font-size: 12px; font-weight: 200;" x="134.0499997138977" y="0" dx="0em" dy="0.95em" fill="rgb(50, 49, 63)" stroke="none" stroke-width="1px">250k</text><text style="text-anchor: middle; visibility: hidden; font-family: &quot;Helvetica Neue&quot;, sans-serif; font-size: 12px; font-weight: 200;" x="156.39166633288067" y="0" dx="0em" dy="0.95em" fill="rgb(50, 49, 63)" stroke="none" stroke-width="1px">300k</text><text style="text-anchor: middle; visibility: hidden; font-family: &quot;Helvetica Neue&quot;, sans-serif; font-size: 12px; font-weight: 200;" x="178.7333329518636" y="0" dx="0em" dy="0.95em" fill="rgb(50, 49, 63)" stroke="none" stroke-width="1px">350k</text><text style="text-anchor: middle; visibility: hidden; font-family: &quot;Helvetica Neue&quot;, sans-serif; font-size: 12px; font-weight: 200;" x="201.07499957084656" y="0" dx="0em" dy="0.95em" fill="rgb(50, 49, 63)" stroke="none" stroke-width="1px">400k</text><text style="text-anchor: middle; visibility: hidden; font-family: &quot;Helvetica Neue&quot;, sans-serif; font-size: 12px; font-weight: 200;" x="223.41666618982953" y="0" dx="0em" dy="0.95em" fill="rgb(50, 49, 63)" stroke="none" stroke-width="1px">450k</text><text style="text-anchor: middle; visibility: hidden; font-family: &quot;Helvetica Neue&quot;, sans-serif; font-size: 12px; font-weight: 200;" x="245.75833280881244" y="0" dx="0em" dy="0.95em" fill="rgb(50, 49, 63)" stroke="none" stroke-width="1px">500k</text><text style="text-anchor: middle; visibility: hidden; font-family: &quot;Helvetica Neue&quot;, sans-serif; font-size: 12px; font-weight: 200;" x="268.0999994277954" y="0" dx="0em" dy="0.95em" fill="rgb(50, 49, 63)" stroke="none" stroke-width="1px">550k</text></g><line x1="0" y1="0" x2="268.0999994277954" y2="0" fill="rgb(0, 0, 0)" stroke="rgb(204, 204, 204)" stroke-width="1px"></line></g></g></g></g></svg>