<svg viewBox="0 0 330 200" xmlns="http://www.w3.org/2000/svg"><g><g><g><g><g><line x1="51.52000045776367" y1="177.95999908447266" x2="46.52000045776367" y2="177.95999908447266" style="visibility: inherit;" fill="rgb(0, 0, 0)" stroke="rgb(204, 204, 204)" stroke-width="1px"></line><line x1="51.52000045776367" y1="155.71499919891366" x2="46.52000045776367" y2="155.71499919891366" style="visibility: inherit;" fill="rgb(0, 0, 0)" stroke="rgb(204, 204, 204)" stroke-width="1px"></line><line x1="51.52000045776367" y1="133.46999931335463" x2="46.52000045776367" y2="133.46999931335463" style="visibility: inherit;" fill="rgb(0, 0, 0)" stroke="rgb(204, 204, 204)" stroke-width="1px"></line><line x1="51.52000045776367" y1="111.22499942779544" x2="46.52000045776367" y2="111.22499942779544" style="visibility: inherit;" fill="rgb(0, 0, 0)" stroke="rgb(204, 204, 204)" stroke-width="1px"></line><line x1="51.52000045776367" y1="88.97999954223643" x2="46.52000045776367" y2="88.97999954223643" style="visibility: inherit;" fill="rgb(0, 0, 0)" stroke="rgb(204, 204, 204)" stroke-width="1px"></line><line x1="51.52000045776367" y1="66.73499965667723" x2="46.52000045776367" y2="66.73499965667723" style="visibility: inherit;" fill="rgb(0, 0, 0)" stroke="rgb(204, 204, 204)" stroke-width="1px"></line><line x1="51.52000045776367" y1="44.48999977111822" x2="46.52000045776367" y2="44.48999977111822" style="visibility: inherit;" fill="rgb(0, 0, 0)" stroke="rgb(204, 204, 204)" stroke-width="1px"></line><line x1="51.52000045776367" y1="22.244999885559196" x2="46.52000045776367" y2="22.244999885559196" style="visibility: inherit;" fill="rgb(0, 0, 0)" stroke="rgb(204, 204, 204)" stroke-width="1px"></line><line x1="51.52000045776367" y1="0" x2="46.52000045776367" y2="0" style="visibility: inherit;" fill="rgb(0, 0, 0)" stroke="rgb(204, 204, 204)" stroke-width="1px"></line></g><g transform="translate(41.52000045776367, 0)"><text style="text-anchor: end; visibility: hidden; font-family: &quot;Helvetica Neue&quot;, sans-serif; font-size: 12px; font-weight: 200;" x="0" y="177.95999908447266" dx="0em" dy="0.3em" fill="rgb(50, 49, 63)" stroke="none" stroke-width="1px">9.8</text><text style="text-anchor: end; visibility: inherit; font-family: &quot;Helvetica Neue&quot;, sans-serif; font-size: 12px; font-weight: 200;" x="0" y="155.71499919891366" dx="0em" dy="0.3em" fill="rgb(50, 49, 63)" stroke="none" stroke-width="1px">10</text><text style="text-anchor: end; visibility: hidden; font-family: &quot;Helvetica Neue&quot;, sans-serif; font-size: 12px; font-weight: 200;" x="0" y="133.46999931335463" dx="0em" dy="0.3em" fill="rgb(50, 49, 63)" stroke="none" stroke-width="1px">10.2</text><text style="text-anchor: end; visibility: inherit; font-family: &quot;Helvetica Neue&quot;, sans-serif; font-size: 12px; font-weight: 200;" x="0" y="111.22499942779544" dx="0em" dy="0.3em" fill="rgb(50, 49, 63)" stroke="none" stroke-width="1px">10.4</text><text style="text-anchor: end; visibility: hidden; font-family: &quot;Helvetica Neue&quot;, sans-serif; font-size: 12px; font-weight: 200;" x="0" y="88.97999954223643" dx="0em" dy="0.3em" fill="rgb(50, 49, 63)" stroke="none" stroke-width="1px">10.6</text><text style="text-anchor: end; visibility: inherit; font-family: &quot;Helvetica Neue&quot;, sans-serif; font-size: 12px; font-weight: 200;" x="0" y="66.73499965667723" dx="0em" dy="0.3em" fill="rgb(50, 49, 63)" stroke="none" stroke-width="1px">10.8</text><text style="text-anchor: end; visibility: hidden; font-family: &quot;Helvetica Neue&quot;, sans-serif; font-size: 12px; font-weight: 200;" x="0" y="44.48999977111822" dx="0em" dy="0.3em" fill="rgb(50, 49, 63)" stroke="none" stroke-width="1px">11</text><text style="text-anchor: end; visibility: inherit; font-family: &quot;Helvetica Neue&quot;, sans-serif; font-size: 12px; font-weight: 200;" x="0" y="22.244999885559196" dx="0em" dy="0.3em" fill="rgb(50, 49, 63)" stroke="none" stroke-width="1px">11.2</text><text style="text-anchor: end; visibility: hidden; font-family: &quot;Helvetica Neue&quot;, sans-serif; font-size: 12px; font-weight: 200;" x="0" y="0" dx="0em" dy="0.3em" fill="rgb(50, 49, 63)" stroke="none" stroke-width="1px">11.4</text></g><line x1="51.52000045776367" y1="0" x2="51.52000045776367" y2="177.95999908447266" fill="rgb(0, 0, 0)" stroke="rgb(204, 204, 204)" stroke-width="1px"></line></g></g><g transform="translate(51, 0)" clip-path="url(#clip_0)"><clipPath id="clip_0"><rect width="278" height="177"></rect></clipPath><g><g><g><line x1="0" y1="0" x2="0" y2="177.95999908447266" fill="rgb(0, 0, 0)" stroke="rgb(60, 60, 60)" stroke-width="1px" opacity="0.25"></line><line x1="23.20666662851969" y1="0" x2="23.20666662851969" y2="177.95999908447266" fill="rgb(0, 0, 0)" stroke="rgb(60, 60, 60)" stroke-width="1px" opacity="0.25"></line><line x1="46.41333325703938" y1="0" x2="46.41333325703938" y2="177.95999908447266" fill="rgb(0, 0, 0)" stroke="rgb(60, 60, 60)" stroke-width="1px" opacity="0.25"></line><line x1="69.61999988555908" y1="0" x2="69.61999988555908" y2="177.95999908447266" fill="rgb(0, 0, 0)" stroke="rgb(60, 60, 60)" stroke-width="1px" opacity="0.25"></line><line x1="92.82666651407877" y1="0" x2="92.82666651407877" y2="177.95999908447266" fill="rgb(0, 0, 0)" stroke="rgb(60, 60, 60)" stroke-width="1px" opacity="0.25"></line><line x1="116.03333314259848" y1="0" x2="116.03333314259848" y2="177.95999908447266" fill="rgb(0, 0, 0)" stroke="rgb(60, 60, 60)" stroke-width="1px" opacity="0.25"></line><line x1="139.23999977111816" y1="0" x2="139.23999977111816" y2="177.95999908447266" fill="rgb(0, 0, 0)" stroke="rgb(60, 60, 60)" stroke-width="1px" opacity="0.25"></line><line x1="162.44666639963788" y1="0" x2="162.44666639963788" y2="177.95999908447266" fill="rgb(0, 0, 0)" stroke="rgb(60, 60, 60)" stroke-width="1px" opacity="0.25"></line><line x1="185.65333302815753" y1="0" x2="185.65333302815753" y2="177.95999908447266" fill="rgb(0, 0, 0)" stroke="rgb(60, 60, 60)" stroke-width="1px" opacity="0.25"></line><line x1="208.85999965667725" y1="0" x2="208.85999965667725" y2="177.95999908447266" fill="rgb(0, 0, 0)" stroke="rgb(60, 60, 60)" stroke-width="1px" opacity="0.25"></line><line x1="232.06666628519696" y1="0" x2="232.06666628519696" y2="177.95999908447266" fill="rgb(0, 0, 0)" stroke="rgb(60, 60, 60)" stroke-width="1px" opacity="0.25"></line><line x1="255.27333291371662" y1="0" x2="255.27333291371662" y2="177.95999908447266" fill="rgb(0, 0, 0)" stroke="rgb(60, 60, 60)" stroke-width="1px" opacity="0.25"></line><line x1="278.4799995422363" y1="0" x2="278.4799995422363" y2="177.95999908447266" fill="rgb(0, 0, 0)" stroke="rgb(60, 60, 60)" stroke-width="1px" opacity="0.25"></line></g><g><line x1="0" y1="177.95999908447266" x2="278.4799995422363" y2="177.95999908447266" fill="rgb(0, 0, 0)" stroke="rgb(60, 60, 60)" stroke-width="1px" opacity="0.25"></line><line x1="0" y1="155.71499919891366" x2="278.4799995422363" y2="155.71499919891366" fill="rgb(0, 0, 0)" stroke="rgb(60, 60, 60)" stroke-width="1px" opacity="0.25"></line><line x1="0" y1="133.46999931335463" x2="278.4799995422363" y2="133.46999931335463" fill="rgb(0, 0, 0)" stroke="rgb(60, 60, 60)" stroke-width="1px" opacity="0.25"></line><line x1="0" y1="111.22499942779544" x2="278.4799995422363" y2="111.22499942779544" fill="rgb(0, 0, 0)" stroke="rgb(60, 60, 60)" stroke-width="1px" opacity="0.25"></line><line x1="0" y1="88.97999954223643" x2="278.4799995422363" y2="88.97999954223643" fill="rgb(0, 0, 0)" stroke="rgb(60, 60, 60)" stroke-width="1px" opacity="0.25"></line><line x1="0" y1="66.73499965667723" x2="278.4799995422363" y2="66.73499965667723" fill="rgb(0, 0, 0)" stroke="rgb(60, 60, 60)" stroke-width="1px" opacity="0.25"></line><line x1="0" y1="44.48999977111822" x2="278.4799995422363" y2="44.48999977111822" fill="rgb(0, 0, 0)" stroke="rgb(60, 60, 60)" stroke-width="1px" opacity="0.25"></line><line x1="0" y1="22.244999885559196" x2="278.4799995422363" y2="22.244999885559196" fill="rgb(0, 0, 0)" stroke="rgb(60, 60, 60)" stroke-width="1px" opacity="0.25"></line><line x1="0" y1="0" x2="278.4799995422363" y2="0" fill="rgb(0, 0, 0)" stroke="rgb(60, 60, 60)" stroke-width="1px" opacity="0.25"></line></g></g></g><g><g><line x1="0" y1="1267.964993476868" x2="278.4799995422363" y2="1267.964993476868" fill="rgb(0, 0, 0)" stroke="rgb(153, 153, 153)" stroke-width="1.5px"></line></g></g><g><g><line x1="23.20666662851969" y1="0" x2="23.20666662851969" y2="177.95999908447266" fill="rgb(0, 0, 0)" stroke="rgb(153, 153, 153)" stroke-width="1.5px"></line></g></g><g><g><g><g><g><path style="fill: none;" stroke="rgb(255, 112, 67)" stroke-width="2px" d="M24.292738626734415,305.2918826345765L24.390206626574198,152.17425117726552L24.473750626436868,74.23170794647976L24.636197292836506,72.25450316873628L24.645479959487915,126.51582194442608L24.682610626093545,79.92131812455506L25.40665862490336,69.73683803033627L25.694421291097004,115.40119972902289L25.893998624102274,139.4646988684546L25.926487957382204,153.18959251053172L26.14927195701599,167.13090104237185L26.209609290250143,117.74078481532729L26.321001290067038,142.6866654743921L26.520578623072307,107.90742304317911L26.557709289677938,122.79569002728925L26.850113289197285,115.12423919128798L26.92901595573425,-10.804189020151739L26.956863955688476,52.28803590052513L27.08682128880819,70.83531262822551L27.71340128777822,77.37706542361455L27.912978620783488,68.88525914531235L28.15432795372009,126.72366837983361L28.33069862009684,99.86957307743735L28.68343995285034,99.12939607473496L29.05938795223236,74.58066756360837L29.314661285146077,95.78071158658365L29.32858528512319,87.72352383510781L29.393563951683046,89.83182158091608L29.41212928498586,32.379474720080424L29.63491328461965,-0.1338782021260272L29.667402617899576,23.707280150019074L29.87162128423055,0.6950168454511356L30.010861284001667,29.308949486952628L30.275417283566792,40.46733026365567L30.41001595001221,87.95951068072523L30.48427728322347,80.6905913969777L30.558538616434735,44.11445025151082L31.055161282285056,62.83752744232889L31.254738615290325,59.880156117688756L31.268662615267434,95.64510406966616L31.765285281117755,104.37029032694353L31.867394614283242,97.7495598185248L31.91844928086599,19.222208089202013L32.10410261389414,41.80289040041788L32.18300528043111,82.96657684961002L32.24334261366526,71.68574335078196L32.65642127965292,159.00047203286562L32.93490127919515,89.07795935385656L33.35726261183421,97.78616951110446L33.41295861174265,100.52993429085132L33.56148127816518,143.5581860106959L33.58932927811941,91.484033698795L33.705362611262004,79.3799295956991L33.91422261091868,102.03464311213492L34.2948119436264,106.30586891590113L34.51295460993449,85.57263892276269L34.59185727647146,64.03660859696627L34.60113994312287,64.74852165382913L34.624346609751385,83.40879810393847L34.74037994289398,34.850251194334305L34.74502127621969,62.03393782803465L34.80071727612813,46.73876753791319L34.82392394275665,6.301824626144764L34.95852260920206,73.33263129836756L35.028142609087624,104.0104097939144L35.05599060904186,48.2221732793366L35.66864660803477,54.23286724152972L35.92391994094849,93.83364584516954L36.97750260588328,118.78840365825252L37.307037272008266,96.89124703447025L37.320961271985375,60.71767117721235L37.5901586048762,108.59419391642152L37.877921271069845,60.90735682199997L38.198173270543414,107.85149168350925L38.26315193710327,70.34967968149026L38.272434603754675,67.69856186058125L38.27707593708038,39.31484511751984L38.54627326997121,111.18124168763626L39.3585066019694,97.9850227333012L39.99901060091654,122.30732616607625L40.00829326756795,116.36436539582968L40.24035993385315,143.0337276140421L40.56989459997813,143.30221610630812L40.811243932914735,101.80506132523755L40.908711932754514,50.30257375207738L40.94120126603444,4.751757982230259L41.437823931884765,35.85860420677838L41.56778126500448,37.182543430632535L41.69773859812418,47.89506059090692L41.9390879310608,44.85335819393487L42.22685059725444,44.411478752649174L42.68170126317342,28.823595248203787L42.825582596270245,76.02622143341061L42.84878926289877,87.91565102316885L43.24330259558359,103.76952286065622L43.252585262235,113.17352480243588L43.62853326161703,112.8073897931233L44.055535927581786,104.58904176974067L44.134438594118755,83.60036492461244L44.231906593958534,111.54506973798316L44.85384525960286,91.31565512827069L44.87241059290568,82.30561546576835L44.909541259511315,103.33080346161094L45.42937059199015,106.90039926158455L45.49434925855001,138.28496666879434L45.67071992492676,132.65353896504172L45.72641592483521,98.63048596151611L45.92135192451477,98.76279808140964L46.27873459059397,102.89873432844809L46.64539992332459,125.06950208919417L46.654682589976,142.55804736651652L46.905314589564,148.32412054302267L47.03527192268371,123.73808791359808L47.52261192188263,106.34123419389684L48.014593254407245,88.67191015578707L48.079571920967105,124.25887446479865L48.36269325383504,138.1811463768509L48.96142525285085,118.40304161117412L49.564798585192364,120.5104146341613L49.76901725152334,104.67956995260357L50.163530584208175,138.35097036748616L50.256357250722246,123.91870287681255L50.423445250447585,103.55149236787221L50.45593458372752,120.20454694691068L50.62302258345286,109.82033351353034L50.720490583292644,110.5347489984011L51.00825324948629,99.89834717208456L51.101079916000366,70.39152935047505L51.6162679151535,44.33695061949035L51.66268124841054,46.64860285523386L51.98293324788412,54.57135275375457L52.04327058111827,68.7559868839269L52.07111858107249,101.75464746600056L52.13145591430664,74.52570062265971L52.39601191387177,33.11391432976498L52.502762580362955,23.110702607972826L52.79980791320801,13.715603547600011L53.46815991210938,67.3816005041331L53.71879191169739,62.9486623121749L53.8533905781428,70.61483785477235L54.10402257773082,90.62610285446307L54.285034577433265,122.21247383698389L54.29895857741038,124.0819687670326L54.354654577318826,133.37603694652267L54.498535910415654,79.13437619318952L55.01836524289449,78.23320265845872L55.53819457537333,142.05652491509807L55.658869241841636,103.30544858945657L56.18798124097189,110.10486630677445L56.225111907577514,100.9185478529623L56.41540657393138,117.31529493319326L56.84240923989614,65.91336187368906L57.13945457274119,93.9249597708746L57.36223857237498,113.55794249290754L57.46898923886617,115.01149666556428L57.78459990501403,96.79767825378202L57.831013238271076,79.09029850600771L57.844937238248185,108.2006860313856L57.914557238133746,91.17611173438272L58.067721237881976,70.63962916645053L58.91244390316009,79.09885518421706L59.22341323598226,31.40972355534214L59.35337056910197,25.10531220845533L59.399783902359005,37.54996445395645L59.56223056875865,94.72674933710093L60.29556123421987,94.23843417355904L60.64366123364766,90.95721513894861L61.172773232777914,101.7827699415764L61.36306789913177,120.40396305129812L61.88753856493632,132.39152728825957L62.022137231381734,100.1181228400359L62.04534389801025,133.63428149626955L62.087115897941594,110.89474762234944L62.50483589725495,134.08883502130928L62.51875989723206,125.74365541883958L62.64871723035177,88.91197732738331L62.6951305636088,60.43636298234996L63.12677456289927,74.90711661136392L63.28457989597321,88.34420160923676L63.563059895515444,104.91498855967093L64.13858522790274,116.2634719417227L64.41242389411926,102.73338656518368L64.53309856058758,134.31238892989694L64.54702256056468,115.55201902210037L64.64449056040446,118.57679441377343L64.67697989368439,109.17424609984236L64.94617722657522,136.3331113252167L64.97402522652943,117.05483633078413L65.23393989276886,143.49811878872475L66.18541322453817,94.94592252014009L66.44532789077759,117.07049782110562L66.59385055720011,98.82968286108432L66.99764655653635,121.06235735345791L67.15081055628458,93.17924755071964L67.5174758890152,88.25808534558486L67.54996522229513,76.09524662091175L67.61030255552927,119.7702230726822L67.88878255507151,70.65551333399355L68.02802255484262,76.36968052152528L68.13477322133382,112.46093546871231L68.21831722119649,73.42240440936045L68.89131055342357,108.470013059689L69.18835588626861,137.8836458985516L69.88919721844991,121.00605731826187L70.00987188491821,120.54618129015684L70.90100788345336,77.72015084496996L70.93349721673329,103.80332026771602L71.45796788253784,123.01016977331938L71.47189188251495,150.13104160538134L71.56935988235473,127.74088697650409L71.84319854857127,138.44853876492013L72.04277588157653,119.40463137661771L72.43728921426137,129.94601350946976L72.5811705473582,153.27404041937362L72.65543188056947,54.26036121698809L72.73433454710643,64.00144660992481L72.91998788013458,49.49326031153842L73.12931201312384,80.72143448391309L73.13395334644953,98.0673900599385L73.23606267961503,80.1320295055744L73.39850934601466,69.44663374255798L73.51825574581783,68.42421492157568L73.56002774574915,48.397642925025394L73.80137707868576,71.01141898749334L73.81530107866287,69.81554860588199L73.97310641173681,73.20591440586134L73.99167174503961,68.44958936321187L74.0984224115308,73.21960140441907L74.12627041148504,70.82274992778927L74.13555307813644,71.41482283301795L74.34905441111883,69.43218789364806L74.72964374382656,60.89390930547874L74.81782907701492,53.97899702858638L74.85960107694626,69.66351417337741L75.17521174309412,113.37337961445553L75.18449440974554,62.73272787676625L75.46297440928777,53.91744322572211L76.2009464080747,74.80995945517189L76.44415227434158,89.66722486670368L76.53697894085566,100.86803888434598L76.68086027395249,92.97632941783418L76.72263227388382,89.11733468396659L76.8015349404208,89.55990575929758L76.88043760695776,49.155243955218566L77.26102693966548,125.91609525413675L77.36777760615668,109.11595367741447L77.43275627271652,93.83815017596791L77.77621493881863,88.96952274811783L78.30532693794886,125.91316402989338L78.75089493721643,130.65788638133662L78.77410160384497,127.466398480799L78.94118960357031,107.44328801251402L79.08507093666712,106.03925242837926L79.53528026926041,111.67887455880289L79.65595493572872,108.41377364564602L79.67452026903152,80.70058280956101L79.7487816022428,53.696493949517105L79.94371760192236,110.44140523699839L78.83908027040482,66.67752427716111L78.85300427038193,65.21188552656109L78.9272656035932,70.33900186001596L79.37283360286077,74.76099130534172L79.61882426912308,114.75401227029272L80.60742826749802,72.34458314834826L80.73738560061773,84.93471536979294L81.22936693314234,44.29249710476833L81.56354293259302,73.87660399180739L81.85130559878668,85.46018703316757L82.21332959819158,111.21731729482957L82.29223226472855,85.96112590990661L82.41754826452257,104.74664127963999L82.51501626436233,67.76950769931321L82.57071226427078,57.02097474187795L82.64033226415634,96.0302959814928L82.90488826372146,72.32377860081196L83.09054159674962,89.57656337637522L83.24370559649785,99.40181800945132L83.75425226232528,127.02858013642049L84.0002429285876,106.54428974101796L84.01880826189041,114.42665420462171L84.1116349284045,92.67097629738922L84.4736589278094,93.55111605309916L84.66859492748897,110.66604205294335L84.90530292709985,127.74225918971358L85.01205359359105,89.34843642305532L85.28589225980758,119.35556833627459L85.29981625978469,102.06543597792974L85.73610159240087,101.80714433169743L85.8939069254748,112.05630439365905L86.05635359187443,83.81605942542912L86.2373655915769,94.29142223880868L86.66436825754165,84.58104547902123L86.76647759070715,84.31649368423966L87.14706692341487,67.18447740111176L87.80149492233912,81.96254451419759L88.10782292183558,75.72976289622913L88.1403122551155,75.65506593532558L88.18208425504685,58.76823778607155L88.26098692158381,96.49652833798125L88.31668292149226,151.98328420407813L88.34453092144649,175.73641423269467L88.61836958766303,137.4107367685528L88.8504362539482,124.66201143165836L89.0685789202563,132.587093433029L89.36098291977565,150.81372250724914L89.70908291920345,160.61841632150808L89.73693091915767,142.77783768969056L89.87617091892879,157.19288340581608L89.91794291886012,110.06572015487617L89.96435625211716,106.2072520786166L90.39135891808192,42.00947588586132L90.43313091801326,94.18281865673133L90.45169625131608,146.20998190459727L90.53059891785303,166.41269507683165L90.82764425069809,178.16417264485742L90.91582958388646,201.25885294354276L91.54240958285651,112.02751986842992L91.83481358237584,119.94971383635298L92.04831491535822,85.11900740286613L92.2525335816892,89.59090136727178L92.65168824769972,116.90269717273921L92.92088558059056,111.08088182403144L93.61244424612045,87.52211435042136L93.62172691277185,47.0400332944771L93.77024957919438,63.64845081899435L93.9141309122912,69.9982985057761L94.18796957850773,79.93859929440646L94.8516802440834,88.34834317625261L94.9630722439003,71.74425592571517L95.00484424383163,77.54166266522869L95.26011757674534,77.57258317091724L95.96095890892664,66.46651408304494L96.02593757548651,68.62860756263898L96.49935357470831,54.15790062726687L96.59682157454809,73.21604627724854L97.21411890686672,63.92544248853726L97.54829490631738,88.75377089866919L97.65040423948288,36.243778259332345L97.72930690601986,61.15528723968879L97.94280823900222,70.23116874567664L98.10061357207616,46.77561064737915L98.40230023824691,105.47258429960311L98.77360690430324,114.31458707183734L99.12634823705673,126.32857263239629L99.29343623678207,117.52002774894673L99.8086242359352,76.96522540217974L99.81326556926092,84.84471511097846L99.97107090233486,77.29134353541869L100.0360495688947,113.0977729220028L100.23098556857427,135.82008976274608L101.00608823396682,109.5662172035137L101.14996956706365,138.4212519704405L101.30777490013759,114.09533013557025L101.8090388993136,103.5452520485497L101.96220289906184,131.00245482605953L102.0457468989245,115.1934641376684L102.05502956557591,130.4000331748746L102.16642156539281,171.59378437445875L102.17106289871852,155.8254149602302L102.18498689869563,154.40120397362483L102.273172231884,132.9462243779007L102.43561889828364,108.13066954323368L102.57950023138046,65.80744342724608L102.76051223108293,128.69546588349806L102.80692556433996,98.72432930997252L103.2200042303276,86.88879898561525L103.28498289688746,80.7027585344002L103.41958156333287,70.08751653566783L103.4567122299385,73.19352408538188L103.59131089638392,77.63116694539764L104.05080289562862,87.21294182144379L105.12295089386622,37.58473324351144L105.25290822698592,66.29826485379684L105.29468022691728,103.95249618551117L105.42463756003697,124.6905071296245L105.58708422643662,144.37339315713646L105.64278022634507,133.96188511135097L105.93982555919011,103.61961058247672L106.56640555816016,60.21478950332221L106.81703755774815,37.773522413319796L107.43433489006678,95.54017192431822L107.43897622339249,103.00998042009094L108.08876288899103,90.77446943008118L108.6503642214012,131.32706916393107L108.68285355468115,110.82147539961214L109.26302022039414,77.11406144321302L109.78749088619868,67.37398130156882L109.87567621938705,127.64029357517316L110.00563355250677,133.5327810996255L110.10774288567225,139.98865962756264L110.20521088551205,100.20629809676888L110.5208215516599,87.44122152186145L110.76681221792222,79.52560759460945L111.03600955081303,84.03169477993752L111.24022821714401,62.816694050275586L112.23347354884466,91.28499315754006L112.31701754870733,113.1534030362646L112.41912688187281,97.10067097065678L112.44697488182705,66.45693285944031L112.95288021432876,65.57348874604983L113.01785888088862,104.88087333077488L113.06891354747137,138.08263630943088L113.32418688038508,147.4655683592889L113.37524154696783,136.7797338487536L113.40308954692205,121.11892980142065L113.67692821313858,38.602948437741986L113.80224421293258,71.47811518859022L113.90899487942377,97.91365386615215L114.23388821222305,118.95046284776049L114.33599754538854,150.6162823268335L114.48916154513677,163.92447924947396L114.60055354495367,189.57393539048985L114.78620687798183,116.51057734173656L114.8697508778445,126.88639122642158L114.89759887779871,168.43514276318956L114.91152287777582,144.9027877372071L115.26426421052933,154.00178003963862L115.26890554385504,170.409843873301L115.48704821016311,144.725299030705L115.63092954325994,152.67749051539215L115.75624554305395,156.7027343956385L115.77016954303106,132.49845401899586L115.79337620965957,110.29946680326621L116.12291087578456,123.14542634040927L116.1739655423673,120.88919486488544L116.4013908753268,120.57059556355543L116.66594687489193,117.45849839288019L116.8748068745486,133.68108607437594L117.06510154090245,142.04698326046923L117.1254388741366,69.08279578656537L117.13008020746231,36.68653340006907L117.2321895406278,58.16562002074862L117.30645087383905,79.0227175953902L117.8216388729922,98.43261722179592L117.91910687283199,108.31970647034149L118.23935887230556,115.78428227530318L118.25328287228267,161.1591664734397L118.25792420560838,178.07483311980607L118.48070820524217,138.22427998999123L118.59210020505904,125.8735937340142L119.20475620405198,101.54815175014207L119.57606287010829,107.63577905252006L119.63640020334245,106.60266968992535L119.93344553618749,111.12922600290828L120.23513220235824,139.55932198903724L120.34188286884944,115.00843416756221L120.73175486820857,116.47350608763169L120.74567886818568,123.96281306827609L120.7688855348142,97.7227606063787L121.07985486763636,107.00787560501396L121.16339886749904,116.40616499580648L121.51149886692683,107.37057016711056L121.69251086662928,101.69268771655565L122.42584153209052,88.00007273624254L122.62077753177007,33.428265726268165L122.62541886509577,59.9296435053067L122.92710553126653,46.730391300983115L122.95495353122075,25.97590680162139L123.07562819768906,8.092350355789137L123.17309619752884,35.231939193857045L123.20094419748305,94.52076317160402L123.93427486294428,139.20483031182673L125.04355352778752,121.5520010760169L125.10389086102168,127.02543906437083L125.26169619409562,119.50008528510881L125.37308819391251,101.80635004076339L125.43806686047236,112.50434446222249L125.56802419359207,93.78796464299785L126.09713619272232,115.95559143270542L126.25958285912196,108.98131441945962L126.431312192173,79.49215286172827L126.85367352481207,96.69415025631041L127.45704685715357,94.5238356004322L127.80514685658137,94.69596866058768L128.22286685589472,98.63873086065648L128.23679085587185,91.92772831909858L128.91906685475033,108.96770446364775L128.93763218805313,121.34075991585645L129.1372095210584,121.94265122665689L129.18826418764115,83.18249354701038L129.23467752089817,99.06406898781512L129.39248285397213,72.67443016660614L129.43889618722918,80.33080974551159L129.55957085369747,100.71173598150689L129.76843085335415,89.5524250984294L129.87518151984534,123.86935994877776L130.1118895194562,103.88694546995211L130.22328151927312,97.31775528634216L130.3114668524615,133.85449696463726L130.52960951876958,92.15981704483599L131.05408018457413,65.58709632973486L131.28150551753362,77.0026396994829L131.65745351691564,91.53763422656164L131.7085081834984,30.16983334310393L131.80133485001247,54.40957471913006L132.14015218278885,88.30243007485736L132.40470818235397,108.41657920633433L132.90133084820428,116.18366212356332L133.55575884712854,113.67638595175951L133.736770846831,49.46930019619458L133.87136951327642,56.78730222062492L134.27516551261266,79.49838115589836L134.49794951224646,100.11002500975296L134.50723217889785,96.39108559686807L134.6836028452746,88.18572295643324L134.7903535117658,90.87069857796556L135.11988817789077,106.34445892877662L135.77431617681503,53.013526052135475L136.07136150966008,76.9699102578758L136.4241028424136,46.297030493275116L136.52621217557908,59.13260775067285L136.5633428421847,118.37034508868217L137.2688255076917,71.03189782998442L137.3709348408572,82.07326097731614L137.5240988406054,119.5067723641389L137.86755750670753,119.31456119753469L138.04856950640996,92.07312103162508L138.4477241724205,84.46438187950636L138.78654150519688,75.24035261126866L138.9025748383395,101.21513084540878L138.96291217157363,105.19075269791226L139.00468417150498,80.98516894357356L139.37134950423558,107.80494660632968L139.64518817045212,77.84674263057312L140.17430016958235,50.72413428754126L140.2439201694679,63.1250431542087L140.61058550219855,104.20442156645635L141.01438150153479,86.4430201111255L141.4274601675224,83.39903963043308L141.59918950057346,68.25538563294147L141.76163616697312,101.47503448179764L142.1050948330752,92.61346394435219L142.6806201654625,98.80966509254691L142.77808816530228,106.23720521275665L142.8198601652336,104.67233713255621L142.8941214984449,92.39232228760503L143.18652549796423,68.47302671117552L143.19116683128993,85.15616198756366L143.2561454978498,41.1341074343583L143.82702949691136,75.61268388128418L143.8780841634941,76.24238270525726L144.3422174960645,72.45639258807878L144.65318682888667,113.47774975493277L145.58145349402744,95.32945995832111L146.17090282639185,71.82771099112759L146.17554415971756,23.993424060050216L146.31014282616297,44.40939143219828L146.3194254928144,46.028817681964284L146.7789174920591,80.77881297782115L147.47511749091467,106.51666994197232L147.77216282375971,90.63895481343813L147.80001082371393,84.11413294324082L147.82785882366815,95.78717672403772L147.84642415697095,81.44184838204175L147.85106549029666,94.59710658524395L148.38481882275264,113.69520093888524L148.64009215566634,88.55741609391244L149.19705215475082,87.1314426569543L149.45696682099023,95.68681631194335L149.91181748690923,106.87045407282427L149.95823082016628,105.14847292385569L149.9907201534462,82.23568263957702L150.07426415330886,62.11297085074483L150.33882015287398,106.2665544104218L150.54303881920498,109.51229610792903L150.94219348521548,88.18660243695945L151.36455481785455,100.98688674814564L151.37383748450597,96.52944428198946L151.52236015092848,97.11505115033123L151.6059041507912,73.70950146456978L152.91940148196537,43.76451494514046L153.04007614843368,81.04789148741796L153.24429481476466,104.97879436550883L153.49956814767836,114.67833817054645L153.78733081387205,154.5070903101013L153.8476681471062,126.83086769037997L154.2746708130709,167.63793746354864L154.40926947951635,156.7179192175364L154.5902814792188,128.62196225764006L155.8898548104159,155.5924534899995L156.2565201431465,125.90873452837982L156.37719480961482,137.00472405868226L156.4793041427803,121.79289913479488L156.56748947596867,158.13905290510982L156.68352280911128,114.15680839104395L156.75778414232255,103.19739310079801L156.813480142231,89.27767105984579L157.01305747523625,185.06693884103277L157.32866814138413,99.72662268098401L157.61643080757776,106.19095573286126L158.5818281393242,104.63894439159299L158.6143174726041,81.27965669521109L158.65608947253546,84.77214402301625L158.88815613882065,125.8432702314087L158.90208013879777,105.59915045677654L158.99954813863755,69.5600769387914L159.14342947173438,57.724359799817634L159.23161480492274,98.072222666416L159.86283613721847,88.28867397303968L160.23878413660051,77.97703773602494L160.24342546992622,75.71889376886142L160.40123080300012,89.61756157797358L161.03709346862155,112.26287755010219L161.0603001352501,115.35220648868619L161.1809748017184,150.09780221205585L161.3944761347008,150.02254347220597L161.46409613458633,126.52973918472436L161.84468546729406,102.83649628448968L162.04426280029932,102.34700124124943L162.1649374667676,79.04670431611649L162.3552321331215,115.55093325948575L162.55480946612676,66.74537977795106L163.16746546511968,88.44524976019406L163.1999547983996,27.478000375334773L163.21852013170243,53.645769794928654L163.69193613092423,106.65112755718249L163.87758946395238,101.49510277874333L164.31387479656854,122.02861149885351L164.3788534631284,150.22788608472922L164.4623974629911,136.29297647907273L164.65733346267064,161.90393122335746L165.9197761272621,148.6898406503739L166.16576679352443,139.29113763403288L166.7180854592832,115.2737225594012L167.56280812456131,149.88180212444271L167.73453745761236,89.5580569025663L168.17082279022853,67.88130618523266L168.90879478901545,72.21143594251595L169.02946945548376,92.27489019858082L169.2151227885119,80.4252828595475L169.4286241214943,152.5280296452932L169.73031078766505,112.84494460005936L169.76280012094497,76.21615611788616L169.79993078755064,108.16283701866857L170.02271478718438,110.80111280649932L170.06448678711575,142.87429992791135L170.33832545333226,141.6041445801593L170.39866278656643,133.42432181257738L171.0716561187935,120.29687591579564L171.12735211870194,125.57652885829238L171.28051611845018,98.04551815797363L171.47545211812974,54.49269942111215L171.7771387843005,104.41128822521897L172.12059745040258,109.29158735428247L172.33874011671068,91.98636684845619L172.64042678288143,97.47612441119242L172.77502544932682,90.10443901423251L172.83536278256096,82.66413399503989L173.15561478203458,124.80062230216421L173.16953878201167,142.90582470675199L173.36911611501694,116.69620921864588L173.59654144797642,75.46519797630718L173.85645611421586,105.30696381769583L174.46911211320875,119.79801867090299L174.5062427798144,99.2125041618972L174.5387321130943,69.56960811640496L174.9703761123848,92.30234894124312L175.02607211229324,117.22962693062729L175.11889877880733,145.3574310630362L175.64801077793757,135.46228197702504L175.66657611124037,114.39688865579826L175.7918921110344,128.4622343108807L175.80117477768582,77.84345504257847L176.21889477699915,122.17212312482515L176.54378810979844,123.13102477440617L176.66910410959244,122.25834987194591L176.70159344287237,104.32825993929957L176.71551744284946,148.91688819581628L176.8315507759921,175.49708223855274L177.46277210828782,140.14484004139396L177.88977477425257,150.87792689365827L177.9222641075325,152.60752688729653L178.33998410684586,153.97534184203232L178.38175610677717,102.50419201834104L178.43745210668564,116.15528859240688L178.52563743987403,109.38281864789799L178.60454010641098,55.268511228386075L178.855172105999,39.01606701117058L178.91086810590744,94.89738035177658L179.02690143905002,73.11686606271046L179.19863077210107,66.24785431330469L179.46782810499192,84.68881584570761L179.6813294379743,50.50242941495344L179.76951477116268,112.57031424325149L179.8020041044426,85.34998370809116L180.015505437425,51.435771746444175L180.2568547703616,55.515936260110806L180.2707787703387,56.834406067871996L180.43322543673833,60.94105739347954L181.03659876907986,108.98436933878816L181.27794810201644,121.22762996965642L181.28258943534215,94.36552619281838L181.38005743518195,135.78763288958098L181.63533076809566,109.06933230783969L182.0391267674319,94.48950759479256L182.0437681007576,88.20435990853015L182.22013876713436,90.29160891693336L182.38258543353396,102.57442982856752L182.42435743346533,140.5803845394098L182.60536943316777,102.3138616546275L182.83279476612728,107.20924567016425L183.08806809904098,46.79930239987158L183.2365907654635,52.178956436105125L183.6775174314054,38.96361363321864L184.3830000969124,62.632492438967944L184.61042542987187,109.24348555032803L184.77751342959724,73.17169738532691L185.06527609579086,109.16210090491465L185.42265876187005,98.58495828494313L185.43658276184718,119.90774970951551L185.7893240946007,131.88712776974194L185.88679209444047,150.4224250930771L185.9239227610461,178.84668907806923L185.98426009428024,147.123757838488L185.99354276093163,154.8079458681452L186.02139076088585,201.8727588997357L186.47624142680485,180.95844855771298L186.48552409345626,147.5169040287409L186.8893200927925,149.75255914777205L186.9032440927696,119.3277217231294L187.02856009256362,114.94217073660366L187.822228091259,48.794247587390146L187.85471742453893,71.25621284910099L188.1610454240354,65.13948146049125L188.1842520906639,72.60305896027613L188.66695075653712,92.12554239790225L188.7458534230741,44.64043619215323L189.05682275589623,86.08105559205922L189.1496494224103,119.21347578108113L189.64627208826064,60.84228145791812L189.88762142119725,43.45134768652056L189.9572414210828,102.70458882679556L190.02686142096837,130.8496233394102L190.10112275417964,114.05219981185398L190.1614600874138,142.8880696452084L190.32390675381345,137.45572506595516L190.4120920870018,77.3791328559269L190.44458142028174,99.58895965322854L191.52601208517075,71.87089448455674L191.804492084713,49.33428217460073L191.94373208448408,28.801309337253684L192.03191741767247,58.148938168821346L192.44499608366013,126.01870375441696L192.6260080833626,97.67727371383693L192.6445734166654,98.49054654875013L192.68634541659674,92.65150222560715L192.71419341655096,55.42052356295608L192.83022674969357,101.67150630592799L193.09478274925868,99.89225404163305L193.77241741481146,73.44666278599665L194.3108120805931,118.74694794620538L194.46397608034133,82.08776930933969L194.96988141284305,63.5654127631917L194.99772941279727,69.35667639707995L195.0395014127286,101.3258823296859L195.63823341174444,105.07433472726724L195.79603874481836,51.90624943034459L196.13021474426904,97.20974628564147L196.98422007619857,133.91235371682978L197.07240540938696,108.87900230281282L197.2719827423922,81.58352667761919L197.5922347418658,101.52225755129604L198.59012140689214,107.43487036276404L199.05889607278826,68.63790158154575L199.31416940570196,55.937898997942185L199.38378940558752,67.12725390695275L199.70404140506108,89.8500385706123L199.86184673813503,92.0070972414182L200.20530540423712,80.29863511928507L200.27956673744836,63.09976967507849L200.33062140403112,58.892173838263574L200.48842673710504,91.29068949597261L200.85973340316136,76.37595279391145L201.1428547360293,80.53558351979734L201.14749606935501,64.93935209395183L201.41669340224584,85.99177142054414L201.50952006875994,64.75149730727115L201.70909740176518,32.55025572230355L201.7323040683937,8.598346253903657L202.0664800678444,74.21488904609683L202.72090806676866,66.98715585965128L202.82765873325982,74.5476840269896L202.83230006658553,111.67882678090085L203.46352139888126,103.43877851661425L203.90908939814886,62.52915417345916L204.1829280643654,109.78236166584271L204.23398273094813,111.90452711805202L205.55212139544804,115.90286942421716L205.74241606180192,104.25979500230329L206.06730939460118,84.15928297239516L206.1972667277209,84.60398125957556L206.4339747273318,96.99144169670404L206.88418405992508,103.65455344381995L206.9213147265307,111.7031566982857L207.0280653930219,102.5845160169559L207.05127205965042,86.07781105412154L207.1301747261874,146.495817724868L207.3668827257983,126.9782804061723L207.54325339217505,162.51288296072664L208.49008539061862,154.2006577570226L208.82426139006935,120.686628865237L209.31160138926822,124.52860144067319L209.7153973886045,142.1506856277323L209.77109338851292,127.0938257314337L209.91961605493543,150.88492495490675L210.04957338805517,116.8124519023275L210.4533693873914,120.47528444647348L210.49978272064845,124.40620740230736L210.52763072060267,145.0877119215405L210.5461960539055,138.5421510961018L210.6900773870023,115.96193618346342L210.69936005365372,91.8993992928412L210.76433872021354,106.60845818146424L210.79218672016782,113.7371589995939L211.13100405294418,112.42020463827002L212.27741338439307,111.54886540163862L212.309902717673,119.72607975351576L212.685850717055,126.62122390998303L212.8065253835233,140.98097674836697L213.22424538283664,149.14886338488472L213.34956138263067,154.4164362424411L213.67445471542996,148.75069344804578L213.9900653815778,109.46503698991752L214.06432671478908,142.84723771644806L214.37065471428554,85.83276134184467L214.5934387139193,136.34806749568872L214.66770004713058,95.59814547064751L214.802298713576,115.08008135380035L214.91833204671858,108.72679005941359L215.006517379907,90.86276466919078L215.67486937880835,87.21594345575984L215.71200004541396,71.05145096783205L216.00904537825903,94.21590213561363L216.13436137805303,85.89456361412344L216.76094137702307,104.01583298172842L216.793430710303,114.8488810862605L216.87697471016565,140.74532578356445L217.35503204271316,125.38124022720211L217.46642404253004,163.4283221737834L217.51283737578711,137.45103616190747L217.57781604234697,123.17143440546579L217.8655787085406,111.42196731137429L218.18118937468847,69.78533619640125L218.30650537448247,140.80081172448521L218.61283337397893,106.1718906897304L218.6731707072131,108.35455095887569L218.8216933736356,83.60961972373207L218.90523737349827,73.61004353178961L218.95165070675534,62.27710355962209L219.0491187065951,103.76388359365514L219.55502403909685,76.54205991821966L219.8799173718961,92.67378920202312L220.3347680378151,70.98165241701855L220.87780403692247,106.02379792470875L221.0541747032992,113.60037457081889L221.20733870304744,103.79862488110754L221.2862413695844,102.91027683908092L221.46725336928688,85.6353904106331L222.59045603410723,103.79460658492049L222.66471736731847,93.22078040667277L223.33306936621983,86.52572440375327L223.57441869915644,55.44206275216081L223.7786373654874,36.918728381860035L223.94108403188704,35.81440067418751L224.08032403165817,60.74788642408306L224.19171603147507,104.49964056197452L224.30310803129197,89.71292642729391L224.3402386978976,89.38346193223146L224.39129336448033,26.507035550828306L224.39593469780604,10.344091483918476L224.67441469734828,42.766497117884455L224.79973069714228,66.70934982651686L224.8182960304451,13.485033189188158L224.88791603033067,32.176860068227285L225.00859069679896,35.60293071921194L225.0596453633817,94.16844554170945L225.11070002996445,49.72942066567947L225.26386402971266,87.30393321834667L225.65837736239752,91.61139652385408L225.9043680286598,59.296773715477386L225.92293336196263,62.1160867120073L225.9832706951968,71.6157505939474L226.3545773612531,135.26062369825118L226.37314269455592,139.15984822856177L226.49845869434995,140.20334762550445L226.54023069428126,108.85573910372854L226.9440266936175,119.8564530979425L226.97651602689743,99.5502955199176L227.1807346932284,91.73996706808084L227.42672535949072,116.49811753226797L227.58917202589035,96.82545751042804L227.60773735919315,132.95106872831855L227.8908586920611,113.81617297941354L228.3410680246544,127.70674136573163L228.51743869103115,124.20297544472203L228.7309400240135,68.38835517601159L228.73558135733924,73.37137280633603L228.74950535731634,80.22145594386433L229.00942002355575,82.42678449981558L229.3992920229149,80.85806545907022L229.51068402273177,157.85499110627552L229.73810935569128,93.67125313203053L229.80308802225113,100.52814421786441L230.49000535445532,135.317405969855L230.6292453542264,71.8078029594062L230.90308402044295,84.49316727657379L231.13979202005387,78.31034582057485L232.09590668514886,82.75147025161593L232.13767868508023,72.81970497450992L232.2305053515943,99.76566986229165L232.3743866846911,84.59007755995228L232.3836693513425,66.35434724077923L233.01024935031256,88.93137115329614L233.17733735003787,54.35876320235171L233.38155601636888,81.54992142889495L233.6553946825854,101.26292229750287L233.71109068249385,78.73666457713053L234.23556134829838,81.16389246977513L234.40729068134945,19.43738292701667L234.55117201444625,106.18532449736281L234.7136186808459,79.99634140991046L235.4098186797015,70.92635241170456L235.4515906796328,68.12369552798101L235.57690667942683,129.36528237896587L235.71614667919795,113.31136950010617L235.87395201227187,91.41951028877165L236.08281201192858,80.8112096484162L236.1199426785342,84.49145765567019L236.2499000116539,43.299946363013305L236.77437067745845,31.261118700062582L236.8486320106697,78.35398949215505L236.9553826771609,63.8166164272173L237.13639467686335,80.50112661396479L237.21529734340032,92.03286887579613L237.61445200941085,81.54419880159142L237.6562240093422,67.97968957401727L237.81402934241612,84.85761396706155L238.29208667496366,51.21146085574506L238.3477826748721,100.66612896507165L238.52879467457453,79.23739336184302L238.77014400751113,101.47557163632584L240.10684800531388,89.1688508662268L240.20431600515366,131.16776943833662L240.85874400407792,97.16059009586566L241.05832133708316,97.94136427340862L241.30431200334547,114.49566964719199L241.3368013366254,69.94169073760229L241.4296280031395,71.9913347035857L241.54566133628208,84.15795185271621L241.5503026696078,65.3455216303219L241.96802266892115,75.05543951610576L242.20937200185773,80.0568680712609L242.48785200139997,104.40505536911292L242.52034133467993,133.981253675844L242.65494000112534,144.28017925642078L242.90093066738766,127.77730418213525L242.91949600069046,62.93697875606048L242.9798333339246,68.61273268818519L243.04481200048446,100.67734206173385L243.15620400030136,108.76547733589463L243.2119000002098,109.5488686894025L243.36042266663236,140.83506449867218L243.39291199991226,114.83832088222732L243.4578906664721,101.99302386468716L243.98236133227667,74.69197753749684L244.0334159988594,22.206544905640243L244.06126399881362,-7.720910121811016L244.2515586651675,11.85070149989005L244.27012399847032,25.32871634797209L244.33510266503015,46.38440669225352L244.44185333152134,79.8677986758508L244.93383466404597,96.17592761448458L245.13341199705124,98.12782308818325L245.3376306633822,54.158524489365504L245.4211746632449,103.6784694070627L245.49543599645614,113.30244045501306L245.6346759962273,98.09111503134523L245.95492799570084,119.34677184175666L246.53509466141384,153.16381599854964L246.7346719944191,83.8177516405939L246.74395466107052,63.867895964937674L246.91568399412154,105.43982124474176L246.92032532744724,119.26968355636063L246.9667386607043,149.79804769214024L247.00386932730993,141.7791498471504L247.11990266045254,112.02980209219743L247.50513332648595,127.70760805594136L247.52833999311446,144.95911120633255L247.59795999300005,108.68668470788404L248.4983786581866,81.12560704489434L249.13888265713373,100.35450323757425L250.122845322183,114.4973615791976L250.4848693215879,71.5669717308872L250.66123998796465,22.885383562085167" fill="none"></path></g></g></g></g><g opacity="0.2"><g><g><g><path style="fill: none;" stroke="rgb(255, 112, 67)" stroke-width="2px" d="M23.642951961135864,1193.7769514249735L23.98176929391225,2.189483359517027L24.269531960105898,12.456763766100295L24.292738626734415,170.8767795259574L24.390206626574198,-71.0727254167559L24.473750626436868,-40.7184037593324L24.636197292836506,69.31858450514125L24.645479959487915,207.41565394029848L24.682610626093545,10.283127626922607L25.40665862490336,54.49337198356358L25.694421291097004,183.80828103871508L25.893998624102274,175.53166183767289L25.926487957382204,173.76725311528944L26.14927195701599,188.03696434558887L26.209609290250143,43.668150619920226L26.321001290067038,180.1016862091511L26.520578623072307,55.741738356879125L26.557709289677938,145.12727399550937L26.850113289197285,103.61731536964368L26.92901595573425,-199.6943451001689L26.956863955688476,146.92562589398776L27.08682128880819,98.65609589367165L27.71340128777822,87.18966671911045L27.912978620783488,56.14757145606387L28.15432795372009,213.4811934360333L28.33069862009684,59.5884548602599L28.68343995285034,98.01913097976563L29.05938795223236,37.75758293754373L29.314661285146077,127.58077340294774L29.32858528512319,75.6377431697602L29.393563951683046,92.99426804861565L29.41212928498586,-53.799043102057084L29.63491328461965,-48.90390674704483L29.667402617899576,59.46901730937594L29.87162128423055,-33.82337789777827L30.010861284001667,72.22984828983141L30.275417283566792,57.204901391420265L30.41001595001221,159.19778121110184L30.48427728322347,69.78721248010157L30.558538616434735,-10.749761440287301L31.055161282285056,90.9221432204468L31.254738615290325,55.4440991314969L31.268662615267434,149.29252599205583L31.765285281117755,117.45806971204372L31.867394614283242,87.81846405626862L31.91844928086599,-98.56881950213756L32.10410261389414,75.67391386678634L32.18300528043111,144.71210652289852L32.24334261366526,54.76449310262166L32.65642127965292,289.9725650556103L32.93490127919515,-15.80580966447448L33.35726261183421,110.8484847469627L33.41295861174265,104.6455814604688L33.56148127816518,208.10056359043855L33.58932927811941,13.372805230961632L33.705362611262004,61.2237734410574L33.91422261091868,136.0167133867854L34.2948119436264,112.71270762155025L34.51295460993449,54.47279393305604L34.59185727647146,31.732563108272217L34.60113994312287,65.81639123912379L34.624346609751385,111.3992127791026L34.74037994289398,-37.98756917007174L34.74502127621969,102.80946777858486L34.80071727612813,23.796012102730884L34.82392394275665,-54.35358974150765L34.95852260920206,173.87884130670145L35.028142609087624,150.0270775372347L35.05599060904186,-35.46018149252993L35.66864660803477,63.24890818481987L35.92391994094849,153.23481375062883L36.97750260588328,156.2205403778772L37.307037272008266,64.04551209879725L37.320961271985375,6.4573073913252585L37.5901586048762,180.4089780252353L38.198173270543414,178.26769397577308L38.26315193710327,14.09696167846144L38.272434603754675,63.721885129217355L38.27707593708038,-3.260729997072275L38.54627326997121,218.9808365428108L39.3585066019694,78.19069430179849L39.99901060091654,158.79078131523883L40.00829326756795,107.44992424046L40.24035993385315,183.03777094136066L40.56989459997813,143.70494884470742L40.811243932914735,39.55932915363158L40.908711932754514,-26.951157607662907L40.94120126603444,-63.57446567254007L41.437823931884765,82.51887354360048L41.56778126500448,39.16845226641365L41.69773859812418,63.96383633131887L41.9390879310608,40.29080459847685L42.22685059725444,43.74865959072034L42.68170126317342,5.441769991535722L42.825582596270245,146.83016071122083L42.84878926289877,105.74979540780629L43.24330259558359,127.55033061688762L43.252585262235,127.27952771510543L43.62853326161703,112.25818727915437L44.055535927581786,92.26151973466682L44.134438594118755,52.11734965692L44.231906593958534,153.46212695803942L44.85384525960286,60.971533213702116L44.87241059290568,68.79055597201483L44.909541259511315,134.86858545537513L45.42937059199015,112.25479296154488L45.49434925855001,185.3618177796089L45.67071992492676,124.20639740941267L45.72641592483521,47.595906456227624L45.92135192451477,98.96126626124993L46.27873459059397,109.10263869900615L46.64539992332459,158.3256537303133L46.654682589976,168.7908652825L46.905314589564,156.9732303077818L47.03527192268371,86.85903896946098L47.52261192188263,80.24595361434518L48.014593254407245,62.167924098622336L48.079571920967105,177.6393209283161L48.36269325383504,159.06455424492933L48.96142525285085,88.73588446265882L49.564798585192364,123.67147416864198L49.76901725152334,80.93330293026708L50.163530584208175,188.85807098980976L50.256357250722246,102.2703016408023L50.423445250447585,73.00067660446172L50.45593458372752,145.18412881546834L50.62302258345286,94.24401336346006L50.720490583292644,111.60637222570683L51.00825324948629,83.94374443260955L51.101079916000366,26.131302618060573L51.6162679151535,5.255082523013726L51.66268124841054,50.116081208849266L51.98293324788412,66.45547760153573L52.04327058111827,90.0329380791855L52.07111858107249,151.25263833911148L52.13145591430664,33.68228035764881L52.39601191387177,-29.003765109577188L52.502762580362955,8.105885025284834L52.79980791320801,-0.3770450429592245L53.46815991210938,147.88059593893294L53.71879191169739,56.29925502423799L53.8533905781428,82.1141011686687L54.10402257773082,120.64300035399908L54.285034577433265,169.59203031076513L54.29895857741038,126.88621116210568L54.354654577318826,147.31713921575746L54.498535910415654,-2.2281149368099875L55.01836524289449,76.8814423563627L55.53819457537333,237.7915083000572L55.658869241841636,45.178834100994266L56.18798124097189,120.30399288275119L56.225111907577514,87.13907017224398L56.41540657393138,141.91041555353974L56.84240923989614,-11.189537715566956L57.13945457274119,135.9423566166525L57.36223857237498,143.00741657595705L57.46898923886617,117.19182792454929L57.78459990501403,69.47695063610905L57.831013238271076,52.52922888434665L57.844937238248185,151.86626731945225L57.914557238133746,65.63925028887849L58.067721237881976,39.83490531455212L58.91244390316009,91.78769421086696L59.22341323598226,-40.12397388797032L59.35337056910197,15.648695188125231L59.399783902359005,56.21694282220784L59.56223056875865,180.49192666181725L60.29556123421987,93.5059614282464L60.64366123364766,86.03538658703297L61.172773232777914,118.02110214551801L61.36306789913177,148.3357527158806L61.88753856493632,150.37287364370158L62.022137231381734,51.708016167700464L62.04534389801025,183.90851948062036L62.087115897941594,76.78544681146928L62.50483589725495,168.87996611974913L62.51875989723206,113.22588601513515L62.64871723035177,33.66446019019898L62.6951305636088,17.722941464800016L63.12677456289927,96.61324705488465L63.28457989597321,108.49982910604564L63.563059895515444,129.77116898532228L64.13858522790274,133.28619701480062L64.41242389411926,82.43825850037507L64.53309856058758,181.6808924769667L64.54702256056468,87.41146416040561L64.64449056040446,123.11395750128311L64.67697989368439,95.07042362894578L64.94617722657522,177.07140916327816L64.97402522652943,88.13742383913547L65.23393989276886,183.16304247563593L66.18541322453817,22.117628117262967L66.44532789077759,150.2573607725536L66.59385055720011,71.4684604210525L66.99764655653635,154.4113690920186L67.15081055628458,51.35458284661223L67.5174758890152,80.87634203788281L67.54996522229513,57.850988533901784L67.61030255552927,185.28268775033766L67.88878255507151,-3.0165512740395286L68.02802255484262,84.94093130282278L68.13477322133382,166.59781788949303L68.21831722119649,14.86460782033285L68.89131055342357,161.04142603518184L69.18835588626861,182.0040951568454L69.88919721844991,95.68967444782726L70.00987188491821,119.85636724799959L70.90100788345336,13.481105177189448L70.93349721673329,142.9280744018352L71.45796788253784,151.82044403172412L71.47189188251495,190.8123493534741L71.56935988235473,94.155655033188L71.84319854857127,154.51001644754442L72.04277588157653,90.83877029416368L72.43728921426137,145.75808670874818L72.5811705473582,188.2660807842295L72.65543188056947,-94.26015758659014L72.73433454710643,78.6130746993295L72.91998788013458,27.730980863958422L73.12931201312384,127.56369574247499L73.13395334644953,124.08632342397694L73.23606267961503,53.228988674028244L73.39850934601466,53.41854009803325L73.51825574581783,66.89058669010234L73.56002774574915,18.357784930200097L73.80137707868576,104.93208308119489L73.81530107866287,68.02174303346516L73.97310641173681,78.29146310583025L73.99167174503961,61.315101799237766L74.0984224115308,80.37461946622994L74.12627041148504,67.2274727128443L74.13555307813644,72.30293219086076L74.34905441111883,66.45823548459344L74.72964374382656,48.086491423224345L74.81782907701492,43.606628613248205L74.85960107694626,93.19028989056375L75.17521174309412,178.93817777607282L75.18449440974554,-13.228249729767384L75.46297440928777,40.69451624915567L76.2009464080747,106.14873379934676L76.44415227434158,111.95312298400138L76.53697894085566,117.66925991080923L76.68086027395249,81.13876521806657L76.72263227388382,83.32884258316523L76.8015349404208,90.22376237229406L76.88043760695776,-11.451748750900123L77.26102693966548,241.05737220251385L77.36777760615668,83.91574131233125L77.43275627271652,70.92144492379799L77.77621493881863,81.66658160634239L78.30532693794886,181.32862595255673L78.75089493721643,137.77496990850165L78.77410160384497,122.6791666299924L78.94118960357031,77.40862231008674L79.08507093666712,103.93319905217692L79.53528026926041,120.13830775443792L79.65595493572872,103.51612227591073L79.67452026903152,39.13079655543336L79.7487816022428,13.1903606594515L79.94371760192236,195.55877216822054L78.83908027040482,1.0317028374047652L78.85300427038193,63.01342740066144L78.9272656035932,78.02967636019827L79.37283360286077,81.39397547333016L79.61882426912308,174.74354371771923L80.60742826749802,8.730439465431147L80.73738560061773,103.81991370196016L81.22936693314234,-16.67083029276816L81.56354293259302,118.25276432236576L81.85130559878668,102.83556159520782L82.21332959819158,149.853012687323L82.29223226472855,48.076838832522355L82.41754826452257,132.92491433424044L82.51501626436233,12.303807328822614L82.57071226427078,40.89817530572512L82.64033226415634,154.5442778409152L82.90488826372146,36.76400252979059L83.09054159674962,115.45574053972003L83.24370559649785,114.13969995906525L83.75425226232528,168.46872332687425L84.0002429285876,75.8178541479138L84.01880826189041,126.25020090002734L84.1116349284045,60.03745943654036L84.4736589278094,94.87132568666408L84.66859492748897,136.33843105270995L84.90530292709985,153.35658489486931L85.01205359359105,31.75770227306751L85.28589225980758,164.3662662061034L85.29981625978469,76.13023744041226L85.73610159240087,101.41970686234896L85.8939069254748,127.43004448660129L86.05635359187443,41.45569197308399L86.2373655915769,110.00446645887774L86.66436825754165,70.01548033933983L86.76647759070715,83.91966599206722L87.14706692341487,41.48645297642L87.80149492233912,104.1296451838262L88.10782292183558,66.38059046927634L88.1403122551155,75.54302049397035L88.18208425504685,33.437995562190764L88.26098692158381,153.08896416584602L88.31668292149226,235.2134180032236L88.34453092144649,211.36610927561932L88.61836958766303,79.92222057234L88.8504362539482,105.53892342631667L89.0685789202563,144.47471643508476L89.36098291977565,178.15366611857925L89.70908291920345,175.32545704289632L89.73693091915767,116.01696974196427L89.87617091892879,178.81545198000467L89.91794291886012,39.37497527846611L89.96435625211716,100.41954996422743L90.39135891808192,-54.28718840327198L90.43313091801326,172.44283281303623L90.45169625131608,224.2507267763959L91.54240958285651,-21.81947974423926L91.83481358237584,131.83300478823736L92.04831491535822,32.87294775263584L92.2525335816892,96.29874231388027L92.65168824769972,157.87039088094033L92.92088558059056,102.34815880097L93.61244424612045,52.183963140006256L93.62172691277185,-13.683088289439155L93.77024957919438,88.56107710577004L93.9141309122912,79.52307003594893L94.18796957850773,94.8490504773518L94.8516802440834,100.96295899902185L94.9630722439003,46.8381250499088L95.00484424383163,86.23777277449886L95.26011757674534,77.61896392944988L95.96095890892664,49.807410451236194L96.02593757548651,71.87174778203013L96.49935357470831,32.45184022420838L96.59682157454809,101.80326475222142L97.21411890686672,49.989536805470436L97.54829490631738,125.9962635138673L97.65040423948288,-42.52121069967322L97.72930690601986,98.52255071022324L97.94280823900222,83.84499100465843L98.10061357207616,11.5922734999331L98.40230023824691,193.51804477793948L98.77360690430324,127.57759123018884L99.12634823705673,144.34955097323478L99.29343623678207,104.30721042377269L99.8086242359352,16.133021882029453L99.81326556926092,96.66394967417642L99.97107090233486,65.96128617207893L100.0360495688947,166.8074170018791L100.23098556857427,169.9035650238612L101.00608823396682,70.18540836466497L101.14996956706365,181.70380412083077L101.30777490013759,77.60644738326488L101.8090388993136,87.72013491801869L101.96220289906184,172.18825899232442L102.0457468989245,91.47997810508156L102.05502956557591,153.20988673068413L102.16642156539281,233.38441117383454L102.17106289871852,132.17286083888763L102.18498689869563,152.26488749371683L102.273172231884,100.76375498431486L102.43561889828364,70.90733729123355L102.57950023138046,2.3226042532642452L102.76051223108293,223.02749956787565L102.80692556433996,53.76762444968432L103.2200042303276,69.13550349907933L103.28498289688746,71.42369785757734L103.41958156333287,54.16465353756945L103.4567122299385,77.85253540995296L103.59131089638392,84.28763123542109L104.05080289562862,101.58560413551282L105.12295089386622,-36.85757962338718L105.25290822698592,109.3685622692247L105.29468022691728,160.43384318308298L105.42463756003697,155.7975235457944L105.58708422643662,173.89772219840424L105.64278022634507,118.34462304267261L105.93982555919011,58.106198789165376L106.56640555816016,-4.892442115409693L106.81703755774815,4.111621778316504L107.43433489006678,182.19014619081563L107.43897622339249,114.21469316374994L108.08876288899103,72.42120294506645L108.6503642214012,192.155968764706L108.68285355468115,80.06308475313386L109.26302022039414,26.552940508614512L109.78749088619868,52.763861089102704L109.87567621938705,218.03976198557947L110.00563355250677,142.371512386304L110.10774288567225,149.6724774194682L110.20521088551205,40.53275580057837L110.5208215516599,68.29360665950031L110.76681221792222,67.65218670373184L111.03600955081303,90.79082555792962L111.24022821714401,30.994192955782665L112.23347354884466,133.98744181843637L112.31701754870733,145.95601785435161L112.41912688187281,73.02157287224514L112.44697488182705,20.491325692615675L112.95288021432876,64.24832257596432L113.01785888088862,163.84195020786237L113.06891354747137,187.88528077741475L113.32418688038508,161.5399664340758L113.37524154696783,120.75098208295101L113.40308954692205,97.62772373042122L113.67692821313858,-85.17102360777602L113.80224421293258,120.79086531486253L113.90899487942377,137.56696188249504L114.23388821222305,150.5056763201729L114.33599754538854,198.11501154544302L114.60055354495367,228.04811960201377L114.78620687798183,6.91554026860652L114.8697508778445,142.45011205344878L114.89759887779871,230.7582700683416L114.91152287777582,109.60425519823372L115.26426421052933,167.65026849328578L115.26890554385504,195.0219396237945L115.48704821016311,106.19848176681086L115.63092954325994,164.6057777424231L115.75624554305395,162.7406002160079L115.77016954303106,96.1920334540319L115.79337620965957,77.00098597967195L116.12291087578456,142.41436564612383L116.1739655423673,117.50484765159952L116.4013908753268,120.09269661156038L116.66594687489193,112.79035263686735L116.8748068745486,158.01496759661958L117.06510154090245,154.59582903960936L117.1254388741366,-40.36348542429002L117.13008020746231,-11.907860179675453L117.2321895406278,90.3842499517678L117.30645087383905,110.30836395735247L117.8216388729922,127.54746666140461L117.91910687283199,123.15034034315984L118.23935887230556,126.98114598274613L118.25328287228267,229.22149277064463L118.25792420560838,203.4483330893555L118.48070820524217,78.4484502952692L118.59210020505904,107.3475643500488L119.20475620405198,65.05998877433382L119.57606287010829,116.76722000608704L119.63640020334245,105.053005646033L119.93344553618749,117.9190604723827L120.23513220235824,182.20446596823066L120.34188286884944,78.18210243534946L120.73175486820857,118.67111396773551L120.74567886818568,135.19677353924277L120.7688855348142,58.362681913532526L121.07985486763636,120.93554810296708L121.16339886749904,130.50359908199522L121.51149886692683,93.81717792406658L121.69251086662928,93.17586404072341L122.42584153209052,67.46115026577269L122.62077753177007,-48.42944478869319L122.62541886509577,99.68171017386436L122.92710553126653,26.931512994498036L122.95495353122075,-5.155819947421122L123.07562819768906,-18.732984312959132L123.17309619752884,75.94132245095903L123.20094419748305,183.45399913822448L123.93427486294428,206.2309310221609L125.04355352778752,95.0727572223023L125.10389086102168,135.23559604690132L125.26169619409562,108.212054616216L125.37308819391251,75.26574717424506L125.43806686047236,128.5513360944115L125.56802419359207,65.7133949141608L126.09713619272232,149.20703161726678L126.25958285912196,98.51989889959083L126.431312192173,35.25841052513081L126.85367352481207,122.49714634818345L127.45704685715357,91.26836361661486L127.80514685658137,94.95416825082071L128.22286685589472,104.55287416075959L128.23679085587185,81.86122450676163L128.91906685475033,134.5276686804719L128.93763218805313,139.9003430941694L129.1372095210584,122.84548819285745L129.18826418764115,25.0422570275405L129.23467752089817,122.88643214902193L129.39248285397213,33.08997193479266L129.43889618722918,91.81537911386937L129.55957085369747,131.28312533549985L129.76843085335415,72.81345877381324L129.87518151984534,175.3447622243003L130.1118895194562,73.91332375171356L130.22328151927312,87.46397001092743L130.3114668524615,188.65960948207984L130.52960951876958,29.617797165134135L131.05408018457413,25.728015257082944L131.28150551753362,94.12595475410495L131.65745351691564,113.34012601717957L131.7085081834984,-61.88186798208241L131.80133485001247,90.76918678316912L132.14015218278885,139.1417131084482L132.40470818235397,138.5878029035494L132.90133084820428,127.83428649940659L133.55575884712854,109.9154716940539L133.736770846831,-46.84132843715267L133.87136951327642,67.76430525727034L134.27516551261266,113.56499955880834L134.49794951224646,131.02749079053507L134.50723217889785,90.81267647754072L134.6836028452746,75.87767899578108L134.7903535117658,94.89816201026412L135.11988817789077,129.55509945499313L135.77431617681503,-26.982873262826587L136.07136150966008,112.90448656648648L136.4241028424136,0.2877108463744946L136.52621217557908,78.3859736367695L136.5633428421847,207.22695109569585L137.2688255076917,0.024226941937769197L137.3709348408572,98.63530569831352L137.5240988406054,175.65703944437345L137.86755750670753,119.02624444762849L138.04856950640996,51.21096078276065L138.4477241724205,73.05127315132819L138.78654150519688,61.4043087089122L138.9025748383395,140.17729819661878L138.96291217157363,111.15418547666746L139.00468417150498,44.67679331206551L139.37134950423558,148.0346131004636L139.64518817045212,32.909436666937864L140.17430016958235,10.04022177299342L140.2439201694679,81.72640645420967L140.61058550219855,165.82348918482793L141.01438150153479,59.80091792812897L141.4274601675224,78.83306890939463L141.59918950057346,45.53990463670385L141.76163616697312,151.30450775508152L142.1050948330752,79.32110813818423L142.6806201654625,108.10396681483877L142.77808816530228,117.37851539307128L142.8198601652336,102.32503501225534L142.8941214984449,73.97230002017847L143.18652549796423,32.59408334653111L143.19116683128993,110.18086490214597L143.2561454978498,-24.898974395449812L143.82702949691136,127.33054855167309L143.8780841634941,77.18693094121687L144.3422174960645,66.77740741231088L144.65318682888667,175.00978550521367L145.58145349402744,68.10702526340361L146.17090282639185,36.575087540337364L146.17554415971756,-47.758006336565785L146.31014282616297,75.03334249042024L146.3194254928144,48.457957056613L146.7789174920591,132.90380592160642L147.47511749091467,145.1234553881987L147.77216282375971,66.82238212063663L147.80001082371393,74.32690013794496L147.82785882366815,113.29674239523327L147.84642415697095,59.92385586904771L147.85106549029666,114.32999389004733L148.38481882275264,142.34234246934744L148.64009215566634,50.85073882645344L149.19705215475082,84.99248250151692L149.45696682099023,108.5198767944267L149.91181748690923,123.6459107141455L149.95823082016628,102.56550120040271L149.9907201534462,47.86649721315922L150.07426415330886,31.928903167496202L150.33882015287398,172.4969297499375L150.54303881920498,114.3809086541897L150.94219348521548,56.19806193050505L151.36455481785455,120.18731321492494L151.37383748450597,89.8432805827552L151.52236015092848,97.99346145284386L151.6059041507912,38.6011769359275L152.91940148196537,-1.1529648340037681L153.04007614843368,136.97295630083414L153.24429481476466,140.87514868264503L153.49956814767836,129.22765387810256L153.78733081387205,214.25021851943356L153.8476681471062,85.316533760798L154.2746708130709,228.84854212330183L154.40926947951635,140.3378918485178L154.5902814792188,86.47802681779564L155.8898548104159,196.048190338539L156.2565201431465,81.3831560859499L156.37719480961482,153.64870835413612L156.4793041427803,98.97516174896379L156.56748947596867,212.65828356058236L156.68352280911128,48.18344161994543L156.75778414232255,86.75827016542922L156.813480142231,68.39808799841745L157.01305747523625,328.75084051281294L157.32866814138413,-28.283851559089243L157.61643080757776,115.88745531067714L158.5818281393242,102.3109273796909L158.6143174726041,46.24072515063841L158.65608947253546,90.01087501472381L158.88815613882065,187.44995954399755L158.90208013879777,75.23297079482842L158.99954813863755,15.501466661813566L159.14342947173438,39.97078409135705L159.23161480492274,158.59401696631366L159.86283613721847,73.61335093297481L160.23878413660051,62.50958338050265L160.24342546992622,72.33167781811613L160.40123080300012,110.46556329164201L161.03709346862155,146.2308515082951L161.0603001352501,119.98619989656261L161.1809748017184,202.21619579711032L161.3944761347008,149.90965536243138L161.46409613458633,91.29053275350185L161.84468546729406,67.29663193413768L162.04426280029932,101.61275867638875L162.1649374667676,44.09625892841726L162.3552321331215,170.30727667454002L162.55480946612676,-6.46295044435098L163.16746546511968,120.99505473355846L163.1999547983996,-63.97287370195406L163.21852013170243,92.89742392431987L163.69193613092423,186.15916420056337L163.87758946395238,93.76106561108469L164.31387479656854,152.8288745790188L164.3788534631284,192.52679796354286L164.4623974629911,115.39061207058792L164.65733346267064,200.3203633397844L165.9197761272621,128.8687047908989L166.16576679352443,125.19308310952154L166.7180854592832,79.2475999474537L167.56280812456131,201.7939214720046L167.73453745761236,-0.9275609302485179L168.17082279022853,35.36618010923215L168.90879478901545,78.70663057844109L169.02946945548376,122.37007158267814L169.2151227885119,62.6508718509977L169.4286241214943,260.6821498239116L169.73031078766505,53.32031703220861L169.76280012094497,21.272973394626234L169.79993078755064,156.08285836984223L170.02271478718438,114.75852648824555L170.06448678711575,190.98408061002928L170.33832545333226,139.69891155853117L170.39866278656643,121.15458766120453L171.0716561187935,100.60570707062294L171.12735211870194,133.49600827203727L171.28051611845018,56.74900210749553L171.47545211812974,-10.83652868417991L171.7771387843005,179.28917143137923L172.12059745040258,116.61203604787814L172.33874011671068,66.02853608971697L172.64042678288143,105.71076075529714L172.77502544932682,79.04691091879255L172.83536278256096,71.50367646625097L173.15561478203458,188.0053547628505L173.16953878201167,170.06362831363376L173.36911611501694,77.3817859864867L173.59654144797642,13.618681112799123L173.85645611421586,150.06961257977864L174.46911211320875,141.53460095071392L174.5062427798144,68.3342323983889L174.5387321130943,25.105264048166674L174.9703761123848,126.40146017850027L175.02607211229324,154.62054391470346L175.11889877880733,187.54913726164986L175.64801077793757,120.61955834800854L175.66657611124037,82.79879867395817L175.7918921110344,149.56025279350442L175.80117477768582,1.915286140125346L176.21889477699915,188.66512524819527L176.54378810979844,124.5693772487776L176.66910410959244,120.94933751825563L176.70159344287237,77.43312504033025L176.71551744284946,215.79983058059142L176.8315507759921,215.36737330265723L177.46277210828782,87.1164767456558L177.88977477425257,166.97755717205482L177.9222641075325,155.20192687775406L178.33998410684586,156.02706427413622L178.38175610677717,25.297467282804092L178.43745210668564,136.6319334535056L178.52563743987403,99.22411373113488L178.60454010641098,-25.90294990088202L178.855172105999,14.637400685347558L178.91086810590744,178.71935036268596L179.02690143905002,40.44609462911106L179.19863077210107,55.94433668919561L179.46782810499192,112.35025814431181L179.6813294379743,-0.7771502311779557L179.76951477116268,205.67214148569846L179.8020041044426,44.51948790535067L180.015505437425,0.5644538039732936L180.2568547703616,61.63618303061054L180.2707787703387,58.81211077951417L180.43322543673833,67.10103438189077L181.03659876907986,181.04933725675082L181.27794810201644,139.5925209159587L181.28258943534215,54.07237052756142L181.38005743518195,197.92079293472497L181.63533076809566,68.99188143522775L182.0391267674319,72.61977052522167L182.0437681007576,78.77663837913684L182.22013876713436,93.42248242953798L182.38258543353396,120.99866119601855L182.42435743346533,197.58931660567313L182.60536943316777,44.91407732745398L182.83279476612728,114.55232169346898L183.08806809904098,-43.815612505567486L183.2365907654635,60.248437490455274L183.6775174314054,19.14059942888892L184.3830000969124,98.13581064759188L184.61042542987187,179.159975217368L184.77751342959724,19.064015137824782L185.06527609579086,163.1477061842962L185.42265876187005,82.71924435498573L185.43658276184718,151.89193684637402L185.7893240946007,149.8561948600819L185.88679209444047,178.22537107807975L185.9239227610461,221.48308505555732L185.98426009428024,99.53936097911634L185.99354276093163,166.334227912631L186.02139076088585,272.46997844712143L186.47624142680485,149.58698304467916L186.48552409345626,97.35458723528251L186.8893200927925,153.10604182631877L186.9032440927696,73.69046558616543L187.02856009256362,108.36384425681541L187.822228091259,-50.42763713643032L187.85471742453893,104.94916074166764L188.1610454240354,55.964384377576664L188.1842520906639,83.79842520995322L188.66695075653712,121.40926755434164L188.7458534230741,-26.587223116470312L189.05682275589623,148.24198469191842L189.1496494224103,168.912106064614L189.64627208826064,-26.71451002682622L189.88762142119725,17.36494702942403L189.9572414210828,191.58445053720797L190.02686142096837,173.06717510833195L190.10112275417964,88.85606452051985L190.1614600874138,186.14187439524002L190.32390675381345,129.307208197075L190.4120920870018,-12.735755459115325L190.44458142028174,132.90369984918112L191.52601208517075,30.293796731549293L191.804492084713,15.529363709666569L191.94373208448408,-1.998149918766984L192.03191741767247,102.17038141617292L192.44499608366013,227.8233521328103L192.6260080833626,55.16512865296687L192.6445734166654,99.71045580111974L192.68634541659674,83.89293574089248L192.71419341655096,-0.4259444310209517L192.83022674969357,171.0479804203861L193.09478274925868,97.22337564519063L193.77241741481146,33.77827590254222L194.3108120805931,186.69737568651826L194.46397608034133,27.09900135404135L194.96988141284305,35.78187794396948L194.99772941279727,78.04357184791212L195.0395014127286,149.27969122859494L195.63823341174444,110.69701332363917L195.79603874481836,-27.84587851503963L196.13021474426904,165.16499156858671L196.98422007619857,188.96626486361228L197.07240540938696,71.32897518178748L197.2719827423922,40.64031323982911L197.5922347418658,131.4303538618115L198.59012140689214,116.30378957996625L199.05889607278826,10.442448409718082L199.31416940570196,36.887895122537L199.38378940558752,83.91128627046879L199.70404140506108,123.93421556610163L199.86184673813503,95.24268524762743L200.20530540423712,62.73594193608557L200.27956673744836,37.3014715087684L200.33062140403112,52.58078008304079L200.48842673710504,139.88846298253617L200.85973340316136,54.00384774081982L201.1428547360293,86.77502960862608L201.14749606935501,41.545004955183714L201.41669340224584,117.57040041043281L201.50952006875994,32.891086137361555L201.70909740176518,-15.751606655147924L201.7323040683937,-27.329517948695838L202.0664800678444,172.6397032343867L202.72090806676866,56.14555607998324L202.82765873325982,85.8884762779972L202.83230006658553,167.37554091176762L203.46352139888126,91.07870612018456L203.90908939814886,1.164717658726687L204.1829280643654,180.66217290441827L204.23398273094813,115.08777529636616L205.55212139544804,121.90038288346484L205.74241606180192,86.79518336943244L206.06730939460118,54.00851492753287L206.1972667277209,85.27102869034576L206.4339747273318,115.57263235239687L206.88418405992508,113.64922106449383L206.9213147265307,123.77606157998441L207.0280653930219,88.90655499496103L207.05127205965042,61.31775360987018L207.1301747261874,237.1228277309875L207.3668827257983,97.70197442812884L207.54325339217505,215.81478679255824L208.49008539061862,141.73231995146676L208.82426139006935,70.41558552755856L209.31160138926822,130.29156030382734L209.7153973886045,168.58381190832105L209.77109338851292,104.50853588698561L209.91961605493543,186.5715737901165L210.04957338805517,65.70374232345881L210.4533693873914,125.96953326269256L210.49978272064845,130.30259183605818L210.52763072060267,176.10996870038989L210.5461960539055,128.72380985794376L210.6900773870023,82.09161381450582L210.69936005365372,55.80559395690767L210.76433872021354,128.67204651439903L210.79218672016782,124.43021022678847L211.13100405294418,110.44477309628388L212.27741338439307,110.24185654669151L212.309902717673,131.99190128133165L212.685850717055,136.96394014468393L212.8065253835233,162.52060600594277L213.22424538283664,161.4006933396614L213.34956138263067,162.3177955287757L213.67445471542996,140.25207925645287L213.9900653815778,50.53655230272494L214.06432671478908,192.9205388062438L214.37065471428554,0.31104677993974406L214.5934387139193,212.12102672645514L214.66770004713058,34.473262433085466L214.802298713576,144.30298517852958L214.91833204671858,99.19685311783365L215.006517379907,64.06672658385656L215.67486937880835,81.74571163561365L215.71200004541396,46.80471223594037L216.00904537825903,128.96257888728638L216.13436137805303,73.41255583188837L216.76094137702307,131.1977370331361L216.793430710303,131.0984532430585L216.87697471016565,179.58999282952036L217.35503204271316,102.33511189265852L217.46642404253004,220.49894509365558L217.51283737578711,98.48510714409355L217.57781604234697,101.75203177080317L217.8655787085406,93.79776667023731L218.18118937468847,7.330389523941477L218.30650537448247,247.32402501661102L218.61283337397893,54.228509137597996L218.6731707072131,111.62854136259382L218.8216933736356,46.49222287101662L218.90523737349827,58.61067924387595L218.95165070675534,45.277693601370686L219.0491187065951,165.99405364470485L219.55502403909685,35.70932440506661L219.8799173718961,116.8713831277283L220.3347680378151,38.44344723951147L220.87780403692247,158.58701618624409L221.0541747032992,124.96523953998447L221.20733870304744,89.09600034654073L221.2862413695844,101.57775477604088L221.46725336928688,59.72306076796127L222.59045603410723,131.03343084635168L222.66471736731847,77.3600411393009L223.33306936621983,76.48314039937401L223.57441869915644,8.816570274771976L223.7786373654874,9.133726826408775L223.94108403188704,34.15790911267871L224.08032403165817,98.14811504892629L224.19171603147507,170.1272717688117L224.30310803129197,67.53285522527318L224.3402386978976,88.88926518963768L224.39129336448033,-67.80760402127632L224.39593469780604,-13.900324616446568L224.67441469734828,91.40010556883323L224.79973069714228,102.62362888946524L224.8182960304451,-66.35144176680475L224.88791603033067,60.21460038678566L225.00859069679896,40.74203669568854L225.0596453633817,182.0167177754557L225.11070002996445,-16.92911664836535L225.26386402971266,143.66570204734768L225.65837736239752,98.07259148211512L225.9043680286598,10.824839502912283L225.92293336196263,66.34505620680198L225.9832706951968,85.86524641685725L226.3545773612531,230.72793335470678L226.37314269455592,145.00868502402778L226.49845869434995,141.7685967209182L226.54023069428126,61.834326321064566L226.9440266936175,136.35752408926334L226.97651602689743,69.09105915288006L227.1807346932284,80.0244743903259L227.42672535949072,153.63534322854875L227.58917202589035,67.31646747766814L227.60773735919315,187.13948555515444L227.8908586920611,85.11382935605621L228.3410680246544,148.54259394520895L228.51743869103115,118.94732656320782L228.7309400240135,-15.33357522705407L228.73558135733924,80.84589925182269L228.74950535731634,90.49658065015689L229.00942002355575,85.73477733374244L229.3992920229149,78.50498689795228L229.51068402273177,273.3503795770831L229.73810935569128,-2.6043538293369863L229.80308802225113,110.81348084661482L230.49000535445532,187.5012985978411L230.6292453542264,-23.456601556266804L230.90308402044295,103.52121375232497L231.13979202005387,69.03611363657643L232.09590668514886,89.41315689817753L232.13767868508023,57.9220570588505L232.2305053515943,140.18461719396424L232.3743866846911,61.82668910644321L232.3836693513425,39.000751762019746L233.01024935031256,122.79690702207161L233.17733735003787,2.4998512759348444L233.38155601636888,122.33665876870971L233.6553946825854,130.83242360041464L233.71109068249385,44.94727799657181L234.23556134829838,84.80473430874196L234.40729068134945,-73.15238138712081L234.55117201444625,236.30723685288203L234.7136186808459,40.71286677873198L235.4098186797015,57.32136891439592L235.4515906796328,63.91971020239549L235.57690667942683,221.22766265544314L235.71614667919795,89.23050018181681L235.87395201227187,58.58172147176998L236.08281201192858,64.898758687883L236.1199426785342,90.01182966655148L236.2499000116539,-18.487320575972234L236.77437067745845,13.202877205636497L236.8486320106697,148.99329568029415L236.9553826771609,42.01055682981044L237.13639467686335,105.52789189408583L237.21529734340032,109.33048226854322L237.61445200941085,65.81119369028426L237.6562240093422,47.63292573265613L237.81402934241612,110.17450055662817L238.29208667496366,0.7422311887703756L238.3477826748721,174.84813112906167L238.52879467457453,47.09428995700006L238.77014400751113,134.83283904805018L240.10684800531388,70.70876971107833L240.20431600515366,194.16614729650163L240.85874400407792,46.149821082159235L241.05832133708316,99.11252553972287L241.30431200334547,139.32712770786662L241.3368013366254,3.1107223732178966L241.4296280031395,75.065800652561L241.54566133628208,102.40787757641198L241.5503026696078,37.12687629673022L241.96802266892115,89.62031634478177L242.20937200185773,87.55901090399317L242.48785200139997,140.92733631589095L242.52034133467993,178.34555113594078L242.65494000112534,159.72856762728597L242.90093066738766,103.02299157070689L242.91949600069046,-34.323509383051686L242.9798333339246,77.12636358637252L243.04481200048446,148.7742561220567L243.15620400030136,120.8976802471362L243.2119000002098,110.7239557196645L243.36042266663236,187.76435821257664L243.39291199991226,75.84320545755969L243.4578906664721,82.72507833837705L243.98236133227667,33.74040804671134L244.0334159988594,-56.52160404214462L244.06126399881362,-52.61209266298826L244.2515586651675,41.20811893244175L244.27012399847032,45.545738620095165L244.33510266503015,77.96794220867565L244.44185333152134,130.09288665124683L244.93383466404597,120.63812102243544L245.13341199705124,101.05566629873107L245.3376306633822,-11.795423408861069L245.4211746632449,177.95838678360823L245.49543599645614,127.73839702693847L245.6346759962273,75.2741268958435L245.95492799570084,151.2302570573739L246.53509466141384,203.8893822337387L246.7346719944191,-20.201344896339805L246.74395466107052,33.94311245145312L246.91568399412154,167.79770916444804L246.92032532744724,140.01447702378852L246.9667386607043,195.59059389580952L247.00386932730993,129.75080307966533L247.11990266045254,67.40578045976787L247.50513332648595,151.2243170015573L247.52833999311446,170.8363659319194L247.59795999300005,54.2780449602115L248.4983786581866,39.783990550409754L249.13888265713373,129.19784752659422L250.122845322183,135.7116490916324L250.4848693215879,7.171386958421891L250.66123998796465,-50.13699869111767" fill="none"></path></g></g></g></g></g></g><g transform="translate(51, 177)" clip-path="url(#clip_1)"><clipPath id="clip_1"><rect width="278" height="22"></rect></clipPath><g><g><line x1="0" y1="0" x2="0" y2="5" style="visibility: inherit;" fill="rgb(0, 0, 0)" stroke="rgb(204, 204, 204)" stroke-width="1px"></line><line x1="23.20666662851969" y1="0" x2="23.20666662851969" y2="5" style="visibility: inherit;" fill="rgb(0, 0, 0)" stroke="rgb(204, 204, 204)" stroke-width="1px"></line><line x1="46.41333325703938" y1="0" x2="46.41333325703938" y2="5" style="visibility: inherit;" fill="rgb(0, 0, 0)" stroke="rgb(204, 204, 204)" stroke-width="1px"></line><line x1="69.61999988555908" y1="0" x2="69.61999988555908" y2="5" style="visibility: inherit;" fill="rgb(0, 0, 0)" stroke="rgb(204, 204, 204)" stroke-width="1px"></line><line x1="92.82666651407877" y1="0" x2="92.82666651407877" y2="5" style="visibility: inherit;" fill="rgb(0, 0, 0)" stroke="rgb(204, 204, 204)" stroke-width="1px"></line><line x1="116.03333314259848" y1="0" x2="116.03333314259848" y2="5" style="visibility: inherit;" fill="rgb(0, 0, 0)" stroke="rgb(204, 204, 204)" stroke-width="1px"></line><line x1="139.23999977111816" y1="0" x2="139.23999977111816" y2="5" style="visibility: inherit;" fill="rgb(0, 0, 0)" stroke="rgb(204, 204, 204)" stroke-width="1px"></line><line x1="162.44666639963788" y1="0" x2="162.44666639963788" y2="5" style="visibility: inherit;" fill="rgb(0, 0, 0)" stroke="rgb(204, 204, 204)" stroke-width="1px"></line><line x1="185.65333302815753" y1="0" x2="185.65333302815753" y2="5" style="visibility: inherit;" fill="rgb(0, 0, 0)" stroke="rgb(204, 204, 204)" stroke-width="1px"></line><line x1="208.85999965667725" y1="0" x2="208.85999965667725" y2="5" style="visibility: inherit;" fill="rgb(0, 0, 0)" stroke="rgb(204, 204, 204)" stroke-width="1px"></line><line x1="232.06666628519696" y1="0" x2="232.06666628519696" y2="5" style="visibility: inherit;" fill="rgb(0, 0, 0)" stroke="rgb(204, 204, 204)" stroke-width="1px"></line><line x1="255.27333291371662" y1="0" x2="255.27333291371662" y2="5" style="visibility: inherit;" fill="rgb(0, 0, 0)" stroke="rgb(204, 204, 204)" stroke-width="1px"></line><line x1="278.4799995422363" y1="0" x2="278.4799995422363" y2="5" style="visibility: inherit;" fill="rgb(0, 0, 0)" stroke="rgb(204, 204, 204)" stroke-width="1px"></line></g><g transform="translate(0, 8)"><text style="text-anchor: middle; visibility: hidden; font-family: &quot;Helvetica Neue&quot;, sans-serif; font-size: 12px; font-weight: 200;" x="0" y="0" dx="0em" dy="0.95em" fill="rgb(50, 49, 63)" stroke="none" stroke-width="1px">-50k</text><text style="text-anchor: middle; visibility: hidden; font-family: &quot;Helvetica Neue&quot;, sans-serif; font-size: 12px; font-weight: 200;" x="23.20666662851969" y="0" dx="0em" dy="0.95em" fill="rgb(50, 49, 63)" stroke="none" stroke-width="1px">0</text><text style="text-anchor: middle; visibility: hidden; font-family: &quot;Helvetica Neue&quot;, sans-serif; font-size: 12px; font-weight: 200;" x="46.41333325703938" y="0" dx="0em" dy="0.95em" fill="rgb(50, 49, 63)" stroke="none" stroke-width="1px">50k</text><text style="text-anchor: middle; visibility: hidden; font-family: &quot;Helvetica Neue&quot;, sans-serif; font-size: 12px; font-weight: 200;" x="69.61999988555908" y="0" dx="0em" dy="0.95em" fill="rgb(50, 49, 63)" stroke="none" stroke-width="1px">100k</text><text style="text-anchor: middle; visibility: hidden; font-family: &quot;Helvetica Neue&quot;, sans-serif; font-size: 12px; font-weight: 200;" x="92.82666651407877" y="0" dx="0em" dy="0.95em" fill="rgb(50, 49, 63)" stroke="none" stroke-width="1px">150k</text><text style="text-anchor: middle; visibility: hidden; font-family: &quot;Helvetica Neue&quot;, sans-serif; font-size: 12px; font-weight: 200;" x="116.03333314259848" y="0" dx="0em" dy="0.95em" fill="rgb(50, 49, 63)" stroke="none" stroke-width="1px">200k</text><text style="text-anchor: middle; visibility: hidden; font-family: &quot;Helvetica Neue&quot;, sans-serif; font-size: 12px; font-weight: 200;" x="139.23999977111816" y="0" dx="0em" dy="0.95em" fill="rgb(50, 49, 63)" stroke="none" stroke-width="1px">250k</text><text style="text-anchor: middle; visibility: hidden; font-family: &quot;Helvetica Neue&quot;, sans-serif; font-size: 12px; font-weight: 200;" x="162.44666639963788" y="0" dx="0em" dy="0.95em" fill="rgb(50, 49, 63)" stroke="none" stroke-width="1px">300k</text><text style="text-anchor: middle; visibility: hidden; font-family: &quot;Helvetica Neue&quot;, sans-serif; font-size: 12px; font-weight: 200;" x="185.65333302815753" y="0" dx="0em" dy="0.95em" fill="rgb(50, 49, 63)" stroke="none" stroke-width="1px">350k</text><text style="text-anchor: middle; visibility: hidden; font-family: &quot;Helvetica Neue&quot;, sans-serif; font-size: 12px; font-weight: 200;" x="208.85999965667725" y="0" dx="0em" dy="0.95em" fill="rgb(50, 49, 63)" stroke="none" stroke-width="1px">400k</text><text style="text-anchor: middle; visibility: hidden; font-family: &quot;Helvetica Neue&quot;, sans-serif; font-size: 12px; font-weight: 200;" x="232.06666628519696" y="0" dx="0em" dy="0.95em" fill="rgb(50, 49, 63)" stroke="none" stroke-width="1px">450k</text><text style="text-anchor: middle; visibility: hidden; font-family: &quot;Helvetica Neue&quot;, sans-serif; font-size: 12px; font-weight: 200;" x="255.27333291371662" y="0" dx="0em" dy="0.95em" fill="rgb(50, 49, 63)" stroke="none" stroke-width="1px">500k</text><text style="text-anchor: middle; visibility: hidden; font-family: &quot;Helvetica Neue&quot;, sans-serif; font-size: 12px; font-weight: 200;" x="278.4799995422363" y="0" dx="0em" dy="0.95em" fill="rgb(50, 49, 63)" stroke="none" stroke-width="1px">550k</text></g><line x1="0" y1="0" x2="278.4799995422363" y2="0" fill="rgb(0, 0, 0)" stroke="rgb(204, 204, 204)" stroke-width="1px"></line></g></g></g></g></svg>