<svg viewBox="0 0 330 200" xmlns="http://www.w3.org/2000/svg"><g><g><g><g><g><line x1="51.52000045776367" y1="177.95999908447266" x2="46.52000045776367" y2="177.95999908447266" style="visibility: inherit;" fill="rgb(0, 0, 0)" stroke="rgb(204, 204, 204)" stroke-width="1px"></line><line x1="51.52000045776367" y1="161.7818173495206" x2="46.52000045776367" y2="161.7818173495206" style="visibility: inherit;" fill="rgb(0, 0, 0)" stroke="rgb(204, 204, 204)" stroke-width="1px"></line><line x1="51.52000045776367" y1="145.60363561456853" x2="46.52000045776367" y2="145.60363561456853" style="visibility: inherit;" fill="rgb(0, 0, 0)" stroke="rgb(204, 204, 204)" stroke-width="1px"></line><line x1="51.52000045776367" y1="129.4254538796165" x2="46.52000045776367" y2="129.4254538796165" style="visibility: inherit;" fill="rgb(0, 0, 0)" stroke="rgb(204, 204, 204)" stroke-width="1px"></line><line x1="51.52000045776367" y1="113.24727214466442" x2="46.52000045776367" y2="113.24727214466442" style="visibility: inherit;" fill="rgb(0, 0, 0)" stroke="rgb(204, 204, 204)" stroke-width="1px"></line><line x1="51.52000045776367" y1="97.06909040971236" x2="46.52000045776367" y2="97.06909040971236" style="visibility: inherit;" fill="rgb(0, 0, 0)" stroke="rgb(204, 204, 204)" stroke-width="1px"></line><line x1="51.52000045776367" y1="80.89090867476031" x2="46.52000045776367" y2="80.89090867476031" style="visibility: inherit;" fill="rgb(0, 0, 0)" stroke="rgb(204, 204, 204)" stroke-width="1px"></line><line x1="51.52000045776367" y1="64.71272693980823" x2="46.52000045776367" y2="64.71272693980823" style="visibility: inherit;" fill="rgb(0, 0, 0)" stroke="rgb(204, 204, 204)" stroke-width="1px"></line><line x1="51.52000045776367" y1="48.53454520485619" x2="46.52000045776367" y2="48.53454520485619" style="visibility: inherit;" fill="rgb(0, 0, 0)" stroke="rgb(204, 204, 204)" stroke-width="1px"></line><line x1="51.52000045776367" y1="32.356363469904124" x2="46.52000045776367" y2="32.356363469904124" style="visibility: inherit;" fill="rgb(0, 0, 0)" stroke="rgb(204, 204, 204)" stroke-width="1px"></line><line x1="51.52000045776367" y1="16.178181734952062" x2="46.52000045776367" y2="16.178181734952062" style="visibility: inherit;" fill="rgb(0, 0, 0)" stroke="rgb(204, 204, 204)" stroke-width="1px"></line><line x1="51.52000045776367" y1="0" x2="46.52000045776367" y2="0" style="visibility: inherit;" fill="rgb(0, 0, 0)" stroke="rgb(204, 204, 204)" stroke-width="1px"></line></g><g transform="translate(41.52000045776367, 0)"><text style="text-anchor: end; visibility: hidden; font-family: &quot;Helvetica Neue&quot;, sans-serif; font-size: 12px; font-weight: 200;" x="0" y="177.95999908447266" dx="0em" dy="0.3em" fill="rgb(50, 49, 63)" stroke="none" stroke-width="1px">23</text><text style="text-anchor: end; visibility: inherit; font-family: &quot;Helvetica Neue&quot;, sans-serif; font-size: 12px; font-weight: 200;" x="0" y="161.7818173495206" dx="0em" dy="0.3em" fill="rgb(50, 49, 63)" stroke="none" stroke-width="1px">23.5</text><text style="text-anchor: end; visibility: hidden; font-family: &quot;Helvetica Neue&quot;, sans-serif; font-size: 12px; font-weight: 200;" x="0" y="145.60363561456853" dx="0em" dy="0.3em" fill="rgb(50, 49, 63)" stroke="none" stroke-width="1px">24</text><text style="text-anchor: end; visibility: inherit; font-family: &quot;Helvetica Neue&quot;, sans-serif; font-size: 12px; font-weight: 200;" x="0" y="129.4254538796165" dx="0em" dy="0.3em" fill="rgb(50, 49, 63)" stroke="none" stroke-width="1px">24.5</text><text style="text-anchor: end; visibility: hidden; font-family: &quot;Helvetica Neue&quot;, sans-serif; font-size: 12px; font-weight: 200;" x="0" y="113.24727214466442" dx="0em" dy="0.3em" fill="rgb(50, 49, 63)" stroke="none" stroke-width="1px">25</text><text style="text-anchor: end; visibility: inherit; font-family: &quot;Helvetica Neue&quot;, sans-serif; font-size: 12px; font-weight: 200;" x="0" y="97.06909040971236" dx="0em" dy="0.3em" fill="rgb(50, 49, 63)" stroke="none" stroke-width="1px">25.5</text><text style="text-anchor: end; visibility: hidden; font-family: &quot;Helvetica Neue&quot;, sans-serif; font-size: 12px; font-weight: 200;" x="0" y="80.89090867476031" dx="0em" dy="0.3em" fill="rgb(50, 49, 63)" stroke="none" stroke-width="1px">26</text><text style="text-anchor: end; visibility: inherit; font-family: &quot;Helvetica Neue&quot;, sans-serif; font-size: 12px; font-weight: 200;" x="0" y="64.71272693980823" dx="0em" dy="0.3em" fill="rgb(50, 49, 63)" stroke="none" stroke-width="1px">26.5</text><text style="text-anchor: end; visibility: hidden; font-family: &quot;Helvetica Neue&quot;, sans-serif; font-size: 12px; font-weight: 200;" x="0" y="48.53454520485619" dx="0em" dy="0.3em" fill="rgb(50, 49, 63)" stroke="none" stroke-width="1px">27</text><text style="text-anchor: end; visibility: inherit; font-family: &quot;Helvetica Neue&quot;, sans-serif; font-size: 12px; font-weight: 200;" x="0" y="32.356363469904124" dx="0em" dy="0.3em" fill="rgb(50, 49, 63)" stroke="none" stroke-width="1px">27.5</text><text style="text-anchor: end; visibility: hidden; font-family: &quot;Helvetica Neue&quot;, sans-serif; font-size: 12px; font-weight: 200;" x="0" y="16.178181734952062" dx="0em" dy="0.3em" fill="rgb(50, 49, 63)" stroke="none" stroke-width="1px">28</text><text style="text-anchor: end; visibility: hidden; font-family: &quot;Helvetica Neue&quot;, sans-serif; font-size: 12px; font-weight: 200;" x="0" y="0" dx="0em" dy="0.3em" fill="rgb(50, 49, 63)" stroke="none" stroke-width="1px">28.5</text></g><line x1="51.52000045776367" y1="0" x2="51.52000045776367" y2="177.95999908447266" fill="rgb(0, 0, 0)" stroke="rgb(204, 204, 204)" stroke-width="1px"></line></g></g><g transform="translate(51, 0)" clip-path="url(#clip_0)"><clipPath id="clip_0"><rect width="278" height="177"></rect></clipPath><g><g><g><line x1="0" y1="0" x2="0" y2="177.95999908447266" fill="rgb(0, 0, 0)" stroke="rgb(60, 60, 60)" stroke-width="1px" opacity="0.25"></line><line x1="23.20666662851969" y1="0" x2="23.20666662851969" y2="177.95999908447266" fill="rgb(0, 0, 0)" stroke="rgb(60, 60, 60)" stroke-width="1px" opacity="0.25"></line><line x1="46.41333325703938" y1="0" x2="46.41333325703938" y2="177.95999908447266" fill="rgb(0, 0, 0)" stroke="rgb(60, 60, 60)" stroke-width="1px" opacity="0.25"></line><line x1="69.61999988555908" y1="0" x2="69.61999988555908" y2="177.95999908447266" fill="rgb(0, 0, 0)" stroke="rgb(60, 60, 60)" stroke-width="1px" opacity="0.25"></line><line x1="92.82666651407877" y1="0" x2="92.82666651407877" y2="177.95999908447266" fill="rgb(0, 0, 0)" stroke="rgb(60, 60, 60)" stroke-width="1px" opacity="0.25"></line><line x1="116.03333314259848" y1="0" x2="116.03333314259848" y2="177.95999908447266" fill="rgb(0, 0, 0)" stroke="rgb(60, 60, 60)" stroke-width="1px" opacity="0.25"></line><line x1="139.23999977111816" y1="0" x2="139.23999977111816" y2="177.95999908447266" fill="rgb(0, 0, 0)" stroke="rgb(60, 60, 60)" stroke-width="1px" opacity="0.25"></line><line x1="162.44666639963788" y1="0" x2="162.44666639963788" y2="177.95999908447266" fill="rgb(0, 0, 0)" stroke="rgb(60, 60, 60)" stroke-width="1px" opacity="0.25"></line><line x1="185.65333302815753" y1="0" x2="185.65333302815753" y2="177.95999908447266" fill="rgb(0, 0, 0)" stroke="rgb(60, 60, 60)" stroke-width="1px" opacity="0.25"></line><line x1="208.85999965667725" y1="0" x2="208.85999965667725" y2="177.95999908447266" fill="rgb(0, 0, 0)" stroke="rgb(60, 60, 60)" stroke-width="1px" opacity="0.25"></line><line x1="232.06666628519696" y1="0" x2="232.06666628519696" y2="177.95999908447266" fill="rgb(0, 0, 0)" stroke="rgb(60, 60, 60)" stroke-width="1px" opacity="0.25"></line><line x1="255.27333291371662" y1="0" x2="255.27333291371662" y2="177.95999908447266" fill="rgb(0, 0, 0)" stroke="rgb(60, 60, 60)" stroke-width="1px" opacity="0.25"></line><line x1="278.4799995422363" y1="0" x2="278.4799995422363" y2="177.95999908447266" fill="rgb(0, 0, 0)" stroke="rgb(60, 60, 60)" stroke-width="1px" opacity="0.25"></line></g><g><line x1="0" y1="177.95999908447266" x2="278.4799995422363" y2="177.95999908447266" fill="rgb(0, 0, 0)" stroke="rgb(60, 60, 60)" stroke-width="1px" opacity="0.25"></line><line x1="0" y1="161.7818173495206" x2="278.4799995422363" y2="161.7818173495206" fill="rgb(0, 0, 0)" stroke="rgb(60, 60, 60)" stroke-width="1px" opacity="0.25"></line><line x1="0" y1="145.60363561456853" x2="278.4799995422363" y2="145.60363561456853" fill="rgb(0, 0, 0)" stroke="rgb(60, 60, 60)" stroke-width="1px" opacity="0.25"></line><line x1="0" y1="129.4254538796165" x2="278.4799995422363" y2="129.4254538796165" fill="rgb(0, 0, 0)" stroke="rgb(60, 60, 60)" stroke-width="1px" opacity="0.25"></line><line x1="0" y1="113.24727214466442" x2="278.4799995422363" y2="113.24727214466442" fill="rgb(0, 0, 0)" stroke="rgb(60, 60, 60)" stroke-width="1px" opacity="0.25"></line><line x1="0" y1="97.06909040971236" x2="278.4799995422363" y2="97.06909040971236" fill="rgb(0, 0, 0)" stroke="rgb(60, 60, 60)" stroke-width="1px" opacity="0.25"></line><line x1="0" y1="80.89090867476031" x2="278.4799995422363" y2="80.89090867476031" fill="rgb(0, 0, 0)" stroke="rgb(60, 60, 60)" stroke-width="1px" opacity="0.25"></line><line x1="0" y1="64.71272693980823" x2="278.4799995422363" y2="64.71272693980823" fill="rgb(0, 0, 0)" stroke="rgb(60, 60, 60)" stroke-width="1px" opacity="0.25"></line><line x1="0" y1="48.53454520485619" x2="278.4799995422363" y2="48.53454520485619" fill="rgb(0, 0, 0)" stroke="rgb(60, 60, 60)" stroke-width="1px" opacity="0.25"></line><line x1="0" y1="32.356363469904124" x2="278.4799995422363" y2="32.356363469904124" fill="rgb(0, 0, 0)" stroke="rgb(60, 60, 60)" stroke-width="1px" opacity="0.25"></line><line x1="0" y1="16.178181734952062" x2="278.4799995422363" y2="16.178181734952062" fill="rgb(0, 0, 0)" stroke="rgb(60, 60, 60)" stroke-width="1px" opacity="0.25"></line><line x1="0" y1="0" x2="278.4799995422363" y2="0" fill="rgb(0, 0, 0)" stroke="rgb(60, 60, 60)" stroke-width="1px" opacity="0.25"></line></g></g></g><g><g><line x1="0" y1="922.1563588922673" x2="278.4799995422363" y2="922.1563588922673" fill="rgb(0, 0, 0)" stroke="rgb(153, 153, 153)" stroke-width="1.5px"></line></g></g><g><g><line x1="23.20666662851969" y1="0" x2="23.20666662851969" y2="177.95999908447266" fill="rgb(0, 0, 0)" stroke="rgb(153, 153, 153)" stroke-width="1.5px"></line></g></g><g><g><g><g><g><path style="fill: none;" stroke="rgb(255, 112, 67)" stroke-width="2px" d="M24.87290529244741,233.5640935099875L25.22216562520663,172.2724553169582L25.384612291606267,174.55243584530442L25.88355562411944,111.11988688990738L25.97870295729637,124.92420401749806L26.091255290444693,94.35396682593887L26.973108622328443,101.91342155869326L27.041568288882576,106.44772929991123L28.21582562028567,122.11168265619824L28.312133286794026,79.73570006592641L28.418883953285217,67.25478179935169L28.974683619038267,72.70935220615698L29.1638179520607,37.153870642406844L29.408648284991582,41.70617641832112L29.847254284270605,96.2079637350338L30.060755617252987,77.13854210804766L30.157063283761342,78.63949129507783L30.400733283360797,66.5975005341276L30.979739615742368,46.42976062956481L30.993663615719477,21.38657445643244L31.159591282113393,32.245765156485874L31.289548615233105,51.70382514479731L31.508851614872615,102.20629873998827L31.86623428095182,106.62268831275L32.254945946979525,122.2150676802176L32.29555761357943,92.74285818342493L32.565915279801686,75.05953280960405L32.69819327958425,103.27717410621908L32.745766946172715,107.2652133364056L33.06717927897771,83.77294603144709L33.508105944919585,69.67758568196868L33.57424494481087,61.220369484340566L33.95135327752431,94.97367595267478L34.19270261046091,115.2256598232798L34.29249127696355,127.3768501419004L35.27297294201851,108.78247355311161L35.36579960853259,136.45348376738178L35.860101607720054,153.05608989483943L35.93088194093704,85.36238124140294L35.99353994083405,83.57379221472173L36.587630606524144,82.50063879872847L36.62708193979263,81.85674674913808L37.09469627235731,107.35550229538447L37.320961271985375,109.71221023510047L37.467163271745044,124.0687803869028L38.148278937292105,106.79763170203492L38.33045127032598,70.5498517151881L39.79247126792272,35.85863833512414L40.22643593387603,53.871546470980974L40.35523293366432,77.62183674045623L40.46430426681837,104.81455629010257L41.16050426567395,69.36000646804136L41.49816126511892,61.029821962767116L41.906598597780864,94.85934742348796L42.76640559636751,102.21451731195862L43.00891526263555,93.68507385707926L43.044885595909754,153.28013472395995L43.30015892882347,111.38189891631855L43.56239426172574,99.1855028196952L45.8691369246006,78.92511977375973L45.99561325772603,66.76888994619829L46.1012035908858,124.18787898946964L46.4852739235878,93.92654547562428L46.696454589907326,127.53992691916363L46.788120923089984,82.99522884547906L47.03875292267799,82.15350077719152L47.08400592260361,94.59100932418073L47.31723292222023,102.05351445237423L47.32071392221451,106.53101752929034L47.4054182554086,70.389883211555L47.66649325497945,74.59029339683717L47.74075458819071,77.11053950800651L47.94381292119026,91.56523256266972L48.557629253514605,74.35295761954431L49.01828158609072,64.02559265366905L49.116909919261936,83.71426445006729L49.149399252541855,121.41255830382941L50.226188584105174,105.20389845220184L50.313213583962124,82.53615715326355L50.38979558383624,81.87805776186231L50.671756583372755,94.42574351498315L50.70772691664696,76.06926419093242L51.22523558246295,77.99792198446367L51.381880582205454,92.09766204854398L51.38420124886831,100.55750608699213L51.4282939154625,79.74832173413779L51.775233581558865,67.26281112242513L51.898228914690016,111.5416863072442L52.1384179142952,112.22392064221225L52.50856424702008,112.63326124319312L52.66869024675687,99.93632021581999L53.15719057928721,105.26070098735777L53.19780224588712,160.225511002127L54.30011891074181,102.60657929525699L54.301279244073235,68.03522027113506L55.1216349093914,47.29240485666182L55.23534757587115,60.73180638390116L56.32606090741158,81.73799268820648L56.82152323993047,68.45661369486639L56.85169190654754,8.717604747015685L56.92827390642166,50.52947170607521L57.08956023948987,114.44422804539582L57.16150090603828,113.96544568510333L57.818249571625394,74.8505401050428L58.02246823795637,38.43905136904479L58.05263690457344,55.41979429133107L58.21856457096736,91.49333082062606L58.56202323706945,74.30981657431808L58.72679057013194,51.05716263857168L58.83586190328598,88.87575182897035L58.852106569925944,85.68181456728638L59.64809523528417,96.70799759823764L59.691027568546936,116.26625280477003L60.19809323438009,89.17356976480451L60.26307190093994,59.97541455286347L60.84207823332151,81.28415758958394L61.09967223289808,94.06940341161615L61.2215072326978,88.79800551687379L61.37467123244604,72.6926213920667L61.38395389909744,101.85702708106749L61.53711789884567,119.3556704944679L61.70768689856529,103.96976576658496L61.93279156486193,146.50840448170166L61.96528089814186,159.08904232281003L62.35283223083814,114.8672434756284L62.366756230815255,153.0468911071277L62.40852823074658,150.06958891010404L62.47118623064359,148.2832075918898L62.51411856390635,147.2113788009613L62.55705089716911,81.85555458659593L62.69977189693451,68.5271508339L63.07804056297938,47.58756319432072L63.26717489600181,86.79399216241983L63.35303956252734,149.14548570716426L64.22909122775395,108.901109506241L64.3787742275079,149.46721072549528L64.92413089327812,83.20905374131632L65.0215988931179,82.28179571469397L65.70851622532209,68.78289551075889L65.74332622526487,99.51119155228267L65.96494989156723,79.12053301331203L66.37338722422918,79.82868327789143L66.70640289034843,67.31102804867736L67.02549455649059,72.74298029911058L67.15545188961029,88.94469703733213L67.82728488850593,72.78063630434178L68.13477322133382,76.02474525250923L68.27401322110494,103.85630139733291L68.80312522023519,94.67014430830386L69.27422055279413,76.21590466692474L69.51440955239931,26.315724718212408L69.96345855166116,35.20325291286994L70.20016655127208,66.42086060558772L70.4554398841858,98.09397060918005L70.54014421737989,78.27020044745055L70.8267465502421,92.26102912633606L71.0947835498015,87.7129809457058L71.40575288262367,72.04160664936596L72.09615121482214,88.52387284748535L72.46281654755273,72.52814179043375L72.4837025475184,88.81579393212597L73.7020525455157,124.47347599306462L73.84245287861825,119.98299445370459L73.9259968784809,91.40361475416525L74.03506821163495,61.313441546479964L74.25321087794305,69.14442839779215L74.34603754445712,86.78556589654107L74.49339987754823,84.4277030078288L74.50152221086819,83.01298527460135L74.55257687745095,82.16415463466488L74.61407454401653,107.53994702662625L75.20816520970662,96.8803316858799L75.37989454275767,129.31219864531693L75.85331054197947,84.05859188117088L76.00995554172198,95.73406398656834L76.1851658747673,102.73934724980678L76.96955120681126,119.88506259571153L77.06121753999393,143.11503719121595L78.0915935383002,131.16793117259542L78.48262587099074,136.9422129493846L78.6056212041219,101.57914585157322L78.86785653702418,119.18894175677127L79.11268686995506,103.86972852396688L80.37861053454081,107.62074597224594L80.47027686772347,122.81390182917494L80.61647886748314,118.98724995537077L81.23029519980749,103.74871344312668L81.28831186637878,81.66304614781842L81.449598199447,81.35419115859519L82.1736461982568,81.16887816506132L82.35929953128496,94.00023575690261L82.539151197656,140.52668647589223L82.6470621974786,168.442556907286L83.30961252972286,107.53680683835233L83.88281719544729,109.82099296087725L84.33534719470342,85.30641385846889L84.59526186094284,83.54021178498544L84.63355286087989,95.42303592885699L84.81108386058807,115.49527580314161L84.82848886055946,75.76843817586575L85.24736919320424,51.93233559950022L85.52352852608362,50.573219441642635L85.53629219272932,88.58538591081295L85.70454052578609,20.79486807658367L85.75559519236883,44.8332843158544L86.00738752528827,72.19887944737843L86.80105552398363,75.67569113833116L86.95189885706901,90.70432354086455L87.37193952304523,73.83641220646118L87.65506085591316,115.48584695766576L87.91381518882115,153.41805319635012L88.5763655210654,137.34974077567585L88.78986685404777,140.65129871123293L88.89081585388183,103.80459730868219L89.09851552020709,107.5816672430751L89.13680652014415,71.02027303982587L23.272805628410975,74.96852729379967L23.480505294736226,90.28002523414561L23.253079961776734,73.58183322242984L23.576812961244585,89.44800879132367L23.608141961193084,86.02516874469836L23.627867627827325,109.85655549264644L24.209194626871746,98.27029676549203L24.263730293448763,104.26108691716101L24.404130626551307,81.97047023223901L24.645479959487915,42.71100944536255L25.27089962512652,122.69569607692992L25.277861625115076,105.97378111606216L25.303388958406448,134.76826830342628L25.407818958234788,100.27477906399821L25.614358291228612,92.52123090830302L23.46310029476484,139.63928356673247L23.545483961296082,103.19738822198195L24.54685162631671,81.33225101513162L25.02026762553851,94.09825946694478L26.14114962369601,101.75786453803269L26.324482290061315,106.3536275806854L26.549586956357956,96.16854001831537L27.310765621773403,90.05748748089339L27.737768287738163,86.3908559584402L23.24843862845103,58.305786269044845L23.60698162786166,106.16747139521593L23.65571562778155,147.82702785888026L24.126810960340503,108.11003479727061L24.983136958932878,110.16492973622816L25.202439958572388,111.39786669960266L25.254654958486558,73.30999271374237L25.740834624354047,76.3423590981495L26.716674956083295,52.27668815287048L26.82922728923162,115.492557913473L27.07521795549393,101.65189821798792L27.749371621052425,93.34750240069683L27.76561628769239,101.30741029828388L28.078906287177404,131.9684458127594L28.385234286673864,111.53743095755972L28.47690061985652,99.27882204443998L28.612659619633355,130.75129286045302L29.24736195192337,136.69222996209922L29.384281285031634,140.2567922230869L29.47246661822001,90.62534802783297L29.866979950904845,99.67411767456557L30.36824395008087,118.04592485056676L30.514445949840546,90.24137299228252L30.922883282502493,60.61609648935037L30.982060282405218,94.61111213943768L31.00758761569659,89.12303075356668L31.045878615633647,85.83018192204415L31.074886948919296,122.68210878701552L31.376573615090052,131.85071951803678L31.378894281752903,137.35188595664943L31.497248281558356,127.71004043185552L31.500729281552633,121.9249331169791L31.87087561427752,144.33895950397647L32.202730947065355,131.90228456025173L32.39998761340777,98.55518881809348L33.113592612234754,130.3171129246452L33.26443594532013,71.71899506080632L33.569603611485164,75.38776050638788L35.07803694233895,116.41665593762174L35.92624060761134,128.09144780840043L36.232568607107794,122.15377754290606L36.39965660683314,92.70608460768615L36.45419227341016,87.98001423451582L36.589951273187,85.14437201061361L36.72454993963241,109.32807745219553L36.73267227295239,123.83830071714479L37.063367272408804,106.65934390019099L37.87908160440127,96.35196981001876L38.15059960395495,77.22499996795374L38.23530393714905,117.51899961456135L38.89321293606758,64.04012707475589L38.972115602604546,70.78043971475775L39.06146126912435,87.76717268672044L39.077705935764314,123.84430324582135L39.12295893568992,158.43312696924346L39.16008960229556,153.30133042737347L39.847006934499746,150.22225250225145L40.35059160033862,174.2598965231015L40.43065460020701,149.85484677172676L40.5060762667497,135.21181692090192L40.767151266320546,100.54090823448361L40.78571659962336,66.79581763467098L40.95280459934871,85.37639943866839L40.98297326596578,83.5822031331052L41.025905599228544,69.56313996180565L41.47031326516469,74.09424744698752L41.49235959846178,50.927821162173316L41.91704159776369,101.740692331093L42.04815926421483,106.3433242565216L43.48929326184591,109.10490341177872L43.52874459511439,162.5320324567796L43.62041092829705,129.87558294397192L44.1054302608331,71.4540770724023L44.67979525988897,114.0564458772304L45.43053092532158,74.90514022031903L45.653314924955374,116.12708376598042L46.21955759069125,102.03261372949238L46.31238425720533,80.63338631963786L46.705737256558734,67.79384987372522L46.74170758983294,73.0326733941392L46.912276589552555,89.1185128943493L47.29286592226028,85.82747120651364L48.18168125413259,57.967755417888924L48.2803095873038,93.02210749656072L48.44623725369771,88.1696279678405L48.89296558629672,111.14323102653167L49.20973658577601,86.09975669786147L49.39887091879845,109.90130826454435L49.75625358487765,111.23969381659236L50.379352583853404,86.15763437189784L50.54295958358447,109.93603486896612L51.16025691590309,98.31798439128374L51.17882224920591,130.17479026855935L51.622069581810635,162.23141918288627L51.88662558137575,116.75266959167419L51.95856624792417,102.40796522490864L52.19295358087222,106.74368799281103L53.426387912178036,148.17275781743737L53.802335911560064,95.37492738444325L53.829023578182856,89.58131990057012L53.92765191135406,99.04770079820786L53.93113291134834,104.7275293367905L54.37786124394735,43.42269952013186L55.08450424278577,32.52489240605982L55.1529639093399,25.986208137616813L55.54515657536189,22.062997576550913L55.65770890851021,71.47925279175796L55.94547157470385,62.301369756997204L56.44441490721702,43.85209454817905L57.18122657267253,58.66762019881165L57.46898923886617,54.61439020122947L57.78576023834546,78.06754297860348L58.09208823784193,66.2543438691046L58.15706690440178,85.05151517932848L58.27658123753865,70.44472718953958L58.820777569977444,87.5657451715895L58.84746523660024,71.95326518489622L59.22921490263939,62.585777192880215L59.50073290219307,82.85037517359389L59.57615456873576,120.89422473794544L60.30252323420842,104.89289831267133L60.52298656717936,147.06228400935353L60.73184656683603,94.70864309959292L60.96391323312124,115.06664010558322L61.05673989963532,88.45380214529237L61.184376566092176,137.19882630892616L61.44661189899445,127.61820464322146L61.750619231828054,121.86983164379865L62.424772897386546,131.36335323210665L62.94808322985967,72.34673924528308L63.07339922965368,88.70695240503562L63.38668922913869,98.52308030088723L64.20472422779402,104.41275703839813L64.5168538939476,95.00401769294301L64.58531356050173,63.47368330974655L64.67814022701582,96.32566423167539L64.76516522687277,128.9793981727942L64.95313922656378,135.62909314950397L65.0703328930378,113.73381935960656L65.26062755939166,126.48174586159129L65.75260889191628,121.18795637482054L65.77581555854479,92.12659190683478L66.43256422413191,74.68977322604333L66.46969489073753,51.28513662960671L66.63678289046287,76.06999083562984L66.86304789009094,52.11326719535879L66.89901822336515,76.56686917508108L66.96283655659357,91.2390303629144L67.00344822319349,112.98487246357611L67.01505155650774,100.14728694804978L67.24131655613581,105.38728102669573L67.6021802222093,108.53127747388321L68.10112355472246,123.36022073015738L68.48287322076162,132.2575866839218L68.55017255398432,85.82582470433385L69.20227988624573,83.85185829250443L69.21968488621711,69.72493305744518L69.23476921952566,87.13386869233288L69.43086555253664,97.5792300732655L69.8265392185529,103.84644690182515L70.03075788488388,107.60677699896085L70.22105255123773,109.86297505724224L70.2372972178777,111.21669389221115L70.72695788373947,73.2012890293075L70.79309688363075,89.21968227545028L70.93581788339614,98.83071822313589L71.14003654972713,104.59733979174732L71.25606988286972,120.99985812087574L71.76313554870288,79.07118756650623L72.61482021396955,79.79907600980788L73.48390987920762,93.17835446375047L74.24508854462306,62.37828537223115L74.24624887795447,43.89824391731949L74.31354821117719,71.63785520825749L74.5456148774624,49.453985818935365L74.91808187685014,36.14366418534195L75.34624487614632,92.87019814499413L75.38453587608338,88.07848235690061L75.60964054238002,72.26090749608285L75.80457654205958,75.71290796755389L75.868394875288,51.89901747451307L75.9797868751049,76.43831934257368L76.51005920756658,104.10444585137165L76.65974220732053,94.81903098072719L77.09486720660527,76.30523667037876L77.34665953952472,78.1395054721314L78.21574920476277,79.24006675318299L78.2610022046884,79.90040352181394L78.49190853764216,132.0667871348391L78.97924853684108,137.48152652673087L79.28905753633181,127.78782477390435L79.46542820270857,109.02905833424673L79.74274786891937,149.54398002229874L80.10477186832428,122.08275148328337L80.29854753467242,118.54855974783575L81.03767986679077,116.42804470656722L81.51341653267544,128.09828106976778L81.52734053265254,135.10042288768813L81.81394286551475,100.47407181455537L81.9450605319659,118.52589733456067L82.13187419832548,64.64426570675555L82.86752553044956,45.25783211803417L82.91161819704374,59.51106274072454L82.9951621969064,81.00554650230055L83.26551986312866,119.78732753516928L83.30149019640287,130.1138507669289L83.42680619619688,136.30976470598466L83.98376619528135,114.14222229349487L84.20422952825228,100.84169684600104L84.3388281946977,105.80392696546635L84.62775119422277,108.78126503714562L85.16266486001014,110.56766788015322L85.46087052618662,72.81187342207272L85.56530052601497,63.10094213518613L85.91804185876846,18.44674719916921L86.11297785844803,56.36695717736728L86.70358752414386,53.23399238836282L88.11107185516357,77.23930429088348L88.112232188495,91.6424914323959L88.27351852156322,87.34185832934165L88.30832852150598,110.64656924343231L88.35590218809446,72.85921424004016L88.8571661872705,114.89952817781311L89.2864895198981,140.1237165404769L89.77034851910274,168.20077494603683L89.78427251907985,146.2193738254879L89.90610751887957,81.26035160131184L90.28785718491872,68.17002904272961L90.91559751722018,86.20092628350355L90.9434455171744,71.13437385204458L90.98173651711146,62.09444239316926L91.59787351609866,108.44066506969068L92.25114118169148,45.650580959871945L92.3184405149142,59.74671204582741L92.57951551448504,68.20439069740053L92.86611784734727,86.2215432763061L94.48710351134936,97.03183482364949L94.774866177543,116.46055514001716L94.96284017723401,128.11778732983777L95.47918850971857,122.16958125576843L95.58942017620406,92.71556683540356L95.76114950925509,87.98570357114622L95.86906050907771,98.09033100055352L96.14057850863139,91.21056207023621L96.36336250826518,100.02524610000751L96.48403717473347,92.37151112990855L97.34036317332585,74.83672475988762L97.53994050633112,38.43076216195175L97.64204983949662,68.3573661550369L97.7534418393135,60.42823777496463L97.80333617256483,29.785669970997958L98.24426283850669,89.05540161638794L98.4136715048949,59.90451366381363L99.14700217035612,55.3565262802306L99.4057565032641,65.57027923804239L100.2806478351593,58.755985624767945L100.34330583505631,93.49504562068812L100.5080731681188,75.51084545435532L101.43633983325958,103.54796151844052L101.71481983280182,81.54259499300676L102.05131649891536,68.3393750777465L102.18127383203506,86.30253390451377L102.81017449766794,84.13788381261247L102.98074349738756,95.78163914543329L103.40890649668376,128.65298312104903L103.42399082999229,83.66306256661022L103.52261916316351,82.55420100987018L103.99023349572816,107.77397485174949L104.11322882885932,122.90583915687708L104.84655949432054,119.04241235199204L105.14476516049703,116.72435626906093L105.53579749318759,102.39097723134071L105.70868715957006,106.73349519667019L106.07419215896924,96.39646058790623L106.07999382562637,103.13678521060949L106.09739882559775,120.12352537219306L106.48030882496833,65.60284252933499L106.51743949157397,32.89043282362013L107.10920949060123,52.09062316407632L107.25077015703519,50.668191980388244L107.57450315650304,75.69982404609874L108.70350748798053,77.77625789756337L109.07365382070542,66.07957282048042L109.24190215376218,84.94665255015401L109.29527748700778,57.43926422407323L109.90561281933785,92.70501278027133L109.95202615259488,87.97937113806694L109.98683615253766,111.02907692866758L109.99843948585192,98.97380962710471L110.0866248190403,91.74064924616697L110.12607615230878,100.34329840556602L110.80487115119297,66.67725173732045L111.0821908174038,72.36271451229642L111.35254848362604,127.5441737291286L112.08471881575585,121.82541309534292L112.12649081568718,105.45161132710984L112.48271314843495,134.45496643005495L112.48387348176638,151.85697949182202L112.83081314786276,84.64291500111237L113.12669814737637,83.14211247057159L113.29030514710745,82.24163095224712L113.63144314654669,68.75879665329079L113.81245514624914,86.55418684984025L114.07817147914568,71.34633019184663L114.33460514539084,62.221616197050466L114.48080714515051,69.68933318813446L114.8381898112297,87.11250877074647L114.90664947778383,71.68132334439038L115.04472914422354,49.48006670061508L115.18861047732035,74.9869488782348L116.56128480839729,64.40598740888336L116.65411147491137,70.99995591523417L117.2586451405843,10.243610079236447L117.70421313985189,38.50252951744608L118.62667813833555,29.572790404448455L119.43659080367088,-1.6701438392734076L119.55146380348206,57.239367942263314L119.70926913655599,40.81489345933872L119.85082980298996,30.960208769583943L119.91812913621266,12.10485256776954L119.99819213608106,65.50436578648913L120.00283346940675,97.54407371772085L120.89048846794763,77.94026231257506L121.1701288008213,130.89070240929578L121.40567646710078,85.00569413955824L121.46485346700351,96.30232534160076L121.5449164668719,103.08030406282624L122.18309979915618,81.26200051963824L122.41748713210424,94.0561091696487L122.53932213190397,114.67511974761669L122.74702179822921,88.21888993051249L122.76326646486919,59.402606652288355L122.80503846480052,55.05538207331551L122.85261213138898,65.38959271389339L122.96168346454303,45.70502832231685L123.01853979778289,98.60701662717915L123.22739979743957,78.57802805825L123.32834879727363,92.44572569281571L123.3492347972393,100.76634427355529L123.50587979698182,118.70126080996056L124.4654754620711,129.46221073180368L124.74743646160762,84.14859913306299L125.66409979343413,69.90297756178032L125.74184212663968,126.06833155881887L125.81262245985667,95.05481701723372L126.78382145826022,115.2743444561676L126.94974912465413,114.46351553156634L127.55892412365277,139.86210895272893L128.01725578956604,116.27362884154158L128.17506112263996,89.17799538686738L128.19246612261136,72.9206153140629L128.95480512135825,76.10873265834195L129.256491787529,129.7917846167559L129.45838978719712,97.28888885199595L129.5430941203912,64.84460600517836L129.7125027867794,71.2631270730112L129.73454912007648,49.229148937787556L129.8111311199506,48.95130744461497L129.9979447863102,61.72714793667319L130.10353511946997,69.39265223190806L130.1592311193784,61.049409421087304L130.3831754523436,30.15837295867152L130.73591678509712,63.39393263306869L130.86819478487968,44.507632273822L131.96238911641439,-5.651784105610886L132.14688211611113,54.85038378246085L132.45437044893902,104.09422990326561L132.58664844872158,107.75544679982515L132.88485411489805,97.00963154979924L133.37567511409122,77.61959701182205L133.43369178066254,91.87066706495895L133.6332691136678,87.4787637088795L133.67620144693058,97.78616708319346L133.96280377979278,78.08551833185852L134.4861141122659,79.20767446901927L134.51860344554584,66.93842276335398L134.72398244520824,20.74923557607002L135.40393777742386,70.6909955914694L135.43062544404665,100.656051600709L135.62672177705764,131.57763059421444L135.62788211038907,163.07312337827935L135.7009831102689,169.0278736607567L136.1384287762165,146.71563305431974L136.22081244274776,120.38574330249594L136.37745744249025,117.53035483936333L136.77081044184365,141.70221253740706L136.96574644152324,91.49260021642513L137.73156644026437,48.42428743587416L138.5043484389941,74.35348131939034L138.732934105285,76.96845226153825L138.77934743854203,104.42252560275037L139.48018877072334,69.124788055631L139.63567343713441,47.94614552735939L139.8712211034139,99.95168695020463L140.09980676970483,118.21246641595019L140.44906710246406,90.34129793151259L140.47575476908682,112.44623300473502L140.69853876872062,73.93901249682182L141.1127777680397,89.6623163559589L141.2021234345595,99.09629867144118L141.43651076750757,117.69923344869217L141.53513910067878,102.97590353911937L141.72311310036977,132.96954175726063L142.01087576656343,86.25299774833718L142.46688676581383,109.99325289482975L142.63281443220774,59.52467904291707L142.87532409847577,106.89880705953935L143.06097743150391,109.43819309358933L143.25939443117775,33.306552386249564L143.44156676421167,52.340294901653905L143.95907543002764,37.87544963497325L144.22711242958704,80.96672402681132L144.59725876231195,93.87894327395259L144.7016887621403,127.51136559816068L144.9627637617111,121.80572821676218L145.3189860944589,144.26743656384642L146.15094509309134,105.97428002025029L146.6243610923131,95.94093148205431L146.66961409223876,102.86346774709831L146.681217425553,68.18935334223971L147.3333247578144,21.499793923401455L147.54798642412823,32.31369443598339L148.19313175640107,25.859489355570815L148.3335320895036,21.98696630732337L148.4275190893491,71.43363403022143L148.56791942245164,75.21654388803707L148.87076642195382,64.54374441476467L149.09006942159334,96.96770089468619L149.86633242031732,38.766802454869236L150.13669008653957,42.67389955486402L150.6739244189898,70.90324859078419L150.74354441887536,87.84085801233623L150.86305875201225,85.06087827730585L150.98489375181197,83.39289043628773L151.1856314181487,121.2197338955616L151.80060808380443,66.26056764335614L152.0349954167525,59.1701586679562L152.38309541618028,67.85845867067785L152.96558274855616,86.01398406027246L153.66178274741173,83.9647539060677L153.76853341390293,69.79267042558307L153.9147354136626,74.23196572525389L154.2500717464447,63.952997517094815L154.79426807888348,96.61325275608424L154.84068141214053,77.381769735593L155.4150464111964,78.7854253112599L155.77591007726986,118.4552548205449L155.97664774360658,103.42951636223106L156.3085030763944,81.47152789928113L156.71345940906204,68.29673482151115L157.04879574184417,34.50676819892584L157.56514407432874,1.290242837413075L157.56978540765445,-18.639672379494556L157.63360374088288,8.230014654245707L157.97358140699066,89.06455381429814L158.0455220735391,98.73764114644462L158.2462597398758,104.54149354573258L158.76957007234893,56.25362343345873L159.25110840489072,40.22344675405617L159.63749940425555,121.20315846214595L159.70015740415258,118.0208039351534L159.76397573738097,77.2837550550729L159.7697774040381,52.841525727024475L160.08886907018024,64.06127890611872L160.14340473675728,70.79313081357536L160.14572540342013,61.88969657008768L160.39287640301387,108.31781757584172L160.52283373613358,45.57687246356252L161.1621774017493,72.64503233600334L161.85373606727916,50.05829209558286L162.2169204000155,49.448793339292166L162.86322606561978,23.19800330959447L163.31575606487593,7.4475292917758225L163.57915173110962,-2.0027551189153314L163.59423606441817,44.09725578651654L163.83790606401763,97.64235310569894L163.93305339719456,90.94177533332349L164.10826373023988,112.80651944582155L164.1407530635198,125.9253659133204L164.38326272978782,120.85412840585809L164.50973906291327,91.92629512545733L164.57471772947312,100.45468593314025L164.6327343960444,118.51426580571157L165.16648772850036,129.35001372925439L165.2523523950259,122.90891709541842L165.5644820611795,119.04425911511683L165.61785739442507,103.78291893897415L165.7118443942706,81.68356944532701L167.05899139205613,94.30905052506198L167.0833583920161,153.65452072474957L167.09148072533606,98.66398512883053L167.11816839195887,91.55475454720239L167.16458172521592,74.34667081026396L167.63103572444916,51.07927518013919L167.8735453907172,37.118837802064235L168.34348038994472,54.62766615114275L168.46415505641303,39.24787238466649L170.5214260530313,81.79017767662734L171.81867871756555,107.31556085180381L172.2816517168045,109.68824536894812L173.3131880484422,98.169310691273L174.0801683805148,78.31540449670624L174.09757338048618,92.28815155588954L174.21708771362307,87.72925440343779L174.47120071320535,110.87900688789007L175.48881304486594,150.65394915448476L175.7556897110939,161.5763691264799L175.8137063776652,116.35963955783043L176.07942271056174,128.05723798052563L176.22214371032715,109.19070625821952L177.1353260421594,123.75587800075911L177.46718137494724,158.3800718222062L177.70969104121528,114.44186117526613L178.2213980403741,126.90657095098703L178.22603937369982,134.38539681641961L178.69481403959594,138.8726923356792L178.72730337287587,102.73743348335002L179.1624283721606,158.71155049972234L179.16590937215489,114.64074838177578L179.61031703809104,101.14081249896955L179.79945137111346,54.21321480540085L179.8632697043419,90.7693831290679L181.18024803551037,60.93290257142162L181.62581603477796,30.088468848872168L181.78246103452048,63.35199016718903L182.27328203371368,96.25264834614076L182.41136170015335,115.99304325351193L182.7026053663413,153.72237097385792L182.99965069918633,137.5323314421806L183.30365803201994,114.87576233521258L184.3467976969719,49.51163931918512L185.0696853624503,75.00589244937686L185.25417836214703,103.24498971545346L185.6962653614203,146.07353885102276L185.85755169448854,145.88557755644104L186.64425769319533,145.77280077969198L187.73497102473576,119.82004393771933L188.3835973570029,104.24838983253576L188.61798468995093,81.96285198146388L189.22599935561814,55.648983882859156L189.32810868878366,78.68829918758132L189.34319302209218,92.51188837041457L189.7052170214971,100.8060418801145L189.92103902114232,92.83998859797285L189.9604903544108,88.06035662868786L190.47567835356395,124.02021361100174L190.5487793534438,93.82594624854356L191.13126668581964,114.53702199495353L191.1440303524653,88.13603127891452L191.37957801874478,72.29543684929116L191.5141766851902,75.73362557947881L191.83907001798948,64.85399342962982L192.2289420173486,71.26875952768205L192.30668435055415,139.8303461263215L192.5979280167421,116.25457114569701L192.94834868283274,102.10910615732236L193.1258796825409,119.50691794022079L194.12376634756725,65.2328780701516L194.75382734653155,71.49609031199506L194.84317301305134,88.19656304506285L195.6449633450667,72.33175590898021L195.8979160113176,49.87032623936895L195.93852767791748,36.39346843760225L196.5070910103162,105.96262608431205L196.57903167686462,95.93393912049127L196.64285001009307,102.85927233016058L197.3425310089429,94.07192686800046L198.0654186744213,101.74206497866601L198.14664200762113,106.34414784506536L198.18029167423248,96.16285217694336L199.2756463390986,102.99662016403182L199.80475833822888,107.09688095628493L199.92543300469717,70.72940126775175L200.09368133775394,61.851458842593544L200.28629667077067,69.46723877546026L200.695894336764,48.15161595925687L200.7225820033868,35.3622422695349L200.8966320031007,27.688618055701795L201.91656500142415,-2.800647248521358L202.19736566762924,43.61852050875302L202.31804033409753,58.52747577515592L202.51761766710283,41.587758159074326L202.60000133363405,57.30901836534862L202.94229966640472,53.79922910115164L203.06877599953015,64.63590093059511L203.5978879986604,71.13790402826122L203.7324866651058,87.98165127482255L204.23491099761327,72.202808846836L204.3080119974931,127.44823032985235L204.75125933009784,108.8253016678156L205.0216169963201,110.59408985855508L205.133008996137,124.59790816096042L206.23068432766595,81.23001759055708L206.865386659956,94.0369194122L207.05452099297844,75.83596972926249L207.32951999252637,77.85794530746165L207.47688232561748,79.07113065438105L208.0814159912904,79.79904186253275L208.28331399095853,67.29324319946217L208.38310265746117,85.67485477754316L208.7996623234431,148.47400327623834L210.0098899881204,95.55567465972383L210.12360265460015,76.74722287777672L210.13752665457724,78.40469719657014L210.251239321057,92.3417271758078L210.41368598745666,87.76139977538885L210.61558398712475,72.07065794717576L211.36051798590023,88.54130362617123L211.46378765239714,111.36623642153017L211.80724631849924,99.17610532282231L212.00334265151025,104.80457205155918L212.00566331817308,108.18165208880126L212.24237131778398,110.20790011114656L212.72042865033148,85.53855814863046L212.72390965032577,83.67949835908236L212.83414131681124,43.73642632146857L213.1451106496334,32.71312848686202L213.20312731620473,39.041695174059726L213.54078431564966,55.781380574340005L213.71947564868927,65.82519181450822L213.86915864844323,45.96638778268564L213.88772398174603,8.16601458766894L214.1105079813798,50.19851761046718L214.29151998108227,62.475474036184366L214.64658198049864,108.66928405549969L214.79510464692115,97.55793390320393L215.5516419790109,116.77621458774978L216.75490764369965,76.5370014466307L216.8871856434822,39.45092817399757L216.9080716434479,17.199284210417744L217.1900326429844,42.675933996154754L217.72030497544608,57.96192386759702L218.39097764101027,41.248427014538976L218.39329830767315,31.22032890270421L218.40838264098167,38.14601542356496L218.57895164070132,55.243972724043005L218.7843306403637,78.44529249229157L218.93285330678623,105.30862974120227L218.99667164001465,121.42663209054868L219.18464563970565,92.26979733627174L219.2577466395855,74.77569648370546L219.53738697245916,64.2792359721657L219.74740730544727,32.09626888931851L220.0699799715837,38.67157941553353L220.2347473046462,42.61676573126255L220.41575930434863,96.75405907254662L220.52483063750267,64.52370813750878L221.01913263669016,96.95567912833268L221.54360330249466,51.702134783018735L222.00425563507082,76.32018972767708L222.1829469681104,65.20593191854874L222.37788296779,71.47992262103344L222.95920996683438,75.24431704252414L223.00794396675428,77.50295369541854L223.701823298947,1.2028633593853044L224.00118929845493,46.02062687349695L224.36089263119698,34.083648818078956L224.5720732975165,26.921461984828284L224.59179896415077,48.50924066080114L225.19981362981798,74.40445325434646L225.34137429625193,25.22885387066546L225.61753362913132,86.32131195618827L226.07702562837602,122.97678680750201L226.44717196110088,106.14243555440532L227.04010229345957,96.0418248025473L227.2907342930476,102.92400373939418L227.74442462563516,119.99585648946385L227.8581372921149,130.2389681395057L227.93587962532044,110.49974435360761L228.3628822912852,72.77111930614534L228.66804995745025,37.19139888970636L228.68429462409017,93.4988389676129L230.11150462174416,140.22584840231846L230.22869828821817,103.54932712333358L230.55359162101746,107.428505131866L231.4041159529527,96.81346654902372L231.65358761920928,77.50189801135664L232.59809895099005,104.74259305264137L232.98797095034917,108.14446468945063L233.006536283652,123.1281330594978L233.85009861559868,119.17578869356453L234.01950728198688,116.8043820740045L234.67857661423682,102.43899271430683L234.82593894732793,119.70484987441154L234.85958861393928,143.00690955843595L234.8955589472135,144.04559998088894L235.5894382794062,105.84117807047592L235.5917589460691,82.91852492422801L235.75536594580015,69.16493303647923L235.85863561229706,60.91277790383003L236.19165127841632,55.961484824240415L236.3645409447988,1.2205274246400393L236.45620727798146,71.91631608857304L237.1953396100998,75.50615312304797L237.59913560943602,103.5451461196562L237.62234227606453,107.42599652965951L237.8520882756869,83.86941599973824L238.579617274491,108.56310384567031L238.8267682740847,123.37931655322964L238.95788594053585,106.38395340184186L239.10176727363267,57.35909934712427L239.38256793983777,105.59945924206369L239.53805260624887,56.8884028512573L239.65524627272288,53.546859792696836L239.67033060603143,51.54193395756056L239.9685362722079,115.05170539628709L240.28530727168717,114.32993209563803L240.57074927121798,88.01177733932536L241.00935527049703,98.10597526146103L241.10102160367964,91.21994862678078L241.284354270045,61.20324187004934L241.56167393625577,56.13576320397209L242.1430009353002,104.8654575561723L242.553758934625,108.21818339156917L242.7022816010475,110.22981889280729L242.90998126737276,72.60916402966518L243.01325093386967,50.03677111177994L243.50639259972573,49.43588074901038L243.84172893250783,49.07534653134874L243.90902826573054,74.74411677667504L244.52748593138057,51.31774275998585L245.07168226381938,11.376827574049031L245.3803309299787,39.18246001433354L245.6298025962353,55.86583947850424L246.9258949274381,91.76095793292994L247.09414326049486,61.527847453738715L247.26007092688877,121.04325349399394L247.32504959344865,92.0397701783388L247.51302359313965,74.6376801889457L247.7474109260877,51.25388080734821L247.96671392572722,88.9937827302363L248.14308459210395,111.63772388396917L248.15584825874964,60.51136163640072L248.8624912575881,94.54827122766785L248.86829292424522,76.1427808185432L249.13168859047892,78.04203196102998L249.18970525705018,27.411401094675455L249.21523259034157,61.74574951467102L249.35679325677555,82.34635856666836L249.41945125667255,81.76417860990516L249.79075792272886,120.24250679973221L250.2804185885906,91.55932216178185L250.60299125472704,22.579229827165022L251.87239591930708,84.73153753008805L252.08937825228372,109.0803767638803L252.1067832522551,110.7471349161939L252.18916691878638,47.03446286777384L252.31680358524324,86.46213196649163L252.4850519183,71.29109726183748L252.49665525161427,75.13102182700669L252.60804725143115,77.43497656610816" fill="none"></path></g></g></g></g><g opacity="0.2"><g><g><g><path style="fill: none;" stroke="rgb(255, 112, 67)" stroke-width="2px" d="M23.957402293952306,889.7999954223633L24.383244626585643,113.24727214466442L24.75339095931053,80.89090867476031L24.81372829254468,177.95999908447266L24.87290529244741,145.60363561456853L25.22216562520663,80.89090867476031L25.384612291606267,177.95999908447266L25.88355562411944,16.178181734952062L25.97870295729637,145.60363561456853L26.091255290444693,48.53454520485619L26.973108622328443,113.24727214466442L27.041568288882576,113.24727214466442L28.21582562028567,145.60363561456853L28.312133286794026,16.178181734952062L28.418883953285217,48.53454520485619L28.974683619038267,80.89090867476031L29.1638179520607,-16.178181734952034L29.408648284991582,48.53454520485619L29.847254284270605,177.95999908447266L30.060755617252987,48.53454520485619L30.157063283761342,80.89090867476031L30.400733283360797,48.53454520485619L30.979739615742368,16.178181734952062L30.993663615719477,-16.178181734952034L31.159591282113393,48.53454520485619L31.289548615233105,80.89090867476031L31.508851614872615,177.95999908447266L31.86623428095182,113.24727214466442L32.254945946979525,145.60363561456853L32.29555761357943,48.53454520485619L32.565915279801686,48.53454520485619L32.69819327958425,145.60363561456853L32.745766946172715,113.24727214466442L33.06717927897771,48.53454520485619L33.508105944919585,48.53454520485619L33.57424494481087,48.53454520485619L33.95135327752431,145.60363561456853L34.19270261046091,145.60363561456853L34.29249127696355,145.60363561456853L35.27297294201851,80.89090867476031L35.36579960853259,177.95999908447266L35.860101607720054,177.95999908447266L35.93088194093704,-16.178181734952034L35.99353994083405,80.89090867476031L36.587630606524144,80.89090867476031L36.62708193979263,80.89090867476031L37.09469627235731,145.60363561456853L37.320961271985375,113.24727214466442L37.467163271745044,145.60363561456853L38.148278937292105,80.89090867476031L38.33045127032598,16.178181734952062L39.79247126792272,-16.178181734952034L40.22643593387603,80.89090867476031L40.35523293366432,113.24727214466442L40.46430426681837,145.60363561456853L41.16050426567395,16.178181734952062L41.49816126511892,48.53454520485619L41.906598597780864,145.60363561456853L42.76640559636751,113.24727214466442L43.00891526263555,80.89090867476031L43.044885595909754,242.6727260242809L43.30015892882347,48.53454520485619L43.56239426172574,80.89090867476031L45.8691369246006,48.53454520485619L45.99561325772603,48.53454520485619L46.1012035908858,210.31636255437678L46.4852739235878,48.53454520485619L46.696454589907326,177.95999908447266L46.788120923089984,16.178181734952062L47.03875292267799,80.89090867476031L47.08400592260361,113.24727214466442L47.31723292222023,113.24727214466442L47.32071392221451,113.24727214466442L47.4054182554086,16.178181734952062L47.66649325497945,80.89090867476031L47.74075458819071,80.89090867476031L47.94381292119026,113.24727214466442L48.557629253514605,48.53454520485619L49.01828158609072,48.53454520485619L49.116909919261936,113.24727214466442L49.149399252541855,177.95999908447266L50.226188584105174,80.89090867476031L50.313213583962124,48.53454520485619L50.38979558383624,80.89090867476031L50.671756583372755,113.24727214466442L50.70772691664696,48.53454520485619L51.22523558246295,80.89090867476031L51.381880582205454,113.24727214466442L51.38420124886831,113.24727214466442L51.4282939154625,48.53454520485619L51.775233581558865,48.53454520485619L51.898228914690016,177.95999908447266L52.1384179142952,113.24727214466442L52.50856424702008,113.24727214466442L52.66869024675687,80.89090867476031L53.15719057928721,113.24727214466442L53.19780224588712,242.6727260242809L54.30011891074181,16.178181734952062L54.301279244073235,16.178181734952062L55.1216349093914,16.178181734952062L55.23534757587115,80.89090867476031L56.32606090741158,113.24727214466442L56.82152323993047,48.53454520485619L56.85169190654754,-80.89090867476028L56.92827390642166,113.24727214466442L57.08956023948987,210.31636255437678L57.16150090603828,113.24727214466442L57.818249571625394,16.178181734952062L58.02246823795637,-16.178181734952034L58.05263690457344,80.89090867476031L58.21856457096736,145.60363561456853L58.56202323706945,48.53454520485619L58.72679057013194,16.178181734952062L58.83586190328598,145.60363561456853L58.852106569925944,80.89090867476031L59.64809523528417,113.24727214466442L59.691027568546936,145.60363561456853L60.19809323438009,48.53454520485619L60.26307190093994,16.178181734952062L60.84207823332151,113.24727214466442L61.09967223289808,113.24727214466442L61.2215072326978,80.89090867476031L61.37467123244604,48.53454520485619L61.38395389909744,145.60363561456853L61.53711789884567,145.60363561456853L61.70768689856529,80.89090867476031L61.93279156486193,210.31636255437678L61.96528089814186,177.95999908447266L62.35283223083814,48.53454520485619L62.366756230815255,210.31636255437678L62.40852823074658,145.60363561456853L62.47118623064359,145.60363561456853L62.51411856390635,145.60363561456853L62.55705089716911,-16.178181734952034L62.69977189693451,48.53454520485619L63.07804056297938,16.178181734952062L63.26717489600181,145.60363561456853L63.35303956252734,242.6727260242809L64.22909122775395,48.53454520485619L64.3787742275079,210.31636255437678L64.92413089327812,-16.178181734952034L65.0215988931179,80.89090867476031L65.70851622532209,48.53454520485619L65.74332622526487,145.60363561456853L65.96494989156723,48.53454520485619L66.37338722422918,80.89090867476031L66.70640289034843,48.53454520485619L67.02549455649059,80.89090867476031L67.15545188961029,113.24727214466442L67.82728488850593,48.53454520485619L68.13477322133382,80.89090867476031L68.27401322110494,145.60363561456853L68.80312522023519,80.89090867476031L69.27422055279413,48.53454520485619L69.51440955239931,-48.53454520485619L69.96345855166116,48.53454520485619L70.20016655127208,113.24727214466442L70.4554398841858,145.60363561456853L70.54014421737989,48.53454520485619L70.8267465502421,113.24727214466442L71.0947835498015,80.89090867476031L71.40575288262367,48.53454520485619L72.09615121482214,113.24727214466442L72.46281654755273,48.53454520485619L72.4837025475184,113.24727214466442L73.7020525455157,177.95999908447266L73.84245287861825,113.24727214466442L73.9259968784809,48.53454520485619L74.03506821163495,16.178181734952062L74.25321087794305,80.89090867476031L74.34603754445712,113.24727214466442L74.49339987754823,80.89090867476031L74.50152221086819,80.89090867476031L74.55257687745095,80.89090867476031L74.61407454401653,145.60363561456853L75.20816520970662,80.89090867476031L75.37989454275767,177.95999908447266L75.85331054197947,16.178181734952062L76.00995554172198,113.24727214466442L76.1851658747673,113.24727214466442L76.96955120681126,145.60363561456853L77.06121753999393,177.95999908447266L78.0915935383002,113.24727214466442L78.48262587099074,145.60363561456853L78.6056212041219,48.53454520485619L78.86785653702418,145.60363561456853L79.11268686995506,80.89090867476031L80.37861053454081,113.24727214466442L80.47027686772347,145.60363561456853L80.61647886748314,113.24727214466442L81.23029519980749,80.89090867476031L81.28831186637878,48.53454520485619L81.449598199447,80.89090867476031L82.1736461982568,80.89090867476031L82.35929953128496,113.24727214466442L82.539151197656,210.31636255437678L82.6470621974786,210.31636255437678L83.30961252972286,16.178181734952062L83.88281719544729,113.24727214466442L84.33534719470342,48.53454520485619L84.59526186094284,80.89090867476031L84.63355286087989,113.24727214466442L84.81108386058807,145.60363561456853L84.82848886055946,16.178181734952062L85.24736919320424,16.178181734952062L85.52352852608362,48.53454520485619L85.53629219272932,145.60363561456853L85.70454052578609,-80.89090867476028L85.75559519236883,80.89090867476031L86.00738752528827,113.24727214466442L86.80105552398363,80.89090867476031L86.95189885706901,113.24727214466442L87.37193952304523,48.53454520485619L87.65506085591316,177.95999908447266L87.91381518882115,210.31636255437678L88.5763655210654,113.24727214466442L88.78986685404777,145.60363561456853L88.89081585388183,48.53454520485619L89.09851552020709,113.24727214466442L89.13680652014415,16.178181734952062L23.272805628410975,80.89090867476031L23.480505294736226,113.24727214466442L23.253079961776734,48.53454520485619L23.576812961244585,113.24727214466442L23.608141961193084,80.89090867476031L23.627867627827325,145.60363561456853L24.209194626871746,80.89090867476031L24.263730293448763,113.24727214466442L24.404130626551307,48.53454520485619L24.645479959487915,-16.178181734952034L25.27089962512652,242.6727260242809L25.277861625115076,80.89090867476031L25.303388958406448,177.95999908447266L25.407818958234788,48.53454520485619L25.614358291228612,80.89090867476031L23.46310029476484,210.31636255437678L23.545483961296082,48.53454520485619L24.54685162631671,48.53454520485619L25.02026762553851,113.24727214466442L26.14114962369601,113.24727214466442L26.324482290061315,113.24727214466442L26.549586956357956,80.89090867476031L27.310765621773403,80.89090867476031L27.737768287738163,80.89090867476031L23.24843862845103,16.178181734952062L23.60698162786166,177.95999908447266L23.65571562778155,210.31636255437678L24.126810960340503,48.53454520485619L24.983136958932878,113.24727214466442L25.202439958572388,113.24727214466442L25.254654958486558,16.178181734952062L25.740834624354047,80.89090867476031L26.716674956083295,16.178181734952062L26.82922728923162,210.31636255437678L27.07521795549393,80.89090867476031L27.749371621052425,80.89090867476031L27.76561628769239,113.24727214466442L28.078906287177404,177.95999908447266L28.385234286673864,80.89090867476031L28.47690061985652,80.89090867476031L28.612659619633355,177.95999908447266L29.24736195192337,145.60363561456853L29.384281285031634,145.60363561456853L29.47246661822001,16.178181734952062L29.866979950904845,113.24727214466442L30.36824395008087,145.60363561456853L30.514445949840546,48.53454520485619L30.922883282502493,16.178181734952062L30.982060282405218,145.60363561456853L31.00758761569659,80.89090867476031L31.045878615633647,80.89090867476031L31.074886948919296,177.95999908447266L31.376573615090052,145.60363561456853L31.378894281752903,145.60363561456853L31.497248281558356,113.24727214466442L31.500729281552633,113.24727214466442L31.87087561427752,177.95999908447266L32.202730947065355,113.24727214466442L32.39998761340777,48.53454520485619L33.113592612234754,177.95999908447266L33.26443594532013,-16.178181734952034L33.569603611485164,80.89090867476031L35.07803694233895,177.95999908447266L35.92624060761134,145.60363561456853L36.232568607107794,113.24727214466442L36.39965660683314,48.53454520485619L36.45419227341016,80.89090867476031L36.589951273187,80.89090867476031L36.72454993963241,145.60363561456853L36.73267227295239,145.60363561456853L37.063367272408804,80.89090867476031L37.87908160440127,80.89090867476031L38.15059960395495,48.53454520485619L38.23530393714905,177.95999908447266L38.89321293606758,-16.178181734952034L38.972115602604546,80.89090867476031L39.06146126912435,113.24727214466442L39.077705935764314,177.95999908447266L39.12295893568992,210.31636255437678L39.16008960229556,145.60363561456853L39.847006934499746,145.60363561456853L40.35059160033862,210.31636255437678L40.43065460020701,113.24727214466442L40.5060762667497,113.24727214466442L40.767151266320546,48.53454520485619L40.78571659962336,16.178181734952062L40.95280459934871,113.24727214466442L40.98297326596578,80.89090867476031L41.025905599228544,48.53454520485619L41.47031326516469,80.89090867476031L41.49235959846178,16.178181734952062L41.91704159776369,177.95999908447266L42.04815926421483,113.24727214466442L43.48929326184591,113.24727214466442L43.52874459511439,242.6727260242809L43.62041092829705,80.89090867476031L44.1054302608331,-16.178181734952034L44.67979525988897,177.95999908447266L45.43053092532158,16.178181734952062L45.653314924955374,177.95999908447266L46.21955759069125,80.89090867476031L46.31238425720533,48.53454520485619L46.705737256558734,48.53454520485619L46.74170758983294,80.89090867476031L46.912276589552555,113.24727214466442L47.29286592226028,80.89090867476031L48.18168125413259,16.178181734952062L48.2803095873038,145.60363561456853L48.44623725369771,80.89090867476031L48.89296558629672,145.60363561456853L49.20973658577601,48.53454520485619L49.39887091879845,145.60363561456853L49.75625358487765,113.24727214466442L50.379352583853404,48.53454520485619L50.54295958358447,145.60363561456853L51.16025691590309,80.89090867476031L51.17882224920591,177.95999908447266L51.622069581810635,210.31636255437678L51.88662558137575,48.53454520485619L51.95856624792417,80.89090867476031L52.19295358087222,113.24727214466442L53.426387912178036,210.31636255437678L53.802335911560064,16.178181734952062L53.829023578182856,80.89090867476031L53.92765191135406,113.24727214466442L53.93113291134834,113.24727214466442L54.37786124394735,-48.53454520485619L55.08450424278577,16.178181734952062L55.1529639093399,16.178181734952062L55.54515657536189,16.178181734952062L55.65770890851021,145.60363561456853L55.94547157470385,48.53454520485619L56.44441490721702,16.178181734952062L57.18122657267253,80.89090867476031L57.46898923886617,48.53454520485619L57.78576023834546,113.24727214466442L58.09208823784193,48.53454520485619L58.15706690440178,113.24727214466442L58.27658123753865,48.53454520485619L58.820777569977444,113.24727214466442L58.84746523660024,48.53454520485619L59.22921490263939,48.53454520485619L59.50073290219307,113.24727214466442L59.57615456873576,177.95999908447266L60.30252323420842,80.89090867476031L60.52298656717936,210.31636255437678L60.73184656683603,16.178181734952062L60.96391323312124,145.60363561456853L61.05673989963532,48.53454520485619L61.184376566092176,210.31636255437678L61.44661189899445,113.24727214466442L61.750619231828054,113.24727214466442L62.424772897386546,145.60363561456853L62.94808322985967,-16.178181734952034L63.07339922965368,113.24727214466442L63.38668922913869,113.24727214466442L64.20472422779402,113.24727214466442L64.5168538939476,80.89090867476031L64.58531356050173,16.178181734952062L64.67814022701582,145.60363561456853L64.76516522687277,177.95999908447266L64.95313922656378,145.60363561456853L65.0703328930378,80.89090867476031L65.26062755939166,145.60363561456853L65.75260889191628,113.24727214466442L65.77581555854479,48.53454520485619L66.43256422413191,48.53454520485619L66.46969489073753,16.178181734952062L66.63678289046287,113.24727214466442L66.86304789009094,16.178181734952062L66.89901822336515,113.24727214466442L66.96283655659357,113.24727214466442L67.00344822319349,145.60363561456853L67.01505155650774,80.89090867476031L67.24131655613581,113.24727214466442L67.6021802222093,113.24727214466442L68.10112355472246,145.60363561456853L68.48287322076162,145.60363561456853L68.55017255398432,16.178181734952062L69.20227988624573,80.89090867476031L69.21968488621711,48.53454520485619L69.23476921952566,113.24727214466442L69.43086555253664,113.24727214466442L69.8265392185529,113.24727214466442L70.03075788488388,113.24727214466442L70.22105255123773,113.24727214466442L70.2372972178777,113.24727214466442L70.72695788373947,16.178181734952062L70.79309688363075,113.24727214466442L70.93581788339614,113.24727214466442L71.14003654972713,113.24727214466442L71.25606988286972,145.60363561456853L71.76313554870288,16.178181734952062L72.61482021396955,80.89090867476031L73.48390987920762,113.24727214466442L74.24508854462306,16.178181734952062L74.24624887795447,16.178181734952062L74.31354821117719,113.24727214466442L74.5456148774624,16.178181734952062L74.91808187685014,16.178181734952062L75.34624487614632,177.95999908447266L75.38453587608338,80.89090867476031L75.60964054238002,48.53454520485619L75.80457654205958,80.89090867476031L75.868394875288,16.178181734952062L75.9797868751049,113.24727214466442L76.51005920756658,145.60363561456853L76.65974220732053,80.89090867476031L77.09486720660527,48.53454520485619L77.34665953952472,80.89090867476031L78.21574920476277,80.89090867476031L78.2610022046884,80.89090867476031L78.49190853764216,210.31636255437678L78.97924853684108,145.60363561456853L79.28905753633181,113.24727214466442L79.46542820270857,80.89090867476031L79.74274786891937,210.31636255437678L80.10477186832428,80.89090867476031L80.29854753467242,113.24727214466442L81.03767986679077,113.24727214466442L81.51341653267544,145.60363561456853L81.52734053265254,145.60363561456853L81.81394286551475,48.53454520485619L81.9450605319659,145.60363561456853L82.13187419832548,-16.178181734952034L82.86752553044956,16.178181734952062L82.91161819704374,80.89090867476031L82.9951621969064,113.24727214466442L83.26551986312866,177.95999908447266L83.30149019640287,145.60363561456853L83.42680619619688,145.60363561456853L83.98376619528135,80.89090867476031L84.20422952825228,80.89090867476031L84.3388281946977,113.24727214466442L84.62775119422277,113.24727214466442L85.16266486001014,113.24727214466442L85.46087052618662,16.178181734952062L85.56530052601497,48.53454520485619L85.91804185876846,-48.53454520485619L86.11297785844803,113.24727214466442L86.70358752414386,48.53454520485619L88.11107185516357,113.24727214466442L88.112232188495,113.24727214466442L88.27351852156322,80.89090867476031L88.30832852150598,145.60363561456853L88.35590218809446,16.178181734952062L88.8571661872705,177.95999908447266L89.2864895198981,177.95999908447266L89.77034851910274,210.31636255437678L89.78427251907985,113.24727214466442L89.90610751887957,-16.178181734952034L90.28785718491872,48.53454520485619L90.91559751722018,113.24727214466442L90.9434455171744,48.53454520485619L90.98173651711146,48.53454520485619L91.59787351609866,177.95999908447266L92.25114118169148,-48.53454520485619L92.3184405149142,80.89090867476031L92.57951551448504,80.89090867476031L92.86611784734727,113.24727214466442L94.48710351134936,113.24727214466442L94.774866177543,145.60363561456853L94.96284017723401,145.60363561456853L95.47918850971857,113.24727214466442L95.58942017620406,48.53454520485619L95.76114950925509,80.89090867476031L95.86906050907771,113.24727214466442L96.14057850863139,80.89090867476031L96.36336250826518,113.24727214466442L96.48403717473347,80.89090867476031L97.34036317332585,48.53454520485619L97.53994050633112,-16.178181734952034L97.64204983949662,113.24727214466442L97.7534418393135,48.53454520485619L97.80333617256483,-16.178181734952034L98.24426283850669,177.95999908447266L98.4136715048949,16.178181734952062L99.14700217035612,48.53454520485619L99.4057565032641,80.89090867476031L100.2806478351593,48.53454520485619L100.34330583505631,145.60363561456853L100.5080731681188,48.53454520485619L101.43633983325958,145.60363561456853L101.71481983280182,48.53454520485619L102.05131649891536,48.53454520485619L102.18127383203506,113.24727214466442L102.81017449766794,80.89090867476031L102.98074349738756,113.24727214466442L103.40890649668376,177.95999908447266L103.42399082999229,16.178181734952062L103.52261916316351,80.89090867476031L103.99023349572816,145.60363561456853L104.11322882885932,145.60363561456853L104.84655949432054,113.24727214466442L105.14476516049703,113.24727214466442L105.53579749318759,80.89090867476031L105.70868715957006,113.24727214466442L106.07419215896924,80.89090867476031L106.07999382562637,113.24727214466442L106.09739882559775,145.60363561456853L106.48030882496833,-16.178181734952034L106.51743949157397,-16.178181734952034L107.10920949060123,80.89090867476031L107.25077015703519,48.53454520485619L107.57450315650304,113.24727214466442L108.70350748798053,80.89090867476031L109.07365382070542,48.53454520485619L109.24190215376218,113.24727214466442L109.29527748700778,16.178181734952062L109.90561281933785,145.60363561456853L109.95202615259488,80.89090867476031L109.98683615253766,145.60363561456853L109.99843948585192,80.89090867476031L110.0866248190403,80.89090867476031L110.12607615230878,113.24727214466442L110.80487115119297,16.178181734952062L111.0821908174038,80.89090867476031L111.35254848362604,210.31636255437678L112.08471881575585,113.24727214466442L112.12649081568718,80.89090867476031L112.48271314843495,177.95999908447266L112.48387348176638,177.95999908447266L112.83081314786276,-16.178181734952034L113.12669814737637,80.89090867476031L113.29030514710745,80.89090867476031L113.63144314654669,48.53454520485619L113.81245514624914,113.24727214466442L114.07817147914568,48.53454520485619L114.33460514539084,48.53454520485619L114.48080714515051,80.89090867476031L114.8381898112297,113.24727214466442L114.90664947778383,48.53454520485619L115.04472914422354,16.178181734952062L115.18861047732035,113.24727214466442L116.56128480839729,48.53454520485619L116.65411147491137,80.89090867476031L117.2586451405843,-80.89090867476028L117.70421313985189,80.89090867476031L118.62667813833555,16.178181734952062L119.43659080367088,-48.53454520485619L119.55146380348206,145.60363561456853L119.70926913655599,16.178181734952062L119.85082980298996,16.178181734952062L119.91812913621266,-16.178181734952034L119.99819213608106,145.60363561456853L120.00283346940675,145.60363561456853L120.89048846794763,48.53454520485619L121.1701288008213,210.31636255437678L121.40567646710078,16.178181734952062L121.46485346700351,113.24727214466442L121.5449164668719,113.24727214466442L122.18309979915618,48.53454520485619L122.41748713210424,113.24727214466442L122.53932213190397,145.60363561456853L122.74702179822921,48.53454520485619L122.76326646486919,16.178181734952062L122.80503846480052,48.53454520485619L122.85261213138898,80.89090867476031L122.96168346454303,16.178181734952062L123.01853979778289,177.95999908447266L123.22739979743957,48.53454520485619L123.32834879727363,113.24727214466442L123.3492347972393,113.24727214466442L123.50587979698182,145.60363561456853L124.4654754620711,145.60363561456853L124.74743646160762,16.178181734952062L125.66409979343413,48.53454520485619L125.74184212663968,210.31636255437678L125.81262245985667,48.53454520485619L126.78382145826022,145.60363561456853L126.94974912465413,113.24727214466442L127.55892412365277,177.95999908447266L128.01725578956604,80.89090867476031L128.17506112263996,48.53454520485619L128.19246612261136,48.53454520485619L128.95480512135825,80.89090867476031L129.256491787529,210.31636255437678L129.45838978719712,48.53454520485619L129.5430941203912,16.178181734952062L129.7125027867794,80.89090867476031L129.73454912007648,16.178181734952062L129.8111311199506,48.53454520485619L129.9979447863102,80.89090867476031L130.10353511946997,80.89090867476031L130.1592311193784,48.53454520485619L130.3831754523436,-16.178181734952034L130.73591678509712,113.24727214466442L130.86819478487968,16.178181734952062L131.96238911641439,-80.89090867476028L132.14688211611113,145.60363561456853L132.45437044893902,177.95999908447266L132.58664844872158,113.24727214466442L132.88485411489805,80.89090867476031L133.37567511409122,48.53454520485619L133.43369178066254,113.24727214466442L133.6332691136678,80.89090867476031L133.67620144693058,113.24727214466442L133.96280377979278,48.53454520485619L134.4861141122659,80.89090867476031L134.51860344554584,48.53454520485619L134.72398244520824,-48.53454520485619L135.40393777742386,145.60363561456853L135.43062544404665,145.60363561456853L135.62672177705764,177.95999908447266L135.62788211038907,210.31636255437678L135.7009831102689,177.95999908447266L136.1384287762165,113.24727214466442L136.22081244274776,80.89090867476031L136.37745744249025,113.24727214466442L136.77081044184365,177.95999908447266L136.96574644152324,16.178181734952062L137.73156644026437,-16.178181734952034L138.5043484389941,113.24727214466442L138.732934105285,80.89090867476031L138.77934743854203,145.60363561456853L139.48018877072334,16.178181734952062L139.63567343713441,16.178181734952062L139.8712211034139,177.95999908447266L140.09980676970483,145.60363561456853L140.44906710246406,48.53454520485619L140.47575476908682,145.60363561456853L140.69853876872062,16.178181734952062L141.1127777680397,113.24727214466442L141.2021234345595,113.24727214466442L141.43651076750757,145.60363561456853L141.53513910067878,80.89090867476031L141.72311310036977,177.95999908447266L142.01087576656343,16.178181734952062L142.46688676581383,145.60363561456853L142.63281443220774,-16.178181734952034L142.87532409847577,177.95999908447266L143.06097743150391,113.24727214466442L143.25939443117775,-80.89090867476028L143.44156676421167,80.89090867476031L143.95907543002764,16.178181734952062L144.22711242958704,145.60363561456853L144.59725876231195,113.24727214466442L144.7016887621403,177.95999908447266L144.9627637617111,113.24727214466442L145.3189860944589,177.95999908447266L146.15094509309134,48.53454520485619L146.6243610923131,80.89090867476031L146.66961409223876,113.24727214466442L146.681217425553,16.178181734952062L147.3333247578144,-48.53454520485619L147.54798642412823,48.53454520485619L148.19313175640107,16.178181734952062L148.3335320895036,16.178181734952062L148.4275190893491,145.60363561456853L148.56791942245164,80.89090867476031L148.87076642195382,48.53454520485619L149.09006942159334,145.60363561456853L149.86633242031732,-48.53454520485619L150.13669008653957,48.53454520485619L150.6739244189898,113.24727214466442L150.74354441887536,113.24727214466442L150.86305875201225,80.89090867476031L150.98489375181197,80.89090867476031L151.1856314181487,177.95999908447266L151.80060808380443,-16.178181734952034L152.0349954167525,48.53454520485619L152.38309541618028,80.89090867476031L152.96558274855616,113.24727214466442L153.66178274741173,80.89090867476031L153.76853341390293,48.53454520485619L153.9147354136626,80.89090867476031L154.2500717464447,48.53454520485619L154.79426807888348,145.60363561456853L154.84068141214053,48.53454520485619L155.4150464111964,80.89090867476031L155.77591007726986,177.95999908447266L155.97664774360658,80.89090867476031L156.3085030763944,48.53454520485619L156.71345940906204,48.53454520485619L157.04879574184417,-16.178181734952034L157.56978540765445,-48.53454520485619L157.63360374088288,48.53454520485619L157.97358140699066,210.31636255437678L158.0455220735391,113.24727214466442L158.2462597398758,113.24727214466442L158.76957007234893,-16.178181734952034L159.25110840489072,16.178181734952062L159.63749940425555,242.6727260242809L159.70015740415258,113.24727214466442L159.76397573738097,16.178181734952062L159.7697774040381,16.178181734952062L160.08886907018024,80.89090867476031L160.14340473675728,80.89090867476031L160.14572540342013,48.53454520485619L160.39287640301387,177.95999908447266L160.52283373613358,-48.53454520485619L161.1621774017493,113.24727214466442L161.85373606727916,16.178181734952062L162.2169204000155,48.53454520485619L162.86322606561978,-16.178181734952034L163.57915173110962,-16.178181734952034L163.59423606441817,113.24727214466442L163.83790606401763,177.95999908447266L163.93305339719456,80.89090867476031L164.10826373023988,145.60363561456853L164.1407530635198,145.60363561456853L164.38326272978782,113.24727214466442L164.50973906291327,48.53454520485619L164.57471772947312,113.24727214466442L164.6327343960444,145.60363561456853L165.16648772850036,145.60363561456853L165.2523523950259,113.24727214466442L165.5644820611795,113.24727214466442L165.61785739442507,80.89090867476031L165.7118443942706,48.53454520485619L167.05899139205613,113.24727214466442L167.0833583920161,242.6727260242809L167.09148072533606,16.178181734952062L167.11816839195887,80.89090867476031L167.16458172521592,48.53454520485619L167.63103572444916,16.178181734952062L167.8735453907172,16.178181734952062L168.34348038994472,80.89090867476031L168.46415505641303,16.178181734952062L170.5214260530313,145.60363561456853L171.81867871756555,145.60363561456853L172.2816517168045,113.24727214466442L173.3131880484422,80.89090867476031L174.0801683805148,48.53454520485619L174.09757338048618,113.24727214466442L174.21708771362307,80.89090867476031L174.47120071320535,145.60363561456853L175.48881304486594,210.31636255437678L175.7556897110939,177.95999908447266L175.8137063776652,48.53454520485619L176.07942271056174,145.60363561456853L176.22214371032715,80.89090867476031L177.1353260421594,145.60363561456853L177.46718137494724,210.31636255437678L177.70969104121528,48.53454520485619L178.2213980403741,145.60363561456853L178.22603937369982,145.60363561456853L178.69481403959594,145.60363561456853L178.72730337287587,48.53454520485619L179.1624283721606,242.6727260242809L179.16590937215489,48.53454520485619L179.61031703809104,80.89090867476031L179.79945137111346,-16.178181734952034L179.8632697043419,145.60363561456853L181.18024803551037,16.178181734952062L181.62581603477796,-16.178181734952034L181.78246103452048,113.24727214466442L182.27328203371368,145.60363561456853L182.41136170015335,145.60363561456853L182.7026053663413,210.31636255437678L182.99965069918633,113.24727214466442L183.30365803201994,80.89090867476031L184.3467976969719,-48.53454520485619L185.0696853624503,113.24727214466442L185.25417836214703,145.60363561456853L185.6962653614203,210.31636255437678L185.85755169448854,145.60363561456853L186.64425769319533,145.60363561456853L187.73497102473576,80.89090867476031L188.3835973570029,80.89090867476031L188.61798468995093,48.53454520485619L189.22599935561814,16.178181734952062L189.32810868878366,113.24727214466442L189.34319302209218,113.24727214466442L189.7052170214971,113.24727214466442L189.92103902114232,80.89090867476031L189.9604903544108,80.89090867476031L190.47567835356395,177.95999908447266L190.5487793534438,48.53454520485619L191.13126668581964,145.60363561456853L191.1440303524653,48.53454520485619L191.37957801874478,48.53454520485619L191.5141766851902,80.89090867476031L191.83907001798948,48.53454520485619L192.2289420173486,80.89090867476031L192.30668435055415,242.6727260242809L192.5979280167421,80.89090867476031L192.94834868283274,80.89090867476031L193.1258796825409,145.60363561456853L194.12376634756725,-16.178181734952034L194.75382734653155,80.89090867476031L194.84317301305134,113.24727214466442L195.6449633450667,48.53454520485619L195.8979160113176,16.178181734952062L195.93852767791748,16.178181734952062L196.5070910103162,210.31636255437678L196.57903167686462,80.89090867476031L196.64285001009307,113.24727214466442L197.3425310089429,80.89090867476031L198.0654186744213,113.24727214466442L198.14664200762113,113.24727214466442L198.18029167423248,80.89090867476031L199.2756463390986,113.24727214466442L199.80475833822888,113.24727214466442L199.92543300469717,16.178181734952062L200.09368133775394,48.53454520485619L200.28629667077067,80.89090867476031L200.695894336764,16.178181734952062L200.7225820033868,16.178181734952062L200.8966320031007,16.178181734952062L201.91656500142415,-48.53454520485619L202.19736566762924,113.24727214466442L202.31804033409753,80.89090867476031L202.51761766710283,16.178181734952062L202.60000133363405,80.89090867476031L202.94229966640472,48.53454520485619L203.06877599953015,80.89090867476031L203.5978879986604,80.89090867476031L203.7324866651058,113.24727214466442L204.23491099761327,48.53454520485619L204.3080119974931,210.31636255437678L204.75125933009784,80.89090867476031L205.0216169963201,113.24727214466442L205.133008996137,145.60363561456853L206.23068432766595,16.178181734952062L206.865386659956,113.24727214466442L207.05452099297844,48.53454520485619L207.32951999252637,80.89090867476031L207.47688232561748,80.89090867476031L208.0814159912904,80.89090867476031L208.28331399095853,48.53454520485619L208.38310265746117,113.24727214466442L208.7996623234431,242.6727260242809L210.0098899881204,16.178181734952062L210.12360265460015,48.53454520485619L210.13752665457724,80.89090867476031L210.251239321057,113.24727214466442L210.41368598745666,80.89090867476031L210.61558398712475,48.53454520485619L211.36051798590023,113.24727214466442L211.46378765239714,145.60363561456853L211.80724631849924,80.89090867476031L212.00334265151025,113.24727214466442L212.00566331817308,113.24727214466442L212.24237131778398,113.24727214466442L212.72042865033148,48.53454520485619L212.72390965032577,80.89090867476031L212.83414131681124,-16.178181734952034L213.1451106496334,16.178181734952062L213.20312731620473,48.53454520485619L213.54078431564966,80.89090867476031L213.71947564868927,80.89090867476031L213.86915864844323,16.178181734952062L213.88772398174603,-48.53454520485619L214.1105079813798,113.24727214466442L214.29151998108227,80.89090867476031L214.64658198049864,177.95999908447266L214.79510464692115,80.89090867476031L215.5516419790109,145.60363561456853L216.75490764369965,16.178181734952062L216.8871856434822,-16.178181734952034L216.9080716434479,-16.178181734952034L217.1900326429844,80.89090867476031L217.72030497544608,80.89090867476031L218.39097764101027,16.178181734952062L218.39329830767315,16.178181734952062L218.40838264098167,48.53454520485619L218.57895164070132,80.89090867476031L218.7843306403637,113.24727214466442L218.93285330678623,145.60363561456853L218.99667164001465,145.60363561456853L219.18464563970565,48.53454520485619L219.2577466395855,48.53454520485619L219.53738697245916,48.53454520485619L219.74740730544727,-16.178181734952034L220.0699799715837,48.53454520485619L220.2347473046462,48.53454520485619L220.41575930434863,177.95999908447266L220.52483063750267,16.178181734952062L221.01913263669016,145.60363561456853L221.54360330249466,-16.178181734952034L222.00425563507082,113.24727214466442L222.1829469681104,48.53454520485619L222.37788296779,80.89090867476031L222.95920996683438,80.89090867476031L223.00794396675428,80.89090867476031L223.701823298947,-113.24727214466441L224.00118929845493,113.24727214466442L224.36089263119698,16.178181734952062L224.5720732975165,16.178181734952062L224.59179896415077,80.89090867476031L225.19981362981798,113.24727214466442L225.34137429625193,-48.53454520485619L225.61753362913132,177.95999908447266L226.07702562837602,177.95999908447266L226.44717196110088,80.89090867476031L227.04010229345957,80.89090867476031L227.2907342930476,113.24727214466442L227.74442462563516,145.60363561456853L227.8581372921149,145.60363561456853L227.93587962532044,80.89090867476031L228.3628822912852,16.178181734952062L228.66804995745025,-16.178181734952034L228.68429462409017,177.95999908447266L230.11150462174416,210.31636255437678L230.22869828821817,48.53454520485619L230.55359162101746,113.24727214466442L231.4041159529527,80.89090867476031L231.65358761920928,48.53454520485619L232.59809895099005,145.60363561456853L232.98797095034917,113.24727214466442L233.006536283652,145.60363561456853L233.85009861559868,113.24727214466442L234.01950728198688,113.24727214466442L234.67857661423682,80.89090867476031L234.82593894732793,145.60363561456853L234.85958861393928,177.95999908447266L234.8955589472135,145.60363561456853L235.5894382794062,48.53454520485619L235.5917589460691,48.53454520485619L235.75536594580015,48.53454520485619L235.85863561229706,48.53454520485619L236.19165127841632,48.53454520485619L236.3645409447988,-80.89090867476028L236.45620727798146,177.95999908447266L237.1953396100998,80.89090867476031L237.59913560943602,145.60363561456853L237.62234227606453,113.24727214466442L237.8520882756869,48.53454520485619L238.579617274491,145.60363561456853L238.8267682740847,145.60363561456853L238.95788594053585,80.89090867476031L239.10176727363267,-16.178181734952034L239.38256793983777,177.95999908447266L239.53805260624887,-16.178181734952034L239.65524627272288,48.53454520485619L239.67033060603143,48.53454520485619L239.9685362722079,210.31636255437678L240.28530727168717,113.24727214466442L240.57074927121798,48.53454520485619L241.00935527049703,113.24727214466442L241.10102160367964,80.89090867476031L241.284354270045,16.178181734952062L241.56167393625577,48.53454520485619L242.1430009353002,177.95999908447266L242.553758934625,113.24727214466442L242.7022816010475,113.24727214466442L242.90998126737276,16.178181734952062L243.01325093386967,16.178181734952062L243.50639259972573,48.53454520485619L243.84172893250783,48.53454520485619L243.90902826573054,113.24727214466442L244.52748593138057,16.178181734952062L245.07168226381938,-48.53454520485619L245.3803309299787,80.89090867476031L245.6298025962353,80.89090867476031L246.9258949274381,145.60363561456853L247.09414326049486,16.178181734952062L247.26007092688877,210.31636255437678L247.32504959344865,48.53454520485619L247.51302359313965,48.53454520485619L247.7474109260877,16.178181734952062L247.96671392572722,145.60363561456853L248.14308459210395,145.60363561456853L248.15584825874964,-16.178181734952034L248.8624912575881,145.60363561456853L248.86829292424522,48.53454520485619L249.13168859047892,80.89090867476031L249.18970525705018,-48.53454520485619L249.21523259034157,113.24727214466442L249.35679325677555,113.24727214466442L249.41945125667255,80.89090867476031L249.79075792272886,177.95999908447266L250.2804185885906,48.53454520485619L250.60299125472704,-80.89090867476028L251.87239591930708,177.95999908447266L252.08937825228372,145.60363561456853L252.1067832522551,113.24727214466442L252.18916691878638,-48.53454520485619L252.31680358524324,145.60363561456853L252.4850519183,48.53454520485619L252.49665525161427,80.89090867476031L252.60804725143115,80.89090867476031" fill="none"></path></g></g></g></g></g></g><g transform="translate(51, 177)" clip-path="url(#clip_1)"><clipPath id="clip_1"><rect width="278" height="22"></rect></clipPath><g><g><line x1="0" y1="0" x2="0" y2="5" style="visibility: inherit;" fill="rgb(0, 0, 0)" stroke="rgb(204, 204, 204)" stroke-width="1px"></line><line x1="23.20666662851969" y1="0" x2="23.20666662851969" y2="5" style="visibility: inherit;" fill="rgb(0, 0, 0)" stroke="rgb(204, 204, 204)" stroke-width="1px"></line><line x1="46.41333325703938" y1="0" x2="46.41333325703938" y2="5" style="visibility: inherit;" fill="rgb(0, 0, 0)" stroke="rgb(204, 204, 204)" stroke-width="1px"></line><line x1="69.61999988555908" y1="0" x2="69.61999988555908" y2="5" style="visibility: inherit;" fill="rgb(0, 0, 0)" stroke="rgb(204, 204, 204)" stroke-width="1px"></line><line x1="92.82666651407877" y1="0" x2="92.82666651407877" y2="5" style="visibility: inherit;" fill="rgb(0, 0, 0)" stroke="rgb(204, 204, 204)" stroke-width="1px"></line><line x1="116.03333314259848" y1="0" x2="116.03333314259848" y2="5" style="visibility: inherit;" fill="rgb(0, 0, 0)" stroke="rgb(204, 204, 204)" stroke-width="1px"></line><line x1="139.23999977111816" y1="0" x2="139.23999977111816" y2="5" style="visibility: inherit;" fill="rgb(0, 0, 0)" stroke="rgb(204, 204, 204)" stroke-width="1px"></line><line x1="162.44666639963788" y1="0" x2="162.44666639963788" y2="5" style="visibility: inherit;" fill="rgb(0, 0, 0)" stroke="rgb(204, 204, 204)" stroke-width="1px"></line><line x1="185.65333302815753" y1="0" x2="185.65333302815753" y2="5" style="visibility: inherit;" fill="rgb(0, 0, 0)" stroke="rgb(204, 204, 204)" stroke-width="1px"></line><line x1="208.85999965667725" y1="0" x2="208.85999965667725" y2="5" style="visibility: inherit;" fill="rgb(0, 0, 0)" stroke="rgb(204, 204, 204)" stroke-width="1px"></line><line x1="232.06666628519696" y1="0" x2="232.06666628519696" y2="5" style="visibility: inherit;" fill="rgb(0, 0, 0)" stroke="rgb(204, 204, 204)" stroke-width="1px"></line><line x1="255.27333291371662" y1="0" x2="255.27333291371662" y2="5" style="visibility: inherit;" fill="rgb(0, 0, 0)" stroke="rgb(204, 204, 204)" stroke-width="1px"></line><line x1="278.4799995422363" y1="0" x2="278.4799995422363" y2="5" style="visibility: inherit;" fill="rgb(0, 0, 0)" stroke="rgb(204, 204, 204)" stroke-width="1px"></line></g><g transform="translate(0, 8)"><text style="text-anchor: middle; visibility: hidden; font-family: &quot;Helvetica Neue&quot;, sans-serif; font-size: 12px; font-weight: 200;" x="0" y="0" dx="0em" dy="0.95em" fill="rgb(50, 49, 63)" stroke="none" stroke-width="1px">-20k</text><text style="text-anchor: middle; visibility: hidden; font-family: &quot;Helvetica Neue&quot;, sans-serif; font-size: 12px; font-weight: 200;" x="23.20666662851969" y="0" dx="0em" dy="0.95em" fill="rgb(50, 49, 63)" stroke="none" stroke-width="1px">0</text><text style="text-anchor: middle; visibility: hidden; font-family: &quot;Helvetica Neue&quot;, sans-serif; font-size: 12px; font-weight: 200;" x="46.41333325703938" y="0" dx="0em" dy="0.95em" fill="rgb(50, 49, 63)" stroke="none" stroke-width="1px">20k</text><text style="text-anchor: middle; visibility: hidden; font-family: &quot;Helvetica Neue&quot;, sans-serif; font-size: 12px; font-weight: 200;" x="69.61999988555908" y="0" dx="0em" dy="0.95em" fill="rgb(50, 49, 63)" stroke="none" stroke-width="1px">40k</text><text style="text-anchor: middle; visibility: hidden; font-family: &quot;Helvetica Neue&quot;, sans-serif; font-size: 12px; font-weight: 200;" x="92.82666651407877" y="0" dx="0em" dy="0.95em" fill="rgb(50, 49, 63)" stroke="none" stroke-width="1px">60k</text><text style="text-anchor: middle; visibility: hidden; font-family: &quot;Helvetica Neue&quot;, sans-serif; font-size: 12px; font-weight: 200;" x="116.03333314259848" y="0" dx="0em" dy="0.95em" fill="rgb(50, 49, 63)" stroke="none" stroke-width="1px">80k</text><text style="text-anchor: middle; visibility: hidden; font-family: &quot;Helvetica Neue&quot;, sans-serif; font-size: 12px; font-weight: 200;" x="139.23999977111816" y="0" dx="0em" dy="0.95em" fill="rgb(50, 49, 63)" stroke="none" stroke-width="1px">100k</text><text style="text-anchor: middle; visibility: hidden; font-family: &quot;Helvetica Neue&quot;, sans-serif; font-size: 12px; font-weight: 200;" x="162.44666639963788" y="0" dx="0em" dy="0.95em" fill="rgb(50, 49, 63)" stroke="none" stroke-width="1px">120k</text><text style="text-anchor: middle; visibility: hidden; font-family: &quot;Helvetica Neue&quot;, sans-serif; font-size: 12px; font-weight: 200;" x="185.65333302815753" y="0" dx="0em" dy="0.95em" fill="rgb(50, 49, 63)" stroke="none" stroke-width="1px">140k</text><text style="text-anchor: middle; visibility: hidden; font-family: &quot;Helvetica Neue&quot;, sans-serif; font-size: 12px; font-weight: 200;" x="208.85999965667725" y="0" dx="0em" dy="0.95em" fill="rgb(50, 49, 63)" stroke="none" stroke-width="1px">160k</text><text style="text-anchor: middle; visibility: hidden; font-family: &quot;Helvetica Neue&quot;, sans-serif; font-size: 12px; font-weight: 200;" x="232.06666628519696" y="0" dx="0em" dy="0.95em" fill="rgb(50, 49, 63)" stroke="none" stroke-width="1px">180k</text><text style="text-anchor: middle; visibility: hidden; font-family: &quot;Helvetica Neue&quot;, sans-serif; font-size: 12px; font-weight: 200;" x="255.27333291371662" y="0" dx="0em" dy="0.95em" fill="rgb(50, 49, 63)" stroke="none" stroke-width="1px">200k</text><text style="text-anchor: middle; visibility: hidden; font-family: &quot;Helvetica Neue&quot;, sans-serif; font-size: 12px; font-weight: 200;" x="278.4799995422363" y="0" dx="0em" dy="0.95em" fill="rgb(50, 49, 63)" stroke="none" stroke-width="1px">220k</text></g><line x1="0" y1="0" x2="278.4799995422363" y2="0" fill="rgb(0, 0, 0)" stroke="rgb(204, 204, 204)" stroke-width="1px"></line></g></g></g></g></svg>