<svg viewBox="0 0 330 200" xmlns="http://www.w3.org/2000/svg"><g><g><g><g><g><line x1="51.52000045776367" y1="177.95999908447266" x2="46.52000045776367" y2="177.95999908447266" style="visibility: inherit;" fill="rgb(0, 0, 0)" stroke="rgb(204, 204, 204)" stroke-width="1px"></line><line x1="51.52000045776367" y1="155.71499919891346" x2="46.52000045776367" y2="155.71499919891346" style="visibility: inherit;" fill="rgb(0, 0, 0)" stroke="rgb(204, 204, 204)" stroke-width="1px"></line><line x1="51.52000045776367" y1="133.46999931335444" x2="46.52000045776367" y2="133.46999931335444" style="visibility: inherit;" fill="rgb(0, 0, 0)" stroke="rgb(204, 204, 204)" stroke-width="1px"></line><line x1="51.52000045776367" y1="111.22499942779544" x2="46.52000045776367" y2="111.22499942779544" style="visibility: inherit;" fill="rgb(0, 0, 0)" stroke="rgb(204, 204, 204)" stroke-width="1px"></line><line x1="51.52000045776367" y1="88.97999954223623" x2="46.52000045776367" y2="88.97999954223623" style="visibility: inherit;" fill="rgb(0, 0, 0)" stroke="rgb(204, 204, 204)" stroke-width="1px"></line><line x1="51.52000045776367" y1="66.73499965667723" x2="46.52000045776367" y2="66.73499965667723" style="visibility: inherit;" fill="rgb(0, 0, 0)" stroke="rgb(204, 204, 204)" stroke-width="1px"></line><line x1="51.52000045776367" y1="44.48999977111799" x2="46.52000045776367" y2="44.48999977111799" style="visibility: inherit;" fill="rgb(0, 0, 0)" stroke="rgb(204, 204, 204)" stroke-width="1px"></line><line x1="51.52000045776367" y1="22.244999885558997" x2="46.52000045776367" y2="22.244999885558997" style="visibility: inherit;" fill="rgb(0, 0, 0)" stroke="rgb(204, 204, 204)" stroke-width="1px"></line><line x1="51.52000045776367" y1="0" x2="46.52000045776367" y2="0" style="visibility: inherit;" fill="rgb(0, 0, 0)" stroke="rgb(204, 204, 204)" stroke-width="1px"></line></g><g transform="translate(41.52000045776367, 0)"><text style="text-anchor: end; visibility: hidden; font-family: &quot;Helvetica Neue&quot;, sans-serif; font-size: 12px; font-weight: 200;" x="0" y="177.95999908447266" dx="0em" dy="0.3em" fill="rgb(50, 49, 63)" stroke="none" stroke-width="1px">9.6</text><text style="text-anchor: end; visibility: inherit; font-family: &quot;Helvetica Neue&quot;, sans-serif; font-size: 12px; font-weight: 200;" x="0" y="155.71499919891346" dx="0em" dy="0.3em" fill="rgb(50, 49, 63)" stroke="none" stroke-width="1px">9.8</text><text style="text-anchor: end; visibility: hidden; font-family: &quot;Helvetica Neue&quot;, sans-serif; font-size: 12px; font-weight: 200;" x="0" y="133.46999931335444" dx="0em" dy="0.3em" fill="rgb(50, 49, 63)" stroke="none" stroke-width="1px">10</text><text style="text-anchor: end; visibility: inherit; font-family: &quot;Helvetica Neue&quot;, sans-serif; font-size: 12px; font-weight: 200;" x="0" y="111.22499942779544" dx="0em" dy="0.3em" fill="rgb(50, 49, 63)" stroke="none" stroke-width="1px">10.2</text><text style="text-anchor: end; visibility: hidden; font-family: &quot;Helvetica Neue&quot;, sans-serif; font-size: 12px; font-weight: 200;" x="0" y="88.97999954223623" dx="0em" dy="0.3em" fill="rgb(50, 49, 63)" stroke="none" stroke-width="1px">10.4</text><text style="text-anchor: end; visibility: inherit; font-family: &quot;Helvetica Neue&quot;, sans-serif; font-size: 12px; font-weight: 200;" x="0" y="66.73499965667723" dx="0em" dy="0.3em" fill="rgb(50, 49, 63)" stroke="none" stroke-width="1px">10.6</text><text style="text-anchor: end; visibility: hidden; font-family: &quot;Helvetica Neue&quot;, sans-serif; font-size: 12px; font-weight: 200;" x="0" y="44.48999977111799" dx="0em" dy="0.3em" fill="rgb(50, 49, 63)" stroke="none" stroke-width="1px">10.8</text><text style="text-anchor: end; visibility: inherit; font-family: &quot;Helvetica Neue&quot;, sans-serif; font-size: 12px; font-weight: 200;" x="0" y="22.244999885558997" dx="0em" dy="0.3em" fill="rgb(50, 49, 63)" stroke="none" stroke-width="1px">11</text><text style="text-anchor: end; visibility: hidden; font-family: &quot;Helvetica Neue&quot;, sans-serif; font-size: 12px; font-weight: 200;" x="0" y="0" dx="0em" dy="0.3em" fill="rgb(50, 49, 63)" stroke="none" stroke-width="1px">11.2</text></g><line x1="51.52000045776367" y1="0" x2="51.52000045776367" y2="177.95999908447266" fill="rgb(0, 0, 0)" stroke="rgb(204, 204, 204)" stroke-width="1px"></line></g></g><g transform="translate(51, 0)" clip-path="url(#clip_0)"><clipPath id="clip_0"><rect width="278" height="177"></rect></clipPath><g><g><g><line x1="0" y1="0" x2="0" y2="177.95999908447266" fill="rgb(0, 0, 0)" stroke="rgb(60, 60, 60)" stroke-width="1px" opacity="0.25"></line><line x1="23.20666662851969" y1="0" x2="23.20666662851969" y2="177.95999908447266" fill="rgb(0, 0, 0)" stroke="rgb(60, 60, 60)" stroke-width="1px" opacity="0.25"></line><line x1="46.41333325703938" y1="0" x2="46.41333325703938" y2="177.95999908447266" fill="rgb(0, 0, 0)" stroke="rgb(60, 60, 60)" stroke-width="1px" opacity="0.25"></line><line x1="69.61999988555908" y1="0" x2="69.61999988555908" y2="177.95999908447266" fill="rgb(0, 0, 0)" stroke="rgb(60, 60, 60)" stroke-width="1px" opacity="0.25"></line><line x1="92.82666651407877" y1="0" x2="92.82666651407877" y2="177.95999908447266" fill="rgb(0, 0, 0)" stroke="rgb(60, 60, 60)" stroke-width="1px" opacity="0.25"></line><line x1="116.03333314259848" y1="0" x2="116.03333314259848" y2="177.95999908447266" fill="rgb(0, 0, 0)" stroke="rgb(60, 60, 60)" stroke-width="1px" opacity="0.25"></line><line x1="139.23999977111816" y1="0" x2="139.23999977111816" y2="177.95999908447266" fill="rgb(0, 0, 0)" stroke="rgb(60, 60, 60)" stroke-width="1px" opacity="0.25"></line><line x1="162.44666639963788" y1="0" x2="162.44666639963788" y2="177.95999908447266" fill="rgb(0, 0, 0)" stroke="rgb(60, 60, 60)" stroke-width="1px" opacity="0.25"></line><line x1="185.65333302815753" y1="0" x2="185.65333302815753" y2="177.95999908447266" fill="rgb(0, 0, 0)" stroke="rgb(60, 60, 60)" stroke-width="1px" opacity="0.25"></line><line x1="208.85999965667725" y1="0" x2="208.85999965667725" y2="177.95999908447266" fill="rgb(0, 0, 0)" stroke="rgb(60, 60, 60)" stroke-width="1px" opacity="0.25"></line><line x1="232.06666628519696" y1="0" x2="232.06666628519696" y2="177.95999908447266" fill="rgb(0, 0, 0)" stroke="rgb(60, 60, 60)" stroke-width="1px" opacity="0.25"></line><line x1="255.27333291371662" y1="0" x2="255.27333291371662" y2="177.95999908447266" fill="rgb(0, 0, 0)" stroke="rgb(60, 60, 60)" stroke-width="1px" opacity="0.25"></line><line x1="278.4799995422363" y1="0" x2="278.4799995422363" y2="177.95999908447266" fill="rgb(0, 0, 0)" stroke="rgb(60, 60, 60)" stroke-width="1px" opacity="0.25"></line></g><g><line x1="0" y1="177.95999908447266" x2="278.4799995422363" y2="177.95999908447266" fill="rgb(0, 0, 0)" stroke="rgb(60, 60, 60)" stroke-width="1px" opacity="0.25"></line><line x1="0" y1="155.71499919891346" x2="278.4799995422363" y2="155.71499919891346" fill="rgb(0, 0, 0)" stroke="rgb(60, 60, 60)" stroke-width="1px" opacity="0.25"></line><line x1="0" y1="133.46999931335444" x2="278.4799995422363" y2="133.46999931335444" fill="rgb(0, 0, 0)" stroke="rgb(60, 60, 60)" stroke-width="1px" opacity="0.25"></line><line x1="0" y1="111.22499942779544" x2="278.4799995422363" y2="111.22499942779544" fill="rgb(0, 0, 0)" stroke="rgb(60, 60, 60)" stroke-width="1px" opacity="0.25"></line><line x1="0" y1="88.97999954223623" x2="278.4799995422363" y2="88.97999954223623" fill="rgb(0, 0, 0)" stroke="rgb(60, 60, 60)" stroke-width="1px" opacity="0.25"></line><line x1="0" y1="66.73499965667723" x2="278.4799995422363" y2="66.73499965667723" fill="rgb(0, 0, 0)" stroke="rgb(60, 60, 60)" stroke-width="1px" opacity="0.25"></line><line x1="0" y1="44.48999977111799" x2="278.4799995422363" y2="44.48999977111799" fill="rgb(0, 0, 0)" stroke="rgb(60, 60, 60)" stroke-width="1px" opacity="0.25"></line><line x1="0" y1="22.244999885558997" x2="278.4799995422363" y2="22.244999885558997" fill="rgb(0, 0, 0)" stroke="rgb(60, 60, 60)" stroke-width="1px" opacity="0.25"></line><line x1="0" y1="0" x2="278.4799995422363" y2="0" fill="rgb(0, 0, 0)" stroke="rgb(60, 60, 60)" stroke-width="1px" opacity="0.25"></line></g></g></g><g><g><line x1="0" y1="1245.7199935913088" x2="278.4799995422363" y2="1245.7199935913088" fill="rgb(0, 0, 0)" stroke="rgb(153, 153, 153)" stroke-width="1.5px"></line></g></g><g><g><line x1="23.20666662851969" y1="0" x2="23.20666662851969" y2="177.95999908447266" fill="rgb(0, 0, 0)" stroke="rgb(153, 153, 153)" stroke-width="1.5px"></line></g></g><g><g><g><g><g><path style="fill: none;" stroke="rgb(255, 112, 67)" stroke-width="2px" d="M24.292738626734415,275.1495298402067L24.390206626574198,127.38760536911462L24.473750626436868,45.04939385724231L24.636197292836506,50.61276293739107L24.645479959487915,105.29671222393853L24.682610626093545,41.40353140088604L25.40665862490336,39.99714905989313L25.694421291097004,92.44958208732103L25.893998624102274,108.26982410928099L25.926487957382204,128.8770740167371L26.14927195701599,137.2314327613861L26.209609290250143,97.43444824842317L26.321001290067038,133.86940291691204L26.520578623072307,84.55527674647759L26.557709289677938,103.12852316799173L26.850113289197285,95.02040567433691L26.92901595573425,-31.368588001593764L26.956863955688476,30.737672080501653L27.08682128880819,49.228785591184106L27.71340128777822,61.19215469732606L27.912978620783488,40.11116720938699L28.15432795372009,99.6158544040932L28.33069862009684,64.36214715134277L28.68343995285034,67.91895647169765L29.05938795223236,41.177153536803814L29.314661285146077,69.27823295676328L29.32858528512319,57.81329737359496L29.393563951683046,67.99264972519438L29.41212928498586,7.086416949185349L29.63491328461965,-18.778416875990445L29.667402617899576,13.376468125560592L29.87162128423055,-20.06599244683551L30.010861284001667,2.6308659213294447L30.275417283566792,20.14502109621708L30.41001595001221,64.75410178756488L30.48427728322347,61.445174852422014L30.558538616434735,12.206504941706783L31.055161282285056,22.07447020118147L31.254738615290325,26.370728947701195L31.268662615267434,70.74021361435715L31.765285281117755,83.32084290172413L31.867394614283242,75.80010501720005L31.91844928086599,-8.171827938702762L32.10410261389414,18.488469667862688L32.18300528043111,65.53348970111024L32.24334261366526,35.56076826695136L32.65642127965292,128.2798766413102L32.93490127919515,71.29225356672087L33.35726261183421,77.39621223147347L33.41295861174265,80.75135925769318L33.56148127816518,121.2786662351024L33.58932927811941,63.31488226381792L33.705362611262004,51.20950793025975L33.91422261091868,77.59699653400764L34.2948119436264,79.942380819794L34.51295460993449,55.79150294502236L34.59185727647146,29.748246520376938L34.60113994312287,33.3930217458329L34.624346609751385,61.45880077041632L34.74037994289398,-6.95731636005641L34.74502127621969,20.410618686332185L34.80071727612813,6.147384958919986L34.82392394275665,-22.97591952299996L34.95852260920206,43.327329727226896L35.028142609087624,79.2474368461349L35.05599060904186,41.37157626566358L35.66864660803477,60.042945337880525L35.92391994094849,102.64804157159443L36.97750260588328,103.04236152435868L37.307037272008266,88.22180300928609L37.320961271985375,50.08462138245103L37.5901586048762,78.0199142071408L37.877921271069845,27.68989904113141L38.198173270543414,91.24302717360277L38.26315193710327,46.88874324544656L38.272434603754675,41.66287713758203L38.27707593708038,38.53168522781556L38.54627326997121,101.31832700521578L39.3585066019694,74.40994037554327L39.99901060091654,103.9595939174364L40.00829326756795,100.64181655170114L40.24035993385315,113.01547796592403L40.56989459997813,122.63452543869494L40.811243932914735,70.37729407608379L40.908711932754514,27.68215826447718L40.94120126603444,-19.612350774768856L41.437823931884765,18.207434969615065L41.56778126500448,29.256797015692L41.69773859812418,50.05548395651613L41.9390879310608,42.3930700001128L42.22685059725444,32.04836304988095L42.68170126317342,13.812628848317729L42.825582596270245,77.40293553305757L42.84878926289877,83.96726627662335L43.24330259558359,82.95635564254346L43.252585262235,104.97722145533398L43.62853326161703,105.60891486828098L44.055535927581786,97.82896724914595L44.134438594118755,74.60311872438547L44.231906593958534,91.7382595694656L44.85384525960286,68.48679555441352L44.87241059290568,60.48933808757863L44.909541259511315,83.94843041957843L45.42937059199015,68.84340404865698L45.49434925855001,110.24375055537439L45.67071992492676,101.62124802212011L45.72641592483521,71.95104117241233L45.92135192451477,87.2121587462057L46.27873459059397,88.27724282812663L46.64539992332459,102.78174128028834L46.654682589976,120.2732620798999L46.905314589564,125.4174147090356L47.03527192268371,105.3155831083103L47.52261192188263,84.11155023495061L48.014593254407245,72.49084114903512L48.079571920967105,113.20051660650954L48.36269325383504,125.81740605963535L48.96142525285085,99.3120701077725L49.564798585192364,84.88823943778141L49.76901725152334,57.95481941618672L50.163530584208175,92.8571843616051L50.256357250722246,91.33763998539321L50.423445250447585,88.26046601172132L50.45593458372752,137.1933652103515L50.62302258345286,102.95386053844034L50.720490583292644,85.27988355823747L51.00825324948629,75.52615579202428L51.101079916000366,38.34750734048475L51.6162679151535,4.064911169456764L51.66268124841054,9.024143494730822L51.98293324788412,19.585176596674984L52.04327058111827,43.70449912705368L52.07111858107249,85.91466829489043L52.13145591430664,52.17514591961948L52.39601191387177,5.0642206041738405L52.502762580362955,-2.056923889129223L52.79980791320801,-3.4935733644411187L53.46815991210938,46.74932530783582L53.71879191169739,45.21598311976416L53.8533905781428,41.292473441193124L54.10402257773082,61.22087472919459L54.285034577433265,87.36370222940023L54.29895857741038,102.69490468418242L54.354654577318826,108.19398967858717L54.498535910415654,74.29006494537593L55.01836524289449,60.71423983099915L55.53819457537333,114.85633977121483L55.658869241841636,66.33998616318611L56.18798124097189,87.2291088207206L56.225111907577514,70.30767006639269L56.41540657393138,75.48074482622869L56.84240923989614,52.12745378804361L57.13945457274119,95.72205561666597L57.36223857237498,109.89619668881491L57.46898923886617,107.45765593292651L57.78459990501403,90.36658405765617L57.831013238271076,60.00659158104759L57.844937238248185,89.27048053252066L57.914557238133746,55.31605585619012L58.067721237881976,36.90544391558774L58.91244390316009,48.85468754715433L59.22341323598226,-10.083368749438904L59.35337056910197,14.017405088290928L59.399783902359005,39.2436265529509L59.56223056875865,70.98134872049758L60.29556123421987,65.65248458209074L60.64366123364766,60.7281372993377L61.172773232777914,59.020176929711624L61.36306789913177,84.51588305440958L61.88753856493632,109.44510723585988L62.022137231381734,106.97986402903433L62.04534389801025,131.635775686855L62.087115897941594,119.72529261034038L62.50483589725495,138.69814948255322L62.51875989723206,114.24211254666967L62.64871723035177,67.06352909034274L62.6951305636088,39.408257713449274L63.12677456289927,57.69573907699274L63.28457989597321,78.01206298155503L63.563059895515444,87.89414563953993L64.13858522790274,93.11432228570803L64.41242389411926,81.97807477015331L64.53309856058758,106.97561979710878L64.54702256056468,91.10562846699078L64.64449056040446,93.91794742725781L64.67697989368439,90.67199516081384L64.94617722657522,115.63911370879367L64.97402522652943,87.65003935551528L65.23393989276886,119.43619565749128L66.18541322453817,99.34684102754888L66.44532789077759,119.50937554478298L66.59385055720011,112.28559184249919L66.99764655653635,120.30239482266367L67.15081055628458,85.02477949224343L67.5174758890152,66.82132228016638L67.54996522229513,36.926879390551704L67.61030255552927,87.84865598098737L67.88878255507151,31.69256330273197L68.02802255484262,44.76708858844685L68.13477322133382,79.63456025461383L68.21831722119649,73.8032805917238L68.89131055342357,90.17476322200869L69.18835588626861,113.04392467710834L69.88919721844991,85.71878727799788L70.00987188491821,93.82991425759312L70.90100788345336,53.78764702328081L70.93349721673329,82.4231302323481L71.45796788253784,117.78264568644646L71.47189188251495,146.79136875853538L71.56935988235473,107.28454596212737L71.84319854857127,99.03758067232229L72.04277588157653,92.71746074965309L72.43728921426137,102.48186903865671L72.5811705473582,123.15127946931112L72.65543188056947,47.92912578633937L72.73433454710643,35.193025287252055L72.91998788013458,26.71682957453632L73.12931201312384,55.01532898947201L73.13395334644953,66.95000595205892L73.23606267961503,48.54740006210338L73.39850934601466,52.6430504814752L73.51825574581783,48.664856974473594L73.56002774574915,25.802229038660755L73.80137707868576,39.79628553075733L73.81530107866287,36.24158169681863L73.97310641173681,46.940255826643664L73.99167174503961,40.50373693241278L74.0984224115308,43.67188165483097L74.12627041148504,40.55308189148636L74.13555307813644,41.097792449974804L74.34905441111883,43.878370984968825L74.72964374382656,47.26203650992147L74.81782907701492,34.18421300298968L74.85960107694626,50.18226067374272L75.17521174309412,88.82354960651993L75.18449440974554,71.981299274937L75.46297440928777,48.019368727732996L76.2009464080747,75.59572147889656L76.44415227434158,86.76497646513126L76.53697894085566,88.51150461053727L76.68086027395249,80.30876042972525L76.72263227388382,75.26076044822474L76.8015349404208,70.01292532211974L76.88043760695776,31.45491508909899L77.26102693966548,99.53496963458187L77.36777760615668,90.79685898980429L77.43275627271652,74.8351618818669L77.77621493881863,85.29683705649443L78.30532693794886,118.77386689316467L78.75089493721643,124.94940751001134L78.77410160384497,106.3410394919381L78.94118960357031,79.67904949011324L79.08507093666712,72.50691155781396L79.53528026926041,77.35678809315743L79.65595493572872,82.4393318582584L79.67452026903152,65.17060019381721L79.7487816022428,47.80959942086051L79.94371760192236,93.67426409799421L78.83908027040482,51.883558198738655L78.85300427038193,43.775376656404546L78.9272656035932,52.63551827189049L79.37283360286077,56.13725562096904L79.61882426912308,102.05643505970568L80.60742826749802,61.712850165286724L80.73738560061773,74.69446109748574L81.22936693314234,54.89530513523624L81.56354293259302,60.507069631353716L81.85130559878668,90.09896561171117L82.21332959819158,90.51889887855484L82.29223226472855,62.24140718603992L82.41754826452257,79.83038073322135L82.51501626436233,42.93489600124883L82.57071226427078,46.05094631594619L82.64033226415634,84.8783309266019L82.90488826372146,69.4491193732246L83.09054159674962,81.48758355211372L83.24370559649785,78.59288012907724L83.75425226232528,102.99506155139235L84.0002429285876,86.43754252611649L84.01880826189041,97.85171900275395L84.1116349284045,67.11426713532273L84.4736589278094,74.9360498107912L84.66859492748897,84.61740857498002L84.90530292709985,107.74182597066928L85.01205359359105,69.04647328345209L85.28589225980758,85.55444566894703L85.29981625978469,66.12663947224755L85.73610159240087,68.05770614781039L85.8939069254748,79.50621998631962L86.05635359187443,65.66290523352123L86.2373655915769,78.30168047811577L86.66436825754165,92.40135657157306L86.76647759070715,82.19313666793987L87.14706692341487,62.20212028819901L87.80149492233912,73.74710308217331L88.10782292183558,65.65966824473615L88.1403122551155,62.53746074371193L88.18208425504685,47.74561799519603L88.26098692158381,76.38459542411945L88.31668292149226,124.72412621619891L88.34453092144649,167.4838683805196L88.61836958766303,133.0134504081134L88.8504362539482,110.88776606123369L89.0685789202563,121.22976280612221L89.36098291977565,127.97279047827934L89.70908291920345,130.7480715713711L89.73693091915767,134.07908645202392L89.87617091892879,145.98693892265283L89.91794291886012,92.58988022965974L89.96435625211716,92.0675445862252L90.39135891808192,57.218107105788675L90.43313091801326,86.40195361427288L90.45169625131608,123.7689346769445L90.53059891785303,148.62827994872745L90.82764425069809,155.17010556918333L90.91582958388646,165.1522334286831L91.54240958285651,94.04845329955342L91.83481358237584,98.8332296366421L92.04831491535822,69.27805202851881L92.2525335816892,59.86064174616649L92.65168824769972,83.84874050827706L92.92088558059056,94.54569703644935L93.61244424612045,62.9728013932463L93.62172691277185,38.283078300038056L93.77024957919438,50.478211523562834L93.9141309122912,55.52343225267536L94.18796957850773,68.89266858553013L94.8516802440834,78.47339017916272L94.9630722439003,58.95074667195212L95.00484424383163,68.93262043220815L95.26011757674534,61.93780096853742L95.96095890892664,73.0812307236381L96.02593757548651,56.07995828092639L96.49935357470831,35.01839676021177L96.59682157454809,62.94253698591537L97.21411890686672,42.975680921001185L97.54829490631738,61.22014114885357L97.65040423948288,9.035013058272654L97.72930690601986,35.178829087283106L97.94280823900222,46.50197799150973L98.10061357207616,32.75044470452869L98.40230023824691,102.11509434418059L98.77360690430324,97.56433357470736L99.12634823705673,124.0029454901827L99.29343623678207,137.85850106036452L99.8086242359352,91.8614797815168L99.81326556926092,71.07748690217122L99.97107090233486,62.9962408464264L100.0360495688947,88.34648241079886L100.23098556857427,115.75758685467724L101.00608823396682,108.96216883765732L101.14996956706365,130.57353798577313L101.30777490013759,108.13474163768522L101.8090388993136,84.29291344811305L101.96220289906184,116.54631345671156L102.0457468989245,107.07830579290727L102.05502956557591,124.85215101826603L102.16642156539281,152.00923527314652L102.17106289871852,133.56268752190647L102.18498689869563,132.4120214887518L102.273172231884,102.03470791140174L102.43561889828364,81.43539475316688L102.57950023138046,38.22943643433649L102.76051223108293,111.7136714003018L102.80692556433996,92.62891845821699L103.2200042303276,64.97024253661749L103.28498289688746,79.9024348069213L103.41958156333287,51.7284670978855L103.4567122299385,40.39373737993725L103.59131089638392,56.60743366576904L104.05080289562862,67.60003474680354L105.12295089386622,38.01340011838553L105.25290822698592,53.00411015570616L105.29468022691728,73.20763364889032L105.42463756003697,79.34891768790801L105.58708422643662,114.04994413156285L105.64278022634507,107.66510435768673L105.93982555919011,67.96491887094737L106.56640555816016,17.86786752091095L106.81703755774815,14.865063512618576L107.43433489006678,68.74928293984608L107.43897622339249,96.03848922462657L108.08876288899103,79.12241275629404L108.6503642214012,96.49593064361169L108.68285355468115,85.9364547720703L109.26302022039414,69.09268322265382L109.78749088619868,61.13167145117228L109.87567621938705,120.26357334256753L110.00563355250677,121.68459830244505L110.10774288567225,134.01259496562793L110.20521088551205,94.78542814030274L110.5208215516599,82.00084121802034L110.76681221792222,67.14308824522523L111.03600955081303,39.25089156482534L111.24022821714401,30.214607187402578L112.23347354884466,59.089191403124715L112.31701754870733,77.85970908935042L112.41912688187281,66.58256276290346L112.44697488182705,49.84478812563418L112.95288021432876,51.86043665098872L113.01785888088862,84.17034572110134L113.06891354747137,112.72514917683583L113.32418688038508,124.83312589015657L113.37524154696783,106.28463564561277L113.40308954692205,92.40224076994801L113.67692821313858,24.364720503039564L113.80224421293258,57.187274931032874L113.90899487942377,90.02360537177746L114.23388821222305,100.9598329835349L114.33599754538854,127.37506053541154L114.48916154513677,124.54327309991403L114.60055354495367,151.66810934385984L114.78620687798183,98.64347719266932L114.8697508778445,127.76641522647259L114.89759887779871,158.5632989537073L114.91152287777582,136.70433458517167L115.26426421052933,137.54244408005567L115.26890554385504,136.35939464932196L115.48704821016311,138.6450078522872L115.63092954325994,134.58203085230156L115.75624554305395,136.7380292470548L115.77016954303106,123.15747394529734L115.79337620965957,100.39583973392246L116.12291087578456,102.43520212866629L116.1739655423673,117.30957697972126L116.4013908753268,107.00738679418434L116.66594687489193,106.19147052818428L116.8748068745486,113.83165087507572L117.06510154090245,120.5844734618544L117.1254388741366,62.62194185955414L117.13008020746231,26.948492765148785L117.2321895406278,46.54922261613899L117.30645087383905,74.3036002447136L117.8216388729922,99.19449023391336L117.91910687283199,102.0202628742459L118.23935887230556,99.19462268951389L118.25328287228267,125.8833710086394L118.25792420560838,132.0911577187878L118.48070820524217,131.41522425108226L118.59210020505904,105.72165854799135L119.20475620405198,89.10104552240892L119.57606287010829,92.89229618178389L119.63640020334245,74.95698252770958L119.93344553618749,80.33874459630222L120.23513220235824,111.8915578429437L120.34188286884944,81.06259206476334L120.73175486820857,89.85310772686464L120.74567886818568,104.19856121960899L120.7688855348142,89.45046728169187L121.07985486763636,92.9855665723184L121.16339886749904,91.91609488068302L121.51149886692683,87.652590118435L121.69251086662928,93.09867004499655L122.42584153209052,73.50817706818992L122.62077753177007,45.227967136778176L122.62541886509577,44.4167929991074L122.92710553126653,19.00964506217514L122.95495353122075,8.87274357804634L123.07562819768906,0.778917927334362L123.17309619752884,23.088407089915194L123.20094419748305,83.01579563763846L123.93427486294428,127.09164863302522L125.04355352778752,118.70709157295911L125.10389086102168,117.4138404567297L125.26169619409562,122.27950022778654L125.37308819391251,92.47881991712252L125.43806686047236,105.74662184803724L125.56802419359207,74.63658587284067L126.09713619272232,83.66688068309429L126.25958285912196,62.7504141118924L126.431312192173,43.62336493726082L126.85367352481207,77.58194351020184L127.45704685715357,88.30076620260643L127.80514685658137,87.20286935461691L128.22286685589472,90.7240636660305L128.23679085587185,85.66182926096688L128.91906685475033,109.35019989286636L128.93763218805313,121.09971140897784L129.1372095210584,109.54889725039601L129.18826418764115,78.28870385187881L129.23467752089817,88.9518173977473L129.39248285397213,61.820870752538895L129.43889618722918,67.97954831458021L129.55957085369747,83.26206416223444L129.76843085335415,71.65919848014542L129.87518151984534,107.47114214277104L130.1118895194562,82.49621003811393L130.22328151927312,81.1838166801695L130.3114668524615,120.90238500032163L130.52960951876958,82.31584376118704L131.05408018457413,72.15940341740294L131.28150551753362,62.16674114693113L131.65745351691564,67.59981117580357L131.7085081834984,-0.33764367989726907L131.80133485001247,32.141492917962694L132.14015218278885,67.30109085630946L132.40470818235397,90.82917518930832L132.90133084820428,101.6235828549978L133.55575884712854,100.42317203011591L133.736770846831,53.25045860917132L133.87136951327642,70.51707190694303L134.27516551261266,79.73582787632512L134.49794951224646,101.46989899582911L134.50723217889785,106.34183148235151L134.6836028452746,88.27291857630918L134.7903535117658,78.34302996877238L135.11988817789077,79.41430428380454L135.77431617681503,44.72578659151421L136.07136150966008,88.990569775864L136.4241028424136,55.24378672981359L136.52621217557908,66.00845131790783L136.5633428421847,109.4106635007015L137.2688255076917,68.97602001627466L137.3709348408572,73.15919120345056L137.5240988406054,105.36890628012965L137.86755750670753,97.05692848055924L138.04856950640996,79.88571145463919L138.4477241724205,74.04837577025286L138.78654150519688,72.79292775916376L138.9025748383395,92.51414034398884L138.96291217157363,86.63366387872628L139.00468417150498,68.23758800647676L139.37134950423558,87.5398807196804L139.64518817045212,55.85923582965812L140.17430016958235,30.266127307053182L140.2439201694679,59.962021528979164L140.61058550219855,63.54379000793021L141.01438150153479,63.063273243228195L141.4274601675224,56.670961827259774L141.59918950057346,80.74433322643405L141.76163616697312,89.31571988284841L142.1050948330752,97.43150738393953L142.6806201654625,108.74780732030005L142.77808816530228,89.88935970334154L142.8198601652336,84.11381747185563L142.8941214984449,89.73783825662856L143.18652549796423,56.25339823500164L143.19116683128993,59.43943694498931L143.2561454978498,16.319751599090125L143.82702949691136,63.642538603939585L143.8780841634941,67.10855442759932L144.3422174960645,67.49223555718308L144.65318682888667,97.41054620355398L145.58145349402744,88.44561224339714L146.17090282639185,59.833905557382124L146.17554415971756,19.79893952093221L146.31014282616297,33.169847543153594L146.3194254928144,31.340130921118373L146.7789174920591,79.32863105196719L147.47511749091467,86.50586801383659L147.77216282375971,67.26315590880297L147.80001082371393,58.850950518014145L147.82785882366815,76.11702266893124L147.84642415697095,65.84354264872914L147.85106549029666,73.873260439365L148.38481882275264,108.69613748915356L148.64009215566634,76.57299868110663L149.19705215475082,68.27548996596943L149.45696682099023,72.16629422151648L149.91181748690923,89.5347610438913L149.95823082016628,82.89676455347737L149.9907201534462,53.87943170425014L150.07426415330886,48.047049360686884L150.33882015287398,95.56731094001465L150.54303881920498,92.29927826038112L150.94219348521548,72.4548598924467L151.36455481785455,87.54444726010001L151.37383748450597,76.09949134727577L151.52236015092848,64.22568718073173L151.6059041507912,55.73663442796918L152.91940148196537,25.12947503281302L153.04007614843368,61.66767272365172L153.24429481476466,83.26435498691282L153.49956814767836,84.58952874950292L153.78733081387205,119.28665300095014L153.8476681471062,102.1640938923324L154.2746708130709,135.08452287703608L154.40926947951635,122.3505725778539L154.5902814792188,98.28115359179743L155.8898548104159,127.33034215395787L156.2565201431465,95.3147033868909L156.37719480961482,90.52450861867827L156.4793041427803,100.10308234271933L156.56748947596867,124.30042180426258L156.68352280911128,82.27157312660712L156.75778414232255,86.75785246272793L156.813480142231,68.97242321883414L157.01305747523625,153.91285567324712L157.32866814138413,75.80292685271156L157.61643080757776,87.25270381848651L158.5818281393242,79.34918446337342L158.6143174726041,49.63902409150273L158.65608947253546,70.4730174293176L158.88815613882065,118.93756623160563L158.90208013879777,112.00233110246002L158.99954813863755,77.18948371598748L159.14342947173438,51.70425693998902L159.23161480492274,89.65621718098251L159.86283613721847,84.00639012058092L160.23878413660051,61.721770337288646L160.24342546992622,49.335223287154975L160.40123080300012,61.125867256232894L161.03709346862155,97.0823748899268L161.0603001352501,98.02697476670185L161.1809748017184,128.78381380686108L161.3944761347008,133.28201066365455L161.46409613458633,120.32022619106203L161.84468546729406,88.65123271782242L162.04426280029932,87.45982113087705L162.1649374667676,67.89794079407167L162.3552321331215,99.6962878223476L162.55480946612676,44.88134111245881L163.16746546511968,71.34570780887304L163.1999547983996,2.212540143800794L163.21852013170243,29.41122546462924L163.69193613092423,80.38285541653747L163.87758946395238,68.29395741511794L164.31387479656854,83.19634794669578L164.3788534631284,111.48865967043935L164.4623974629911,97.28842747267547L164.65733346267064,116.09835767932455L165.9197761272621,103.89063132716343L166.16576679352443,90.78008414769891L166.7180854592832,82.2362076161955L167.56280812456131,108.04433466314906L167.73453745761236,64.36336978792818L168.17082279022853,39.90324629241451L168.90879478901545,46.98907582689455L169.02946945548376,58.010285445891355L169.2151227885119,72.90319445182152L169.4286241214943,135.5465485268311L169.73031078766505,85.00669902705889L169.76280012094497,66.01781598129911L169.79993078755064,92.165299483051L170.02271478718438,100.80888338560398L170.06448678711575,134.72296810197176L170.33832545333226,144.5785224766033L170.39866278656643,116.92162965381654L171.0716561187935,99.33571678362149L171.12735211870194,92.48227809704466L171.28051611845018,63.380103061833964L171.47545211812974,18.380784132848618L171.7771387843005,55.08133305748896L172.12059745040258,71.14616245054103L172.33874011671068,62.55808367104808L172.64042678288143,75.39338014587874L172.77502544932682,53.17449688251787L172.83536278256096,44.27228468621573L173.15561478203458,88.19082196028933L173.16953878201167,113.6446988936348L173.36911611501694,89.40453748302147L173.59654144797642,60.226900987586916L173.85645611421586,74.590500563178L174.46911211320875,92.80715407362105L174.5062427798144,76.83514253410638L174.5387321130943,49.69397919590395L174.9703761123848,71.81348163513411L175.02607211229324,98.32213076731387L175.11889877880733,120.57723991457685L175.64801077793757,101.90733720868536L175.66657611124037,80.0021787250832L175.7918921110344,100.08745887024165L175.80117477768582,72.26434755851457L176.21889477699915,119.96624401860481L176.54378810979844,137.24777291178228L176.66910410959244,154.75570390191012L176.70159344287237,134.13949177748964L176.71551744284946,158.9870569348903L176.8315507759921,171.6980723799763L177.46277210828782,120.22375686791625L177.88977477425257,121.91965242228817L177.9222641075325,128.32329293765156L178.33998410684586,132.1426928899159L178.38175610677717,92.93574519940054L178.43745210668564,86.75356954168112L178.52563743987403,82.34028267484118L178.60454010641098,46.81452589950763L178.855172105999,45.017798244893925L178.91086810590744,76.35994986462539L179.02690143905002,66.69866891755902L179.19863077210107,50.54842548993999L179.46782810499192,56.79570376315125L179.6813294379743,49.310067450826466L179.76951477116268,90.53738598021539L179.8020041044426,59.61065962259954L180.015505437425,25.41827545020925L180.2568547703616,28.316890246012974L180.2707787703387,26.55596609149856L180.43322543673833,26.51257297625287L181.03659876907986,65.00767179090421L181.27794810201644,69.6084155620576L181.28258943534215,61.06816020747182L181.38005743518195,107.9537779979045L181.63533076809566,110.84317848227526L182.0391267674319,102.31965767568774L182.0437681007576,77.65605777781309L182.22013876713436,79.69311917658098L182.38258543353396,95.69769406311458L182.42435743346533,122.62923654191775L182.60536943316777,90.61150904447317L182.83279476612728,89.33958653834489L183.08806809904098,39.74692548672593L183.2365907654635,37.02910520591459L183.6775174314054,28.56633055304468L184.3830000969124,38.013247815124885L184.61042542987187,80.37308052259628L184.77751342959724,84.54373408442544L185.06527609579086,102.11706612354267L185.42265876187005,105.67547484874078L185.43658276184718,123.92398221066422L185.7893240946007,133.2809819530867L185.88679209444047,146.5317175563727L185.9239227610461,179.45080168272887L185.98426009428024,134.04221587266903L185.99354276093163,135.80528453807293L186.02139076088585,180.4925811364871L186.47624142680485,169.07594787100393L186.48552409345626,124.34504395803526L186.8893200927925,124.30090538781376L186.9032440927696,113.7931937572744L187.02856009256362,104.47254586703774L187.822228091259,41.65399882744617L187.85471742453893,54.63761406209245L188.1610454240354,36.43240179059464L188.1842520906639,53.94444890871354L188.66695075653712,70.50204831850215L188.7458534230741,18.469012248168127L189.05682275589623,51.80444435177024L189.1496494224103,81.6874956125018L189.64627208826064,28.469968393746313L189.88762142119725,21.140872090500864L189.9572414210828,81.12182410690139L190.02686142096837,112.16839616423364L190.10112275417964,82.6757350834332L190.1614600874138,122.24550110879224L190.32390675381345,134.91255094364143L190.4120920870018,114.81294284465963L190.44458142028174,120.39285259621276L191.52601208517075,85.07472640142075L191.804492084713,54.765652861200095L191.94373208448408,28.167010681213668L192.03191741767247,48.18216112564943L192.44499608366013,103.7151859427978L192.6260080833626,71.63277998577607L192.6445734166654,67.46034365630986L192.68634541659674,64.9249328441308L192.71419341655096,47.676794576769566L192.83022674969357,96.89479134530733L193.09478274925868,93.99941870914337L193.77241741481146,62.24666879641872L194.3108120805931,100.07393846278275L194.46397608034133,61.41949448500846L194.96988141284305,50.54586742743922L194.99772941279727,42.875599852053114L195.0395014127286,78.16464786472093L195.63823341174444,77.60061212732175L195.79603874481836,27.139066266993183L196.13021474426904,68.43921733535228L196.98422007619857,102.67536768876772L197.07240540938696,83.73499190177142L197.2719827423922,42.84991946116071L197.5922347418658,65.1194726226331L198.59012140689214,78.9265389898817L199.05889607278826,42.82748789896098L199.31416940570196,28.885165616496465L199.38378940558752,39.405415994463766L199.70404140506108,53.226645352839995L199.86184673813503,53.11454341912514L200.20530540423712,63.74175875111902L200.27956673744836,37.55453224778461L200.33062140403112,34.016043739133124L200.48842673710504,53.74968301394584L200.85973340316136,41.92964839496719L201.1428547360293,50.99869505485779L201.14749606935501,35.169631750918086L201.41669340224584,63.17070541455338L201.50952006875994,47.6462871512409L201.70909740176518,33.35072967514617L201.7323040683937,2.1928670082322412L202.0664800678444,53.858365129637406L202.72090806676866,45.564619065313565L202.82765873325982,49.25559172667357L202.83230006658553,80.87998567710198L203.46352139888126,72.53757821587804L203.90908939814886,55.67756434593727L204.1829280643654,100.81459750302548L204.23398273094813,97.83826809055208L205.55212139544804,87.35257983612206L205.74241606180192,72.78183222833441L206.06730939460118,45.96608497810706L206.1972667277209,51.94233168580844L206.4339747273318,89.61445357948801L206.88418405992508,82.9138190714994L206.9213147265307,87.58187315171973L207.0280653930219,91.61492775003751L207.05127205965042,59.29001631063849L207.1301747261874,114.4227010425754L207.3668827257983,108.54589839349164L207.54325339217505,152.07791484953037L208.49008539061862,135.86425622183705L208.82426139006935,101.29725092939927L209.31160138926822,97.61379074441881L209.7153973886045,122.64447117663826L209.77109338851292,113.58079000221404L209.91961605493543,136.86775778933793L210.04957338805517,97.36025821763812L210.4533693873914,96.58047046147777L210.49978272064845,128.93984955959962L210.52763072060267,162.80029260845185L210.5461960539055,143.03055847804896L210.6900773870023,118.4586108531285L210.69936005365372,85.24258998101459L210.76433872021354,89.40257681921291L210.79218672016782,88.34535481954678L211.13100405294418,95.08789208045341L212.27741338439307,93.59155450495194L212.309902717673,97.92817157421692L212.685850717055,106.2153692378524L212.8065253835233,117.6188589817659L213.22424538283664,133.1807426220452L213.34956138263067,122.64914982111807L213.67445471542996,99.79795807868616L213.9900653815778,72.49367987073812L214.06432671478908,95.34785463978889L214.37065471428554,52.64811612955539L214.5934387139193,96.59515186169068L214.66770004713058,65.1561502497477L214.802298713576,97.45254072737939L214.91833204671858,95.38639165526897L215.006517379907,68.34598491462155L215.67486937880835,63.568780005450165L215.71200004541396,54.71628095281942L216.00904537825903,79.26480567678222L216.13436137805303,73.5205847018748L216.76094137702307,103.80393777905198L216.793430710303,93.72788106415979L216.87697471016565,127.01250217918547L217.35503204271316,106.57672401924054L217.46642404253004,134.8092964886185L217.51283737578711,112.79000803070274L217.57781604234697,98.91467614741738L217.8655787085406,86.50246404179856L218.18118937468847,55.06749423215558L218.30650537448247,103.93528334116576L218.61283337397893,64.5915845916898L218.6731707072131,79.32978336525893L218.8216933736356,63.00939575011131L218.90523737349827,75.10643858110734L218.95165070675534,70.94885286649524L219.0491187065951,97.93123442206812L219.55502403909685,72.7244567984344L219.8799173718961,76.12046596515798L220.3347680378151,35.833391755108295L220.87780403692247,66.56699244565029L221.0541747032992,76.5729100349427L221.20733870304744,73.98111496394452L221.2862413695844,86.00441151253216L221.46725336928688,64.21241802566132L222.59045603410723,67.68214425747996L222.66471736731847,60.21707985914712L223.33306936621983,62.71111517223477L223.57441869915644,54.92085309640099L223.7786373654874,32.571720336819766L223.94108403188704,31.662324425662547L224.08032403165817,39.305053822163444L224.19171603147507,74.96202028352262L224.30310803129197,56.384121985392284L224.3402386978976,61.25381007865742L224.39129336448033,2.2342058929725113L224.39593469780604,-13.781874221196233L224.67441469734828,24.23431780494883L224.79973069714228,38.63206540491521L224.8182960304451,-4.911827804612216L224.88791603033067,2.664355246066748L225.00859069679896,14.953352123125057L225.0596453633817,69.92042918465637L225.11070002996445,23.96132194203355L225.26386402971266,54.05336204908339L225.65837736239752,52.55701967985539L225.9043680286598,33.84290784477258L225.92293336196263,33.126345377525126L225.9832706951968,50.940737761279564L226.3545773612531,110.55875853513315L226.37314269455592,104.02945766306027L226.49845869434995,104.71083806891579L226.54023069428126,95.20486457510643L226.9440266936175,89.88895397879483L226.97651602689743,67.44726242967695L227.1807346932284,64.31493216422739L227.42672535949072,94.92488143875079L227.58917202589035,64.67569461256247L227.60773735919315,86.16078066347148L227.8908586920611,76.13059948270693L228.3410680246544,82.92850063034294L228.51743869103115,109.42221165877876L228.7309400240135,53.97416745032538L228.73558135733924,60.4499573913929L228.74950535731634,58.48634325135866L229.00942002355575,69.14403298472236L229.3992920229149,59.79737162381652L229.51068402273177,136.28400107865718L229.73810935569128,89.84990333885925L229.80308802225113,77.300277994051L230.49000535445532,95.51309239548483L230.6292453542264,53.87731197311287L230.90308402044295,64.30566202468864L231.13979202005387,59.04477654031915L232.09590668514886,57.23812293402176L232.13767868508023,57.90593808850147L232.2305053515943,77.35939864193269L232.3743866846911,62.50713159123697L232.3836693513425,63.1831063067667L233.01024935031256,72.84575897862796L233.17733735003787,38.220167596497646L233.38155601636888,67.13728313840437L233.6553946825854,95.96959549911332L233.71109068249385,68.10864784551605L234.23556134829838,65.13528939345514L234.40729068134945,23.713875863568802L234.55117201444625,96.77868984336371L234.7136186808459,62.39514705979346L235.4098186797015,38.86436484749086L235.4515906796328,41.37092373963452L235.57690667942683,107.03302008938283L235.71614667919795,116.57135689691341L235.87395201227187,95.87091168961946L236.08281201192858,84.4764922047713L236.1199426785342,85.78930009145914L236.2499000116539,37.01235293925441L236.77437067745845,33.92248318880314L236.8486320106697,62.056381552070974L236.9553826771609,23.899048543301234L237.13639467686335,34.59905869857235L237.21529734340032,46.99166362842499L237.61445200941085,44.82979354550136L237.6562240093422,43.17083723857559L237.81402934241612,58.598741921031106L238.29208667496366,42.60867763802199L238.3477826748721,72.44604487694048L238.52879467457453,66.93543821633648L238.77014400751113,85.84195537515332L240.10684800531388,50.46533251121839L240.20431600515366,96.69263848467311L240.85874400407792,79.53191632933967L241.05832133708316,77.02060504732744L241.30431200334547,76.78295363230856L241.3368013366254,66.44599656186301L241.4296280031395,75.90851322945552L241.54566133628208,72.64929411186303L241.5503026696078,59.00033847661179L241.96802266892115,67.93737645487796L242.20937200185773,61.6400758242666L242.48785200139997,71.69239412238166L242.52034133467993,102.31718605390608L242.65494000112534,119.0584610053132L242.90093066738766,107.84902740080868L242.91949600069046,66.59721709376768L242.9798333339246,54.633586068747846L243.04481200048446,100.98706318610562L243.15620400030136,105.46487062110542L243.2119000002098,110.94609676999895L243.36042266663236,137.8375169597204L243.39291199991226,114.78768772606941L243.4578906664721,88.49368620794807L243.98236133227667,61.55778729235209L244.0334159988594,15.00089747146643L244.06126399881362,-5.636217282121976L244.2515586651675,1.9450231700647294L244.27012399847032,20.48675692856267L244.33510266503015,30.42599232678569L244.44185333152134,54.09900383250687L244.93383466404597,85.60971493424145L245.13341199705124,88.17517533070104L245.3376306633822,39.49106749429768L245.4211746632449,89.45569162997664L245.49543599645614,109.92647333955868L245.6346759962273,113.15790960166044L245.95492799570084,111.32610878447832L246.53509466141384,125.69603679384184L246.7346719944191,66.72626817814724L246.74395466107052,45.42344244731677L246.91568399412154,105.10436062872073L246.92032532744724,117.19405651699294L246.9667386607043,143.37849250572808L247.00386932730993,126.6733784993616L247.11990266045254,115.18668034232935L247.50513332648595,124.04017954604589L247.52833999311446,120.49107351693898L247.59795999300005,75.59728120102187L248.4983786581866,65.95810891767589L249.13888265713373,85.73704174886315L250.122845322183,100.6408306941156L250.4848693215879,79.25670066618162L250.66123998796465,20.396517981667984" fill="none"></path></g></g></g></g><g opacity="0.2"><g><g><g><path style="fill: none;" stroke="rgb(255, 112, 67)" stroke-width="2px" d="M24.269531960105898,-30.140988795667084L24.292738626734415,137.85312407146006L24.390206626574198,-88.05069902421297L24.473750626436868,-76.38347474856536L24.636197292836506,58.873717644126316L24.645479959487915,186.82665675846962L24.682610626093545,-54.088535965176646L25.40665862490336,37.89216763075993L25.694421291097004,171.02547185173805L25.893998624102274,131.9815910415927L25.926487957382204,159.77341504870122L26.14927195701599,149.7594355937262L26.209609290250143,37.74907592903483L26.321001290067038,188.51628442101898L26.520578623072307,10.588594997291608L26.557709289677938,130.98737419928779L26.850113289197285,82.85849623491498L26.92901595573425,-220.9495831852857L26.956863955688476,123.89632649578556L27.08682128880819,76.96532443028713L27.71340128777822,79.13715733823477L27.912978620783488,8.489739917948015L28.15432795372009,188.8727938424408L28.33069862009684,11.481618745863585L28.68343995285034,73.25416848643539L29.05938795223236,1.064458002336238L29.314661285146077,111.42984649552814L29.32858528512319,40.615895367525724L29.393563951683046,83.26167752346731L29.41212928498586,-84.27292959727498L29.63491328461965,-57.57566694680199L29.667402617899576,61.608795130398846L29.87162128423055,-70.22968299498379L30.010861284001667,36.67615334715984L30.275417283566792,46.41625380001909L30.41001595001221,131.6677227351401L30.48427728322347,56.48178445368825L30.558538616434735,-61.651499888823395L31.055161282285056,36.8764180861198L31.254738615290325,32.815117066364024L31.268662615267434,137.29444060742293L31.765285281117755,102.19178683159765L31.867394614283242,64.51899819083604L31.91844928086599,-134.12972736972927L32.10410261389414,58.478916077172414L32.18300528043111,136.101019750411L32.24334261366526,-9.398313884068642L32.93490127919515,-14.189181045014351L33.35726261183421,86.55215022859278L33.41295861174265,85.78407979702018L33.56148127816518,182.06962670119353L33.58932927811941,-23.630793693088975L33.705362611262004,33.05144642992482L33.91422261091868,117.17822943962614L34.2948119436264,83.46045724847312L34.51295460993449,19.56518613286599L34.59185727647146,-9.31663811659027L34.60113994312287,38.860184584016594L34.624346609751385,103.55746930729123L34.74037994289398,-109.58149205576512L34.74502127621969,61.46252125591485L34.80071727612813,-15.247465632198413L34.82392394275665,-66.66087624588008L34.95852260920206,142.78220360256722L35.028142609087624,133.12759752449705L35.05599060904186,-15.442214605042949L35.66864660803477,88.0499989462059L35.92391994094849,166.55568592216508L36.97750260588328,103.63384145350477L37.307037272008266,65.9909652366768L37.320961271985375,-7.121151057801484L37.5901586048762,119.92285344417536L37.877921271069845,-47.80512370788264L38.26315193710327,-19.642682646787847L38.272434603754675,33.82407797578517L38.27707593708038,33.834897363165425L38.54627326997121,195.49828967131631L39.3585066019694,34.04736043103449L39.99901060091654,148.28407423027596L40.00829326756795,95.66515050309857L40.24035993385315,131.57597008725855L40.56989459997813,137.06309664785107L40.811243932914735,-8.008552967832742L40.94120126603444,-90.55411433363781L41.437823931884765,74.93711358619106L41.56778126500448,45.83084008480722L41.69773859812418,81.2535143677523L41.9390879310608,30.89944906550764L42.22685059725444,16.53130262453297L42.68170126317342,-13.5409724540269L42.825582596270245,172.78839556016734L42.84878926289877,93.81376239197192L43.24330259558359,81.4399896914237L43.252585262235,138.00852017451956L43.62853326161703,106.55645498770167L44.055535927581786,86.15904582044362L44.134438594118755,39.76434593724471L44.231906593958534,117.44097083708579L44.85384525960286,33.60959953183547L44.87241059290568,48.49315188732629L44.909541259511315,119.13706891757823L45.42937059199015,46.1858644922749L45.49434925855001,172.34427031545053L45.67071992492676,88.6874942222384L45.72641592483521,27.445730897850723L45.92135192451477,110.10383510689547L46.27873459059397,89.87486895100841L46.64539992332459,124.5384889585311L46.654682589976,146.510543279317L46.905314589564,133.13364365273895L47.03527192268371,75.1628357072222L47.52261192188263,52.30550092491097L48.014593254407245,55.059777520162186L48.079571920967105,174.26502979272115L48.36269325383504,144.74274023932406L48.96142525285085,59.55406617997863L49.564798585192364,63.25249343279478L49.76901725152334,17.554689383794454L50.163530584208175,145.2107317797326L50.256357250722246,89.05832342107527L50.423445250447585,83.6447050512133L50.45593458372752,210.59271400829672L50.62302258345286,51.59460353057324L50.720490583292644,58.76891808793329L51.00825324948629,60.895564142704586L51.101079916000366,-17.42046533682432L51.6162679151535,-47.35898308708519L51.66268124841054,16.462991982641967L51.98293324788412,35.426726249591326L52.04327058111827,79.88348292262157L52.07111858107249,149.22992204664564L52.13145591430664,1.565862356713211L52.39601191387177,-65.60216736899483L52.79980791320801,-5.648547577408948L53.46815991210938,122.1136733162511L53.71879191169739,42.915969837656945L53.8533905781428,35.40720892333675L54.10402257773082,91.11347666119667L54.285034577433265,126.57794347970861L54.29895857741038,125.69170836635561L54.354654577318826,116.4426171701943L54.498535910415654,23.43417784555905L55.01836524289449,40.35050215943366L55.53819457537333,196.06948968153844L55.658869241841636,-6.4345442488566675L56.18798124097189,118.5627928070225L56.225111907577514,44.92551193490084L56.41540657393138,83.2403569659827L56.84240923989614,17.097517230766158L57.13945457274119,161.1139583595995L57.36223857237498,131.15740829703822L57.46898923886617,103.79984479909393L57.78459990501403,64.72997624475096L57.831013238271076,14.466602866134878L57.844937238248185,133.1663139597303L57.914557238133746,4.384418841694156L58.067721237881976,9.28952600468429L58.91244390316009,66.77855299450397L59.22341323598226,-98.49045319432855L59.35337056910197,50.168565844885904L59.399783902359005,77.08295874994104L59.56223056875865,118.5879319718178L60.29556123421987,57.65918837448038L60.64366123364766,53.34161637520805L61.172773232777914,56.458236375272406L61.36306789913177,122.75944224145672L61.88753856493632,146.83894350803524L62.022137231381734,103.28199921879599L62.04534389801025,168.6196431735861L62.087115897941594,101.85956799556874L62.50483589725495,167.15743479087263L62.51875989723206,77.55805714284446L62.64871723035177,-3.7043460941477804L62.6951305636088,-2.074649351890997L63.12677456289927,85.12696112230782L63.28457989597321,108.48654883839839L63.563059895515444,102.71726962651695L64.13858522790274,100.94458725496037L64.41242389411926,65.27370349682127L64.53309856058758,144.47193733754187L64.54702256056468,67.30064147181378L64.64449056040446,98.13642586765849L64.67697989368439,85.80306676114827L64.94617722657522,153.0897915307632L64.97402522652943,45.66642782559751L65.23393989276886,167.11543011045518L66.18541322453817,69.21280908263537L66.44532789077759,149.7531773206337L66.59385055720011,101.44991628907331L66.99764655653635,132.32759929291018L67.15081055628458,32.108356496612856L67.5174758890152,39.516136462050696L67.54996522229513,-7.914784943870558L67.61030255552927,164.23132086664094L67.88878255507151,-52.5415757146512L68.02802255484262,64.37887651701925L68.13477322133382,131.93576775386458L68.21831722119649,65.05636109738856L68.89131055342357,114.73198716743622L69.18835588626861,147.34766685975768L69.88919721844991,44.73108117933219L70.00987188491821,105.99660472698628L70.90100788345336,-6.275753828187675L70.93349721673329,125.37635504594886L71.45796788253784,170.8219188675939L71.47189188251495,190.30445336666887L71.56935988235473,48.02431176751537L71.84319854857127,86.66713273761428L72.04277588157653,83.2372808656491L72.43728921426137,117.12848147216204L72.5811705473582,154.15539511529272L72.65543188056947,-64.90410473811798L72.73433454710643,16.0888745386209L72.91998788013458,14.002536005462304L73.12931201312384,97.46307811187575L73.13395334644953,84.85202139593906L73.23606267961503,20.943491227169858L73.39850934601466,58.78652611053252L73.51825574581783,42.69756671397127L73.56002774574915,-8.491712865058702L73.80137707868576,60.787370268902066L73.81530107866287,30.909525945910815L73.97310641173681,62.98826702138098L73.99167174503961,30.848958591066463L74.0984224115308,48.42409873845821L74.12627041148504,35.87488224646941L74.13555307813644,41.914858287707744L74.34905441111883,48.04923878746007L74.72964374382656,52.33753479735054L74.81782907701492,14.567477742591933L74.85960107694626,74.17933217987223L75.17521174309412,146.78548300568576L75.18449440974554,46.71792377756259L75.46297440928777,12.076472906926853L76.2009464080747,116.96025060564165L76.44415227434158,103.51885894448327L76.53697894085566,91.1312968286465L76.68086027395249,68.00464415850723L76.72263227388382,67.688760475974L76.8015349404208,62.14117263296242L76.88043760695776,-26.382100260431883L77.26102693966548,201.6550514528062L77.36777760615668,77.68969302263753L77.43275627271652,50.892616219960416L77.77621493881863,100.98934981843553L78.30532693794886,168.98941164817L78.75089493721643,134.21271843528115L78.77410160384497,78.42848746482827L78.94118960357031,39.68606448737583L79.08507093666712,61.748704659365046L79.53528026926041,84.63160289617275L79.65595493572872,90.06314750590985L79.67452026903152,39.26750269715549L79.7487816022428,21.768098261425536L79.94371760192236,162.47126111369465L78.83908027040482,-10.802500650144879L78.85300427038193,31.613104342903085L78.9272656035932,65.9257306951194L79.37283360286077,61.38986164458669L79.61882426912308,170.93520421781065L80.60742826749802,1.1974728236581598L80.73738560061773,94.16687749578426L81.22936693314234,25.196571191861864L81.56354293259302,68.92471637552984L81.85130559878668,134.48680958224753L82.21332959819158,91.14879877882044L82.29223226472855,19.825169647267927L82.41754826452257,106.21384105399369L82.51501626436233,-12.40833109670993L82.57071226427078,50.72502178799181L82.64033226415634,143.11940784258508L82.90488826372146,46.30530204315886L83.09054159674962,99.54527982044777L83.24370559649785,74.25082499452213L83.75425226232528,139.59833368486483L84.0002429285876,61.60126398820279L84.01880826189041,114.97298371771006L84.1116349284045,21.00808933417548L84.4736589278094,86.66872382399373L84.66859492748897,99.13944672126303L84.90530292709985,142.4284520642031L85.01205359359105,11.003444252626565L85.28589225980758,110.31640424718984L85.29981625978469,36.98493017719821L85.73610159240087,70.95430616115476L85.8939069254748,96.67899074408336L86.05635359187443,44.89793310432373L86.2373655915769,97.25984334500748L86.66436825754165,113.55087071175872L86.76647759070715,66.88080681248988L87.14706692341487,32.21559571858771L87.80149492233912,91.06457727313494L88.10782292183558,53.52851598858064L88.1403122551155,57.85414949217551L88.18208425504685,25.557853872422044L88.26098692158381,119.34306156750421L88.31668292149226,197.2334224043179L88.34453092144649,231.6234816270007L88.61836958766303,81.30782344950416L88.8504362539482,77.69923954091422L89.0685789202563,136.74275792345537L89.36098291977565,138.08733198651493L89.70908291920345,134.9109932110086L89.73693091915767,139.07560877300324L89.87617091892879,163.84871762859615L89.91794291886012,12.494292190170114L89.96435625211716,91.28404112107359L90.39135891808192,4.94395088513366L90.43313091801326,130.17772337699893L90.45169625131608,179.8194062709517L90.53059891785303,185.91729785640197L90.82764425069809,164.98284399986727L90.91582958388646,180.12542521793236L91.54240958285651,-12.607216894141033L91.83481358237584,106.01039414227483L92.04831491535822,24.945285616334246L92.2525335816892,45.73452632263792L92.65168824769972,119.83088865144322L92.92088558059056,110.591131828708L93.61244424612045,15.61345792844159L93.62172691277185,1.2484936602258188L93.77024957919438,68.77091135884979L93.9141309122912,63.091263346343965L94.18796957850773,88.94652308481267L94.8516802440834,92.8444725696117L94.9630722439003,29.666781411135986L95.00484424383163,83.90543107259231L95.26011757674534,51.44557177303153L95.96095890892664,89.79637535628893L96.02593757548651,30.578049616858976L96.49935357470831,3.4260544791394807L96.59682157454809,104.82874732447084L97.21411890686672,13.025396823630132L97.54829490631738,88.58683149063194L97.65040423948288,-69.24267907759904L97.72930690601986,74.39455313079901L97.94280823900222,63.486701347849646L98.10061357207616,12.123144774057351L98.40230023824691,206.16206880365823L98.77360690430324,90.73819242049734L99.12634823705673,163.6608633633959L99.29343623678207,158.64183441563722L99.8086242359352,22.865947863245225L99.81326556926092,39.9014975831532L99.97107090233486,50.8743717628094L100.0360495688947,126.37184475735734L100.23098556857427,156.87424352049487L101.00608823396682,98.76904181212734L101.14996956706365,162.99059170794675L101.30777490013759,74.47654711555327L101.8090388993136,48.5301711637548L101.96220289906184,164.92641346960949L102.0457468989245,92.87629429720067L102.05502956557591,151.5129188563041L102.16642156539281,192.74486165546747L102.17106289871852,105.89286589504621L102.18498689869563,130.68602243902018L102.273172231884,56.46873754537677L102.43561889828364,50.53642501581447L102.57950023138046,-26.579501043908834L102.76051223108293,221.94002384924985L102.80692556433996,64.00178904508988L103.2200042303276,23.482228654218403L103.28498289688746,102.30072321237725L103.41958156333287,9.467515534331966L103.4567122299385,23.391642803015117L103.59131089638392,80.92797809451707L104.05080289562862,84.0889363683554L105.12295089386622,-6.366551824241554L105.25290822698592,75.49017521168747L105.29468022691728,103.51291888866666L105.42463756003697,88.56084374643427L105.58708422643662,166.1014837970451L105.64278022634507,98.08784469687265L105.93982555919011,8.41464064083803L106.56640555816016,-57.27770950414387L106.81703755774815,10.360857500179833L107.43433489006678,149.57561208068722L107.43897622339249,136.9722986517972L108.08876288899103,53.74829805379517L108.6503642214012,122.55620747458846L108.68285355468115,70.09724096475833L109.26302022039414,43.82702589852934L109.78749088619868,49.190153793950174L109.87567621938705,208.9614261796605L110.00563355250677,123.81613574226134L110.10774288567225,152.50458996040192L110.20521088551205,35.94467790231457L110.5208215516599,62.82396083459656L110.76681221792222,44.85645878603276L111.03600955081303,-2.587403455774705L111.24022821714401,16.660180621268324L112.23347354884466,102.40106772670782L112.31701754870733,106.01548561868907L112.41912688187281,49.66684327323304L112.44697488182705,24.73812616973001L112.95288021432876,54.88390943902044L113.01785888088862,132.63520932627029L113.06891354747137,155.55735436043773L113.32418688038508,142.99509096013747L113.37524154696783,78.46190027879669L113.40308954692205,71.57864845645048L113.67692821313858,-77.69155989732289L113.80224421293258,106.42110657302322L113.90899487942377,139.27810103289443L114.23388821222305,117.36417440117106L114.33599754538854,166.99790186322656L114.48916154513677,120.29559194666757L114.60055354495367,192.3553637097784L114.78620687798183,19.10652896588354L114.8697508778445,171.45082227717737L114.89759887779871,204.75862454455907L114.91152287777582,103.9158880323684L115.26426421052933,138.79960832238152L115.26890554385504,134.58482050322158L115.48704821016311,142.07342765673542L115.63092954325994,128.4875653523231L115.75624554305395,139.9720268391847L115.77016954303106,102.78664099266092L115.79337620965957,66.25338841686056L116.12291087578456,105.49424572078163L116.1739655423673,139.6211392563036L116.4013908753268,91.5541015158787L116.66594687489193,104.96759612918407L116.8748068745486,125.29192139541277L117.06510154090245,130.7137073420226L117.1254388741366,-24.32185554389625L117.13008020746231,-26.561680876459008L117.2321895406278,75.95031739262407L117.30645087383905,115.93516668757542L117.8216388729922,136.5308252177128L117.91910687283199,106.25892183474474L118.23935887230556,94.95616241241618L118.25328287228267,165.91649348732784L118.25792420560838,141.4028377840104L118.48070820524217,130.40132404952413L118.59210020505904,67.18130999335511L119.20475620405198,64.17012598403556L119.57606287010829,98.57917217084645L119.63640020334245,48.054012046598416L119.93344553618749,88.41138769919138L120.23513220235824,159.220777712906L120.34188286884944,34.81914339749247L120.73175486820857,103.03888122001621L120.74567886818568,125.71674145872561L120.7688855348142,67.32832637481619L121.07985486763636,98.2882155082579L121.16339886749904,90.31188734323035L121.51149886692683,81.25733297506298L121.69251086662928,101.26778993483907L122.42584153209052,44.12243760298034L122.62077753177007,2.8076522396603707L122.62541886509577,43.20003179260121L122.92710553126653,-19.101076843223467L123.07562819768906,-11.361820548733789L123.17309619752884,56.55264083378637L123.20094419748305,172.90687845922363L123.93427486294428,193.20542812610526L125.04355352778752,106.13025598285998L125.10389086102168,115.47396378238585L125.26169619409562,129.57798988437202L125.37308819391251,47.7777994511261L125.43806686047236,125.64832474440931L125.56802419359207,27.97153191004591L126.09713619272232,97.21232289847461L126.25958285912196,31.37571425508932L126.431312192173,14.932791175313383L126.85367352481207,128.51981136961325L127.45704685715357,104.3790002412133L127.80514685658137,85.55602408263252L128.22286685589472,96.00585513315121L128.23679085587185,78.06847765337164L128.91906685475033,144.88275584071556L128.93763218805313,138.72397868314505L129.1372095210584,92.2226760125231L129.18826418764115,31.39841375410279L129.23467752089817,104.94648771655005L129.39248285397213,21.124450784725838L129.43889618722918,77.21756465764241L129.55957085369747,106.18583793371539L129.76843085335415,54.25489995701167L129.87518151984534,161.1890576367095L130.1118895194562,45.033811881128656L130.22328151927312,79.21522664325306L130.3114668524615,180.48023748054945L130.52960951876958,24.436031902485325L131.05408018457413,56.9247429017268L131.28150551753362,47.1777477412233L131.65745351691564,75.74941621911233L131.7085081834984,-102.24382596344833L131.80133485001247,80.86019781475255L132.14015218278885,120.04048776382928L132.40470818235397,126.1213016888068L132.90133084820428,117.81519435353215L133.55575884712854,98.62255579279275L133.736770846831,-17.508611522245786L133.87136951327642,96.41699185360079L134.27516551261266,93.56396183039845L134.49794951224646,134.0710056750849L134.50723217889785,113.64973021213514L134.6836028452746,61.169549217245674L134.7903535117658,63.448197057466984L135.11988817789077,81.02121575635277L135.77431617681503,-7.306989946921107L136.07136150966008,155.38774455238848L136.4241028424136,4.623612160737963L136.52621217557908,82.1554482000492L136.5633428421847,174.51398177489224L137.2688255076917,8.324054789634744L137.3709348408572,79.43394798421463L137.5240988406054,153.6834788951482L137.86755750670753,84.58896178120352L138.04856950640996,54.12888591575933L138.4477241724205,65.29237224367347L138.78654150519688,70.9097557425302L138.9025748383395,122.09595922122656L138.96291217157363,77.81294918083216L139.00468417150498,40.64347419810284L139.37134950423558,116.49331978948607L139.64518817045212,8.338268494624486L140.17430016958235,-8.123535476854244L140.2439201694679,104.50586286186802L140.61058550219855,68.9164427263567L141.01438150153479,62.34249809617535L141.4274601675224,47.08249470330696L141.59918950057346,116.85439032519565L141.76163616697312,102.17279986746956L142.1050948330752,109.60518863557621L142.6806201654625,125.72225722484103L142.77808816530228,61.601688277903975L142.8198601652336,75.45050412462655L142.8941214984449,98.17386943378818L143.18652549796423,6.0267382025612335L143.19116683128993,64.21849500997081L143.2561454978498,-48.359776419758504L143.82702949691136,134.62671911121373L143.8780841634941,72.30757816308864L144.3422174960645,68.0677572515587L144.65318682888667,142.28801217311042L145.58145349402744,74.9982113031619L146.17090282639185,16.916345528359585L146.17554415971756,-40.25350953374263L146.31014282616297,53.22620957648536L146.3194254928144,28.59555598806574L146.7789174920591,151.3113812482406L147.47511749091467,97.2717234566407L147.77216282375971,38.399087751252324L147.80001082371393,46.2326424318307L147.82785882366815,102.0161308953065L147.84642415697095,50.43332261842619L147.85106549029666,85.91783712531918L148.38481882275264,160.9304530638364L148.64009215566634,28.388290469036207L149.19705215475082,55.82922689326364L149.45696682099023,78.00250060483717L149.91181748690923,115.5874612774532L149.95823082016628,72.9397698178563L149.9907201534462,10.353432430409072L150.07426415330886,39.2984758453421L150.33882015287398,166.8477033090066L150.54303881920498,87.3972292409307L150.94219348521548,42.68823234054517L151.36455481785455,110.17882831158016L151.37383748450597,58.93205747803944L151.52236015092848,46.41498093091553L151.6059041507912,43.003055298825444L152.91940148196537,-20.781264059921426L153.04007614843368,116.47496925990976L153.24429481476466,115.65937838180429L153.49956814767836,86.57728939338807L153.78733081387205,171.33233937812108L153.8476681471062,76.48025522940583L154.2746708130709,184.46516635409168L154.40926947951635,103.24964712908053L154.5902814792188,62.17702511271267L155.8898548104159,170.90412499719875L156.2565201431465,47.29124523629065L156.37719480961482,83.33921646635912L156.4793041427803,114.47094292878131L156.56748947596867,160.59643099657745L156.68352280911128,19.228300110124025L156.75778414232255,93.48727146690902L156.813480142231,42.29427935299364L157.01305747523625,281.3235043548666L157.32866814138413,-41.36196637809198L157.61643080757776,104.42736926714855L158.5818281393242,67.49390543070416L158.6143174726041,5.073783533696684L158.65608947253546,101.7240074360397L158.88815613882065,191.6343894350375L158.90208013879777,101.5994784087415L158.99954813863755,24.970212636278944L159.14342947173438,13.476416775991225L159.23161480492274,146.58415754247284L159.86283613721847,75.53164952997844L160.23878413660051,28.294840662349912L160.24342546992622,30.755402711954872L160.40123080300012,78.81183320985014L161.03709346862155,151.01713634046786L161.0603001352501,99.44387458186424L161.1809748017184,174.91907236709991L161.3944761347008,140.02930594884486L161.46409613458633,100.87754948217292L161.84468546729406,41.14774250796282L162.04426280029932,85.67270375045877L162.1649374667676,38.555120288863606L162.3552321331215,147.3938083647617L162.55480946612676,-37.341078952374204L163.16746546511968,111.04225785349439L163.1999547983996,-101.48721135380777L163.21852013170243,70.20925344587152L163.69193613092423,156.84030034439996L163.87758946395238,50.16061041298866L164.31387479656854,105.54993374406234L164.3788534631284,153.92712725605446L164.4623974629911,75.98807917602966L164.65733346267064,144.31325298929818L165.9197761272621,85.57904179892188L166.16576679352443,71.11426337850202L166.7180854592832,69.4203928189408L167.56280812456131,146.7565252335798L167.73453745761236,-1.1580775249031774L168.17082279022853,3.2130610491439313L168.90879478901545,57.61782012861471L169.02946945548376,74.54209987438657L169.2151227885119,95.24255796071697L169.4286241214943,229.51157963934563L169.73031078766505,9.196924777400369L169.76280012094497,37.53449141265983L169.79993078755064,131.38652473567885L170.02271478718438,113.77425923943333L170.06448678711575,185.59409517652327L170.33832545333226,159.36185403855046L170.39866278656643,75.4362904196368L171.0716561187935,72.95684747832905L171.12735211870194,82.20212006717969L171.28051611845018,19.72684050901799L171.47545211812974,-49.11819426062911L171.7771387843005,110.13215644444966L172.12059745040258,95.24340654011934L172.33874011671068,49.67596550180855L172.64042678288143,94.64632485812484L172.77502544932682,19.84617198747665L172.83536278256096,30.91896639176221L173.15561478203458,154.0686278714001L173.16953878201167,151.82551429365316L173.36911611501694,53.04429536710171L173.59654144797642,16.46044624443485L173.85645611421586,96.13589992656483L174.46911211320875,120.13213433928553L174.5062427798144,52.87712522483429L174.5387321130943,8.982234188600074L174.9703761123848,104.99273529397936L175.02607211229324,138.0851044655837L175.11889877880733,153.9599036354711L175.64801077793757,73.90248314984814L175.66657611124037,47.14444099968017L175.7918921110344,130.21537908797922L175.80117477768582,30.529680590923732L176.21889477699915,191.5190887087401L176.54378810979844,163.17006625154858L176.66910410959244,181.01760038710196L176.70159344287237,103.21517359085914L176.71551744284946,196.25840467099167L176.8315507759921,190.76459554760547L177.46277210828782,43.01228359982625L177.88977477425257,124.46349575384642L177.9222641075325,137.92875371069653L178.33998410684586,137.87179281831226L178.38175610677717,34.12532366362748L178.43745210668564,77.48030605510206L178.52563743987403,75.72035237458107L178.60454010641098,-6.474109263492295L178.855172105999,42.32270676297313L178.91086810590744,123.37317729422278L179.02690143905002,52.20674749695985L179.19863077210107,26.323060348511632L179.46782810499192,66.16662117296795L179.6813294379743,38.081612982339635L179.76951477116268,152.37836377429898L179.8020041044426,13.220570086175854L180.015505437425,-25.870300808375845L180.2568547703616,32.66481243971876L180.2707787703387,23.914579859727297L180.43322543673833,26.44748330338453L181.03659876907986,122.75032001288122L181.27794810201644,76.50953121878769L181.28258943534215,48.25777717559316L181.38005743518195,178.28220468355354L181.63533076809566,115.1772792088313L182.0391267674319,89.53437646580636L182.0437681007576,40.660657931000884L182.22013876713436,82.74871127473301L182.38258543353396,119.70455639291498L182.42435743346533,163.0265502601223L182.60536943316777,42.58491779830629L182.83279476612728,87.43170277915209L183.08806809904098,-34.642066090702514L183.2365907654635,32.95237478469781L183.6775174314054,15.87216857373997L184.3830000969124,52.18362370824519L184.61042542987187,143.91282958380356L184.77751342959724,90.79971442716936L185.06527609579086,128.47706418221873L185.42265876187005,111.01308793653783L185.43658276184718,151.29674325354966L185.7893240946007,147.31648156672048L185.88679209444047,166.40782096130164L185.9239227610461,228.82942787226327L185.98426009428024,65.92933715757948L185.99354276093163,138.44988753617866L186.02139076088585,247.52352603410873L186.47624142680485,151.95099797277902L186.48552409345626,57.24868808858258L186.8893200927925,124.23469753248168L186.9032440927696,98.03162631146546L187.02856009256362,90.49157403168277L187.822228091259,-52.573821731941365L187.85471742453893,74.11303691406187L188.1610454240354,9.124583383348096L188.1842520906639,80.21251958589158L188.66695075653712,95.33844743318508L188.7458534230741,-59.580541857332804L189.05682275589623,101.80759250717341L189.1496494224103,126.51207250359943L189.64627208826064,-51.356322434387124L189.88762142119725,10.147227635632504L189.9572414210828,171.09325213150257L190.02686142096837,158.73825425023182L190.10112275417964,38.43674346223261L190.1614600874138,181.60015014683083L190.32390675381345,153.9131256959153L190.4120920870018,84.66353069618702L190.44458142028174,128.76271722354244L191.52601208517075,32.097537109232604L191.804492084713,9.302042550869288L191.94373208448408,-11.730952588765916L192.03191741767247,78.20488679230306L192.44499608366013,187.01472316852048L192.6260080833626,23.509171050243737L192.6445734166654,61.20168916211054L192.68634541659674,61.12181662586221L192.71419341655096,21.804587175727562L192.83022674969357,170.72178649811391L193.09478274925868,89.65635975489744L193.77241741481146,14.617543927331923L194.3108120805931,156.81484296232878L194.46397608034133,3.437828518347402L194.96988141284305,34.23542684108534L194.99772941279727,31.370198488973898L195.0395014127286,131.09821988372272L195.63823341174444,76.7545585212228L195.79603874481836,-48.55325252349948L196.13021474426904,130.38944393789092L196.98422007619857,154.02959321889097L197.07240540938696,55.324428221277174L197.2719827423922,-18.477689199755417L197.5922347418658,98.52380236484163L198.59012140689214,99.63713854075462L199.05889607278826,-11.321088737419899L199.31416940570196,7.971682192799477L199.38378940558752,55.18579156141453L199.70404140506108,73.95848939040474L199.86184673813503,52.94639051855296L200.20530540423712,79.68258174910983L200.27956673744836,-1.726307507217001L200.33062140403112,28.708310976156014L200.48842673710504,83.35014192616467L200.85973340316136,24.19959646649923L201.1428547360293,64.60226504469387L201.14749606935501,11.426036795008173L201.41669340224584,105.17231591000649L201.50952006875994,24.359659756271782L201.70909740176518,11.90739346100409L201.7323040683937,-44.543926992139035L202.0664800678444,131.3566123117452L202.72090806676866,33.12399996882769L202.82765873325982,54.7920507187136L202.83230006658553,128.316576602745L203.46352139888126,60.02396702404252L203.90908939814886,30.387543541026304L204.1829280643654,168.5201472386579L204.23398273094813,93.37377397184167L205.55212139544804,71.62404745447742L205.74241606180192,50.92571081665295L206.06730939460118,5.742464102766377L206.1972667277209,60.90670174736073L206.4339747273318,146.12263642000738L206.88418405992508,72.86286730951628L206.9213147265307,94.58395427205045L207.0280653930219,97.66450964751397L207.05127205965042,10.802649151540123L207.1301747261874,197.1217281404806L207.3668827257983,99.73069441986621L207.54325339217505,217.37593953358825L208.49008539061862,111.54376828029667L208.82426139006935,49.44674299074262L209.31160138926822,92.08860046694821L209.7153973886045,160.1904918249674L209.77109338851292,99.98526824057802L209.91961605493543,171.7982094700237L210.04957338805517,38.099008860088276L210.4533693873914,95.41078882723735L210.49978272064845,177.47891820678248L210.52763072060267,213.5909571817301L210.5461960539055,113.37595728244465L210.6900773870023,81.60068941574804L210.69936005365372,35.41855867284349L210.76433872021354,95.6425570765104L210.79218672016782,86.75952182004761L211.13100405294418,105.20169797181364L212.27741338439307,91.34704814169976L212.309902717673,104.43309717811456L212.685850717055,118.64616573330562L212.8065253835233,134.724093597636L213.22424538283664,156.52356808246435L213.34956138263067,106.85176061972737L213.67445471542996,65.52117046503821L213.9900653815778,31.537262558816025L214.06432671478908,129.62911679336497L214.37065471428554,-11.401491635794713L214.5934387139193,162.51570545989392L214.66770004713058,17.997647831833007L214.802298713576,145.89712644382683L214.91833204671858,92.28716804710342L215.006517379907,27.7853748036504L215.67486937880835,56.402972641692884L215.71200004541396,41.4375323738731L216.00904537825903,116.08759276272662L216.13436137805303,64.90425323951325L216.76094137702307,149.22896739481797L216.793430710303,78.6137959918214L216.87697471016565,176.93943385172403L217.35503204271316,75.92305677932285L217.46642404253004,177.1581551926856L217.51283737578711,79.7610753438293L217.57781604234697,78.10167832248948L217.8655787085406,67.88414588337031L218.18118937468847,7.915039517691099L218.30650537448247,177.23696700468096L218.61283337397893,5.57603646747603L218.6731707072131,101.43708152561243L218.8216933736356,38.52881432739005L218.90523737349827,93.25200282760119L218.95165070675534,64.71247429457702L219.0491187065951,138.40480675542761L219.55502403909685,34.91429036298351L219.8799173718961,81.21447971524316L220.3347680378151,-24.59721955996619L220.87780403692247,112.66739348146344L221.0541747032992,91.58178641888111L221.20733870304744,70.09342235744765L221.2862413695844,104.03935633541363L221.46725336928688,31.524427795355138L222.59045603410723,72.88673360520801L222.66471736731847,49.01948326164796L223.33306936621983,66.45216814186637L223.57441869915644,43.23545998265027L223.7786373654874,-0.9519788025519063L223.94108403188704,30.298230558926576L224.08032403165817,50.76914791691519L224.19171603147507,128.44746997556098L224.30310803129197,28.517274538196858L224.3402386978976,68.55834221855542L224.39129336448033,-86.29520038555444L224.39593469780604,-37.80599439244915L224.67441469734828,81.25860584416654L224.79973069714228,60.228686804864935L224.8182960304451,-70.22766761890315L224.88791603033067,14.028629822085264L225.00859069679896,33.386847438712635L225.0596453633817,152.3710447769535L225.11070002996445,-44.977338921900895L225.26386402971266,99.19142220965836L225.65837736239752,50.312506126013375L225.9043680286598,5.771740092148235L225.92293336196263,32.051501676653885L225.9832706951968,77.66232633691101L226.3545773612531,199.98578969591378L226.37314269455592,94.23550635495116L226.49845869434995,105.73290867769896L226.54023069428126,80.9459043343922L226.9440266936175,81.91508808432712L226.97651602689743,33.78472510600014L227.1807346932284,59.61643676605303L227.42672535949072,140.8398053505361L227.58917202589035,19.301914373279857L227.60773735919315,118.38840973983491L227.8908586920611,61.08532771156018L228.3410680246544,93.12535235179706L228.51743869103115,149.1627782014329L228.7309400240135,-29.197898862355117L228.73558135733924,70.16364230299399L228.74950535731634,55.54092204130751L229.00942002355575,85.1305675847679L229.3992920229149,45.77737958245774L229.51068402273177,251.01394526091826L229.73810935569128,20.19875672916251L229.80308802225113,58.47583997683881L230.49000535445532,122.83231399763548L230.6292453542264,-8.57635866044538L230.90308402044295,79.94818710205249L231.13979202005387,51.15344831376473L232.09590668514886,54.528142524575685L232.13767868508023,58.907660820221224L232.2305053515943,106.53958947207951L232.3743866846911,40.228731015193176L232.3836693513425,64.1970683800609L233.01024935031256,87.33973798641995L233.17733735003787,-13.718219476697499L233.38155601636888,110.51295645126442L233.6553946825854,139.21806404017656L233.71109068249385,26.31722636512032L234.23556134829838,60.67525171536357L234.40729068134945,-38.41824443126106L234.55117201444625,206.37591081305615L234.7136186808459,10.81983288443817L235.4098186797015,3.568191529036909L235.4515906796328,45.13076207784974L235.57690667942683,205.52616461400518L235.71614667919795,130.87886210820938L235.87395201227187,64.82024387867835L236.08281201192858,67.38486297749927L236.1199426785342,87.75851192149088L236.2499000116539,-36.153067789052415L236.77437067745845,29.28767856312598L236.8486320106697,104.25722909697282L236.9553826771609,-33.33695096985329L237.13639467686335,50.64907393147945L237.21529734340032,65.5805710232043L237.61445200941085,41.58698842111599L237.6562240093422,40.682402778186685L237.81402934241612,81.74059894471424L238.29208667496366,18.623581213508174L238.3477826748721,117.20209573531787L238.52879467457453,58.66952822543038L238.77014400751113,114.20173111337857L240.10684800531388,-2.599601784683813L240.20431600515366,166.03359744485527L240.85874400407792,53.7908330963391L241.05832133708316,73.2536381243089L241.30431200334547,76.42647650978046L241.3368013366254,50.940560956194474L241.4296280031395,90.1022882308443L241.54566133628208,67.76046543547449L241.5503026696078,38.52690502373471L241.96802266892115,81.34293342227733L242.20937200185773,52.194124878349555L242.48785200139997,86.77087156955434L242.52034133467993,148.25437395119292L242.65494000112534,144.17037343242367L242.90093066738766,91.0348769940519L242.91949600069046,4.719501633206079L242.9798333339246,36.688139531218354L243.04481200048446,170.5172788621421L243.15620400030136,112.18158177360506L243.2119000002098,119.16793599333954L243.36042266663236,178.1746472443028L243.39291199991226,80.21294387559277L243.4578906664721,49.052683930765795L243.98236133227667,21.15393891895829L244.0334159988594,-54.834437259862256L244.06126399881362,-36.5918894125044L244.2515586651675,13.316883848345157L244.27012399847032,48.299357566309425L244.33510266503015,45.334845424120374L244.44185333152134,89.60852109108868L244.93383466404597,132.87578158684295L245.13341199705124,92.0233659253908L245.3376306633822,-33.53509426030732L245.4211746632449,164.40262783349493L245.49543599645614,140.63264590393186L245.6346759962273,118.00506399481304L245.95492799570084,108.57840755870524L246.53509466141384,147.2509288078872L246.7346719944191,-21.728384745394663L246.74395466107052,13.469203851071057L246.91568399412154,194.62573790082658L246.92032532744724,135.32860034940126L246.9667386607043,182.6551464888307L247.00386932730993,101.61570748981188L247.11990266045254,97.95663310678077L247.50513332648595,137.3204283516206L247.52833999311446,115.16741447327871L247.59795999300005,8.256592727146113L248.4983786581866,51.4993504926569L249.13888265713373,115.40544099564426L250.122845322183,122.9965141119946L250.4848693215879,47.18050562428101L250.66123998796465,-67.89375604510232" fill="none"></path></g></g></g></g></g></g><g transform="translate(51, 177)" clip-path="url(#clip_1)"><clipPath id="clip_1"><rect width="278" height="22"></rect></clipPath><g><g><line x1="0" y1="0" x2="0" y2="5" style="visibility: inherit;" fill="rgb(0, 0, 0)" stroke="rgb(204, 204, 204)" stroke-width="1px"></line><line x1="23.20666662851969" y1="0" x2="23.20666662851969" y2="5" style="visibility: inherit;" fill="rgb(0, 0, 0)" stroke="rgb(204, 204, 204)" stroke-width="1px"></line><line x1="46.41333325703938" y1="0" x2="46.41333325703938" y2="5" style="visibility: inherit;" fill="rgb(0, 0, 0)" stroke="rgb(204, 204, 204)" stroke-width="1px"></line><line x1="69.61999988555908" y1="0" x2="69.61999988555908" y2="5" style="visibility: inherit;" fill="rgb(0, 0, 0)" stroke="rgb(204, 204, 204)" stroke-width="1px"></line><line x1="92.82666651407877" y1="0" x2="92.82666651407877" y2="5" style="visibility: inherit;" fill="rgb(0, 0, 0)" stroke="rgb(204, 204, 204)" stroke-width="1px"></line><line x1="116.03333314259848" y1="0" x2="116.03333314259848" y2="5" style="visibility: inherit;" fill="rgb(0, 0, 0)" stroke="rgb(204, 204, 204)" stroke-width="1px"></line><line x1="139.23999977111816" y1="0" x2="139.23999977111816" y2="5" style="visibility: inherit;" fill="rgb(0, 0, 0)" stroke="rgb(204, 204, 204)" stroke-width="1px"></line><line x1="162.44666639963788" y1="0" x2="162.44666639963788" y2="5" style="visibility: inherit;" fill="rgb(0, 0, 0)" stroke="rgb(204, 204, 204)" stroke-width="1px"></line><line x1="185.65333302815753" y1="0" x2="185.65333302815753" y2="5" style="visibility: inherit;" fill="rgb(0, 0, 0)" stroke="rgb(204, 204, 204)" stroke-width="1px"></line><line x1="208.85999965667725" y1="0" x2="208.85999965667725" y2="5" style="visibility: inherit;" fill="rgb(0, 0, 0)" stroke="rgb(204, 204, 204)" stroke-width="1px"></line><line x1="232.06666628519696" y1="0" x2="232.06666628519696" y2="5" style="visibility: inherit;" fill="rgb(0, 0, 0)" stroke="rgb(204, 204, 204)" stroke-width="1px"></line><line x1="255.27333291371662" y1="0" x2="255.27333291371662" y2="5" style="visibility: inherit;" fill="rgb(0, 0, 0)" stroke="rgb(204, 204, 204)" stroke-width="1px"></line><line x1="278.4799995422363" y1="0" x2="278.4799995422363" y2="5" style="visibility: inherit;" fill="rgb(0, 0, 0)" stroke="rgb(204, 204, 204)" stroke-width="1px"></line></g><g transform="translate(0, 8)"><text style="text-anchor: middle; visibility: hidden; font-family: &quot;Helvetica Neue&quot;, sans-serif; font-size: 12px; font-weight: 200;" x="0" y="0" dx="0em" dy="0.95em" fill="rgb(50, 49, 63)" stroke="none" stroke-width="1px">-50k</text><text style="text-anchor: middle; visibility: hidden; font-family: &quot;Helvetica Neue&quot;, sans-serif; font-size: 12px; font-weight: 200;" x="23.20666662851969" y="0" dx="0em" dy="0.95em" fill="rgb(50, 49, 63)" stroke="none" stroke-width="1px">0</text><text style="text-anchor: middle; visibility: hidden; font-family: &quot;Helvetica Neue&quot;, sans-serif; font-size: 12px; font-weight: 200;" x="46.41333325703938" y="0" dx="0em" dy="0.95em" fill="rgb(50, 49, 63)" stroke="none" stroke-width="1px">50k</text><text style="text-anchor: middle; visibility: hidden; font-family: &quot;Helvetica Neue&quot;, sans-serif; font-size: 12px; font-weight: 200;" x="69.61999988555908" y="0" dx="0em" dy="0.95em" fill="rgb(50, 49, 63)" stroke="none" stroke-width="1px">100k</text><text style="text-anchor: middle; visibility: hidden; font-family: &quot;Helvetica Neue&quot;, sans-serif; font-size: 12px; font-weight: 200;" x="92.82666651407877" y="0" dx="0em" dy="0.95em" fill="rgb(50, 49, 63)" stroke="none" stroke-width="1px">150k</text><text style="text-anchor: middle; visibility: hidden; font-family: &quot;Helvetica Neue&quot;, sans-serif; font-size: 12px; font-weight: 200;" x="116.03333314259848" y="0" dx="0em" dy="0.95em" fill="rgb(50, 49, 63)" stroke="none" stroke-width="1px">200k</text><text style="text-anchor: middle; visibility: hidden; font-family: &quot;Helvetica Neue&quot;, sans-serif; font-size: 12px; font-weight: 200;" x="139.23999977111816" y="0" dx="0em" dy="0.95em" fill="rgb(50, 49, 63)" stroke="none" stroke-width="1px">250k</text><text style="text-anchor: middle; visibility: hidden; font-family: &quot;Helvetica Neue&quot;, sans-serif; font-size: 12px; font-weight: 200;" x="162.44666639963788" y="0" dx="0em" dy="0.95em" fill="rgb(50, 49, 63)" stroke="none" stroke-width="1px">300k</text><text style="text-anchor: middle; visibility: hidden; font-family: &quot;Helvetica Neue&quot;, sans-serif; font-size: 12px; font-weight: 200;" x="185.65333302815753" y="0" dx="0em" dy="0.95em" fill="rgb(50, 49, 63)" stroke="none" stroke-width="1px">350k</text><text style="text-anchor: middle; visibility: hidden; font-family: &quot;Helvetica Neue&quot;, sans-serif; font-size: 12px; font-weight: 200;" x="208.85999965667725" y="0" dx="0em" dy="0.95em" fill="rgb(50, 49, 63)" stroke="none" stroke-width="1px">400k</text><text style="text-anchor: middle; visibility: hidden; font-family: &quot;Helvetica Neue&quot;, sans-serif; font-size: 12px; font-weight: 200;" x="232.06666628519696" y="0" dx="0em" dy="0.95em" fill="rgb(50, 49, 63)" stroke="none" stroke-width="1px">450k</text><text style="text-anchor: middle; visibility: hidden; font-family: &quot;Helvetica Neue&quot;, sans-serif; font-size: 12px; font-weight: 200;" x="255.27333291371662" y="0" dx="0em" dy="0.95em" fill="rgb(50, 49, 63)" stroke="none" stroke-width="1px">500k</text><text style="text-anchor: middle; visibility: hidden; font-family: &quot;Helvetica Neue&quot;, sans-serif; font-size: 12px; font-weight: 200;" x="278.4799995422363" y="0" dx="0em" dy="0.95em" fill="rgb(50, 49, 63)" stroke="none" stroke-width="1px">550k</text></g><line x1="0" y1="0" x2="278.4799995422363" y2="0" fill="rgb(0, 0, 0)" stroke="rgb(204, 204, 204)" stroke-width="1px"></line></g></g></g></g></svg>